<svg xmlns="http://www.w3.org/2000/svg" viewBox="0 0 1065.61 595.75"><defs><style>.cls-1{fill:#48ae83;}.cls-2{fill:#ffc5ae;}.cls-3{fill:#ffb69f;}.cls-4{fill:#fff;}.cls-5{fill:#fccb3f;}.cls-6{fill:#f9ce89;}.cls-7{fill:#f2ad51;}</style></defs><title>generosite</title><g id="Calque_2" data-name="Calque 2"><g id="calque_1-2" data-name="calque 1"><g id="_Groupe_" data-name="&lt;Groupe&gt;"><path id="_Tracé_" data-name="&lt;Tracé&gt;" class="cls-1" d="M616.56,99.23,611.5,75.06c-.1-.5,8.94-23.25,9-23.37l4.07-6.59c.33-.54,19.74-6.84,20.48-5.79l9.21,12.9c.19.26,12.18,7,13.09,5.73L674.65,48c.41-.56-.51-14.29.75-14.74l11.4-4.13c.64-.23,26,8,26,8S740.71,46.71,741,47.46c0,0,13,31.36,13.8,31.64l27.46,10.06c.32.11,28.27,1.38,28.51,2.67,0,0,3.21,16.84,3.47,17.18l23,65.84c1.93,4.46,11.92,3.33,11.92,3.33a8.39,8.39,0,0,1,5.22-1.32s31.66,3.34,32.47,4.8c0,0,11.14,19.08,12.4,19.46,0,0,19,6.28,19.65,7.27,0,0,12.75,18.07,14.66,17.94,0,0,33-7,34.51-5.18,0,0,11.34,12.89,12.63,13.08,0,0,37.21,5.69,38,6.6,0,0,6.61,10.63,4.65,12.36,0,0-9.55,10.74-8.19,12.69,0,0,5.75,9,5.63,10.07,0,0-3.49,16.35-5.89,16.59l-19.35,7.63a4.87,4.87,0,0,1-4.09,4.49s-25.07,5.11-25.83,6c0,0-7,7.67-8.51,7.77,0,0-21.07,1.73-21.94,2.56,0,0-10.9,12.16-9.95,14,0,0,9.81,15.59,12.11,15.11l17.71-3.67c2.43-.5,8,8.33,7.68,8.54-.52.33-41.21,13.59-49.53,16.29-1,.32-10.5-1.82-10.5-1.82a4.75,4.75,0,0,1-3.43-6.34s-.16-6.54-3.09-7.26c-6.58-1.62-16.64-4.17-15.87-4.4S890.38,344.85,896,341c2.31-1.6-1.68-8.77-3.36-8.66l-41.28-9.24c-2-.86-18.5,13.75-18.5,13.75-.69.68-13.76,25.55-13.76,25.55-.49.95-15.23,7.75-15.23,7.75-1.57.68-5.86,28.94-6.42,29.62,0,0-14.81,20.39-13.25,22.06,0,0,6.05,10.84,3.14,12.17l-.16.07c-.84.39-20.33.18-21,2.38,0,0-8.24,22.91-10.45,22.89l-24.83-.15c-.48,0-15.74,4.26-15.74,4.26a4.52,4.52,0,0,0-2.11,7.62h0a4.48,4.48,0,0,1-1.34,7.32l-7.29,3.44a5.1,5.1,0,0,1-5.67-.88L685,467.82l-3,9.25,17.68,23.74,20,14a7.61,7.61,0,0,1,2.7,3.38l2.21,5.58a7.3,7.3,0,0,1-3.76,9.23s-8.3,3.36-10.16,2.94h0c-6-1.34-11.21,4-9.38,9.49L699.93,563a8.26,8.26,0,0,1-6.16,8h0a9,9,0,0,1-8.92-2.29l-19.36-19.8-11.73-22.49.32-6.87-16.93-26L624.26,477.4l-14.08-6.82,3.72-31.34L584,414.91l-29.12-15.12L523.41,382.1l-14.79-18.17a6.34,6.34,0,0,0-10.35.89h0c-2.36,4.36-16.66,3-16.66,3-4.7-1.76-6.06-11.17-6.06-11.17.82-3-2.78-5.39-5.52-3.63l-9.36,6a7,7,0,0,0-2.87,8.37l6.6,17.26L497,410.12,517,437.21l22.22-.59c3.2-.09,14.71,13.31,14.71,13.31l36.64,18.49a7.66,7.66,0,0,1,4.21,8.36h0c-1.18,5.65-8.22,8.19-13.08,4.71,0,0-14.3-6.28-17.48-3.29l2.95,20.26a8.57,8.57,0,0,1,0,11s-21.6,23.59-23.95,22.52h0a5.56,5.56,0,0,0-7.81,3.77l-2.85,15a8.54,8.54,0,0,1-8.93,6.7s-13-.9-14.14-1.54l-32.75-17.67a7.31,7.31,0,0,1-1.83-11.74l.34-.33a10.29,10.29,0,0,1,8.75-2.8L508.17,527l21.35-5.82a13.84,13.84,0,0,0,7.86-5.53s7-15.82,4.26-20.71l-8.42-15-25.05-18-12.51-12-19.15,2.4-36.92-28.95-24-31.7-18.76-9.78a12.09,12.09,0,0,0-10.67-.21l-25.49,12L331.51,412,302,403.48s-21.76-.21-23.8,4.21c0,0-9.57,36.39-11.58,38.14,0,0-41.86,18.51-43.63,21.11L209.33,487c-2.36,3.47,3.73,16.65,3.73,16.65,2.39,3.43-13.62,31.63-13.62,31.63-1.3,1.92-19.76,9.2-19.76,9.2-2.41.85-13.12,12-17.41,11.61l-28-2.3c-2-.17-35.59,14.79-35.59,14.79-4.55,2.1-84.94-67.12-82.95-71.31,0,0,16.52-35.88,16.39-37.6l-5.77-46.22a10.33,10.33,0,0,1,7-12.69l21.12-7.06c1.78-.6,31.57,3.74,31.57,3.74.57.1,53.9.86,53.9.86.85,0,23.85,5.34,23.85,5.34,2.59.61,13.88-3.77,13.88-3.77a10.43,10.43,0,0,0,6-8.52l2.81-34.8c.15-1.86,2-5.18,2-5.18a10,10,0,0,0,1.73-8.21l-21.24-21.71.08-4.7a10.19,10.19,0,0,0-7.41-9.78l-24.84-7.63c-1.21-.38-9.13-.28-9.13-.28-4.24.16-11.14-7.67-11.14-7.67-3.06-5.84.43-12.85,7.15-14.35l22-4.91a11.28,11.28,0,0,1,8.39,1.4s7.67,4,9.87,4c0,0,17.78-5.85,16.75-11.9h0L177,261.21c-3.73-4.53-.22-11.11,5.85-11h.21c2.41,0,13.63,11,13.63,11s20.39-4.3,22.16-5.45l21.56-14.1L268.77,211l21.7-32.82,41.82-20.46,44.36-12-3.13-21.94-17.29-19.08s7.2-29.85,7.53-30.36c0,0,8.78-13,9.7-13.47l31.61-15.5a5.84,5.84,0,0,1,8.22,3.92s0,2.68-.76,3.82l-9.31,14.35c-1,1.51,1.95,10.11,1.95,10.11.57,1.26,4.51,3.48,4.51,3.48C414.11,83,411,92.86,411,92.86l-6.76,2.25-7.59,9.11a11.39,11.39,0,0,0-1,13.33l4.83,7.94,3.81,11.06,18.76-.83,9.09,5.81,22.57-11.89,19,10,7.63,10,9.38.55,9.38-13.55,74-17.53c1.3.39,1.61,6.13,1.61,6.13-.14,1.31,11.75,5.44,11.75,5.44.9.24,12.08-7.6,12.71-7.62l46.66-1.53c1.66,0,.75-13.93-.39-14.23"/><path id="_Tracé_2" data-name="&lt;Tracé&gt;" class="cls-1" d="M25.56,158.53l-13-6.12c-1.42-.66,3.11-24.52,5.27-23.91l26.51-1.66a3.38,3.38,0,0,0,1.3-5.45h0a3.36,3.36,0,0,1,1-5.33l20-10.23c1.38-.7,7.85,3.6,7.85,3.6.71.6,12.35.63,12.35.63,1.27,0,13.82,16.53,13.82,16.53,1,1.39-14.35,17.2-14.35,17.2-.84.78,4,29.72,4,29.72.22,1-13.8,18.44-14.66,18.61,0,0-30,6-30.15,6.07L21,206.2c-1.12.37-18.5-10.55-18.5-10.55-.81-.54-2.5-8.11-2.5-8.11C-.2,186.33,27.92,159.65,25.56,158.53Z"/><path id="_Tracé_3" data-name="&lt;Tracé&gt;" class="cls-1" d="M96.49,242.23s19.93-12.68,20.1-12.87c0,0,11.11-12.46,11.84-12.5l18.6-1.07c1.49-.08,1.46-5.49.43-5.76,0,0-27-6.92-27.29-6.89l-13.07,1.08c-1.22.1-3.64-7.93-2.35-8.4l18.62-6.72c.95-.34-4.73-18.84-2.57-20.38L132,160.81c.27-.19,15.65-4.78,15.64-5.91l-.17-14c0-.67-17-21.37-18.52-21.21,0,0-21.51.42-20.82-1.31l6.45-16.12c.28-.71-5.61-7.77-6.81-6.65l-7.16,6.66c-1.76,1.64-4.72.27-4.42-2l3.18-24.49A2.43,2.43,0,0,0,98,73.27l-9.08-4.54c-1.39-.69,2.44-9.48,1.59-10.33l-7.75-7.81c-1.11-1.12,5.79-7,5.79-7,.56-.34,9,.15,9.54-.81,0,0,12.51-21.62,13.54-21.57l11.84.63c.23,0,16-3.07,16-3.07,1.22-.24,5.43,8.32,4.82,9L132.73,41.15c-1.49,1.71,31.16,4.21,31.54,5.15,0,0,2.78,7.88,2.29,8.55,0,0-21.75,29.83-21.82,30,0,0-1,7.17.72,7.27,0,0,15.9,1.23,16.36,1.79,0,0,14.17,17.37,14.25,17.73,0,0,4.41,16.54,5.39,16.76,3.67.79,12.39,2.72,12.86,3.15s12.29,18.34,11.93,19.1c0,0-1.32,4.23-.62,5,0,0,6.54,8.2,5.63,9.14,0,0-4.15,6.28-2.78,7.11l4.53,2.71c.87.53,11.91-5.78,11.91-5.78.55-.35,18.54,3,18.68,4,0,0,1.69,16.56,1,17.1l-20.23,15.53c-1.4,1.08,3.45,5.58,4,5.52l8.36-.86c1.24-.13,3.18,5.54,2.16,6.12,0,0-16.09,9.15-16.52,9.17L170.21,231c-.58.46-24.53-2.29-25.1-1.53,0,0-6.13,8.35-6.19,8.73l-.54,3.32c-.2,1.24-9.51,1.73-9.86,1.56,0,0-9.54-4.24-10.34-3.76l-13.89,9.22C103.45,249.33,94.9,243.24,96.49,242.23Z"/><path id="_Tracé_4" data-name="&lt;Tracé&gt;" class="cls-1" d="M404.32,458.25s6,12.06,5.7,13.6l-4.22,23c-.39,2.14-8.43,7.46-8.43,7.46-4.64,2.43-10.43-.27-11.2-5.23L378,467C374.37,452.17,402.79,455.44,404.32,458.25Z"/><path id="_Tracé_5" data-name="&lt;Tracé&gt;" class="cls-1" d="M386.38,438.66l-5-10.08c-.66-1.33,9.72-11.49,9.72-11.49.9-.76,6.84-3.22,7.13-5.38a3.46,3.46,0,0,1,3.41-2.93h0a3.4,3.4,0,0,1,3.55,4.17L403,420.87c-.13.51,1.92,10,1.92,10,.14.63-5.61,15.55-5.61,15.55-.54,1.36-12.64.33-12.64-1.45C386.71,445,386.6,439.1,386.38,438.66Z"/><path id="_Tracé_6" data-name="&lt;Tracé&gt;" class="cls-1" d="M713.55,582.49s.42,5.56,3.25,5.83l15.55,1.47c1.6.15,3.82,3.37,3.82,3.37a4.22,4.22,0,0,0,4.46,2.56L771.09,592c2.57-.31,3.46-5.06,3.46-5.06a4.17,4.17,0,0,0-3.91-2.78l-52.7-4A4.23,4.23,0,0,0,713.55,582.49Z"/><path id="_Tracé_7" data-name="&lt;Tracé&gt;" class="cls-1" d="M636.17,522.86c-.36,1,9.48,12.63,9.48,12.63.68.74,2.77,1,2.77,1A3,3,0,0,0,651,532.1l-3.12-5.73c-.17-.32-1.86-13-1.86-13a3.06,3.06,0,0,0-1.27-2.07h0C643,510,636.17,522.86,636.17,522.86Z"/><path id="_Tracé_8" data-name="&lt;Tracé&gt;" class="cls-1" d="M421.88,96.62s9.21-1.31,9.63-2.06c0,0,3.07-4.7,3.88-4.84,0,0,11.46-1.13,11.93,0,0,0,2.62,8,2,8.68l-4,4.46c-1,1.15.52,3.74.52,3.74a2.48,2.48,0,0,1-.17,4.29s-5.72,3.85-5.64,4.82l.39,4.77c0,.54-1.93,3.87-2.13,4.15s-14.55,2.56-15.13,2.19l-4.88-3.07c-1.36-.85,4.66-9.45,4.66-9.45.35-.39-3-8.76-3.09-9.67l-.42-5.31A2.6,2.6,0,0,1,421.88,96.62Z"/><path id="_Tracé_9" data-name="&lt;Tracé&gt;" class="cls-1" d="M406.72,101.86a5.29,5.29,0,0,1,4.18,2.67l2.74,5a4.83,4.83,0,0,1-1.59,6.34l-2.44,1.67a5.56,5.56,0,0,1-6,.13l-3.94-2.45a4.83,4.83,0,0,1-1.69-6.64l2.59-4.3C401.58,102.54,406.72,101.86,406.72,101.86Z"/><path id="_Tracé_10" data-name="&lt;Tracé&gt;" class="cls-1" d="M465.82,131.11l2,.47a5,5,0,0,0,5.2-1.83l.61-.83a4.41,4.41,0,0,0-.84-6.13l-.4-.32a5.11,5.11,0,0,0-4.7-.86l-2.17.68a4.88,4.88,0,0,0-2.28,1.51h0A4.52,4.52,0,0,0,465.82,131.11Z"/><path id="_Tracé_11" data-name="&lt;Tracé&gt;" class="cls-1" d="M491.34,111.13s.05,5.28,5.47,5.28a3.27,3.27,0,0,0,3.4-2.63,3.1,3.1,0,0,0-.32-2.15s-3.24-4.43-4.54-4.43C495.35,107.2,490.9,109.1,491.34,111.13Z"/></g><g id="_Groupe_2" data-name="&lt;Groupe&gt;"><g id="_Groupe_3" data-name="&lt;Groupe&gt;"><path id="_Tracé_12" data-name="&lt;Tracé&gt;" class="cls-2" d="M512.46,254.28s-9-20.77-37.47-19.31c0,0-33.89.73-32.07,37.17,0,0,4.52,42.55,70.23,82.86Z"/><path id="_Tracé_13" data-name="&lt;Tracé&gt;" class="cls-3" d="M512.48,254.44s9-20.77,37.47-19.31c0,0,33.89.73,32.07,37.17,0,0-4.52,42.55-70.23,82.86Z"/></g><path class="cls-4" d="M369,275.59s-1.37-1-1.16-2.07c0,0,1-3.07-3.47-5.23,0,0-4.27-1.81-7.3,1.18a18.76,18.76,0,0,0-1.84,2.3,7.28,7.28,0,0,1-3,2.8,7.57,7.57,0,0,0-2.12,1.43,31.06,31.06,0,0,1-6.69-12.43s-1.19-6.69-11.29-12.47c0,0-13.42-8.7-19.77-20a.86.86,0,0,0-1.24-.68s-1.73,2.08,2.15,9c0,0-1.66-.9-2.91-4.57,0,0-.83-1.6-1.8.83a5.44,5.44,0,0,0,.83,4.57,4.16,4.16,0,0,1-1.8-2s-.7-1.38-1.6.49c0,0-2.61,14,5.78,32.18a35.77,35.77,0,0,1-4.17-3.05,112,112,0,0,1-7.44-8.66s-1.06-1.87-2.56-1.12c0,0-2,1.43,1.62,7.16a22,22,0,0,1-3.36-2.8s-1.62-1.5-2.86-.38c0,0-1.81,2.31,2.36,5.86a3.23,3.23,0,0,1-1.93-.87s-1-.88-2.05.55c0,0,7.35,34.34,41.06,24a20.45,20.45,0,0,0-2.4,4.54s-1.27,3.78-2.94,5c0,0-13.3,9.72-11.73,16.58,0,0-.1.39-.93.74a1.18,1.18,0,0,0,.44,1.91,2.46,2.46,0,0,0,1.62,0s-1.33,1.28.1,2.16c0,0,1,.44,2.65-.74,0,0,.93,2,3.78-1.81,0,0,7.5-3,10.15-14.23,0,0,.44-1.82,4.71-1.63a64,64,0,0,1,7-1.38s1-.43.86.43a.71.71,0,0,1-.61.62,1.21,1.21,0,0,0,0,1.54s.31,1,2.15-1.3a2.5,2.5,0,0,0,.56-1.72s0-.43.68-.86c0,0,.86-.87-.68-2.16a2.46,2.46,0,0,0-2-.37,13,13,0,0,1,6-3.63,13.37,13.37,0,0,0,9.12-8.07s.49-.8,1.29-6c0,0,.31-4.5,3.51-5.79a1.83,1.83,0,0,0,1.78,1,1.79,1.79,0,0,1,1.46.36s.5.67.94.43C370,277.22,370.33,276.46,369,275.59Z"/><path class="cls-4" d="M629.7,221.22s1.37-1,1.16-2.07c0,0-1-3.06,3.47-5.22,0,0,4.26-1.81,7.3,1.18a18.24,18.24,0,0,1,1.84,2.29,7.28,7.28,0,0,0,3,2.8,7.32,7.32,0,0,1,2.11,1.44,31.15,31.15,0,0,0,6.7-12.43s1.19-6.7,11.28-12.48c0,0,13.43-8.69,19.78-20a.86.86,0,0,1,1.24-.68s1.73,2.08-2.15,9c0,0,1.66-.9,2.91-4.57,0,0,.83-1.59,1.8.83a5.46,5.46,0,0,1-.83,4.58,4.21,4.21,0,0,0,1.8-2s.7-1.39,1.6.48c0,0,2.61,14-5.79,32.18a35,35,0,0,0,4.18-3.05,112,112,0,0,0,7.44-8.66s1.06-1.87,2.55-1.12c0,0,2,1.43-1.61,7.16a21.27,21.27,0,0,0,3.36-2.8s1.62-1.5,2.86-.37c0,0,1.81,2.3-2.36,5.85a3.23,3.23,0,0,0,1.93-.87s1-.88,2,.56c0,0-7.35,34.33-41.06,24a20.35,20.35,0,0,1,2.4,4.55s1.27,3.77,2.94,5c0,0,13.3,9.72,11.73,16.58,0,0,.1.4.93.74a1.18,1.18,0,0,1-.44,1.91,2.46,2.46,0,0,1-1.62,0s1.32,1.28-.1,2.16c0,0-1,.44-2.65-.73,0,0-.93,2-3.78-1.82,0,0-7.5-3-10.15-14.23,0,0-.45-1.82-4.71-1.63a64,64,0,0,0-7-1.38s-1-.43-.87.43a.72.72,0,0,0,.62.62,1.21,1.21,0,0,1,0,1.54s-.31,1-2.16-1.3a2.51,2.51,0,0,1-.55-1.72s0-.43-.68-.86c0,0-.86-.87.68-2.16a2.49,2.49,0,0,1,2-.37,13,13,0,0,0-6-3.63,13.32,13.32,0,0,1-9.12-8.07s-.49-.8-1.29-6c0,0-.31-4.49-3.51-5.79a1.83,1.83,0,0,1-1.78,1,1.79,1.79,0,0,0-1.46.36s-.5.67-.94.43C628.76,222.85,628.41,222.1,629.7,221.22Z"/><path class="cls-4" d="M620.78,380.83s.65-.69.43-1.24c0,0-.83-1.58,1.39-3.19a3.92,3.92,0,0,1,4.09-.06,9.78,9.78,0,0,1,1.23,1.08,4,4,0,0,0,1.9,1.23,4.27,4.27,0,0,1,1.29.58,17.36,17.36,0,0,0,2.45-7.42s0-3.77,4.94-7.89c0,0,6.48-6,8.84-12.84a.48.48,0,0,1,.61-.49s1.14,1-.3,5.12a4.44,4.44,0,0,0,1.14-2.78s.3-.95,1.07.28a3.06,3.06,0,0,1,0,2.58,2.3,2.3,0,0,0,.79-1.27s.25-.83.92.11c0,0,2.78,7.39,0,18.1a20.51,20.51,0,0,0,2-2.07,62.88,62.88,0,0,0,3.22-5.44s.39-1.12,1.28-.86c0,0,1.22.59-.19,4.06a11.86,11.86,0,0,0,1.56-1.85s.74-1,1.53-.48c0,0,1.2,1.08-.73,3.42a1.79,1.79,0,0,0,1-.66s.46-.58,1.17.1c0,0-.69,19.42-20.06,17a11.29,11.29,0,0,1,1.75,2.25,7.27,7.27,0,0,0,2.09,2.44s8.18,4,8,7.9c0,0,.09.21.58.32a.65.65,0,0,1-.06,1.08,1.35,1.35,0,0,1-.88.16s.85.57.16,1.18c0,0-.52.34-1.52-.14,0,0-.31,1.19-2.23-.62,0,0-4.39-.94-6.91-6.78,0,0-.42-.95-2.73-.43a35,35,0,0,0-4-.07s-.58-.14-.43.32a.4.4,0,0,0,.4.27.68.68,0,0,1,.15.84s-.07.6-1.3-.5a1.37,1.37,0,0,1-.47-.88s0-.24-.45-.41c0,0-.56-.38.16-1.24,0,0,.24-.35,1.07-.4a7.26,7.26,0,0,0-3.61-1.4,7.37,7.37,0,0,1-5.75-3.52,13.15,13.15,0,0,1-1.28-3.13s-.6-2.42-2.47-2.81a1,1,0,0,1-.87.73,1,1,0,0,0-.76.34s-.21.42-.47.33C620.43,381.81,620.16,381.43,620.78,380.83Z"/><path id="_Tracé_14" data-name="&lt;Tracé&gt;" class="cls-2" d="M451.85,366.9a3.45,3.45,0,0,0-6.6,1.06,3.45,3.45,0,0,0-6,3,2.46,2.46,0,0,0,.09.34c1.27,4,6.77,4.32,9,6.54h0c.57-3.12,4.87-6.57,3.6-10.56A2.53,2.53,0,0,0,451.85,366.9Z"/><path id="_Tracé_15" data-name="&lt;Tracé&gt;" class="cls-2" d="M381.69,217.12a3,3,0,0,0-4.9-3.26,3,3,0,0,0-5.63-1.7,2.34,2.34,0,0,0-.15.27c-1.57,3.34,1.78,6.84,1.92,9.63h0c2.23-1.67,7.07-1.31,8.64-4.65A1.78,1.78,0,0,0,381.69,217.12Z"/><path id="_Tracé_16" data-name="&lt;Tracé&gt;" class="cls-2" d="M371.27,367.49a2.52,2.52,0,0,0-3.95-2.85,2.51,2.51,0,0,0-4.6-1.57,1.59,1.59,0,0,0-.13.22c-1.4,2.71,1.26,5.71,1.29,8h0c1.89-1.31,5.88-.86,7.28-3.57A2.56,2.56,0,0,0,371.27,367.49Z"/><path id="_Tracé_17" data-name="&lt;Tracé&gt;" class="cls-2" d="M527.93,431.92a8.08,8.08,0,0,0-14.08-6.86,8.08,8.08,0,0,0-15.46-2.46c-.11.25-.2.51-.29.77-3,9.36,7.14,17.41,8.49,24.7h0c5.29-5.2,18.17-6,21.13-15.35C527.8,432.45,527.87,432.19,527.93,431.92Z"/><path id="_Tracé_18" data-name="&lt;Tracé&gt;" class="cls-2" d="M614.3,322.56a5.76,5.76,0,0,0-11,2.15,5.77,5.77,0,0,0-9.87,5.24,4.11,4.11,0,0,0,.17.57c2.34,6.6,11.55,6.84,15.45,10.42h0c.78-5.24,7.78-11.23,5.44-17.83A5.31,5.31,0,0,0,614.3,322.56Z"/><path id="_Tracé_19" data-name="&lt;Tracé&gt;" class="cls-5" d="M691,355.38a6.24,6.24,0,1,0,1.36-8.73A6.25,6.25,0,0,0,691,355.38Z"/><path id="_Tracé_20" data-name="&lt;Tracé&gt;" class="cls-5" d="M414.86,216.33a6.24,6.24,0,1,0,1.36-8.73A6.25,6.25,0,0,0,414.86,216.33Z"/><path id="_Tracé_21" data-name="&lt;Tracé&gt;" class="cls-5" d="M375,461.75a3.45,3.45,0,1,0,.76-4.82A3.45,3.45,0,0,0,375,461.75Z"/><path id="_Tracé_22" data-name="&lt;Tracé&gt;" class="cls-5" d="M325.9,432.26a1.55,1.55,0,1,0,.34-2.17A1.54,1.54,0,0,0,325.9,432.26Z"/><path id="_Tracé_23" data-name="&lt;Tracé&gt;" class="cls-5" d="M418,326.23a2.31,2.31,0,1,0,.5-3.23A2.31,2.31,0,0,0,418,326.23Z"/><path id="_Tracé_24" data-name="&lt;Tracé&gt;" class="cls-5" d="M595.85,204.49a2.31,2.31,0,1,0,.51-3.23A2.32,2.32,0,0,0,595.85,204.49Z"/><path id="_Tracé_25" data-name="&lt;Tracé&gt;" class="cls-5" d="M590.45,451.23a4,4,0,1,0,.88-5.62A4,4,0,0,0,590.45,451.23Z"/><path id="_Tracé_26" data-name="&lt;Tracé&gt;" class="cls-5" d="M547.72,185.71a4,4,0,1,0,.88-5.62A4,4,0,0,0,547.72,185.71Z"/><path id="_Tracé_27" data-name="&lt;Tracé&gt;" class="cls-5" d="M713.74,431.14a1.94,1.94,0,1,0,.42-2.71A1.94,1.94,0,0,0,713.74,431.14Z"/><path id="_Tracé_28" data-name="&lt;Tracé&gt;" class="cls-5" d="M476.43,202.33a1.94,1.94,0,1,0,.43-2.71A1.94,1.94,0,0,0,476.43,202.33Z"/></g><g id="_Groupe_4" data-name="&lt;Groupe&gt;"><path id="_Tracé_29" data-name="&lt;Tracé&gt;" class="cls-6" d="M1065.61,0s-23.28,13.63-44.24,27c0,0-21,18.05-28.52,27.36a144.64,144.64,0,0,1-30.75,29s-14.59,11.68-23.34,26.68c0,0-9.18,12.51-25.43,15a93.48,93.48,0,0,0-29.19,20S873.3,158.87,851.21,168l-37.94,16.68s-17,9.34-34.1,10.72c0,0-6.31.7-7.9-4.85,0,0-.66-7.17,10.21-13.65,0,0,7.4-5.55,20.12-9.48a32.48,32.48,0,0,1,10.64-9.71s10.29-8,30.94-13.3c0,0-22.63,4.53-38.13,16.16,0,0-5.56,4.23-18.53,4.23,0,0-6.09-1.59-16.95,6.62,0,0-23.3,13.77-30.45,10.59a7.76,7.76,0,0,1-5.3-7.41s-.53-8.21,9-13l7.67-3.45s13.77-7.68,25.42-9.79c0,0,10.33-7.68,19.33-8.74,0,0-6.62-.8-20.65,4.76l-17.21,5.83s-12.72,9-23.57,5c0,0-4.76-2.91-2.91-8.21,0,0,2.12-7.94,11.92-10.33l14.29-4.23S781,125.12,786.78,123A144.59,144.59,0,0,1,813,118.24s2.91.26,12.18-8.21c0,0,13-9.27,23.83-10.33,0,0-2.12-4,1.06-9.53,0,0-12.39,3.28-31,3.28,0,0-12.76,0-28.13-.65,0,0-15.38-1-30.1,3.27,0,0-10.46,4.91-17.66-.66,0,0-4.91-7.52,4.91-12.75a86.4,86.4,0,0,1,23.21-6.54l18-.66,27.15-1.31s10.47-6.21,27.15-4.9A11,11,0,0,0,851.74,66a15.4,15.4,0,0,1,10.8-6.22A15.61,15.61,0,0,1,876,53.55s3.27-.66,4.25-7.2c0,0,3.27-8.18,13.74-13.08,0,0,20.61-25,36-33.27Z"/><path id="_Tracé_30" data-name="&lt;Tracé&gt;" class="cls-7" d="M924.6,16.75s-22.55,19.73-15.5,25.37c0,0,1.31-1.47,7.06-1.87,0,0-17.87,8.27-21,22.06,0,0-2.75,5.12-15.75,9.85,0,0-15,17.33-2.37,39,0,0,5.52,5.91,11.43,9.06,0,0-12.22-1.18-20.49-17.72,0,0-5.12-16.94,4.73-28.37,0,0,5.51-7.48,13.39-11.42,0,0,10.25-5.91,14.19-14.19a28.54,28.54,0,0,0,3.54-8.66S905.21,30.68,924.6,16.75Z"/><path id="_Tracé_31" data-name="&lt;Tracé&gt;" class="cls-7" d="M957.77,54.43s-5.91,9.85-20.88,11c0,0-7.09.79-20.48,16.16,0,0-6.7,10.63-10.64,14.18,0,0-3.15,3.94-3.15,6.7,0,0-.63,13-7,17.72,0,0,7-4.72,10.55-19.69l5.91-8.67s9.06-18.38,24.82-23.37C936.89,68.49,952.65,66.65,957.77,54.43Z"/><path id="_Tracé_32" data-name="&lt;Tracé&gt;" class="cls-7" d="M861.87,108.12a11.28,11.28,0,0,0-6.17,7,59.05,59.05,0,0,0-33.09,16.26s-17.56,2.19-27.36,8.3c0,0,14.33-6.44,27.82-6.61,0,0,16.6-16.08,33.55-16.42C856.62,116.66,856.92,110.3,861.87,108.12Z"/><path id="_Tracé_33" data-name="&lt;Tracé&gt;" class="cls-7" d="M865.34,109.92a11.3,11.3,0,0,0-1.31,10.3s-18.39,5-21.45,22.75c0,0,7.24-19,24-21.67C866.62,121.3,862.74,117.35,865.34,109.92Z"/><path id="_Tracé_34" data-name="&lt;Tracé&gt;" class="cls-7" d="M855.7,115.13s-5.71-9.14-2.54-14a14.81,14.81,0,0,1,8.71-8,12.43,12.43,0,0,0-11.32,6.71S847.62,104.7,855.7,115.13Z"/></g><g id="_Groupe_5" data-name="&lt;Groupe&gt;"><path id="_Tracé_35" data-name="&lt;Tracé&gt;" class="cls-6" d="M219.8,415.76s26.91-16.9,39.32-20a48.93,48.93,0,0,0,20.35-10s16.56,1,36.91-9.31c0,0,9.65-5.18,6.55-17.25,0,0-4.48-9.31-20.35-5.17l-20.35,4.14-24.83,7.93L232.57,372s-9.32,1-22.42,10l-61.74,33.8S63.35,490.17,7.92,503.36v87.26s38.74-16.21,51.5-22.42c0,0,39.32,3.11,89-16.55l47.25-23.45,15.18-8.28s33.11-.69,40.7-4.49c0,0,7.93,6.21,21,6.9,0,0,2.42,3.11,5.52,3.11,0,0-2.41,6.55,7.94,9,0,0,11.38,1.38,13.1-10,0,0,1-13.45-6.55-20.69l-20.7-11s-4.48-3.79-15.52-2.07c0,0-16.9,1.73-29.31-.69a8.33,8.33,0,0,0-.69-6.9s2.76-2.41,8.62-1.38c0,0,17.94.69,26.9-2.76,0,0,12.42,6.56,23.8,9a25.77,25.77,0,0,1,12.76,8.62s9,12.42,22.77,7.94c0,0,7.93-1.38,3.79-16.9,0,0-2.41-10.35-18.28-17.59l-17.93-9.66L272.57,453s-7.58-3.45-24.14-.35c0,0-11.73,3.8-24.14,2.07,0,0,40.76-5.58,43.21-7.36,0,0,12.27,6.91,34.57,9.59,0,0,12.12,11.15,24.13,10,0,0,12.57,1.39,13-11.9,0,0,0-10.54-15.12-17,0,0-28.42-18.79-58.21-18.79L254,419.8s5-12.38-12.83-11a32,32,0,0,0-14.67,6.87A6.7,6.7,0,0,1,219.8,415.76Z"/><path id="_Tracé_36" data-name="&lt;Tracé&gt;" class="cls-7" d="M224.59,416.43s-6.42-.66-14.26,3.88a99.46,99.46,0,0,1-12.3,3.1s-4.87-.54-13,5.95c0,0-7.57,5.95-22.18,8.12,0,0-24.88,1.35-41.11,13.52a134.69,134.69,0,0,1,41.65-11.09s13-2.16,22.46-8.38c0,0,6.22-6.77,13.52-6.22,0,0,7.3-1.36,11.09-3C210.47,422.33,218.7,416.22,224.59,416.43Z"/><path id="_Tracé_37" data-name="&lt;Tracé&gt;" class="cls-7" d="M223.61,451s-9.59,5.5-20.31,3c0,0-4.23-.56-13.53,4.79a52.62,52.62,0,0,1-16.2,9.59s-3,1.13-5,7.9c0,0-12.69,24.82-33.84,36.38l-17.2,9.31s-5.65,3.67-7.34,8.18c0,0-2.3,9-24.31,10.12,0,0,18.7,1.47,26.41-7.33,0,0,4.76-9.9,11-10.27,0,0,17.4-9.17,31.44-24.2,0,0,11.47-13.94,15.5-20.91,0,0,2.79-7.82,7.29-9.18a21.51,21.51,0,0,1,4.73-2.47,50,50,0,0,0,9-5.41s7.21-5.63,14.2-3.83A32,32,0,0,0,223.61,451Z"/><path id="_Tracé_38" data-name="&lt;Tracé&gt;" class="cls-7" d="M223.61,451s28.91-14.19,31.65-25.4C255.26,425.6,254.5,438,223.61,451Z"/></g></g></g></svg>