<svg xmlns="http://www.w3.org/2000/svg" viewBox="0 0 590.18 324.29"><defs><style>.cls-1{fill:#cc7db0;}.cls-2{fill:#fff;}.cls-3{fill:#f6aa27;}.cls-4{fill:#6f7bb9;}.cls-5{fill:#e1667f;}.cls-6{fill:#49b173;}.cls-7{fill:#b8cf4e;}.cls-8{fill:#ec6d50;}.cls-9{fill:#8366a4;}</style></defs><title>universalite</title><g id="Calque_2" data-name="Calque 2"><g id="calque_1-2" data-name="calque 1"><g id="_Groupe_" data-name="&lt;Groupe&gt;"><circle id="_Tracé_" data-name="&lt;Tracé&gt;" class="cls-1" cx="209.5" cy="51.51" r="24.2"/><path class="cls-2" d="M209.45,76.7A25.18,25.18,0,1,1,231.2,64.31,25,25,0,0,1,209.45,76.7Zm.09-48.39a23.25,23.25,0,0,0-20,11.41h0a23.19,23.19,0,1,0,20-11.41Z"/><g id="_Groupe_2" data-name="&lt;Groupe&gt;"><path id="_Tracé_2" data-name="&lt;Tracé&gt;" class="cls-2" d="M210.61,48.39a2.64,2.64,0,0,1,2.08,2.53l0,9.36a.53.53,0,0,1-.55.51h-5.36a.53.53,0,0,1-.54-.52l0-9.36a2.61,2.61,0,0,1,2.09-2.51l0-4.19h2.27Z"/><rect id="_Tracé_3" data-name="&lt;Tracé&gt;" class="cls-2" x="209.04" y="41.67" width="0.9" height="2.28" transform="translate(166.07 252.17) rotate(-89.83)"/></g></g><g id="_Groupe_3" data-name="&lt;Groupe&gt;"><g id="_Groupe_4" data-name="&lt;Groupe&gt;"><circle id="_Tracé_4" data-name="&lt;Tracé&gt;" class="cls-3" cx="58.04" cy="169.06" r="57.05"/><path class="cls-2" d="M57.94,227.14A58.09,58.09,0,0,1,8,139.56H8a58,58,0,1,1,49.9,87.58ZM9.76,140.57a56.06,56.06,0,1,0,76.77-19.79A56.12,56.12,0,0,0,9.76,140.57Z"/></g><g id="_Groupe_5" data-name="&lt;Groupe&gt;"><path id="_Tracé_transparent_" data-name="&lt;Tracé transparent&gt;" class="cls-2" d="M43.69,168.53l0-5.74a1.86,1.86,0,0,0-1.78-2.08,1.88,1.88,0,0,0-1.8,2.09l0,7.31a6.35,6.35,0,0,0,1,3.73c1.43,2.57,4,6.17,4.06,11.89l9,0a51.87,51.87,0,0,0,1.34-5.27c.72-4.25-.25-6.2-2-8s-2.74-2.76-3.58-3.63c-1.94-2-4.56.37-3,2.2.84,1,2.92,3.21,3.41,3.87a.68.68,0,0,1-1.11.8c-1-1.06-3.42-3.71-4.25-4.66A3.59,3.59,0,0,1,43.69,168.53Zm27.22,17.1-8.94,0a52.52,52.52,0,0,1-1.39-5.26c-.75-4.25.2-6.21,2-8s2.72-2.78,3.56-3.65c1.92-2,4.56.33,3,2.17-.83,1-2.89,3.24-3.38,3.9a.69.69,0,0,0,1.12.79c1-1.07,3.39-3.74,4.21-4.7a3.52,3.52,0,0,0,1.23-2.47l0-5.75a1.81,1.81,0,1,1,3.57,0l0,7.3a6.28,6.28,0,0,1-1,3.75C73.46,176.29,70.89,180.53,70.91,185.63Z"/><path id="_Tracé_5" data-name="&lt;Tracé&gt;" class="cls-2" d="M66.6,155.21a4.6,4.6,0,0,0-4.35-2.65A4.43,4.43,0,0,0,57.7,156a4.41,4.41,0,0,0-4.57-3.43,4.61,4.61,0,0,0-4.34,2.68,4.32,4.32,0,0,0-.24,2.16c.41,4.3,7.81,9.91,9.2,10.58,1.37-.6,8.74-6.35,9.11-10.66a4.23,4.23,0,0,0-.26-2.15"/></g></g><g id="_Groupe_6" data-name="&lt;Groupe&gt;"><circle id="_Tracé_6" data-name="&lt;Tracé&gt;" class="cls-4" cx="352.87" cy="25.98" r="24.97"/><path class="cls-2" d="M352.83,52a26,26,0,0,1-22.32-39.18h0A26,26,0,1,1,352.83,52ZM331.37,13.29l.86.51a24,24,0,1,0,14.66-11,23.79,23.79,0,0,0-14.66,11Z"/><path id="_Tracé_7" data-name="&lt;Tracé&gt;" class="cls-2" d="M349.93,28.68c-1-.44-2.85-1.45-3.19-3.17a12.87,12.87,0,0,0-2.38-4.75c6.13-.79,8.83,2.15,9.63,3.06,1,.88,1.64-1.36,3.22-1.86s2.61,1.45,2.61,1.45c-1.84-.27-2.54,2.7-2.78,4s-2.2,2.85-2.2,2.85a9.09,9.09,0,0,1-9.4-.69C348.54,29.46,349.59,29,349.93,28.68Z"/></g><g id="_Groupe_7" data-name="&lt;Groupe&gt;"><circle id="_Tracé_8" data-name="&lt;Tracé&gt;" class="cls-5" cx="307.76" cy="55.26" r="33.39"/><path class="cls-2" d="M307.7,89.65a34.42,34.42,0,0,1-29.56-51.88h0A34.35,34.35,0,1,1,307.7,89.65ZM279.86,38.79a32.39,32.39,0,1,0,44.36-11.44,32.43,32.43,0,0,0-44.36,11.44Z"/><g id="_Groupe_8" data-name="&lt;Groupe&gt;"><g id="_Groupe_9" data-name="&lt;Groupe&gt;"><g id="_Groupe_10" data-name="&lt;Groupe&gt;"><path id="_Tracé_transparent_2" data-name="&lt;Tracé transparent&gt;" class="cls-2" d="M303.31,62.28a7.1,7.1,0,0,1-1.77-14,6.55,6.55,0,0,1,1.86-.24,7.14,7.14,0,0,1,6.85,5.3,7.13,7.13,0,0,1-5.08,8.69A7.77,7.77,0,0,1,303.31,62.28Zm.08-12.7a5.17,5.17,0,0,0-1.46.18,5.63,5.63,0,1,0,1.46-.18Z"/></g><g id="_Groupe_11" data-name="&lt;Groupe&gt;"><path id="_Tracé_transparent_3" data-name="&lt;Tracé transparent&gt;" class="cls-2" d="M312,66.87a7.12,7.12,0,0,1-6.9-5.07,6.78,6.78,0,0,1,5.11-8.32,7.5,7.5,0,0,1,1.88-.23A7.13,7.13,0,0,1,319,58.33a6.43,6.43,0,0,1-.74,5.16,7,7,0,0,1-4.37,3.16A7.36,7.36,0,0,1,312,66.87Zm.08-12.17a6.18,6.18,0,0,0-1.48.18,5.35,5.35,0,0,0-4,6.55,5.61,5.61,0,0,0,5.43,4,6.1,6.1,0,0,0,1.47-.18A5.55,5.55,0,0,0,317,62.76a5.05,5.05,0,0,0,.58-4.06A5.62,5.62,0,0,0,312.12,54.7Z"/></g></g><path id="_Tracé_transparent_4" data-name="&lt;Tracé transparent&gt;" class="cls-2" d="M305.73,43.63h-2.45l-2.45,0L300,45.16,303.25,49l3.33-3.79Zm-.23.42.5.92h-.9Zm-.43,0-.37.83-.91-.84Zm-.85.92h-1.89l.95-.85ZM302.76,44l-.92.83-.36-.83Zm-1.71,0,.4.92h-.91Zm-.41,1.31h1l1,2.28Zm1.42,0h2.42l-1.23,2.76Zm1.85,2.29,1-2.27h1Z"/></g></g><g id="_Groupe_12" data-name="&lt;Groupe&gt;"><g id="_Groupe_13" data-name="&lt;Groupe&gt;"><circle id="_Tracé_9" data-name="&lt;Tracé&gt;" class="cls-6" cx="394.86" cy="147.55" r="81.64"/><path class="cls-2" d="M394.72,230.42a82.69,82.69,0,0,1-71-124.66h0a82.58,82.58,0,1,1,71,124.66ZM324.55,106.26l.86.51A80.64,80.64,0,1,0,435.84,78.3a80.73,80.73,0,0,0-110.43,28.47Z"/></g><g id="_Groupe_14" data-name="&lt;Groupe&gt;"><path id="_Tracé_transparent_5" data-name="&lt;Tracé transparent&gt;" class="cls-2" d="M394.82,122.22a3.81,3.81,0,0,1,3.83,3.77l.14,19.06a8.76,8.76,0,0,0,3.64,7.7,11.41,11.41,0,1,1-14.75.12,8.77,8.77,0,0,0,3.51-7.76l-.14-19.06A3.8,3.8,0,0,1,394.82,122.22Zm0-5.07a8.87,8.87,0,0,0-8.8,8.94l.15,19.06a5.06,5.06,0,0,1-1.76,3.88,16.47,16.47,0,1,0,21.31-.17,5.06,5.06,0,0,1-1.82-3.85L403.71,126A8.88,8.88,0,0,0,394.78,117.15Zm5.62,37.25c-2.58-2.24-4.1-4.37-4.13-8.13l0-3.79-2.53,0,0,3.79c0,3.76-1.47,5.92-4,8.19a9.39,9.39,0,0,0-3.47,7.07,8.87,8.87,0,0,0,17.73-.13A9.44,9.44,0,0,0,400.4,154.4Z"/></g></g><g id="_Groupe_15" data-name="&lt;Groupe&gt;"><g id="_Groupe_16" data-name="&lt;Groupe&gt;"><ellipse id="_Tracé_10" data-name="&lt;Tracé&gt;" class="cls-7" cx="375.3" cy="242.2" rx="63.99" ry="62.91"/><path class="cls-2" d="M375.19,306.1a65.42,65.42,0,0,1-32.91-8.85,63.6,63.6,0,0,1-30-39.34,62.59,62.59,0,0,1,7-48.19h0c18.2-30.35,58.12-40.47,89-22.57a63.57,63.57,0,0,1,30,39.34,62.62,62.62,0,0,1-7,48.2A65.27,65.27,0,0,1,375.19,306.1Zm.22-125.8a63.24,63.24,0,0,0-54.36,30.45h0a60.58,60.58,0,0,0-6.8,46.66,61.58,61.58,0,0,0,29,38.11c29.91,17.36,68.61,7.55,86.26-21.86A60.62,60.62,0,0,0,436.36,227a61.61,61.61,0,0,0-29-38.11A63.52,63.52,0,0,0,375.41,180.3Z"/></g><g id="Layer_2" data-name="Layer 2"><path id="_Tracé_11" data-name="&lt;Tracé&gt;" class="cls-2" d="M391.46,226.9a.86.86,0,0,1,0,.16,1.41,1.41,0,0,1,0,.2s0,.05,0,.08,0,.2-.06.31,0,0,0,0a4.24,4.24,0,0,1-.11.41l0,0c0,.13-.09.26-.15.41l-.09.18c0,.09-.07.18-.11.26-1.88,3.9-7.64,9.89-7.64,9.89l.75,16.81-3.11,2.6-5.5-11.64-6.21,5.08,0,5.43-1.66,1.35-2.27-3.73-2,0,0-2.09L359,250.43l1.32-1.69,5.51-.2,5-6.28-12-5,2.53-3.14,17.12.15s5.88-5.86,9.77-7.84l.3-.14.15-.07.45-.19h0a4.25,4.25,0,0,1,.77-.21h.53l.21,0,0,0a1,1,0,0,1,.25.08v0a.78.78,0,0,1,.22.15h0a1,1,0,0,1,.32.72A.28.28,0,0,1,391.46,226.9Z"/></g></g><g id="_Groupe_17" data-name="&lt;Groupe&gt;"><circle id="_Tracé_12" data-name="&lt;Tracé&gt;" class="cls-8" cx="505.57" cy="202.13" r="34.15"/><path class="cls-2" d="M505.51,237.25a35.2,35.2,0,1,1,8.83-1.12A35.57,35.57,0,0,1,505.51,237.25Zm.11-68.32a33.38,33.38,0,0,0-8.33,1.06,33,33,0,1,0,8.33-1.06Z"/><g id="_Groupe_18" data-name="&lt;Groupe&gt;"><path id="_Tracé_transparent_6" data-name="&lt;Tracé transparent&gt;" class="cls-2" d="M516.88,203.12c-2.4-9.49-5.92-9-8-7.64a7.7,7.7,0,0,0-3.33-.69,7.88,7.88,0,0,0-3.27.74c-2.11-1.41-5.75-2-8,7.74-.48,2.14,2.3.9,3.75-.15a7.69,7.69,0,0,0,15.16,0C514.7,204.12,517.4,205.21,516.88,203.12Zm-15.54-.86a.87.87,0,1,1,.86-.88A.86.86,0,0,1,501.34,202.26Zm6.9,4a2.77,2.77,0,0,1-.76.12,2,2,0,0,0-3.44,0,2.73,2.73,0,0,1-.76-.11.23.23,0,0,1-.16-.29.24.24,0,0,1,.29-.16,1.6,1.6,0,0,0,2-.72c-.72-.12-1.25-.54-1.25-1s.74-1.11,1.67-1.12,1.69.47,1.7,1.08-.58,1-1.35,1.09a1.6,1.6,0,0,0,2,.66.23.23,0,0,1,.29.15A.24.24,0,0,1,508.24,206.26Zm1.46-4.1a.87.87,0,1,1,.85-.88A.86.86,0,0,1,509.7,202.16Z"/></g></g><circle id="_Tracé_13" data-name="&lt;Tracé&gt;" class="cls-9" cx="236.28" cy="322.13" r="2.16"/><circle id="_Tracé_14" data-name="&lt;Tracé&gt;" class="cls-7" cx="309.63" cy="307.45" r="2.51"/><circle id="_Tracé_15" data-name="&lt;Tracé&gt;" class="cls-3" cx="171.7" cy="303.47" r="4.05"/><circle id="_Tracé_16" data-name="&lt;Tracé&gt;" class="cls-9" cx="52.08" cy="81.96" r="2.83"/><circle id="_Tracé_17" data-name="&lt;Tracé&gt;" class="cls-5" cx="149.21" cy="59.17" r="3.4"/><circle id="_Tracé_18" data-name="&lt;Tracé&gt;" class="cls-1" cx="255.83" cy="6.46" r="2.27"/><circle id="_Tracé_19" data-name="&lt;Tracé&gt;" class="cls-4" cx="435.48" cy="14.68" r="3.21"/><circle id="_Tracé_20" data-name="&lt;Tracé&gt;" class="cls-6" cx="510.55" cy="85.64" r="2.41"/><circle id="_Tracé_21" data-name="&lt;Tracé&gt;" class="cls-8" cx="586.25" cy="108.18" r="3.93"/><circle id="_Tracé_22" data-name="&lt;Tracé&gt;" class="cls-5" cx="558.34" cy="144.3" r="1.78"/><g id="_Groupe_19" data-name="&lt;Groupe&gt;"><circle id="_Tracé_23" data-name="&lt;Tracé&gt;" class="cls-9" cx="228.1" cy="188.85" r="99.79"/><path class="cls-2" d="M227.94,289.65a100.78,100.78,0,1,1,87-49.55A100.2,100.2,0,0,1,227.94,289.65Zm.33-199.6a98.84,98.84,0,1,0,50,13.74A98.95,98.95,0,0,0,228.27,90.05Z"/><g id="_Groupe_20" data-name="&lt;Groupe&gt;"><path id="_Tracé_24" data-name="&lt;Tracé&gt;" class="cls-2" d="M230.16,161.47s5.28-6,0-10.9c0,0-5.65,3.19-.76,10.89Z"/><rect id="_Tracé_25" data-name="&lt;Tracé&gt;" class="cls-2" x="219.35" y="167.21" width="20.86" height="7.72" transform="translate(56.48 399.17) rotate(-89.44)"/><path id="_Tracé_transparent_7" data-name="&lt;Tracé transparent&gt;" class="cls-2" d="M239.34,173.28s-1,0-4,.27l-.1,9.75-11.14-.11.08-8.45c-7.3,1.29-15.19,3.71-22,8.27L202,214.52l51,12.89h.7l.31-31.66Zm9,48.72-41.71-10.8.09-9.42,41.71,10.81Zm.14-14.57-41.71-10.8.09-9.42L248.56,198Z"/><rect id="_Tracé_26" data-name="&lt;Tracé&gt;" class="cls-2" x="228.18" y="158.48" width="3.43" height="1.11" transform="translate(68.64 387.37) rotate(-89.44)"/></g></g></g></g></svg>