<svg xmlns="http://www.w3.org/2000/svg" viewBox="0 0 435.74 208.78"><defs><style>.cls-1{fill:#f2f2f2;}.cls-2{fill:#48ae83;}.cls-3{fill:#fff;}.cls-4{fill:#f8c60f;}.cls-5{fill:#30302f;}.cls-6{fill:#191818;}.cls-7{fill:#ffe4ba;}.cls-8{fill:#efcda8;}.cls-9{fill:#fcd8b1;}.cls-10{fill:#f18e30;}.cls-11{fill:#f4ab48;}.cls-12{fill:none;}.cls-13{fill:#6b2c8f;}.cls-14{fill:#77499b;}.cls-15{fill:#c47f2d;}.cls-16{fill:#d4b629;}.cls-17{fill:#fad134;}.cls-18{fill:#9a1f60;}.cls-19{fill:#e91f79;}.cls-20{fill:#f7cf0d;}.cls-21{fill:#ffe63e;}.cls-22{fill:#a27c52;}.cls-23{fill:#896339;}</style></defs><title>responsabilite</title><g id="Calque_2" data-name="Calque 2"><g id="图层_1" data-name="图层 1"><path id="_Tracé_" data-name="&lt;Tracé&gt;" class="cls-1" d="M55.67,74.06s-10.8-1.57-11.46-15.53c0,0-.65-11.4,10.15-15.14H255.08s11,1.18,11,17.25c0,0-.64,10.59-9.71,13.42H189.65s-3,.24-3.2,4.21c0,0-.58,5.59,4.08,6.06H330.34s11.24,2,11.08,17.74c0,0-.46,10.59-9.74,13.19H279.27s-5.1,0-4.95,8.91c0,0,0,6.32,4.79,6.87H375.2s10.63,1.21,10.77,13.49c0,0,.87,11.24-6.62,14H324.08s-5.35.47-4.62,7.11c0,0,.44,5.07,5.09,5.77H377s15.57-1,15.57,18.4c0,0-1.2,14.74-12,17.62h-305S61.22,208.52,61.52,187c0,0,1.2-14,14.06-15.82h49.68s4.51-.14,4.51-7.29c0,0-.18-5.41-5.59-5.85H103.63s-9.38-.21-9.74-14.94c0,0,.72-11.48,11.54-12.35h44s5.23-1.3,5-9.09a6.78,6.78,0,0,0-6.12-6.28H92.45s-10.46-.44-10.82-16c0,0,.36-11.26,10.64-14.51h34.79s4-1.3,3.79-7.15c0,0,.18-3.9-6.13-4.76Z"/><g id="_Groupe_" data-name="&lt;Groupe&gt;"><path id="_Tracé_2" data-name="&lt;Tracé&gt;" class="cls-2" d="M198.29,179.93v-19.1S163,146.63,169.4,98.17c0,0,7.83-45.54,57.28-46,0,0,51.41,0,56.79,49.94,0,0,6.5,44.19-31.51,58.58v19.27Z"/><path id="_Tracé_3" data-name="&lt;Tracé&gt;" class="cls-2" d="M226.26,41.37a2.88,2.88,0,0,1-2.87-2.87V2.87a2.88,2.88,0,0,1,5.75,0V38.5A2.88,2.88,0,0,1,226.26,41.37Z"/><path id="_Tracé_4" data-name="&lt;Tracé&gt;" class="cls-2" d="M281.12,58.62a2.88,2.88,0,0,1,0-4.06l25.33-25a2.87,2.87,0,1,1,4,4.08l-25.32,25A2.88,2.88,0,0,1,281.12,58.62Z"/><path id="_Tracé_5" data-name="&lt;Tracé&gt;" class="cls-2" d="M169.81,57.43a2.89,2.89,0,0,1-4.07,0L140.82,31.94a2.87,2.87,0,1,1,4.1-4l24.93,25.45A2.87,2.87,0,0,1,169.81,57.43Z"/><rect id="_Rectangle_" data-name="&lt;Rectangle&gt;" class="cls-2" x="198.3" y="188.59" width="53.41" height="8.19" rx="2.14" ry="2.14"/><rect id="_Rectangle_2" data-name="&lt;Rectangle&gt;" class="cls-2" x="206.33" y="200.59" width="37.34" height="8.19" rx="2.14" ry="2.14"/></g><g id="_Groupe_2" data-name="&lt;Groupe&gt;"><path id="_Tracé_transparent_" data-name="&lt;Tracé transparent&gt;" class="cls-3" d="M212.47,107.94V97.18s.57-9.37,10-11.79a14.47,14.47,0,0,1,8,.17,13.37,13.37,0,0,1,9.42,10.83v11.55h4.91v24.78h-37V107.93Zm5.89.09h15.52V98.17a6,6,0,0,0-.39-2.14c-.75-2-2.77-5.75-7.37-5.8,0,0-6.34-.57-7.7,7a4.9,4.9,0,0,0-.06.77Z"/><circle id="_Tracé_6" data-name="&lt;Tracé&gt;" class="cls-2" cx="226" cy="121.09" r="6.27"/></g><path id="_Tracé_7" data-name="&lt;Tracé&gt;" class="cls-4" d="M0,116.71s12.91.07,17.9-21.28c0,0,2.66,18.94,17.68,21.17,0,0-13.5.2-17.79,21.81C17.79,138.41,15.75,119.27,0,116.71Z"/><path id="_Tracé_8" data-name="&lt;Tracé&gt;" class="cls-4" d="M418.15,130.29s6.39,0,8.85-10.52c0,0,1.32,9.36,8.74,10.46,0,0-6.67.1-8.79,10.78C427,141,425.94,131.55,418.15,130.29Z"/><path id="_Tracé_9" data-name="&lt;Tracé&gt;" class="cls-4" d="M349.08,35.88s8.83,0,12.24-14.55c0,0,1.82,13,12.1,14.48,0,0-9.24.13-12.17,14.91C361.25,50.72,359.85,37.63,349.08,35.88Z"/><path id="_Tracé_10" data-name="&lt;Tracé&gt;" class="cls-4" d="M77.5,28.61s4.42,0,6.12-7.28c0,0,.91,6.47,6,7.24,0,0-4.62.07-6.08,7.46C83.59,36,82.89,29.48,77.5,28.61Z"/><g id="_Groupe_3" data-name="&lt;Groupe&gt;"><path id="_Tracé_11" data-name="&lt;Tracé&gt;" class="cls-5" d="M96.64,169.8S76.58,113.69,110.45,118v60.45Z"/><path id="_Tracé_12" data-name="&lt;Tracé&gt;" class="cls-6" d="M123.85,169.8S143.9,113.69,110,118v60.45Z"/><g id="_Groupe_4" data-name="&lt;Groupe&gt;"><rect id="_Tracé_13" data-name="&lt;Tracé&gt;" class="cls-7" x="101.79" y="150.47" width="16.93" height="27.94"/><path id="_Tracé_14" data-name="&lt;Tracé&gt;" class="cls-7" d="M127.5,138.48a1.41,1.41,0,0,0-2.23.44v-7.61c-.68-10.53-15-10.31-15-10.31s-14.33-.22-15,10.31v7.61a1.42,1.42,0,0,0-2.24-.44c-1.34,1.12.2,11,3,9.83,0,0,3.51,15,14.29,15s14.3-15,14.3-15c2.75,1.19,4.29-8.71,3-9.83"/><rect id="_Tracé_15" data-name="&lt;Tracé&gt;" class="cls-8" x="110.1" y="150.47" width="8.62" height="27.94"/><path id="_Tracé_16" data-name="&lt;Tracé&gt;" class="cls-9" d="M127.5,138.48a1.41,1.41,0,0,0-2.23.44v-7.61c-.68-10.53-15-10.31-15-10.31h-.15v42.33h.15c10.79,0,14.3-15,14.3-15,2.75,1.19,4.29-8.71,3-9.83"/><path id="_Tracé_17" data-name="&lt;Tracé&gt;" class="cls-10" d="M119,168s24.36-.9,20.91,26.23H110L110.1,177a12,12,0,0,0,8.88-9"/><path id="_Tracé_18" data-name="&lt;Tracé&gt;" class="cls-11" d="M101.3,168s-24.35-.9-20.91,26.23h29.86L110.1,177c-8.58-2.45-8.8-9-8.8-9"/><polyline id="_Tracé_19" data-name="&lt;Tracé&gt;" class="cls-12" points="80.05 194.22 80.05 119.4 141.56 119.4 141.84 193.82"/></g><path id="_Tracé_20" data-name="&lt;Tracé&gt;" class="cls-6" d="M109.92,134.43h16.32s2.43-18.14-16.32-14.33Z"/><path id="_Tracé_21" data-name="&lt;Tracé&gt;" class="cls-5" d="M110,134.43H93.67S91.23,116.29,110,120.1Z"/></g><g id="_Groupe_5" data-name="&lt;Groupe&gt;"><rect id="_Tracé_22" data-name="&lt;Tracé&gt;" class="cls-7" x="335.42" y="150.72" width="16.94" height="27.94"/><path id="_Tracé_23" data-name="&lt;Tracé&gt;" class="cls-7" d="M361.14,138.72a1.43,1.43,0,0,0-2.24.45l-1.55-6.24c-.67-10.53-14-6.81-14-6.81s-11.73-3.88-12.4,6.66l-2.09,6.39a1.44,1.44,0,0,0-2.25-.45c-1.33,1.12.21,11,3,9.83,0,0,3.51,15,14.29,15s14.3-15,14.3-15c2.75,1.19,4.3-8.71,2.95-9.83"/><rect id="_Tracé_24" data-name="&lt;Tracé&gt;" class="cls-8" x="343.74" y="150.72" width="8.62" height="27.94"/><path id="_Tracé_25" data-name="&lt;Tracé&gt;" class="cls-9" d="M361.14,142.65a1.42,1.42,0,0,0-2.24.44v-7.61c-.67-10.53-15-10.31-15-10.31h-.15V167.5h.15c10.79,0,14.3-15,14.3-15,2.75,1.19,4.3-8.71,2.95-9.83"/><path id="_Tracé_26" data-name="&lt;Tracé&gt;" class="cls-13" d="M352.62,168.23s24.36-.9,20.92,26.24H343.67l.07-17.25a12.06,12.06,0,0,0,8.88-9"/><path id="_Tracé_27" data-name="&lt;Tracé&gt;" class="cls-14" d="M334.94,168.23s-24.36-.9-20.91,26.24h29.86l-.15-17.25c-8.58-2.46-8.8-9-8.8-9"/><polyline id="_Tracé_28" data-name="&lt;Tracé&gt;" class="cls-12" points="313.69 194.47 313.69 119.64 375.2 119.64 375.48 194.06"/><path id="_Tracé_29" data-name="&lt;Tracé&gt;" class="cls-15" d="M328.89,139.17s2.52-6,3.13-8.31,11.89-2.74,11.89-2.74l0-6.87s-13.7-.3-15,9.46S328.89,139.17,328.89,139.17Z"/><path id="_Tracé_30" data-name="&lt;Tracé&gt;" class="cls-15" d="M358.9,139.17s-2.52-6-3.13-8.31-11.9-2.74-11.9-2.74l-.13-6.87s13.85-.3,15.15,9.46S358.9,139.17,358.9,139.17Z"/></g><g id="_Groupe_6" data-name="&lt;Groupe&gt;"><path id="_Tracé_31" data-name="&lt;Tracé&gt;" class="cls-16" d="M309.94,148.41s5.54,20.12,5,29.4H302.53Z"/><path id="_Tracé_32" data-name="&lt;Tracé&gt;" class="cls-17" d="M282.28,148.41s-5.58,20.12-5,29.4h12.48Z"/><rect id="_Tracé_33" data-name="&lt;Tracé&gt;" class="cls-7" x="287.6" y="165.08" width="16.69" height="27.53"/><path id="_Tracé_34" data-name="&lt;Tracé&gt;" class="cls-7" d="M312.94,153.26a1.4,1.4,0,0,0-2.21.44v-7.5c-.66-10.38-14.79-10.16-14.79-10.16s-14.12-.22-14.79,10.16v7.5a1.4,1.4,0,0,0-2.21-.44c-1.32,1.11.2,10.86,2.91,9.69,0,0,3.46,14.81,14.09,14.81S310,163,310,163c2.72,1.17,4.23-8.58,2.91-9.69"/><rect id="_Tracé_35" data-name="&lt;Tracé&gt;" class="cls-8" x="295.79" y="165.08" width="8.49" height="27.53"/><path id="_Tracé_36" data-name="&lt;Tracé&gt;" class="cls-9" d="M312.94,153.26a1.4,1.4,0,0,0-2.21.44v-7.5c-.66-10.38-14.79-10.16-14.79-10.16h-.15v41.71h.15C306.57,177.76,310,163,310,163c2.72,1.17,4.23-8.58,2.91-9.69"/><path id="_Tracé_37" data-name="&lt;Tracé&gt;" class="cls-18" d="M304.54,182.34s24-.88,20.6,25.85H295.72l.07-17a11.87,11.87,0,0,0,8.75-8.86"/><path id="_Tracé_38" data-name="&lt;Tracé&gt;" class="cls-19" d="M287.12,182.34s-24-.88-20.61,25.85h29.43l-.15-17c-8.46-2.42-8.67-8.86-8.67-8.86"/><path id="_Tracé_39" data-name="&lt;Tracé&gt;" class="cls-17" d="M302.18,143s-4,8.93-21,10.72c0,0-8.14-17.43,14.79-19.23,0,0,21.15-.93,14.79,19.23,0,0-8.55-6-8.55-10.72"/><path id="_Tracé_40" data-name="&lt;Tracé&gt;" class="cls-16" d="M295.94,134.47h-.1v14.71c4.87-3,6.34-6.2,6.34-6.2,0,4.72,8.55,10.72,8.55,10.72,6.36-20.16-14.79-19.23-14.79-19.23"/></g><g id="_Groupe_7" data-name="&lt;Groupe&gt;"><rect id="_Tracé_41" data-name="&lt;Tracé&gt;" class="cls-7" x="147.57" y="164.66" width="16.84" height="40.19"/><path id="_Tracé_42" data-name="&lt;Tracé&gt;" class="cls-7" d="M173.15,152.73a1.41,1.41,0,0,0-2.22.44V145.6c-.67-10.48-14.93-10.25-14.93-10.25s-14.27-.23-14.94,10.25v7.57a1.41,1.41,0,0,0-2.22-.44c-1.34,1.11.19,11,2.93,9.79,0,0,3.49,14.95,14.23,14.95s14.22-14.95,14.22-14.95c2.73,1.17,4.27-8.68,2.93-9.79"/><rect id="_Tracé_43" data-name="&lt;Tracé&gt;" class="cls-8" x="155.85" y="164.66" width="8.57" height="43.53"/><path id="_Tracé_44" data-name="&lt;Tracé&gt;" class="cls-9" d="M173.15,152.73a1.41,1.41,0,0,0-2.22.44V145.6c-.67-10.48-14.93-10.25-14.93-10.25h-.15v42.1l.15,0c10.72,0,14.22-14.95,14.22-14.95,2.73,1.17,4.27-8.68,2.93-9.79"/><path id="_Tracé_45" data-name="&lt;Tracé&gt;" class="cls-20" d="M164.68,182.09s24.22-.89,20.8,26.1H155.77l.15-8.2Z"/><path id="_Tracé_46" data-name="&lt;Tracé&gt;" class="cls-21" d="M147.58,182.09s-24.72-.89-21.29,26.1H156l-.23-7.49Z"/><path id="_Tracé_47" data-name="&lt;Tracé&gt;" class="cls-22" d="M142.84,152.71a10,10,0,0,1,2-6.41c3.28-4,11.4-1.14,11.4-1.14l0-11.47s-10.21-.59-13.92,6.41-2.76,12.36-2.76,12.36a2.18,2.18,0,0,1,1.78.81"/><path id="_Tracé_48" data-name="&lt;Tracé&gt;" class="cls-23" d="M169.51,153.19a10.34,10.34,0,0,0-2-6.89c-3.28-4-11.33-1.14-11.33-1.14l-.06-11.47s10.22-.59,13.92,6.41,2.87,12.28,2.87,12.28a2.87,2.87,0,0,0-1.5,1.05"/></g><circle id="_Tracé_49" data-name="&lt;Tracé&gt;" class="cls-4" cx="388.64" cy="102.86" r="2.18"/><circle id="_Tracé_50" data-name="&lt;Tracé&gt;" class="cls-4" cx="281.06" cy="20.68" r="1.26"/><circle id="_Tracé_51" data-name="&lt;Tracé&gt;" class="cls-4" cx="185.81" cy="7.62" r="2.06"/><circle id="_Tracé_52" data-name="&lt;Tracé&gt;" class="cls-4" cx="56.32" cy="95.43" r="1.46"/></g></g></svg>