<svg xmlns="http://www.w3.org/2000/svg" xmlns:xlink="http://www.w3.org/1999/xlink" width="486" height="357" viewBox="0 0 486 357">
    <defs>
        <rect id="b" width="170" height="261" rx="3"/>
        <filter id="a" width="123.5%" height="115.3%" x="-11.8%" y="-7.3%" filterUnits="objectBoundingBox">
            <feMorphology in="SourceAlpha" operator="dilate" radius=".5" result="shadowSpreadOuter1"/>
            <feOffset dy="1" in="shadowSpreadOuter1" result="shadowOffsetOuter1"/>
            <feGaussianBlur in="shadowOffsetOuter1" result="shadowBlurOuter1" stdDeviation="6"/>
            <feColorMatrix in="shadowBlurOuter1" values="0 0 0 0 0.196078431 0 0 0 0 0.270588235 0 0 0 0 0.298039216 0 0 0 0.101316652 0"/>
        </filter>
        <rect id="d" width="333" height="240" x="127" rx="3"/>
        <filter id="c" width="112%" height="116.7%" x="-6%" y="-7.9%" filterUnits="objectBoundingBox">
            <feMorphology in="SourceAlpha" operator="dilate" radius=".5" result="shadowSpreadOuter1"/>
            <feOffset dy="1" in="shadowSpreadOuter1" result="shadowOffsetOuter1"/>
            <feGaussianBlur in="shadowOffsetOuter1" result="shadowBlurOuter1" stdDeviation="6"/>
            <feColorMatrix in="shadowBlurOuter1" values="0 0 0 0 0.196078431 0 0 0 0 0.270588235 0 0 0 0 0.298039216 0 0 0 0.101316652 0"/>
        </filter>
        <circle id="f" cx="20" cy="20" r="20"/>
        <filter id="e" width="200%" height="200%" x="-50%" y="-47.5%" filterUnits="objectBoundingBox">
            <feMorphology in="SourceAlpha" operator="dilate" radius=".5" result="shadowSpreadOuter1"/>
            <feOffset dy="1" in="shadowSpreadOuter1" result="shadowOffsetOuter1"/>
            <feGaussianBlur in="shadowOffsetOuter1" result="shadowBlurOuter1" stdDeviation="6"/>
            <feColorMatrix in="shadowBlurOuter1" values="0 0 0 0 0.196078431 0 0 0 0 0.270588235 0 0 0 0 0.298039216 0 0 0 0.101316652 0"/>
        </filter>
    </defs>
    <g fill="none" fill-rule="evenodd">
        <g transform="translate(13 12)">
            <rect width="411" height="243" x="9" y="81" fill="#F0F4F7" rx="3"/>
            <g transform="translate(0 70)">
                <use fill="#000" filter="url(#a)" xlink:href="#b"/>
                <use fill="#383838" xlink:href="#b"/>
            </g>
            <path fill="#FFF" d="M15 100h94v8H15z"/>
            <path fill="#595959" d="M0 142h170v18H0z"/>
            <path d="M0 160h170v18H0z"/>
            <path fill="#595959" d="M0 178h170v18H0zM0 196h170v18H0zM0 214h170v18H0z"/>
            <path fill="#FFF" d="M33 148h60v6H33zM33 166h21v6H33zM33 184h94v6H33zM20 202h40v6H20zM20 220h50v6H20z" opacity=".6"/>
            <path fill="#595959" d="M0 232h170v18H0z"/>
            <path fill="#FFF" d="M20 238h44v6H20z" opacity=".6"/>
            <path fill="#595959" d="M0 250h170v18H0z"/>
            <path fill="#FFF" d="M20 256h47v6H20z" opacity=".6"/>
            <path fill="#595959" d="M0 268h170v18H0z"/>
            <path fill="#FFF" d="M20 274h47v6H20z" opacity=".6"/>
            <path fill="#595959" d="M0 286h170v18H0z"/>
            <path fill="#FFF" d="M20 292h25v6H20z" opacity=".6"/>
            <path fill="#FFF" d="M15 146h10v10H15zM15 164h10v10H15zM15 182h10v10H15zM15 116h36v8H15z"/>
            <path stroke="#979797" d="M20 310.5h130M20 136.5h130"/>
            <g>
                <use fill="#000" filter="url(#c)" xlink:href="#d"/>
                <use fill="#FFF" xlink:href="#d"/>
            </g>
            <g transform="translate(248 52)">
                <circle cx="45" cy="45" r="45" fill="#FF5C62"/>
                <path fill="#FFF" fill-rule="nonzero" d="M31.788 70.448l-13.33 7.366c-.782.432-1.683 1.114-2.337 1.693C23.893 86.145 34.122 90 45.083 90c10.88 0 20.955-3.856 28.704-10.404-.715-.612-1.596-1.25-2.456-1.685l-14.273-7.23a5.523 5.523 0 0 1-3.01-4.932v-5.673c.402-.463.86-1.057 1.35-1.76 1.946-2.783 3.418-5.845 4.438-9.058a4.535 4.535 0 0 0 3.18-4.321v-6.056a4.547 4.547 0 0 0-1.494-3.356V26.77s1.775-13.624-16.437-13.624S28.65 26.77 28.65 26.77v8.755a4.54 4.54 0 0 0-1.494 3.356v6.056c0 1.595.828 3 2.067 3.81 1.493 6.588 5.404 11.329 5.404 11.329v5.533a5.532 5.532 0 0 1-2.838 4.839z" opacity=".697"/>
            </g>
            <path fill="#32454C" fill-rule="nonzero" d="M206.616 162.969l2.663-5.766h2.883l-4.202 8.156V170h-2.68v-4.64l-4.201-8.157h2.891l2.646 5.766zm6.152 2.188c0-.943.182-1.784.545-2.522a3.99 3.99 0 0 1 1.569-1.714c.682-.404 1.475-.607 2.377-.607 1.283 0 2.33.393 3.142 1.178.812.785 1.265 1.852 1.358 3.2l.018.65c0 1.459-.407 2.63-1.222 3.511-.814.882-1.907 1.323-3.278 1.323s-2.465-.44-3.283-1.319c-.817-.878-1.226-2.074-1.226-3.586v-.114zm2.54.185c0 .902.17 1.592.51 2.07.34.477.826.716 1.459.716.615 0 1.096-.236 1.441-.708.346-.471.519-1.226.519-2.263 0-.885-.173-1.57-.519-2.056-.345-.487-.832-.73-1.459-.73-.62 0-1.101.242-1.441.725-.34.484-.51 1.232-.51 2.246zm13.729 3.691c-.627.762-1.495 1.143-2.602 1.143-1.02 0-1.797-.293-2.333-.88-.537-.585-.81-1.443-.822-2.574v-6.232h2.54v6.144c0 .99.451 1.485 1.353 1.485.862 0 1.453-.299 1.776-.896v-6.733h2.549V170h-2.391l-.07-.967zm9.72-6.16a6.9 6.9 0 0 0-.914-.071c-.96 0-1.59.325-1.89.975V170h-2.54v-9.51h2.4l.07 1.134c.51-.873 1.216-1.31 2.118-1.31.282 0 .545.039.791.115l-.035 2.443zM249.972 170a2.82 2.82 0 0 1-.255-.853c-.615.686-1.415 1.029-2.4 1.029-.93 0-1.703-.27-2.315-.809-.612-.539-.919-1.219-.919-2.039 0-1.008.374-1.781 1.121-2.32.747-.54 1.827-.812 3.239-.818h1.169v-.544c0-.44-.113-.792-.339-1.055-.225-.264-.581-.396-1.067-.396-.428 0-.764.103-1.007.308-.243.205-.365.486-.365.844h-2.54c0-.551.17-1.06.51-1.53.34-.468.82-.836 1.442-1.103.62-.266 1.318-.4 2.091-.4 1.172 0 2.102.295 2.79.884.69.589 1.034 1.416 1.034 2.483v4.122c.006.902.131 1.585.378 2.048V170h-2.567zm-2.1-1.767c.375 0 .72-.083 1.037-.25.316-.167.55-.391.703-.672v-1.635h-.95c-1.27 0-1.948.44-2.03 1.318l-.008.15c0 .316.11.577.334.782.222.205.527.307.914.307zm10.195-.105c.469 0 .85-.129 1.142-.387.293-.258.446-.6.458-1.028h2.381a3.258 3.258 0 0 1-.527 1.77 3.48 3.48 0 0 1-1.42 1.249c-.6.296-1.264.444-1.99.444-1.36 0-2.432-.432-3.217-1.297-.785-.864-1.178-2.058-1.178-3.581v-.167c0-1.465.39-2.634 1.17-3.507.779-.873 1.848-1.31 3.207-1.31 1.19 0 2.143.339 2.861 1.016.718.676 1.083 1.577 1.094 2.702h-2.381c-.012-.492-.165-.892-.458-1.2-.292-.307-.68-.46-1.16-.46-.591 0-1.038.214-1.34.645-.302.43-.453 1.13-.453 2.096v.264c0 .978.15 1.682.449 2.11.298.427.753.64 1.362.64zm9.387 0c.468 0 .85-.129 1.142-.387.293-.258.446-.6.457-1.028h2.382a3.258 3.258 0 0 1-.527 1.77 3.48 3.48 0 0 1-1.42 1.249c-.6.296-1.264.444-1.99.444-1.36 0-2.432-.432-3.217-1.297-.785-.864-1.178-2.058-1.178-3.581v-.167c0-1.465.39-2.634 1.169-3.507.78-.873 1.849-1.31 3.208-1.31 1.19 0 2.143.339 2.86 1.016.719.676 1.083 1.577 1.095 2.702h-2.382c-.011-.492-.164-.892-.457-1.2-.293-.307-.68-.46-1.16-.46-.592 0-1.039.214-1.34.645-.302.43-.453 1.13-.453 2.096v.264c0 .978.15 1.682.448 2.11.3.427.753.64 1.363.64zm5.036-2.97c0-.944.181-1.785.545-2.523a3.99 3.99 0 0 1 1.569-1.714c.682-.404 1.475-.607 2.377-.607 1.283 0 2.33.393 3.142 1.178.812.785 1.264 1.852 1.358 3.2l.018.65c0 1.459-.408 2.63-1.222 3.511-.815.882-1.907 1.323-3.278 1.323-1.372 0-2.466-.44-3.283-1.319-.818-.878-1.226-2.074-1.226-3.586v-.114zm2.54.184c0 .902.17 1.592.51 2.07.34.477.826.716 1.459.716.615 0 1.095-.236 1.44-.708.347-.471.52-1.226.52-2.263 0-.885-.173-1.57-.52-2.056-.345-.487-.831-.73-1.458-.73-.621 0-1.102.242-1.441.725-.34.484-.51 1.232-.51 2.246zm13.728 3.691c-.627.762-1.494 1.143-2.601 1.143-1.02 0-1.798-.293-2.334-.88-.536-.585-.81-1.443-.822-2.574v-6.232h2.54v6.144c0 .99.452 1.485 1.354 1.485.861 0 1.453-.299 1.775-.896v-6.733h2.55V170h-2.391l-.07-.967zm6.715-8.543l.08 1.099c.679-.85 1.59-1.275 2.733-1.275 1.007 0 1.757.296 2.25.888.492.592.744 1.477.756 2.654V170h-2.54v-6.082c0-.54-.118-.93-.352-1.173-.234-.244-.624-.365-1.169-.365-.715 0-1.251.305-1.608.914V170h-2.54v-9.51h2.39zm10.784-2.338v2.338h1.626v1.864h-1.626v4.746c0 .351.068.603.202.755.135.153.393.229.774.229.281 0 .53-.02.747-.062v1.925a5.229 5.229 0 0 1-1.538.229c-1.781 0-2.69-.9-2.725-2.698v-5.124h-1.388v-1.864h1.388v-2.338h2.54zm10.002 3.375c.674-.808 1.52-1.213 2.54-1.213 2.063 0 3.109 1.199 3.138 3.595V170h-2.54v-6.02c0-.545-.117-.948-.352-1.209-.234-.26-.624-.391-1.169-.391-.744 0-1.283.287-1.617.861V170h-2.54v-13.5h2.54v5.027zM329.364 170a2.82 2.82 0 0 1-.255-.853c-.615.686-1.415 1.029-2.4 1.029-.931 0-1.703-.27-2.315-.809-.613-.539-.919-1.219-.919-2.039 0-1.008.374-1.781 1.12-2.32.748-.54 1.827-.812 3.24-.818h1.168v-.544c0-.44-.112-.792-.338-1.055-.226-.264-.582-.396-1.068-.396-.428 0-.763.103-1.006.308-.243.205-.365.486-.365.844h-2.54c0-.551.17-1.06.51-1.53.34-.468.82-.836 1.441-1.103.621-.266 1.319-.4 2.092-.4 1.172 0 2.102.295 2.79.884.689.589 1.033 1.416 1.033 2.483v4.122c.006.902.132 1.585.378 2.048V170h-2.566zm-2.1-1.767c.374 0 .72-.083 1.036-.25.317-.167.551-.391.703-.672v-1.635h-.949c-1.271 0-1.948.44-2.03 1.318l-.009.15c0 .316.111.577.334.782.223.205.527.307.914.307zm11.39-.86c0-.311-.154-.556-.462-.735-.307-.179-.8-.338-1.48-.479-2.262-.474-3.393-1.435-3.393-2.883 0-.843.35-1.548 1.05-2.113.7-.566 1.616-.849 2.747-.849 1.207 0 2.172.285 2.896.853.723.568 1.085 1.307 1.085 2.215h-2.54c0-.363-.117-.664-.351-.901-.235-.237-.601-.356-1.1-.356-.427 0-.758.097-.992.29a.916.916 0 0 0-.352.738c0 .282.134.509.4.681.267.173.716.323 1.35.449a11.02 11.02 0 0 1 1.599.426c1.342.492 2.013 1.345 2.013 2.558 0 .867-.373 1.568-1.117 2.105-.744.536-1.705.804-2.882.804-.797 0-1.505-.142-2.123-.426-.618-.285-1.103-.674-1.455-1.17a2.716 2.716 0 0 1-.527-1.603h2.408c.024.45.19.796.501 1.037.31.24.727.36 1.248.36.487 0 .854-.092 1.103-.277a.861.861 0 0 0 .374-.725zm17.156-2.04c0 1.523-.325 2.711-.976 3.564-.65.853-1.558 1.279-2.724 1.279-1.031 0-1.855-.396-2.47-1.187l-.114 1.011h-2.285v-13.5h2.54v4.843c.586-.686 1.356-1.029 2.311-1.029 1.16 0 2.07.427 2.73 1.28.658.852.988 2.052.988 3.598v.141zm-2.54-.185c0-.96-.152-1.662-.457-2.105-.305-.442-.759-.663-1.362-.663-.809 0-1.366.33-1.67.993v3.753c.31.668.873 1.002 1.687 1.002.82 0 1.36-.404 1.617-1.213.123-.387.185-.976.185-1.767zm8.481 5.028c-1.394 0-2.53-.428-3.405-1.283-.876-.856-1.314-1.996-1.314-3.42v-.245c0-.956.184-1.81.553-2.562.37-.753.893-1.333 1.57-1.74.676-.408 1.448-.612 2.315-.612 1.301 0 2.325.41 3.072 1.23.747.821 1.12 1.984 1.12 3.49v1.037h-6.055c.082.621.33 1.12.743 1.494.413.375.936.563 1.568.563.979 0 1.744-.355 2.294-1.064l1.248 1.398c-.38.539-.896.96-1.546 1.261-.65.302-1.372.453-2.163.453zm-.29-7.805c-.503 0-.912.17-1.226.51-.313.34-.514.826-.602 1.459h3.534v-.202c-.012-.563-.165-.998-.458-1.305-.292-.308-.709-.462-1.248-.462zm10.02 7.805c-1.395 0-2.53-.428-3.406-1.283-.876-.856-1.314-1.996-1.314-3.42v-.245c0-.956.185-1.81.554-2.562.37-.753.892-1.333 1.569-1.74.677-.408 1.449-.612 2.316-.612 1.3 0 2.324.41 3.071 1.23.748.821 1.121 1.984 1.121 3.49v1.037h-6.056c.082.621.33 1.12.743 1.494.413.375.936.563 1.569.563.978 0 1.743-.355 2.294-1.064l1.248 1.398c-.38.539-.897.96-1.547 1.261-.65.302-1.371.453-2.162.453zm-.29-7.805c-.504 0-.913.17-1.226.51-.314.34-.514.826-.602 1.459h3.533v-.202c-.012-.563-.164-.998-.457-1.305-.293-.308-.709-.462-1.248-.462zm7.98-1.88l.08 1.098c.68-.85 1.59-1.275 2.733-1.275 1.008 0 1.758.296 2.25.888.492.592.744 1.477.756 2.654V170h-2.54v-6.082c0-.54-.117-.93-.352-1.173-.234-.244-.624-.365-1.169-.365-.715 0-1.25.305-1.608.914V170h-2.54v-9.51h2.39zM260.242 194a2.82 2.82 0 0 1-.255-.853c-.615.686-1.415 1.029-2.4 1.029-.93 0-1.703-.27-2.315-.809-.612-.539-.918-1.219-.918-2.039 0-1.008.373-1.781 1.12-2.32.747-.54 1.827-.812 3.239-.818h1.169v-.544c0-.44-.113-.792-.339-1.055-.225-.264-.581-.396-1.067-.396-.428 0-.764.103-1.007.308-.243.205-.365.486-.365.844h-2.54c0-.551.17-1.06.51-1.53.34-.468.82-.836 1.442-1.103.62-.266 1.318-.4 2.091-.4 1.172 0 2.102.295 2.79.884.69.589 1.034 1.416 1.034 2.483v4.122c.006.902.131 1.585.378 2.048V194h-2.567zm-2.1-1.767c.375 0 .72-.083 1.037-.25.316-.167.55-.391.703-.672v-1.635h-.95c-1.27 0-1.948.44-2.03 1.318l-.008.15c0 .316.11.577.334.782.222.205.527.307.914.307zm10.195-.105c.469 0 .85-.129 1.142-.387.293-.258.446-.6.458-1.028h2.381a3.258 3.258 0 0 1-.527 1.77 3.48 3.48 0 0 1-1.42 1.249c-.6.296-1.264.444-1.99.444-1.36 0-2.432-.432-3.217-1.297-.785-.864-1.178-2.058-1.178-3.581v-.167c0-1.465.39-2.634 1.17-3.507.779-.873 1.848-1.31 3.207-1.31 1.19 0 2.143.339 2.861 1.016.718.676 1.083 1.577 1.094 2.702h-2.381c-.012-.492-.165-.892-.458-1.2-.292-.307-.68-.46-1.16-.46-.591 0-1.038.214-1.34.645-.302.43-.453 1.13-.453 2.096v.264c0 .978.15 1.682.449 2.11.298.427.753.64 1.362.64zm8.473-9.976v2.338h1.626v1.864h-1.626v4.746c0 .351.067.603.202.755.134.153.392.229.773.229.281 0 .53-.02.747-.062v1.925a5.229 5.229 0 0 1-1.538.229c-1.781 0-2.69-.9-2.724-2.698v-5.124h-1.39v-1.864h1.39v-2.338h2.54zM282.53 194h-2.549v-9.51h2.55V194zm-2.698-11.97c0-.382.127-.695.382-.941s.602-.37 1.042-.37c.433 0 .78.124 1.037.37.258.246.387.56.387.94 0 .387-.13.703-.391.95-.261.246-.605.369-1.033.369-.428 0-.772-.123-1.033-.37-.26-.246-.391-.562-.391-.949zm8.35 8.867l1.766-6.407h2.655l-3.208 9.51h-2.426l-3.208-9.51h2.654l1.767 6.407zM299.23 194a2.82 2.82 0 0 1-.254-.853c-.616.686-1.415 1.029-2.4 1.029-.931 0-1.703-.27-2.316-.809-.612-.539-.918-1.219-.918-2.039 0-1.008.373-1.781 1.12-2.32.747-.54 1.827-.812 3.24-.818h1.168v-.544c0-.44-.113-.792-.338-1.055-.226-.264-.582-.396-1.068-.396-.428 0-.763.103-1.006.308-.244.205-.365.486-.365.844h-2.54c0-.551.17-1.06.51-1.53.34-.468.82-.836 1.44-1.103.622-.266 1.32-.4 2.093-.4 1.172 0 2.102.295 2.79.884.689.589 1.033 1.416 1.033 2.483v4.122c.006.902.132 1.585.378 2.048V194h-2.567zm-2.1-1.767c.375 0 .72-.083 1.037-.25.316-.167.55-.391.703-.672v-1.635h-.95c-1.27 0-1.947.44-2.03 1.318l-.008.15c0 .316.111.577.334.782.222.205.527.307.914.307zm9.281-10.08v2.337h1.626v1.864h-1.626v4.746c0 .351.068.603.202.755.135.153.393.229.774.229.281 0 .53-.02.747-.062v1.925a5.229 5.229 0 0 1-1.538.229c-1.782 0-2.69-.9-2.725-2.698v-5.124h-1.389v-1.864h1.39v-2.338h2.54zm7.418 12.023c-1.394 0-2.53-.428-3.406-1.283-.876-.856-1.314-1.996-1.314-3.42v-.245c0-.956.185-1.81.554-2.562.37-.753.892-1.333 1.569-1.74.677-.408 1.449-.612 2.316-.612 1.3 0 2.325.41 3.072 1.23.747.821 1.12 1.984 1.12 3.49v1.037h-6.055c.082.621.33 1.12.742 1.494.413.375.936.563 1.57.563.978 0 1.742-.355 2.293-1.064l1.248 1.398c-.38.539-.896.96-1.547 1.261-.65.302-1.37.453-2.162.453zm-.29-7.805c-.504 0-.913.17-1.226.51-.313.34-.514.826-.602 1.459h3.533v-.202c-.012-.563-.164-.998-.457-1.305-.293-.308-.709-.462-1.248-.462zm5.247 2.804c0-1.483.333-2.663.998-3.542.665-.88 1.574-1.319 2.729-1.319.925 0 1.69.346 2.294 1.038V180.5h2.548V194h-2.293l-.124-1.01c-.632.79-1.447 1.186-2.443 1.186-1.119 0-2.017-.441-2.694-1.323-.676-.882-1.015-2.108-1.015-3.678zm2.54.184c0 .891.155 1.574.466 2.048.31.475.762.712 1.354.712.785 0 1.338-.33 1.66-.993v-3.753c-.316-.662-.864-.993-1.643-.993-1.225 0-1.837.993-1.837 2.98zm10.582.712h-2.11l-.298-8.868h2.707l-.299 8.868zm-1.054 1.389c.427 0 .771.126 1.032.378s.391.574.391.967c0 .386-.13.706-.39.958-.262.252-.606.378-1.033.378-.422 0-.764-.126-1.024-.378a1.275 1.275 0 0 1-.392-.958c0-.387.13-.708.392-.963.26-.255.602-.382 1.024-.382z"/>
            <g>
                <g transform="translate(310 40)">
                    <use fill="#000" filter="url(#e)" xlink:href="#f"/>
                    <use fill="#FFF" xlink:href="#f"/>
                </g>
                <path d="M318 48h24v24h-24z"/>
                <path fill="#00B67A" fill-rule="nonzero" d="M327 64.17L322.83 60l-1.42 1.41L327 67l12-12-1.41-1.41z"/>
            </g>
        </g>
    </g>
</svg>
