<?xml version="1.0" encoding="utf-8"?>
<!-- Generator: Adobe Illustrator 23.0.6, SVG Export Plug-In . SVG Version: 6.00 Build 0)  -->
<svg version="1.1" id="Calque_1" xmlns="http://www.w3.org/2000/svg" xmlns:xlink="http://www.w3.org/1999/xlink" x="0px" y="0px"
	 viewBox="0 0 72 35" style="enable-background:new 0 0 72 35;" xml:space="preserve">
<style type="text/css">
	.st0{fill-rule:evenodd;clip-rule:evenodd;fill:#3E4D9B;}
	.st1{filter:url(#Adobe_OpacityMaskFilter);}
	.st2{fill-rule:evenodd;clip-rule:evenodd;fill:#FFFFFF;}
	.st3{mask:url(#b_1_);fill-rule:evenodd;clip-rule:evenodd;fill:#3E4D9B;}
	.st4{filter:url(#Adobe_OpacityMaskFilter_1_);}
	.st5{mask:url(#d_1_);fill-rule:evenodd;clip-rule:evenodd;fill:#3E4D9B;}
	.st6{fill-rule:evenodd;clip-rule:evenodd;fill:#F39600;}
	.st7{filter:url(#Adobe_OpacityMaskFilter_2_);}
	.st8{mask:url(#f_1_);fill-rule:evenodd;clip-rule:evenodd;fill:#3E4D9B;}
</style>
<g>
	<path class="st0" d="M51.8,22.1c-0.1,0.5-0.1,1-0.2,1.4c-0.4-0.1-0.9-0.4-1.6-0.3c-0.4,0-0.9,0.2-0.9,0.5c0,0.4,0.7,0.6,1,0.8
		c0.7,0.3,1.4,0.8,1.4,1.6c0,0.6-0.2,1.2-0.6,1.6c-0.9,0.9-3,1-4.4,0.4c0.1-0.5,0.2-1,0.2-1.4c0.5,0.2,1.3,0.5,2.1,0.4
		c0.4,0,0.8-0.3,0.8-0.7c0-0.5-0.9-0.8-1.3-1c-0.5-0.3-1.1-0.8-1.1-1.5c0-0.4,0.1-0.9,0.4-1.2C48.4,22,50.2,21.6,51.8,22.1
		 M34.9,12.9h1.9l-1.2,7.4h-1.9L34.9,12.9z M30,14.4l-0.3,1.8h0.5c0.5,0,1-0.4,1.1-0.9c0.1-0.5-0.3-0.9-0.8-0.9L30,14.4L30,14.4z
		 M28.3,12.9h2.9c1.9,0,2.3,1.1,2.1,2.3c-0.2,1.1-0.9,1.8-1.9,2l1.8,3h-2.4l-1.4-2.9L29,20.3h-1.9C27.1,20.3,28.3,12.9,28.3,12.9z
		 M43.6,12.9h1.9l-1.2,7.4h-1.9L43.6,12.9z M46.9,12.9h4.2l-0.3,1.6h-2.3l-0.2,1.3h2.2l-0.3,1.6h-2.2l-0.2,1.3h2.3l-0.3,1.6h-4.2
		L46.9,12.9z M23,12.9h4.2l-0.3,1.6h-2.3l-0.2,1.3h2.2l-0.3,1.6h-2.2L24,18.7h2.3L26,20.3h-4.2L23,12.9z M38.2,12.9h4.2l-0.3,1.6
		h-2.3l-0.2,1.3h2.1l-0.3,1.6h-2.1L39,20.3h-1.9L38.2,12.9z"/>
	<g transform="translate(50.854 12.755)">
		<defs>
			<filter id="Adobe_OpacityMaskFilter" filterUnits="userSpaceOnUse" x="0.2" y="0.2" width="7.1" height="7.4">
				<feColorMatrix  type="matrix" values="1 0 0 0 0  0 1 0 0 0  0 0 1 0 0  0 0 0 1 0"/>
			</filter>
		</defs>
		<mask maskUnits="userSpaceOnUse" x="0.2" y="0.2" width="7.1" height="7.4" id="b_1_">
			<g class="st1">
				<path id="a_1_" class="st2" d="M0.2,0.2h7.1v7.4H0.2L0.2,0.2z"/>
			</g>
		</mask>
		<path class="st3" d="M3,1.8h0.4c1.5,0,2,1,1.9,2C5,5.1,4.1,5.9,2.8,5.9H2.3C2.3,5.9,3,1.8,3,1.8z M1.4,0.2h2.5
			c3,0,3.6,2.2,3.4,3.7C6.9,5.9,5,7.5,2.7,7.5H0.2L1.4,0.2z"/>
	</g>
	<g transform="translate(14.097 5.49)">
		<defs>
			<filter id="Adobe_OpacityMaskFilter_1_" filterUnits="userSpaceOnUse" x="0" y="0.1" width="12.2" height="14.7">
				<feColorMatrix  type="matrix" values="1 0 0 0 0  0 1 0 0 0  0 0 1 0 0  0 0 0 1 0"/>
			</filter>
		</defs>
		<mask maskUnits="userSpaceOnUse" x="0" y="0.1" width="12.2" height="14.7" id="d_1_">
			<g class="st4">
				<path id="c_1_" class="st2" d="M0,0.1h12.2v14.7H0V0.1z"/>
			</g>
		</mask>
		<path class="st5" d="M0,6.4h3.5l0.4,5.4c2.3-4,4.7-7.9,7.1-11.7h1.1c-2.5,4.9-5,9.8-7.4,14.7H2.2L1.5,8.9C1.4,7.4,1.1,6.8,0,6.6
			V6.4z"/>
	</g>
	<path class="st6" d="M15.4,8.9l3,1.3l0.3,3.3h0.2l2.7-4.6V8.6h-6.2L15.4,8.9z"/>
	<path class="st0" d="M27.8,22H29l-0.4,2.9c0.4-0.3,0.8-0.5,1.3-0.5c1,0,1.6,1,1.5,2.1c-0.2,1.2-1.1,2.1-2.1,2.1
		c-0.5,0-0.8-0.2-1.1-0.6l-0.1,0.5h-1.2C26.8,28.5,27.8,22,27.8,22z M29.3,25.6c0.5,0,0.8,0.4,0.7,0.9c-0.1,0.5-0.5,0.9-1,0.9
		c-0.5,0-0.8-0.4-0.7-0.9C28.4,26,28.8,25.6,29.3,25.6z"/>
	<g transform="translate(30.98 24.295)">
		<defs>
			<filter id="Adobe_OpacityMaskFilter_2_" filterUnits="userSpaceOnUse" x="0.1" y="0.2" width="5.2" height="6">
				<feColorMatrix  type="matrix" values="1 0 0 0 0  0 1 0 0 0  0 0 1 0 0  0 0 0 1 0"/>
			</filter>
		</defs>
		<mask maskUnits="userSpaceOnUse" x="0.1" y="0.2" width="5.2" height="6" id="f_1_">
			<g class="st7">
				<path id="e_1_" class="st2" d="M0.1,0.2h5.2v6H0.1L0.1,0.2z"/>
			</g>
		</mask>
		<path class="st8" d="M0.4,0.2h1.5l0.7,2.1l1.3-2.1h1.4l-3.7,6H0.1l1.6-2.5L0.4,0.2z"/>
	</g>
	<path class="st0" d="M43.6,28.5l1.1-6.5h1.8l-1.1,6.5H43.6z M42.1,22c-0.6,1.4-1.1,3-1.8,4.4l-0.2-0.9l0,0l0,0.2
		c-0.1-0.5-0.4-0.9-0.7-1.3c-0.1-0.1-0.2-0.2-0.3-0.3c-0.4-0.5-0.9-0.9-1.5-1.2l1.6,5.6h1.9c0.9-2.2,1.9-4.3,2.8-6.5
		C44,22,42.1,22,42.1,22z"/>
	<path class="st6" d="M38.8,22h-2.9v0.1c1.7,0.3,3.8,1.7,4.3,3.5l-0.6-3C39.5,22.2,39.2,22,38.8,22"/>
	<path class="st0" d="M55.1,23.8l-0.9,2.4h1.5L55.1,23.8z M57.8,28.5h-1.6c-0.1-0.3-0.1-0.7-0.2-1h-2.2l-0.4,1h-1.9l2.4-5.5
		c0.1-0.2,0.3-0.6,0.4-0.7C54.3,22,54.8,22,55,22h1.3L57.8,28.5L57.8,28.5z"/>
</g>
</svg>
