<svg xmlns="http://www.w3.org/2000/svg" width="73" height="35" viewBox="0 0 73 35">
    <g fill="none" fill-rule="evenodd">
        <rect width="72.431" height="35" x=".389" fill="#F1EFEB" fill-rule="nonzero" rx="3"/>
        <path fill="#72777A" d="M41.067 9.722c0 3.593 0 7.185.003 10.778 0 .116-.029.143-.143.141a50.06 50.06 0 0 0-1.435 0c-.114.002-.144-.025-.144-.142.003-3.513.003-7.026.003-10.538 0-.08.004-.16.007-.239h1.709zM62.125 10.27c-.114-.002-.228.003-.341-.005-.085-.006-.099.03-.098.105.003.41-.002.819.004 1.228.001.1-.02.139-.129.133-.187-.01-.187-.002-.187-.195 0-.387-.004-.774.002-1.16.001-.093-.028-.118-.115-.11-.079.006-.16-.004-.238.002-.073.005-.088-.025-.09-.092 0-.203-.004-.203.203-.203h.989v.296z"/>
        <path fill="#E63039" d="M34.143 18.24l.608-1.344c.573-1.268 1.146-2.535 1.716-3.804.034-.075.071-.107.159-.107.554.005 1.109.003 1.663.003h.114l-.093.209c-1.253 2.765-2.5 5.533-3.762 8.295-.447.977-1.13 1.748-2.107 2.233a3.58 3.58 0 0 1-1.708.365c-.073-.002-.088-.025-.085-.093.024-.444.044-.887.065-1.331.002-.051 0-.09.074-.096.774-.065 1.326-.496 1.778-1.088.284-.371.473-.793.662-1.216.057-.128.17-.263.156-.382-.013-.112-.163-.206-.25-.31-.492-.593-.88-1.254-1.228-1.938-.697-1.374-1.213-2.818-1.661-4.289-.026-.083-.042-.17-.075-.25-.04-.1 0-.111.088-.11.506.002 1.01.006 1.516-.003.119-.003.148.052.175.142.099.318.193.639.302.953.404 1.165.847 2.314 1.436 3.401.137.253.281.502.457.76"/>
        <path fill="#72777A" d="M48.01 13.782c.11-.101.21-.204.321-.293a2.32 2.32 0 0 1 1.286-.49c.763-.06 1.489.062 2.152.459.777.463 1.225 1.152 1.378 2.04.053.308.07.617.07.929 0 1.363-.001 2.726.003 4.09 0 .102-.027.125-.126.124a73.416 73.416 0 0 0-1.481 0c-.09 0-.113-.025-.113-.114.003-1.276.004-2.552 0-3.828 0-.394-.029-.787-.172-1.162-.247-.641-.7-.9-1.331-.938a1.997 1.997 0 0 0-.882.124c-.547.22-.838.652-.98 1.202-.066.25-.095.505-.095.764 0 1.272-.002 2.545.002 3.817 0 .113-.03.136-.138.135a68.114 68.114 0 0 0-1.481 0c-.092 0-.113-.028-.113-.116.003-2.476.003-4.952 0-7.428 0-.086.018-.118.112-.116.43.005.859.004 1.288 0 .074 0 .108.023.125.094.055.234.115.466.176.707M42.916 17.037c0-1.154 0-2.309-.003-3.463 0-.102.023-.136.131-.135.494.006.987.005 1.48 0 .096 0 .121.027.121.122-.002 2.32-.002 4.64 0 6.96 0 .094-.023.12-.119.12a73.058 73.058 0 0 0-1.48 0c-.102 0-.133-.022-.133-.13.004-1.158.003-2.316.003-3.474M43.8 10.512c.551-.01 1.017.468.985 1.046-.027.487-.503.93-1.021.92a1.003 1.003 0 0 1-.963-1.009.99.99 0 0 1 .999-.957M13.55 25.707c.002-.739.496-1.278 1.19-1.32.352-.02.652.117.9.368.037.036.036.06-.003.089-.012.009-.022.02-.033.031-.066.063-.122.158-.2.18-.084.026-.139-.09-.213-.135-.505-.31-1.165.027-1.221.627-.041.437.171.812.541.94.3.104.57.039.802-.172.06-.054.094-.058.146.001.05.057.105.11.164.158.059.046.048.075 0 .123-.558.562-1.499.431-1.899-.268a1.22 1.22 0 0 1-.173-.622M53.46 10.406a3.764 3.764 0 0 0-.456.538c-.08.113-.28.112-.361-.001a3.24 3.24 0 0 0-.436-.51c-.034.032-.018.068-.018.099-.002.36-.005.721.001 1.082.002.098-.029.12-.12.117-.183-.007-.183-.002-.183-.18 0-.485.002-.971-.002-1.458-.001-.089.014-.124.115-.124.117 0 .207.029.295.11.17.154.326.318.464.5.048.064.073.073.127.002.157-.21.34-.398.543-.565.096-.078.204-.033.306-.038.036-.002.027.04.027.063l.001 1.618c0 .057-.021.068-.073.07-.23.011-.23.013-.23-.21v-1.113zM20.547 25.289c.26-.234.54-.224.819-.078.252.131.34.37.346.638.008.322.001.645.004.968 0 .066-.025.082-.087.084-.3.012-.296.014-.3-.289-.005-.269.024-.54-.017-.807-.032-.21-.14-.308-.325-.315-.211-.008-.352.093-.407.29-.03.107-.025.217-.025.327 0 .228-.004.456.001.684.002.08-.013.112-.104.111-.283-.002-.283.002-.283-.284 0-.463.003-.927-.002-1.39 0-.091.019-.136.117-.12.018.004.038.001.057.001.164 0 .164 0 .206.18M51.81 25.288c.236-.219.495-.222.76-.106.272.118.391.348.396.636.007.334.003.668.005 1.002 0 .057-.017.078-.077.081-.302.018-.3.02-.303-.277-.002-.25.013-.5-.01-.75-.024-.268-.136-.385-.367-.385-.227.001-.38.148-.39.4-.011.284-.006.569-.007.853 0 .158 0 .158-.16.158-.225 0-.225 0-.225-.227 0-.486.002-.971-.002-1.457 0-.084.02-.122.107-.107.015.002.03 0 .046 0 .176 0 .176 0 .227.179M57.294 11.09c0-.338.003-.675-.002-1.012-.001-.084.02-.11.107-.107.198.005.198 0 .198.197 0 .486-.002.972.001 1.458 0 .076-.018.097-.098.106-.182.02-.281-.036-.36-.213-.156-.356-.387-.669-.645-.96l-.12-.137c-.045.046-.029.086-.03.121 0 .357-.002.714.002 1.07 0 .085-.015.121-.11.118-.196-.007-.196 0-.196-.199 0-.486.001-.972-.002-1.458 0-.077.017-.099.099-.105.14-.01.243.037.344.132.312.294.572.627.812.988M27.65 25.767c-.012.176.023.39-.025.6-.072.31-.27.495-.587.534-.182.022-.364.018-.531-.077-.254-.145-.331-.386-.337-.655-.008-.326-.001-.653-.004-.979 0-.064.02-.083.084-.085.302-.008.302-.01.302.286 0 .217-.001.433.001.65 0 .067.007.136.02.203.037.2.164.303.355.294.199-.01.321-.126.327-.336.009-.326.008-.652.003-.978 0-.096.027-.12.12-.12.271.006.271.002.271.274v.389zM39.022 25.763c-.013.179.025.396-.026.61-.073.312-.284.5-.602.53-.175.017-.35.013-.51-.077-.255-.143-.334-.383-.341-.652-.008-.33-.001-.66-.004-.99 0-.06.02-.076.08-.078.306-.014.303-.016.307.292.004.276-.024.554.017.83.036.243.204.351.442.295.15-.035.24-.144.243-.327.008-.322.01-.644.004-.967-.002-.102.027-.127.126-.124.263.006.264.001.264.269v.389zM24.027 25.11a.866.866 0 0 1 .577.234c.054.05.076.093.004.143-.015.011-.027.027-.04.04-.05.047-.092.116-.15.136-.062.02-.095-.07-.151-.099-.166-.086-.33-.093-.487.008a.494.494 0 0 0-.23.477c.013.204.108.367.306.443a.448.448 0 0 0 .511-.115c.04-.04.062-.04.098 0 .042.048.087.097.137.136.073.058.076.101.003.166a.853.853 0 0 1-.485.229c-.031.003-.073-.01-.08.042-.006.048.032.054.063.067.117.05.193.133.197.266.005.141-.063.24-.183.304-.052.029-.111.046-.168.068-.072.03-.11.014-.139-.069-.032-.09-.02-.124.077-.144.076-.015.155-.052.162-.151.007-.086-.044-.134-.118-.16-.054-.02-.051-.062-.046-.102.012-.09-.018-.128-.11-.157-.411-.127-.668-.576-.592-1.011.077-.44.428-.753.844-.751M45.166 25.109c.122 0 .228.003.334-.001.071-.003.074.046.087.094.107.384.23.761.404 1.12.018.037.04.07.065.118.082-.122.132-.244.182-.365.12-.283.213-.575.29-.872.02-.073.048-.101.123-.095.094.007.234-.03.272.017.053.066-.025.182-.052.274-.122.42-.26.832-.48 1.212-.033.056-.076.105-.104.163-.088.178-.35.166-.457.003-.238-.367-.391-.768-.523-1.18-.05-.158-.092-.318-.14-.488M60.907 9.973c-.153.282-.319.53-.5.767-.065.083-.068.135-.002.22.183.235.346.486.502.768h-.33c-.05.001-.06-.04-.078-.07a9.29 9.29 0 0 0-.349-.534c-.045-.065-.067-.06-.11.002-.114.165-.232.328-.328.505-.043.078-.093.108-.18.099-.074-.008-.15-.002-.226-.002-.006-.058.03-.092.052-.129.133-.226.276-.445.437-.652.055-.07.062-.117.003-.192a5.642 5.642 0 0 1-.445-.66c-.02-.034-.052-.065-.049-.122.103 0 .204.002.305 0 .05-.002.061.036.08.067.108.179.226.35.343.524.056.083.081.068.13-.004.112-.163.226-.324.323-.496.037-.065.078-.101.16-.093.078.009.158.002.262.002M57.932 10.847c0-.262.003-.524-.001-.786-.001-.07.018-.09.089-.09.345.004.69.004 1.036 0 .074 0 .086.027.086.092 0 .199.004.199-.196.199-.21 0-.418.002-.627-.001-.062 0-.09.017-.086.083.004.084.005.168 0 .25-.006.075.027.089.093.087.174-.003.349.002.523-.002.076-.002.108.014.105.098-.007.217.02.182-.179.184a15.02 15.02 0 0 1-.455 0c-.062-.001-.09.018-.088.084.005.102.005.205 0 .307-.003.075.023.1.098.098.235-.004.47.002.705-.003.086-.003.126.024.104.107-.015.058.058.168-.057.17-.364.01-.728.003-1.093.005-.068 0-.056-.045-.056-.085v-.797M57.705 26.006c0-.27.003-.54-.001-.809-.001-.07.02-.097.09-.089a.465.465 0 0 0 .125 0c.095-.016.143.021.15.116.005.083.043.057.086.027a.732.732 0 0 1 .735-.073c.07.029.116.06.046.135a.233.233 0 0 0-.042.067c-.053.127-.123.171-.275.13-.253-.066-.522.17-.525.437-.003.284-.003.57.001.854.002.082-.026.1-.103.1-.287 0-.287.003-.287-.28v-.615zM40.944 25.296c.248-.19.507-.235.79-.122.086.034.117.072.046.15a.207.207 0 0 0-.036.058c-.052.123-.117.171-.27.13-.254-.07-.522.165-.525.432-.003.284-.003.57.001.854.001.078-.022.104-.102.104-.287.001-.287.004-.287-.281 0-.467.003-.934-.002-1.4 0-.09.025-.127.114-.112h.023c.19 0 .19 0 .248.187M51.03 10.47l-.49 1.084c-.05.114-.099.23-.156.34-.11.214-.276.362-.52.399-.036.005-.11.038-.107-.034.003-.072-.055-.177.058-.214a.493.493 0 0 0 .261-.19c.134-.192.133-.215.006-.409-.183-.278-.293-.588-.393-.903-.018-.058.001-.078.058-.073h.01c.198-.008.197-.008.26.175.08.232.167.461.312.685.114-.253.228-.487.326-.727.042-.104.095-.153.208-.134.048.007.098 0 .167 0"/>
        <path fill="#E63039" d="M17.597 14.964a2.462 2.462 0 0 1-.352.025c-.6-.001-1.2-.003-1.799.001-.085 0-.108-.02-.107-.106.004-.51.002-1.018.002-1.526 0-.513.001-1.025-.002-1.538 0-.072.018-.097.094-.096.65.003 1.3-.015 1.947.009.64.023 1.147.308 1.444.894.502.991-.127 2.18-1.227 2.337m2.267-3.976c-.666-.67-1.492-.986-2.432-.99-1.306-.007-2.612-.002-3.918-.002v10.643c.566-.001 1.131-.005 1.697 0 .1 0 .133-.022.132-.13-.004-1.23-.001-2.46-.004-3.69 0-.096.027-.12.12-.119.638.004 1.276.002 1.914.003.243 0 .486-.015.725-.061 1.584-.308 2.612-1.562 2.716-3 .074-1.025-.221-1.922-.95-2.654"/>
        <path fill="#72777A" d="M32.159 26.558c-.285-.004-.507-.247-.505-.551.003-.298.228-.536.508-.535.286 0 .502.238.5.55-.002.3-.227.54-.503.536m.47-1.314c-.296-.19-.604-.18-.9.01-.062.04-.087.029-.09-.036-.007-.097-.06-.121-.145-.11a.268.268 0 0 1-.079 0c-.113-.019-.137.03-.136.138.005.778.002 1.556.003 2.334 0 .04.005.082.008.124h.365v-.977c.24.173.475.226.728.165.362-.088.603-.376.646-.789.037-.36-.093-.66-.4-.86"/>
        <path fill="#E63039" d="M26.283 19.029a2.25 2.25 0 0 1-3.042-1.836 3.291 3.291 0 0 1-.022-.352c.003-1.146.75-2.064 1.85-2.269a2.256 2.256 0 0 1 2.618 1.744c.257 1.168-.332 2.307-1.404 2.713m3.124-5.921c0-.092-.019-.124-.117-.123-.414.006-.828.006-1.242 0-.091-.001-.123.032-.146.114-.063.23-.117.462-.167.698-1.946-1.415-4.2-.801-5.323.594-1.15 1.428-1.152 3.544.025 4.952.612.731 1.384 1.187 2.327 1.33 1.094.167 2.082-.101 2.966-.778.05.224.098.438.142.653.013.067.041.09.113.09a65.71 65.71 0 0 1 1.31 0c.092.001.112-.027.112-.114-.003-2.472-.003-4.944 0-7.416"/>
        <path fill="#72777A" d="M58.833 16.015c-.52.056-1.041.097-1.563.128-.334.02-.668.02-1.002.032-.11.004-.06-.061-.044-.101.296-.764.837-1.24 1.649-1.387a2.12 2.12 0 0 1 2.236 1.09l.035.072c-.446.07-.878.119-1.31.166m3.086-.161a3.804 3.804 0 0 0-5.151-2.58c-1.618.666-2.542 2.339-2.317 4.095a3.759 3.759 0 0 0 1.243 2.387c.61.55 1.333.856 2.146.948.494.056.985.015 1.473-.067a4.764 4.764 0 0 0 2.086-.898c.052-.04.068-.06.02-.12a85.305 85.305 0 0 1-.906-1.128c-.048-.06-.082-.055-.138-.016-.075.051-.155.094-.235.137-.52.28-1.077.407-1.665.442-.623.037-1.178-.116-1.653-.526a2.06 2.06 0 0 1-.577-.83c.488.007.961-.012 1.435-.042a35.175 35.175 0 0 0 1.957-.182c.77-.093 1.536-.21 2.296-.366.087-.018.118-.05.117-.14a4.518 4.518 0 0 0-.131-1.114M55.307 26.559c-.28-.004-.5-.242-.5-.543 0-.304.229-.547.51-.544.279.003.5.243.5.543 0 .306-.226.548-.51.544m.888-1.927c0-.283 0-.28-.285-.281-.079 0-.104.02-.102.1.005.274.002.547.002.841-.049-.03-.08-.05-.112-.067a.787.787 0 0 0-.616-.083c-.357.1-.57.347-.631.704-.064.373.046.698.366.92.301.21.619.201.93.011.055-.034.081-.034.086.034.005.074.044.097.114.09a.501.501 0 0 1 .125 0c.102.015.126-.028.125-.127-.004-.714-.002-1.428-.002-2.142M49.444 25.794a7.376 7.376 0 0 1-.788.063c.069-.203.195-.322.393-.35.18-.027.325.045.438.186.05.063.049.09-.043.101m-.433-.677c-.674.092-.95.883-.598 1.419.276.418.868.506 1.329.21.081-.053.09-.094.023-.163a.945.945 0 0 1-.11-.145c-.032-.049-.062-.048-.11-.018a.773.773 0 0 1-.493.102c-.183-.02-.299-.129-.378-.29.06-.029.114-.024.166-.025.35-.01.695-.055 1.039-.12.05-.01.08-.024.083-.085.03-.502-.459-.952-.95-.885M61.508 25.793c-.259.034-.518.059-.795.065.076-.212.208-.332.41-.355a.45.45 0 0 1 .425.193c.043.056.05.086-.04.097m-.445-.672c-.55.082-.876.634-.699 1.184.242.75 1.069.715 1.486.405.036-.027.037-.049.008-.083a2.473 2.473 0 0 1-.139-.18c-.032-.047-.06-.066-.117-.026a.64.64 0 0 1-.232.089c-.301.068-.538-.038-.629-.283.042-.022.088-.018.133-.02a6.46 6.46 0 0 0 1.06-.12c.05-.01.086-.02.086-.082.004-.52-.437-.962-.957-.884M17.89 26.55c-.289.002-.507-.232-.507-.542 0-.307.223-.54.511-.538.278.003.498.242.497.543 0 .301-.218.534-.501.536m-.017-1.442c-.449.007-.8.363-.834.846-.035.51.329.94.809.957.497.017.885-.373.888-.892.002-.514-.38-.918-.863-.91M35.261 26.55c-.287.001-.508-.236-.507-.543.001-.304.228-.54.514-.537.28.003.495.24.494.544-.001.304-.216.534-.5.536m-.045-1.442c-.457.023-.808.416-.807.905.001.602.53 1.028 1.081.868.356-.103.588-.416.62-.838.038-.508-.394-.96-.894-.935M54.872 11.463a.593.593 0 0 1-.589-.62.596.596 0 0 1 .6-.598c.338.001.598.27.596.615a.592.592 0 0 1-.607.603m.002-1.513a.907.907 0 0 0-.902.91.908.908 0 0 0 1.816-.004.906.906 0 0 0-.914-.906M48.966 11.484a.37.37 0 0 1-.38-.382.373.373 0 1 1 .746-.002.371.371 0 0 1-.366.384m.531-.74a.595.595 0 0 0-.32-.244.652.652 0 0 0-.572.084c-.007-.017-.012-.023-.012-.03v-.433c0-.208 0-.206-.212-.194-.055.003-.07.02-.07.073v1.652c0 .027-.012.06.03.075.101.037.215-.008.255-.107.356.226.672.103.839-.076a.65.65 0 0 0 .062-.8"/>
    </g>
</svg>
