<?xml version="1.0" encoding="utf-8"?>
<!-- Generator: Adobe Illustrator 23.0.6, SVG Export Plug-In . SVG Version: 6.00 Build 0)  -->
<svg version="1.1" id="Calque_1" xmlns="http://www.w3.org/2000/svg" xmlns:xlink="http://www.w3.org/1999/xlink" x="0px" y="0px"
	 viewBox="0 0 49.9 17.8" style="enable-background:new 0 0 49.9 17.8;" xml:space="preserve">
<style type="text/css">
	.st0{fill-rule:evenodd;clip-rule:evenodd;fill:#FD0C15;}
	.st1{filter:url(#Adobe_OpacityMaskFilter);}
	.st2{fill-rule:evenodd;clip-rule:evenodd;fill:#FFFFFF;}
	.st3{mask:url(#b_1_);fill-rule:evenodd;clip-rule:evenodd;fill:#FD0C15;}
	.st4{fill-rule:evenodd;clip-rule:evenodd;fill:#F3AE12;}
</style>
<g>
	<path class="st0" d="M47.3,7.2h0.1c0,0,0.1,0,0.1,0c0,0,0-0.1,0-0.1c0,0,0-0.1,0-0.1c0,0-0.1,0-0.1,0h-0.1L47.3,7.2z M47.3,7.7
		h-0.2V6.9h0.3c0.1,0,0.2,0,0.2,0c0.1,0,0.1,0.1,0.1,0.2c0,0.1-0.1,0.2-0.1,0.2l0.2,0.4h-0.2l-0.1-0.3h-0.1
		C47.3,7.4,47.3,7.7,47.3,7.7z M47.5,8c0.4,0,0.7-0.3,0.7-0.7c0-0.4-0.3-0.7-0.7-0.7c-0.4,0-0.7,0.3-0.7,0.7C46.8,7.7,47.1,8,47.5,8
		z M46.5,7.3c0-0.5,0.4-1,0.9-1c0.5,0,0.9,0.4,0.9,1s-0.4,1-0.9,1C47,8.2,46.5,7.8,46.5,7.3z"/>
	<g transform="translate(40.394 9.983)">
		<defs>
			<filter id="Adobe_OpacityMaskFilter" filterUnits="userSpaceOnUse" x="-12.1" y="-9.5" width="5.1" height="7.8">
				<feColorMatrix  type="matrix" values="1 0 0 0 0  0 1 0 0 0  0 0 1 0 0  0 0 0 1 0"/>
			</filter>
		</defs>
		<mask maskUnits="userSpaceOnUse" x="-12.1" y="-9.5" width="5.1" height="7.8" id="b_1_">
			<g class="st1">
				<path id="a_1_" class="st2" d="M-12.1-9.5h5.1v7.8h-5.1V-9.5z"/>
			</g>
		</mask>
		<path class="st3" d="M-6.9-9.1l-0.3,1.6c-0.5-0.3-0.9-0.4-1.4-0.4c-1.1,0-1.9,1.2-1.9,2.8c0,1.1,0.5,1.8,1.4,1.8
			c0.4,0,0.8-0.1,1.3-0.4L-8-1.9C-8.6-1.7-9-1.7-9.4-1.7c-1.6,0-2.7-1.2-2.7-3.2c0-2.7,1.4-4.6,3.4-4.6c0.3,0,0.5,0,0.7,0.1l0.6,0.2
			C-7.1-9.2-7.1-9.1-6.9-9.1"/>
	</g>
	<path class="st0" d="M28.4,2c0,0-0.1,0-0.2,0c-0.5,0-0.8,0.3-1.3,1l0.1-0.9h-1.4l-0.9,6.1h1.5c0.6-3.7,0.7-4.4,1.4-4.4h0.1
		C28,3.1,28.2,2.5,28.4,2C28.4,2,28.4,2,28.4,2z M19.2,8.1c-0.4,0.1-0.7,0.2-1.1,0.2c-0.8,0-1.2-0.5-1.2-1.3c0-0.2,0-0.4,0-0.6
		L17,5.8l0.1-0.5l0.7-4.2h1.5l-0.2,0.9h0.8l-0.2,1.5h-0.8l-0.4,2.6c0,0.1,0,0.2,0,0.2c0,0.3,0.2,0.5,0.5,0.5c0.2,0,0.3,0,0.4-0.1
		L19.2,8.1z M13.2,4c0,0.8,0.4,1.3,1.2,1.7c0.6,0.3,0.7,0.4,0.7,0.7c0,0.4-0.3,0.6-0.9,0.6c-0.5,0-0.9-0.1-1.4-0.2l-0.2,1.4l0.1,0
		l0.3,0.1c0.1,0,0.2,0,0.4,0.1c0.4,0,0.7,0.1,0.8,0.1c1.6,0,2.4-0.7,2.4-2c0-0.8-0.3-1.3-1.1-1.7c-0.6-0.3-0.7-0.4-0.7-0.7
		c0-0.3,0.3-0.5,0.7-0.5c0.3,0,0.7,0,1.1,0.1l0.2-1.4c-0.4-0.1-0.9-0.1-1.3-0.1C13.8,1.9,13.2,2.9,13.2,4 M43.4,6.7
		c0.7,0,1.2-0.8,1.2-2.1c0-0.8-0.3-1.2-0.8-1.2c-0.7,0-1.2,0.9-1.2,2.1C42.6,6.3,42.9,6.7,43.4,6.7L43.4,6.7z M45.7,8.2h-1.5
		l0.1-0.6c-0.4,0.5-0.9,0.7-1.4,0.7c-1.1,0-1.9-1-1.9-2.5c0-2,1.1-3.8,2.5-3.8c0.6,0,1,0.3,1.5,0.8l0.3-2.1h1.5
		C46.8,0.6,45.7,8.2,45.7,8.2z M23.2,4.4c0-0.1,0-0.2,0-0.3c0-0.5-0.3-0.8-0.7-0.8c-0.5,0-0.8,0.4-1,1.1C21.5,4.4,23.2,4.4,23.2,4.4
		z M24.1,8c-0.5,0.2-1,0.3-1.6,0.3c-1.7,0-2.6-0.9-2.6-2.7c0-2.1,1.1-3.6,2.7-3.6c1.3,0,2.1,0.9,2.1,2.2c0,0.4-0.1,0.9-0.2,1.5h-3
		c0,0.1,0,0.1,0,0.2c0,0.7,0.5,1.1,1.3,1.1c0.5,0,1-0.1,1.6-0.4C24.3,6.5,24.1,8,24.1,8z M7,8.2H5.5l0.9-5.8l-2,5.8h-1L3.2,2.4
		L2.3,8.2H0.9l1.2-7.5h2.2l0.1,4.7l1.5-4.7h2.4L7,8.2z M12.1,8.2h-1.3l0-0.6C10.4,8,9.9,8.3,9.2,8.3c-0.8,0-1.4-0.7-1.4-1.7
		c0-1.5,1-2.4,2.7-2.4c0.2,0,0.4,0,0.6,0c0-0.2,0.1-0.3,0.1-0.4c0-0.4-0.3-0.6-1-0.6c-0.4,0-0.9,0.1-1.3,0.2L8.7,3.6l-0.1,0l0.2-1.4
		c0.8-0.2,1.3-0.3,1.8-0.3c1.3,0,2,0.6,2,1.8c0,0.3,0,0.5-0.1,1.2l-0.3,2.2l-0.1,0.4l0,0.3l0,0.2C12.1,8,12.1,8.2,12.1,8.2z M11,5.4
		c-0.2,0-0.2,0-0.3,0c-0.9,0-1.3,0.3-1.3,0.9C9.3,6.7,9.5,7,9.9,7C10.5,7,10.9,6.3,11,5.4z M37.2,8.2h-1.3l0-0.6
		c-0.4,0.5-0.9,0.7-1.6,0.7c-0.8,0-1.4-0.7-1.4-1.7c0-1.5,1-2.4,2.7-2.4c0.2,0,0.4,0,0.6,0c0-0.2,0.1-0.3,0.1-0.4
		c0-0.4-0.3-0.6-1-0.6c-0.4,0-0.9,0.1-1.3,0.2l-0.2,0.1l-0.1,0l0.2-1.4c0.8-0.2,1.3-0.3,1.8-0.3c1.3,0,2,0.6,2,1.8
		c0,0.3,0,0.5-0.1,1.2l-0.3,2.2l0,0.4l0,0.3l0,0.2C37.2,8,37.2,8.2,37.2,8.2z M36.1,5.4c-0.2,0-0.2,0-0.3,0c-0.9,0-1.3,0.3-1.3,0.9
		C34.4,6.7,34.7,7,35,7C35.6,7,36.1,6.3,36.1,5.4z M41.5,2c0,0-0.1,0-0.2,0c-0.5,0-0.8,0.3-1.3,1l0.1-0.9h-1.4l-0.9,6.1h1.5
		c0.6-3.7,0.7-4.4,1.4-4.4H41C41.1,3.2,41.3,2.6,41.5,2C41.5,2,41.5,2,41.5,2z"/>
	<path class="st4" d="M36.6,14.1c0-1.5-0.8-2.7-2.2-2.7c-1.6,0-2.7,1.5-2.7,3.6c0,1.5,0.6,2.8,2.2,2.8
		C35.4,17.8,36.6,16.7,36.6,14.1 M35.1,14.1c0,1.4-0.4,2.2-1.1,2.2c-0.5,0-0.8-0.5-0.8-1.4c0-1,0.4-2.1,1.1-2.1
		C34.9,12.9,35.1,13.5,35.1,14.1 M32.1,10.3l-0.2,1.6c-0.5-0.3-0.9-0.4-1.3-0.4c-1.1,0-1.8,1.2-1.8,2.8c0,1.1,0.5,1.8,1.3,1.8
		c0.4,0,0.7-0.1,1.2-0.4l-0.3,1.7c-0.5,0.2-0.9,0.2-1.3,0.2c-1.5,0-2.5-1.2-2.5-3.2c0-2.7,1.3-4.6,3.2-4.6c0.2,0,0.5,0,0.6,0.1
		l0.6,0.2C32,10.2,32,10.2,32.1,10.3 M22.7,11.4c0,0-0.1,0-0.2,0c-0.5,0-0.7,0.3-1.2,1l0.1-0.9h-1.3l-0.9,6.1h1.4
		c0.5-3.7,0.7-4.4,1.3-4.4c0,0,0,0,0.1,0C22.3,12.6,22.5,12,22.7,11.4C22.7,11.4,22.7,11.4,22.7,11.4z M39.2,16.1
		c0.7,0,1.1-0.8,1.1-2.1c0-0.8-0.3-1.2-0.8-1.2c-0.7,0-1.1,0.8-1.1,2C38.5,15.7,38.8,16.1,39.2,16.1z M41.4,17.5H40l0.1-0.6
		c-0.4,0.5-0.8,0.7-1.3,0.7c-1,0-1.7-1-1.7-2.5c0-2,1.1-3.8,2.3-3.8c0.6,0,1,0.3,1.4,0.8L41,10h1.4C42.4,10,41.4,17.5,41.4,17.5z
		 M8.5,13.9c0-0.1,0-0.2,0-0.3c0-0.5-0.3-0.8-0.7-0.8c-0.5,0-0.8,0.4-0.9,1.1C6.9,13.9,8.5,13.9,8.5,13.9z M9.3,17.5
		c-0.5,0.2-1,0.3-1.5,0.3c-1.6,0-2.4-0.9-2.4-2.7c0-2.1,1.1-3.6,2.5-3.6c1.2,0,1.9,0.9,1.9,2.2c0,0.4-0.1,0.9-0.2,1.5H6.8
		c0,0.1,0,0.1,0,0.2c0,0.7,0.4,1.1,1.3,1.1c0.5,0,1-0.1,1.5-0.4C9.5,16,9.3,17.5,9.3,17.5z M25.5,13.9c0-0.1,0-0.2,0-0.3
		c0-0.5-0.2-0.8-0.7-0.8c-0.5,0-0.8,0.4-0.9,1.1L25.5,13.9L25.5,13.9z M26.3,17.5c-0.5,0.2-1,0.3-1.5,0.3c-1.6,0-2.4-0.9-2.4-2.7
		c0-2.1,1.1-3.6,2.5-3.6c1.2,0,1.9,0.9,1.9,2.2c0,0.4-0.1,0.9-0.2,1.5h-2.8c0,0.1,0,0.1,0,0.2c0,0.7,0.4,1.1,1.3,1.1
		c0.5,0,1-0.1,1.5-0.4C26.5,16,26.3,17.5,26.3,17.5z M45.4,13.9c0-0.1,0-0.2,0-0.3c0-0.5-0.3-0.8-0.7-0.8c-0.5,0-0.8,0.4-0.9,1.1
		L45.4,13.9L45.4,13.9z M46.2,17.5c-0.5,0.2-1,0.3-1.5,0.3c-1.6,0-2.4-0.9-2.4-2.7c0-2.1,1.1-3.6,2.5-3.6c1.2,0,1.9,0.9,1.9,2.2
		c0,0.4-0.1,0.9-0.2,1.5h-2.8c0,0.1,0,0.1,0,0.2c0,0.7,0.4,1.1,1.3,1.1c0.5,0,1-0.1,1.5-0.4C46.5,16,46.2,17.5,46.2,17.5z M5,11.7
		c-0.3-0.2-0.7-0.3-1.2-0.3c-0.6,0-1,0.1-1,0.7c0,1.1,2.1,0.7,2.1,3c0,2.1-1.4,2.7-2.6,2.7c-0.6,0-1.2-0.2-1.7-0.4l0.3-1.6
		c0.3,0.3,0.9,0.4,1.3,0.4c0.5,0,1.1-0.1,1.1-0.9c0-1.2-2.1-0.8-2.1-2.9c0-2,1.2-2.6,2.4-2.6c0.7,0,1.3,0.1,1.7,0.3
		C5.4,10.2,5,11.7,5,11.7z M13.5,17.5c-0.3,0.1-0.7,0.2-1.3,0.2c-1.2,0-2-1.2-2-2.8c0-2,1.1-3.6,2.8-3.6c0.4,0,0.9,0.2,1.3,0.4
		L14,13.2c-0.3-0.2-0.6-0.3-1-0.3c-0.8,0-1.3,0.7-1.3,2c0,0.7,0.4,1.3,1,1.3c0.4,0,0.6-0.1,1-0.3L13.5,17.5L13.5,17.5z M18.8,16
		c-0.1,0.5-0.1,1-0.2,1.6h-1.4l0.1-1h0c-0.4,0.7-0.9,1.1-1.7,1.1c-0.9,0-1.3-0.9-1.3-2.1c0-0.4,0-0.6,0.1-1.3l0.4-2.8h1.5L16,14.3
		c0,0.3-0.1,0.6-0.1,0.9c0,0.4,0.2,0.7,0.6,0.7c0.6,0,1-0.8,1.1-1.7l0.4-2.8h1.5C19.5,11.5,18.8,16,18.8,16z M47.7,17.5h-0.2v-1
		h-0.3v-0.2H48v0.2h-0.3L47.7,17.5z M49.2,17.5H49v-1l-0.2,1h-0.2l-0.2-1v1h-0.2v-1.2h0.3l0.2,1h0l0.2-1h0.3V17.5z"/>
</g>
</svg>
