<svg xmlns="http://www.w3.org/2000/svg" viewBox="0 0 260 260"><defs><style>.a{fill:#fff;}.b,.e{fill:#273c9a;}.c{fill:#e71a36;}.d{fill:#999;}.e{stroke:#273c9a;stroke-miterlimit:10;stroke-width:5px;}</style></defs><title>logo-ifp</title><circle class="a" cx="130" cy="130" r="130"/><path class="b" d="M183.7,133.2h0.9a1.5,1.5,0,0,1,1.8.9,4.7,4.7,0,0,1-.4,2c-0.1.5-.7,0.8-0.9,1.3a1.9,1.9,0,0,0,.4,1.8,2.7,2.7,0,0,1-.7,4.1,13.3,13.3,0,0,1-3.4,1.3l-5.8,1.5a5.9,5.9,0,0,0-3.9,4.4c-0.8,2.7-1.3,5.5-1.8,8.3s-1.7,8.3-2.5,12.4a10.9,10.9,0,0,0,0,2.1h0.5l0.5-2.5c0.5-2.6,1-5.3,1.6-7.9s1.9-7.4,3-11c0.5-1.8,1.1-3.6,3.1-4.4a25.3,25.3,0,0,1,3.3-.9c2.1-.5,4.3-0.8,6.4-1.4a3.4,3.4,0,0,0,2.4-2.2,4.2,4.2,0,0,0-.9-3.7,1.6,1.6,0,0,1,0-2.1l0.7-1c0.9-1.8.8-2.4-.7-3.7a1.1,1.1,0,0,1-.1-1c0.8-1.3.7-2-.4-3l-1.5-1.6a2.1,2.1,0,0,1,.1-3,11.3,11.3,0,0,0,1.2-1.7c0.7-1.3.4-3-.6-3.4a39.7,39.7,0,0,1-8.4-4.8,5.2,5.2,0,0,1-2.1-2.7,14.5,14.5,0,0,1-.3-3.7,11.9,11.9,0,0,0-2.7-7.1c-1.6-1.9-3.2-3.8-4.9-5.6s-1.1-.9-0.2-2a1.3,1.3,0,0,0,.3-1.1,1.6,1.6,0,0,0-1-.6c-0.9-.2-2.9.4-2.3-1.3s-1.1-4.7-2.9-6.2a21.3,21.3,0,0,0-13.1-5,39.4,39.4,0,0,0-16.1,2.4,20.5,20.5,0,0,0-8,5.5,27.6,27.6,0,0,0-4.5,7.2,2.8,2.8,0,0,1-.8,1c-1.5,1.1-3.1,2.1-4.5,3.3a18.3,18.3,0,0,0-6.6,11.9A26.6,26.6,0,0,0,110,123a47.2,47.2,0,0,0,6.1,10.9l0.8,1.3-0.3.2-1.7-1.3a18.3,18.3,0,0,0-2.5-1.7c-0.9-.5-1.5.1-1.3,1.1a5.1,5.1,0,0,0,.8,1.7,2.4,2.4,0,0,1,.7,1.3,1.6,1.6,0,0,1-.9.8,2.9,2.9,0,0,1-1.5.7,2.6,2.6,0,0,1-1.5-.9,5.8,5.8,0,0,0-1.8-1.1,21.1,21.1,0,0,0-2.9-.7,51.7,51.7,0,0,0-16-1.2,6,6,0,0,0-4.1,1.7c-1.3,1.4-2.5,2.8-3.7,4.3a6.5,6.5,0,0,0-.7,1.3l1.6,0.3h0.4a28.1,28.1,0,0,1,5.2-.5,51.5,51.5,0,0,1,9.8,1.7,26.8,26.8,0,0,1,6.6,2.8,17.2,17.2,0,0,0,3,1.8,5.1,5.1,0,0,0,3.5-.2l4.9-1.6c0.4-.1,1.4.2,0.9,0.8s-1.6,3.3-3.6,3.8l-0.9.3c-0.7.4-1.7,0.7-2.1,1.4a4.4,4.4,0,0,1-2.2,1.8c-1.8,1-3.6,2.1-5.4,3.2s-0.6,1.8-.6,2.4,0.2,1.4-.7,1.6l-5.1,1.3a7.1,7.1,0,0,0-3.9,2.1c-0.6.8-2.3,0.7-3.2,0.8l-4,.5c-1.3.2-2.7,1.3-2.5,2.1a5.7,5.7,0,0,0,1.4,2.8,11.3,11.3,0,0,0,11.5,1.8c2.6-.9,4.9-2.1,7.5-2.9s5.4-1.5,8.1-2a39.9,39.9,0,0,0,10.9-3.4,34,34,0,0,0,5.1-3.1c2.1-1.6,3.9-3.6,5.9-5.2a15.6,15.6,0,0,1,5.9-3.3,3.4,3.4,0,0,1,2.5,0,2.1,2.1,0,0,1,.7,2.1,19.6,19.6,0,0,1-5.1,11.3c-3.4,3.7-7.9,6-12.5,7.8a29.2,29.2,0,0,0-3.4,1.8v0.3H121l4.5-1a18.9,18.9,0,0,0,8.6-4.6,23.5,23.5,0,0,0,6.6-10.9,31.7,31.7,0,0,0,.7-3.2,7.9,7.9,0,0,0,.2-3c-0.4-1.7-2.2-2.3-3.8-1.9a22.9,22.9,0,0,0-8.1,4.2,38.3,38.3,0,0,0-3.5,2.8c-1.2,1.1-2.3,2.3-3.6,3.3s-5.7,2.8-8.9,3.6-5.6,1.1-8.4,1.7c-1,.2-2.1.3-3.1,0.5a16,16,0,0,0-5.4,2.8,10.3,10.3,0,0,1-7.3,2.4,7.1,7.1,0,0,1-4.8-1.9c-0.6-.6-1.2-1.5-0.6-2.3a4,4,0,0,1,2.9-1.5l6.1-.6a7.2,7.2,0,0,0,1.7-.7c-0.8-.4-1.6.7-2.5-0.5a68.9,68.9,0,0,1,6.7-2.6c2.6-.7,5.4-1.1,8-1.6a34.8,34.8,0,0,0,5.1-1.2c3.1-1.2,6.5-3.2,7.8-6.4l-0.2-.2-0.8.6c-3.1,2.8-6.4,5.4-10.7,5.9-1.9.3-3.8,0.3-5.6,0.4a0.7,0.7,0,0,1-.7-0.2c-0.3-.3-0.1-0.4.1-0.7a4.7,4.7,0,0,1,1.3-1.8c1.6-1,3.4-1.7,5-2.6a6.8,6.8,0,0,0,2.3-1.5,3.9,3.9,0,0,1,1.6-1.2c0.9-.4,2-0.9,2.4-1.7a6.4,6.4,0,0,1,1.5-2.3c1.3-1.2,1.2-2.8,1.6-4.5l-1,.4a23.8,23.8,0,0,1-2.8,1.4c-1.4.5-3,.8-4.4,1.3a4.7,4.7,0,0,1-4.9-.7,20.3,20.3,0,0,0-5-3.2,26.8,26.8,0,0,0-12.6-2.2,1.4,1.4,0,0,1-1.6-.5,1.2,1.2,0,0,0-1-.1l-0.6.3a1.5,1.5,0,0,1-1.1,0,2.3,2.3,0,0,1,.4-0.7,14.2,14.2,0,0,0,2.3-1.6,8.8,8.8,0,0,1,6.6-2.8,36.2,36.2,0,0,1,7.4.5l3.6,0.8a5.9,5.9,0,0,1,3.1,1.3,5.2,5.2,0,0,0,4,1.6,2.4,2.4,0,0,0,1.3-.1,2,2,0,0,1,1.9-.9c0.6,0,1.9.1,1.2-.9l-1.3-1.5a12.7,12.7,0,0,1-.8-1.3l0.3-.3c2.1,1.2,4,2.6,6,3.9a2.6,2.6,0,0,0,1.2.1,3.4,3.4,0,0,0-.3-1c-1.2-1.9-2.6-3.7-3.7-5.7a45.6,45.6,0,0,1-4.6-12.7,22.8,22.8,0,0,1,.7-12.3,19,19,0,0,1,6.8-8.9,14.2,14.2,0,0,0,2.4-2.5c0.6-.7,1-1.6,1.6-2.4,2.1-2.8,4.4-5.6,7.7-7.1a42.1,42.1,0,0,1,12-3.4,28.8,28.8,0,0,1,12.1.9,22,22,0,0,1,5.2,2.2c1.3,0.8,3.2,2.5,2.5,4.2s-1.9,1.9-3.1,2.4l-2.1.8v0.4a9.4,9.4,0,0,0,2.9-.4,4,4,0,0,1,3.1-.1,3.8,3.8,0,0,1,1.2.4,0.5,0.5,0,0,1-.2.8h-1.7a7.8,7.8,0,0,0-4.2.6c-1.9,1-2.9,2.9-4,4.5a3.9,3.9,0,0,1-4.4,1.8,2.5,2.5,0,0,0-2.1.6,2.2,2.2,0,0,0,.7.8,6,6,0,0,0,6.7-2.2,20.7,20.7,0,0,1,2.4-3,6.2,6.2,0,0,1,3.5-1.7,5.1,5.1,0,0,1,3.6.9,20.6,20.6,0,0,1,6.8,6.6,16.5,16.5,0,0,1,2.4,8.9,4,4,0,0,0,1.7,3.3,33.7,33.7,0,0,0,8,4.7c2.9,1.1,1.1,3.8-.1,5.5s0.4,3.5,1.8,4.7a1.6,1.6,0,0,1,.2,2.6l-1.6,1.4c0.4,0,.7-0.6,0,0h0Z" transform="translate(-8.9 -4.6)"/><path class="b" d="M162.2,114.1l3.7-1.7a3.7,3.7,0,0,1,1.5.1,5.6,5.6,0,0,1-.4,1.4l-2.5,3.7,0.7,0.2a2,2,0,0,1,2.4.9,1,1,0,0,0,.9,0,1.3,1.3,0,0,0,.6-1.8,3.3,3.3,0,0,1-.5-1.6c0-.6.5-0.9,0.6-1.5a9.1,9.1,0,0,1,.3-1.6c0.3-1,0-1.6-1.1-1.5a8.5,8.5,0,0,0-6.1,3.5c1.2-.6.9-1.4,0,0h0Z" transform="translate(-8.9 -4.6)"/><path class="b" d="M162.2,114.1a8.5,8.5,0,0,1,6.1-3.5c1-.1,1.4.5,1.1,1.5a8.3,8.3,0,0,0-.2,1.6c-0.1.6-.6,0.9-0.6,1.5a3.4,3.4,0,0,0,.5,1.6,1.3,1.3,0,0,1-.6,1.8,1,1,0,0,1-.9,0,2,2,0,0,0-2.4-.9l-0.7-.2,2.5-3.7a5.6,5.6,0,0,0,.4-1.4,3.8,3.8,0,0,0-1.5-.1l-3.7,1.7c0.9-1.4,1.2-.6,0,0h0Zm-17.8,17a2.1,2.1,0,0,1-1.1-1.6,1.7,1.7,0,0,0-1.9-.9,2.8,2.8,0,0,1-1.6-.2,2.8,2.8,0,0,0-4.2,2.2c-0.2,1.3.2,2.6-.5,3.9a2,2,0,0,0,.8,1.4,1.4,1.4,0,0,0,1.3.2,1.9,1.9,0,0,1,2.5.3c0.6,0.5.9,0.4,1.3-.2a2.6,2.6,0,0,1,3.2-1,1.3,1.3,0,0,0,1,0,2.2,2.2,0,0,0,.3-1.2,4,4,0,0,0-.2-1.1,1.3,1.3,0,0,0-.8-1.7h0Z" transform="translate(-8.9 -4.6)"/><path class="b" d="M145.1,132.8m2.4-5.9" transform="translate(-8.9 -4.6)"/><path class="b" d="M155.5,130.7a6.5,6.5,0,0,1-2.1-1c-0.7-.6-0.5-1.7-1.4-2a1.6,1.6,0,0,1-.9-1.5c-0.2-1.5-.3-4.5-2-5.1a35.6,35.6,0,0,0-4.7-1.3,6.1,6.1,0,0,0-3.8.4,5.1,5.1,0,0,1-2.5.6c-1.1-.1-1.7-0.9-2.6-1.4s-4.2-2.3-6.2-1.1a7.7,7.7,0,0,0-2.4,3.1l-2.4,4.8a5.9,5.9,0,0,0,.1,5.9,3.8,3.8,0,0,1,.2,3.3,22.9,22.9,0,0,0-1,4.5c-0.1,1.1.6,1.5,1.6,1.6a1.1,1.1,0,0,1,.8.2,4.6,4.6,0,0,0,2.5,1.9c0.9,0.3,2.2.5,2.3,1.7s2,1.4,3.2,1.6l6.1,1.1a2.5,2.5,0,0,0,3.2-1.3,6.9,6.9,0,0,1,1.3-1.9,14.3,14.3,0,0,0,1.9-1.4,3,3,0,0,1,3.1-1.1c1.4,0.2,4.8,1.3,5.7-.5a17.2,17.2,0,0,0,2.1-8.5c0-1.8-.1-1.9-1.8-2.6h0Zm-3.9,7c-0.5.9-1.2,2.3-2.4,1.9a1.6,1.6,0,0,1-.6-1.2c-0.1-1-.4-1.2-1.4-0.7s-3.8,0-5,1.5-1,4.7-3.1,2.9a17.4,17.4,0,0,0-3.3-2.3,2,2,0,0,0-2.5.2,7.2,7.2,0,0,1-.9,1.3,1.4,1.4,0,0,1-1.3,0c-2.5-1-3.9-3.2-2.8-6a7.8,7.8,0,0,0,.8-2.1,9.1,9.1,0,0,0-.4-3.4c-0.3-.8-0.5-1.6.3-2.2a1.7,1.7,0,0,0,.3-0.8,8.1,8.1,0,0,1,.7-2.2,5.9,5.9,0,0,1,9.4-1.3,1.5,1.5,0,0,0,2,.2,3.6,3.6,0,0,1,2.3-.7,5.1,5.1,0,0,1,3.5,2.3,6.3,6.3,0,0,1,.4,1.7c-0.2,1.6,0,2,1.6,2.3l1.3,0.2a1.7,1.7,0,0,1,1.6,1c0.3,0.8-.3,1.5-0.5,2.3s-0.4,2,.8,2.6S151.9,137.3,151.6,137.8Z" transform="translate(-8.9 -4.6)"/><path class="b" d="M157.3,133.3" transform="translate(-8.9 -4.6)"/><path class="c" d="M145.1,132.8a4.4,4.4,0,0,1,.2,1.1,2.1,2.1,0,0,1-.3,1.2,1.3,1.3,0,0,1-1,0,2.6,2.6,0,0,0-3.2,1c-0.4.6-.8,0.7-1.3,0.2a1.9,1.9,0,0,0-2.5-.3,1.4,1.4,0,0,1-1.3-.2,2,2,0,0,1-.7-1.4c0.7-1.3.3-2.6,0.5-3.9a2.8,2.8,0,0,1,4.2-2.2,2.9,2.9,0,0,0,1.6.2,1.8,1.8,0,0,1,1.9.9,2.1,2.1,0,0,0,1.1,1.6,1.3,1.3,0,0,1,.8,1.7C145.2,133.1,145.4,131.9,145.1,132.8Z" transform="translate(-8.9 -4.6)"/><ellipse class="b" cx="181.5" cy="123.8" rx="1" ry="0.4" transform="translate(-44.8 151.2) rotate(-42.7)"/><path class="b" d="M107.6,204.7A77.3,77.3,0,0,1,134.5,56V45.5a87.8,87.8,0,0,0-30.6,169.1Z" transform="translate(-8.9 -4.6)"/><path class="d" d="M207.6,165.5a77.5,77.5,0,0,1-93.1,41.7l-5,16.4a94.8,94.8,0,0,0,113.9-51.4l-15.8-6.7h0ZM194.4,55.4A96.2,96.2,0,0,0,146,37V56.5a77,77,0,0,1,37.2,14.6Z" transform="translate(-8.9 -4.6)"/><path class="c" d="M202.7,66.2L191.4,78.1a77.3,77.3,0,0,1,19.9,81.1l15.5,5.3A93.7,93.7,0,0,0,202.7,66.2Z" transform="translate(-8.9 -4.6)"/><path class="b" d="M23.7,118.7l-0.5,4.1,4.8,0.6a0.5,0.5,0,0,1-.1,1L16.7,123a0.5,0.5,0,0,1-.4-0.5l0.6-4.6a3.5,3.5,0,0,1,3.8-3h0A3.5,3.5,0,0,1,23.7,118.7Zm-5.9-.7-0.5,4.1,4.9,0.6,0.5-4.1A2.5,2.5,0,0,0,17.8,118Zm12.6-6.4a1.8,1.8,0,0,1-2.1,1.3l-9.8-1.9a0.5,0.5,0,0,1-.4-0.6,0.5,0.5,0,0,1,.6-0.4l9.8,1.9c1.1,0.2.7-1.1,1.4-1A0.6,0.6,0,0,1,30.4,111.6Zm2.7-11.1h0a1.8,1.8,0,0,1-1.7,1.3,3.9,3.9,0,0,1,.7,3.6c-0.7,2.7-3.3,3.5-5.8,2.9s-4.3-2.8-3.5-5.4a3.9,3.9,0,0,1,2.4-2.8l-0.8-.2a0.5,0.5,0,0,1,.2-1h0l6.7,1.8c1.1,0.3.7-1.1,1.5-.9A0.5,0.5,0,0,1,33.1,100.4Zm-9.4,2.6c-0.5,2,.7,3.6,2.8,4.2s4.1-.2,4.6-2.2-0.7-3.6-2.9-4.2S24.2,101.1,23.7,103.1Zm11.4-8-0.2.5a1.8,1.8,0,0,1-2.6,1.2l-5.8-2.1-0.3.8a0.5,0.5,0,0,1-.6.3,0.5,0.5,0,0,1-.3-0.6l0.3-.8-2.5-.9a0.5,0.5,0,0,1-.3-0.6,0.5,0.5,0,0,1,.6-0.3l2.5,0.9,0.5-1.5a0.5,0.5,0,0,1,.6-0.3,0.5,0.5,0,0,1,.3.6l-0.5,1.5,5.8,2.1c0.8,0.3,1.1.1,1.3-.6l0.2-.5a0.5,0.5,0,0,1,.6-0.3A0.5,0.5,0,0,1,35,95.1Zm0.3-11.1-2.9,6.5a3.4,3.4,0,0,0,4.4-1.6,3.1,3.1,0,0,0-.1-2.8,0.4,0.4,0,0,1-.1-0.5,0.5,0.5,0,0,1,.6-0.3,0.8,0.8,0,0,1,.4.5,4,4,0,0,1,0,3.4c-1.1,2.5-3.8,3-6.2,2s-3.8-3.4-2.7-5.9,3.8-3,6.2-2A0.5,0.5,0,0,1,35.3,84.1Zm-5.5,1.7c-0.8,1.9.2,3.5,1.8,4.4l2.7-6A3.4,3.4,0,0,0,29.8,85.8Zm8.6-10-2.6,4.7a0.5,0.5,0,0,1-.9-0.5h0l2.6-4.7A0.5,0.5,0,1,1,38.4,75.7ZM36.9,67l-0.3.5a0.8,0.8,0,0,0,.2,1L38,69.3l0.7-1.1a0.5,0.5,0,0,1,.7-0.1,0.5,0.5,0,0,1,.2.7l-0.7,1.1,6.4,4.1a0.5,0.5,0,0,1,.1.7,0.5,0.5,0,0,1-.7.1l-6.4-4.1-0.6,1a0.5,0.5,0,0,1-.7.1,0.5,0.5,0,0,1-.2-0.7l0.6-1-1.2-.8a1.7,1.7,0,0,1-.5-2.3l0.3-.5a0.5,0.5,0,0,1,.7-0.1A0.5,0.5,0,0,1,36.9,67Zm13.5,1c-1.7,2.2-4.4,2.1-6.5.5s-2.9-4.1-1.3-6.3,4.4-2.1,6.4-.5S52,65.8,50.3,68h0Zm-7-5.2c-1.2,1.6-.7,3.6,1.1,5s3.9,1.3,5.1-.3,0.7-3.6-1.1-5-3.9-1.3-5.1.3h0Zm7.4-8.6a2.9,2.9,0,0,0,.2,4.1h0l3.6,3.2a0.5,0.5,0,0,1-.7.7l-6.1-5.4a0.5,0.5,0,0,1,0-.7,0.5,0.5,0,0,1,.7,0l0.5,0.5a3.9,3.9,0,0,1,.9-3.1,0.5,0.5,0,0,1,.7-0.1,0.5,0.5,0,0,1,0,.7h0Zm15.7-3.9a0.5,0.5,0,0,1-.7,0l-3.9-4.2a2.2,2.2,0,0,0-3.2,3l4,4.2a0.5,0.5,0,0,1-.7.7l-3.9-4.2a2.2,2.2,0,0,0-3.2,3l4,4.2a0.5,0.5,0,0,1-.7.7l-5.6-5.9a0.5,0.5,0,0,1,.7-0.7h0.1a3.1,3.1,0,0,1,1-2.1,3.2,3.2,0,0,1,2.9-.8,3.2,3.2,0,0,1,5.4-2.8l4,4.2a0.5,0.5,0,0,1,0,.7h0Zm6.2-9.8L67,44.7a3.3,3.3,0,0,0,4.7.7A3.1,3.1,0,0,0,72.9,43a0.5,0.5,0,0,1,.2-0.4,0.5,0.5,0,0,1,.7,0,0.8,0.8,0,0,1,.1.7,4.1,4.1,0,0,1-1.7,3c-2.2,1.7-4.8.8-6.4-1.3s-1.7-4.8.5-6.4,4.8-.8,6.3,1.3a0.5,0.5,0,0,1-.1.7h0ZM67,39.2c-1.6,1.2-1.6,3.1-.6,4.7l5.3-4A3.3,3.3,0,0,0,67,39.2Zm21.3-3.4a0.5,0.5,0,0,1-.7-0.2l-0.4-.7a3.9,3.9,0,0,1-2.1,3c-2.4,1.3-4.9.1-6.1-2.2s-1-5,1.4-6.3a3.9,3.9,0,0,1,3.7-.2l-1.9-3.5a0.5,0.5,0,0,1,.2-0.7,0.5,0.5,0,0,1,.6.2l5.4,9.8A0.5,0.5,0,0,1,88.3,35.8Zm-7.4-5.5c-1.8,1-2.1,3-1.1,5s3,2.8,4.8,1.8,2.1-3,1.1-5S82.7,29.3,80.9,30.3Zm15.9-2.7-6.6,2.8a3.3,3.3,0,0,0,4.4,1.8,3.1,3.1,0,0,0,1.9-2.1,0.5,0.5,0,0,1,.3-0.4,0.5,0.5,0,0,1,.7.2,0.8,0.8,0,0,1-.1.7A4.1,4.1,0,0,1,95,33.1c-2.5,1.1-4.9-.4-5.9-2.8s-0.5-5,2.1-6.1,4.9,0.4,5.9,2.8a0.5,0.5,0,0,1-.2.6h0Zm-5.2-2.5c-1.9.8-2.3,2.7-1.7,4.4L96,26.9a3.4,3.4,0,0,0-4.4-1.8h0Zm19.9,2.2a0.5,0.5,0,0,1-.6-0.3h0l-2-7.4-3.6,1,2,7.4a0.5,0.5,0,0,1-.9.3h0l-2-7.4-1.1.3a0.5,0.5,0,0,1-.2-0.9l1.1-.3-0.4-1.3a1.7,1.7,0,0,1,1.2-2.1h0.5a0.5,0.5,0,0,1,.6.3,0.5,0.5,0,0,1-.3.6h-0.5a0.7,0.7,0,0,0-.5.9l0.4,1.4,4-1.1a0.5,0.5,0,0,1,.6.3l2.1,7.9a0.5,0.5,0,0,1-.4.6h0Zm10.7-2.1a0.5,0.5,0,0,1-.6-0.4l-0.9-4.9a2.9,2.9,0,0,0-3.4-2.4h0a2.9,2.9,0,0,0-2.4,3.4h0l0.9,4.9a0.5,0.5,0,0,1-.4.6,0.5,0.5,0,0,1-.6-0.4l-1.4-8a0.5,0.5,0,0,1,1-.2v0.5a3.9,3.9,0,0,1,7.2,1.4l0.9,4.9A0.5,0.5,0,0,1,122.2,25.1ZM134.2,24h0a1.8,1.8,0,0,1-1.8-1.2,3.9,3.9,0,0,1-3.2,1.9c-2.8.2-4.5-2-4.7-4.5s1.2-4.9,3.9-5.1a3.9,3.9,0,0,1,3.4,1.4V15.6a0.5,0.5,0,0,1,.5-0.5,0.5,0.5,0,0,1,.5.4l0.5,6.9c0.1,1.1,1.3.3,1.3,1.1a0.5,0.5,0,0,1-.4.5h0Zm-5.7-8c-2,.2-3.2,1.9-3,4.1s1.6,3.8,3.6,3.6,3.2-1.9,3-4.1S130.6,15.9,128.6,16ZM144,24.2a0.5,0.5,0,0,1-.5-0.5v-5a2.9,2.9,0,0,0-2.8-3h0a2.9,2.9,0,0,0-3,2.8h0v5a0.5,0.5,0,0,1-.5.5,0.5,0.5,0,0,1-.5-0.5l0.2-8.1a0.5,0.5,0,0,1,.5-0.5,0.5,0.5,0,0,1,.5.5V16a3.9,3.9,0,0,1,6.8,2.8v5A0.5,0.5,0,0,1,144,24.2Zm10.2,0a4,4,0,0,1-3.2.9c-2.7-.3-4-2.7-3.7-5.3s2.1-4.6,4.8-4.3a4,4,0,0,1,2.9,1.6,0.5,0.5,0,0,1,.1.3,0.5,0.5,0,0,1-.6.4l-0.3-.2a3.1,3.1,0,0,0-2.2-1.3c-2-.2-3.5,1.2-3.7,3.4s0.9,4,2.9,4.2a3.1,3.1,0,0,0,2.4-.7H154a0.5,0.5,0,0,1,.4.5,0.5,0.5,0,0,1-.2.3h0Zm10.9-1-7-1.5a3.3,3.3,0,0,0,2.5,4,3.1,3.1,0,0,0,2.7-.6,0.5,0.5,0,0,1,.4-0.2,0.5,0.5,0,0,1,.4.6,0.8,0.8,0,0,1-.4.5,4,4,0,0,1-3.4.7c-2.7-.6-3.7-3.1-3.2-5.6s2.5-4.4,5.2-3.8,3.8,3.1,3.2,5.6A0.5,0.5,0,0,1,165.1,23.2Zm-2.9-5c-2-.4-3.4.9-3.9,2.6l6.5,1.3A3.4,3.4,0,0,0,162.3,18.2Zm15.4,13.2a0.5,0.5,0,0,1-.3-0.6l1.8-5.5a2.2,2.2,0,0,0-4.1-1.4l-1.8,5.5a0.5,0.5,0,0,1-.6.3,0.5,0.5,0,0,1-.3-0.6l1.8-5.5a2.2,2.2,0,0,0-4.1-1.4l-1.8,5.5a0.5,0.5,0,0,1-.9-0.3l2.6-7.7a0.5,0.5,0,0,1,.6-0.3,0.5,0.5,0,0,1,.3.6h0a3.1,3.1,0,0,1,2.3-.1,3.2,3.2,0,0,1,2.1,2.2,3.2,3.2,0,0,1,3-.5,3.1,3.1,0,0,1,2,4l-1.8,5.5A0.5,0.5,0,0,1,177.7,31.4Zm11.6,0.8-6.5-3a3.3,3.3,0,0,0,1.6,4.4,3.1,3.1,0,0,0,2.8,0,0.4,0.4,0,0,1,.5,0,0.5,0.5,0,0,1,.3.6,0.7,0.7,0,0,1-.5.4,4.1,4.1,0,0,1-3.4-.1c-2.5-1.2-3-3.9-1.9-6.2s3.4-3.7,5.9-2.6,3,3.9,1.9,6.2a0.5,0.5,0,0,1-.6.2h0Zm-1.6-5.5c-1.9-.9-3.5.1-4.4,1.7l6,2.8A3.3,3.3,0,0,0,187.7,26.6Zm8.9,14.3a0.5,0.5,0,0,1-.2-0.7l2.5-4.3a2.9,2.9,0,0,0-5.1-3h0l-2.5,4.3a0.5,0.5,0,0,1-.9-0.5l4.1-7a0.5,0.5,0,0,1,.8.5l-0.3.5a3.9,3.9,0,0,1,4.6,5.7l-2.5,4.3a0.5,0.5,0,0,1-.6.2h0Zm5.3,3.6-0.4-.3a1.8,1.8,0,0,1-.5-2.8l3.5-5-0.7-.5a0.5,0.5,0,0,1-.1-0.7,0.5,0.5,0,0,1,.7-0.1l0.7,0.5,1.5-2.2a0.5,0.5,0,0,1,.7-0.1h0a0.5,0.5,0,0,1,.1.7l-1.5,2.2L207,37a0.5,0.5,0,0,1,.1.7,0.5,0.5,0,0,1-.7.1l-1.3-.9-3.5,5c-0.5.7-.4,1,0.3,1.4l0.4,0.3a0.5,0.5,0,0,1,.1.7A0.5,0.5,0,0,1,201.8,44.5Zm8.8,7.4a3.9,3.9,0,0,1-1.4-3.4l-2.9,3.3a0.5,0.5,0,0,1-.7-0.7l7.8-8.8a0.5,0.5,0,0,1,.7,0,0.5,0.5,0,0,1,0,.7l-0.6.6a3.9,3.9,0,0,1,3.6,1c2.1,1.8,1.7,4.5,0,6.5s-4.4,2.6-6.4.8h0Zm5.8-6.5c-1.5-1.3-3.6-1-5,.7s-1.6,3.8-.1,5.1,3.6,1,5.1-.7,1.6-3.7.1-5.1h0Zm5.5,17.4h0a1.8,1.8,0,0,1-.2-2.1,3.9,3.9,0,0,1-3.5-1.3c-1.9-2-1.2-4.7.6-6.5s4.6-2.1,6.5-.1a3.9,3.9,0,0,1,1.1,3.5l0.6-.6a0.5,0.5,0,0,1,.7,0,0.5,0.5,0,0,1,0,.7l-5.1,4.7c-0.8.7,0.5,1.2-.1,1.7A0.5,0.5,0,0,1,221.8,62.8Zm2.8-9.4c-1.4-1.5-3.5-1.3-5.1.2s-2,3.6-.6,5.1,3.5,1.3,5.1-.2S226,54.9,224.6,53.4Zm7.7,9.4a2.9,2.9,0,0,0-4.1-.5l-3.8,3a0.5,0.5,0,0,1-.7-0.1,0.5,0.5,0,0,1,.1-0.7l6.4-5a0.5,0.5,0,0,1,.7.1,0.5,0.5,0,0,1-.1.7l-0.5.4a3.9,3.9,0,0,1,2.9,1.5,0.5,0.5,0,0,1-.1.7A0.5,0.5,0,0,1,232.3,62.8Zm-3.4,9.5-0.3-.4a1.8,1.8,0,0,1,.5-2.8l5-3.5-0.5-.7a0.5,0.5,0,0,1,.1-0.7,0.5,0.5,0,0,1,.7.1l0.5,0.7,2.1-1.5a0.5,0.5,0,0,1,.7.1,0.5,0.5,0,0,1-.1.7l-2.1,1.5,0.9,1.3a0.5,0.5,0,0,1-.1.7,0.5,0.5,0,0,1-.7-0.1l-0.9-1.3-5,3.5c-0.7.5-.7,0.8-0.2,1.4l0.3,0.4a0.5,0.5,0,0,1-.1.7,0.5,0.5,0,0,1-.7-0.1h0Zm1.7,2.6a0.5,0.5,0,0,1,.1-0.7l6.9-4.4a0.5,0.5,0,0,1,.7.2,0.5,0.5,0,0,1-.1.7L231.3,75a0.4,0.4,0,0,1-.7-0.1h0Zm9.1-5.8a1,1,0,0,1,.3-1.3h0a1,1,0,0,1,1.3.3h0a1,1,0,0,1-.3,1.4,1,1,0,0,1-1.3-.3h0Zm-2.9,14.3a4,4,0,0,1-2.6-2c-1.3-2.4-.1-4.9,2.2-6.1s5-1,6.3,1.4a4,4,0,0,1,.4,3.3l-0.2.3A0.5,0.5,0,0,1,242,80a0.5,0.5,0,0,1,0-.4,3,3,0,0,0-.3-2.5c-1-1.8-3-2.1-5-1s-2.8,3-1.8,4.8a3.1,3.1,0,0,0,2,1.6l0.3,0.2a0.5,0.5,0,0,1-.2.7h-0.4Zm0.5,3.4a0.5,0.5,0,0,1,.2-0.6l7.4-3.5a0.5,0.5,0,0,1,.6.2,0.5,0.5,0,0,1-.2.6l-7.4,3.5a0.5,0.5,0,0,1-.6-0.2h0Zm9.7-4.6a1,1,0,0,1,.4-1.3h0a1,1,0,0,1,1.3.4h0a1,1,0,0,1-.4,1.3h0a1,1,0,0,1-1.3-.4h0ZM240,93.9a3.9,3.9,0,0,1,.3-3.7l-4.1,1.6a0.5,0.5,0,0,1-.6-0.3,0.5,0.5,0,0,1,.3-0.6h0l10.9-4.3a0.5,0.5,0,0,1,.6.3,0.5,0.5,0,0,1-.3.6l-0.8.3a3.9,3.9,0,0,1,2.7,2.5c1,2.6-.5,4.8-2.9,5.8S241,96.4,240,93.9Zm8.1-3.2c-0.7-1.9-2.7-2.5-4.8-1.7s-3.1,2.6-2.4,4.5,2.8,2.5,4.8,1.7,3.1-2.6,2.4-4.5h0Zm-3.1,18h0a1.8,1.8,0,0,1,.8-2,3.9,3.9,0,0,1-2.5-2.8c-0.7-2.7,1-4.8,3.5-5.4s5.1,0.2,5.8,2.8a3.9,3.9,0,0,1-.7,3.6l0.8-.2a0.5,0.5,0,0,1,.6.4,0.5,0.5,0,0,1-.3.6l-6.7,1.9c-1.1.3-.1,1.3-0.9,1.5a0.4,0.4,0,0,1-.6-0.3h0Zm6.8-7.1c-0.5-1.9-2.5-2.8-4.6-2.2s-3.4,2.3-2.8,4.2,2.5,2.8,4.6,2.2,3.4-2.3,2.8-4.2h0Zm-5.7,12.7v-0.5a1.8,1.8,0,0,1,1.6-2.4l6-1.2-0.2-.9a0.5,0.5,0,0,1,.4-0.6,0.5,0.5,0,0,1,.6.4l0.2,0.9,2.6-.5a0.5,0.5,0,0,1,.6.4,0.5,0.5,0,0,1-.4.6l-2.6.5,0.3,1.5a0.5,0.5,0,0,1-1,.2l-0.3-1.5-6,1.2c-0.8.2-1,.4-0.8,1.2V114a0.5,0.5,0,0,1-.4.6,0.5,0.5,0,0,1-.6-0.4h0Zm0.5,3.1a0.5,0.5,0,0,1,.4-0.6l8.1-1.2a0.5,0.5,0,0,1,.1,1l-8.1,1.2A0.5,0.5,0,0,1,246.6,117.3Zm10.6-1.6a1,1,0,0,1,.8-1.1h0a1,1,0,0,1,1.1.8h0a1,1,0,0,1-.8,1.1h0A1,1,0,0,1,257.2,115.7Zm1.4,7v-0.5a0.8,0.8,0,0,0-.8-0.7l-1.4.2v1.3a0.5,0.5,0,0,1-.4.5,0.5,0.5,0,0,1-.5-0.4v-1.3l-7.6.8a0.5,0.5,0,0,1-.5-0.4,0.5,0.5,0,0,1,.4-0.5l7.6-.8v-1.2a0.5,0.5,0,0,1,.5-0.5,0.5,0.5,0,0,1,.5.4v1.2l1.4-.2a1.7,1.7,0,0,1,1.9,1.5v0.5a0.5,0.5,0,0,1-.4.5,0.5,0.5,0,0,1-.5-0.4h0Z" transform="translate(-8.9 -4.6)"/><path class="e" d="M252.7,144.8l0.6-6.8a0.5,0.5,0,0,1,.5-0.5,0.5,0.5,0,0,1,.4.5l-0.6,6.8a0.5,0.5,0,0,1-.5.4A0.5,0.5,0,0,1,252.7,144.8ZM24.9,145l-0.7-6.9a0.5,0.5,0,0,1,.4-0.5,0.5,0.5,0,0,1,.5.5l0.7,6.9a0.5,0.5,0,0,1-1,.1h0Z" transform="translate(-8.9 -4.6)"/><path class="b" d="M32.2,164.4a3,3,0,0,0-3.6-2.1l-4.7,1.3a0.5,0.5,0,0,1-.6-0.3h0a0.5,0.5,0,0,1,.3-0.6l8-2.1a0.5,0.5,0,0,1,.6.4,0.5,0.5,0,0,1-.3.6l-0.7.2a4,4,0,0,1,2.1,2.5,0.5,0.5,0,0,1-.3.6A0.5,0.5,0,0,1,32.2,164.4Zm-0.9,10.7-2.4-6.8a3.4,3.4,0,0,0-2.1,4.3,3.1,3.1,0,0,0,2,2,0.5,0.5,0,0,1,.4.3,0.5,0.5,0,0,1-.3.7H28.2a4.1,4.1,0,0,1-2.3-2.5c-0.9-2.6.7-4.8,3.2-5.7s5.1-.1,6.1,2.5-0.7,4.9-3.2,5.7A0.5,0.5,0,0,1,31.2,175.1Zm2.9-5.1c-0.7-2-2.6-2.5-4.3-2l2.2,6.3A3.4,3.4,0,0,0,34.1,170Zm4.1,0.1-2.4-1.6-0.2-.3a0.5,0.5,0,0,1,.3-0.6h0.4l2.7,1.2a0.6,0.6,0,0,1,.3.4,0.8,0.8,0,0,1-.4,1H38.2ZM27,185.4c-0.6-1.3-1-3.4-.4-3.7a0.6,0.6,0,0,1,.7.2,6.5,6.5,0,0,1,0,1,6.3,6.3,0,0,0,.6,2.1c0.9,2,2.4,2.6,4.3,1.7l1.1-.5a4.1,4.1,0,0,1-2.8-2.4c-1.2-2.5-.1-4.8,2.3-5.9s5.1-.7,6.3,1.9a4,4,0,0,1-.1,3.7l0.8-.3a0.5,0.5,0,0,1,.7.3,0.5,0.5,0,0,1-.2.6l-7.6,3.6C30.1,188.7,28.1,187.8,27,185.4Zm11.3-5.3c-0.9-1.8-2.9-2.3-5-1.4s-2.8,2.7-1.8,4.6,2.7,2.4,4.7,1.5S39.1,182,38.3,180.1ZM38,197.3a0.5,0.5,0,0,1,.2-0.7l0.5-.3a3.9,3.9,0,0,1-2.7-1.8,4,4,0,0,1,1.4-5.4l4.3-2.6a0.5,0.5,0,0,1,.7.2,0.5,0.5,0,0,1-.2.7l-4.3,2.6a2.9,2.9,0,0,0-1,4h0a3,3,0,0,0,4,1h0l4.3-2.6a0.5,0.5,0,0,1,.7.2,0.5,0.5,0,0,1-.2.7l-7.1,4.2a0.5,0.5,0,0,1-.7-0.2h0Zm3.2,4.9a1.8,1.8,0,0,1,.5-2.4L50,194a0.5,0.5,0,0,1,.7.1,0.5,0.5,0,0,1-.1.7l-8.3,5.8c-0.9.6,0.3,1.3-.3,1.7A0.6,0.6,0,0,1,41.2,202.2Zm10.1,6.1-4.5-5.6a3.4,3.4,0,0,0-.6,4.7,3.1,3.1,0,0,0,2.5,1.2,0.5,0.5,0,0,1,.4.2,0.5,0.5,0,0,1,0,.7H48.5a4.1,4.1,0,0,1-3.1-1.6c-1.7-2.2-.9-4.8,1.1-6.4s4.8-1.8,6.5.3,0.9,4.8-1.1,6.4a0.5,0.5,0,0,1-.7-0.1h0Zm1-5.8c-1.3-1.6-3.2-1.5-4.7-.4l4.2,5.2A3.4,3.4,0,0,0,52.3,202.6Zm3.9-1.3-2.8-.7-0.3-.2a0.5,0.5,0,0,1,.1-0.7h0.4l2.9,0.2,0.4,0.3a0.8,0.8,0,0,1-.1,1.1l-0.6.2h0Zm3,15.3-5-5.1a3.4,3.4,0,0,0-.1,4.8,3.2,3.2,0,0,0,2.6,1,0.5,0.5,0,0,1,.5.1,0.5,0.5,0,0,1,0,.7l-0.6.2a4.1,4.1,0,0,1-3.2-1.3c-2-2-1.4-4.7.4-6.5s4.6-2.3,6.5-.3,1.4,4.7-.4,6.5a0.6,0.6,0,0,1-.7,0h0Zm0.4-5.8c-1.5-1.5-3.4-1.1-4.8,0l4.7,4.7a3.4,3.4,0,0,0,.1-4.8h0Zm6.9,17.7a3.9,3.9,0,0,1-1.7-3.3l-2.7,3.6a0.5,0.5,0,1,1-.8-0.6l7.2-9.4a0.5,0.5,0,0,1,.8.6l-0.5.7a4,4,0,0,1,3.7.7c2.2,1.7,2.1,4.4.5,6.5s-4.2,2.9-6.4,1.3h0Zm5.3-7c-1.6-1.2-3.7-.7-5,1.1s-1.3,3.9.3,5.1,3.7,0.7,5-1.1,1.3-3.9-.3-5.1h0Zm9,16.1h0a1.8,1.8,0,0,1-.8-2,4,4,0,0,1-3.7-.3c-2.4-1.4-2.5-4.2-1.2-6.4s3.9-3.4,6.3-1.9a4,4,0,0,1,2,3.1l0.4-.7a0.5,0.5,0,0,1,.7-0.2,0.5,0.5,0,0,1,.2.7l-3.6,6c-0.6.9,0.9,1,.4,1.7a0.5,0.5,0,0,1-.7.2h0Zm0-9.9c-1.7-1.1-3.7-.3-4.9,1.6s-0.9,4,.9,5.1,3.7,0.3,4.9-1.6,0.9-4-.9-5.1h0Zm10.3,5.7a3,3,0,0,0-4,1.3L85,239.1a0.5,0.5,0,0,1-.6.2,0.5,0.5,0,0,1-.2-0.7l3.6-7.4a0.5,0.5,0,0,1,.7-0.2,0.5,0.5,0,0,1,.2.6l-0.3.6a3.9,3.9,0,0,1,3.3.1,0.5,0.5,0,0,1,.2.7,0.5,0.5,0,0,1-.7.2h0Zm5.3,11.3a1.8,1.8,0,0,1-.9-2.3l3.6-9.4a0.5,0.5,0,0,1,.9.4l-3.6,9.4c-0.4,1,1,.9.7,1.6A0.5,0.5,0,0,1,96.4,244.7Zm11.8-.6-6.9-2.1a3.4,3.4,0,0,0,2.2,4.2,3.1,3.1,0,0,0,2.8-.4,0.4,0.4,0,0,1,.5-0.1,0.5,0.5,0,0,1,.4.6,0.8,0.8,0,0,1-.5.4,4.1,4.1,0,0,1-3.4.4c-2.7-.8-3.5-3.4-2.7-5.9s2.9-4.2,5.6-3.4,3.5,3.5,2.7,5.9a0.5,0.5,0,0,1-.6.4h0Zm-2.4-5.3c-2-.6-3.5.6-4.2,2.3L108,243a3.4,3.4,0,0,0-2.2-4.2h0Zm7.8,11.1c-1-.2-2.7-0.9-3.1-2a0.4,0.4,0,0,1,0-.3,0.5,0.5,0,0,1,.6-0.4,0.5,0.5,0,0,1,.3.3,3.3,3.3,0,0,0,2.3,1.4c1.6,0.3,2.6,0,2.8-1.1s-5.3-2.4-4.6-5.7c0.4-1.7,2.2-2,3.8-1.7a4.6,4.6,0,0,1,2.7,1.6,0.5,0.5,0,0,1,.1.4,0.6,0.6,0,0,1-.6.4l-0.3-.2a3.4,3.4,0,0,0-2.1-1.2c-1.5-.3-2.4.1-2.6,0.9-0.5,2.4,5.3,2.3,4.6,5.8-0.4,1.9-2.2,2.3-4,1.9h0Zm20.9,2.2h0a1.8,1.8,0,0,1-1.6-1.5,3.9,3.9,0,0,1-3.5,1.4c-2.8-.2-4.2-2.6-4-5.2s1.9-4.8,4.7-4.6a4,4,0,0,1,3.2,1.9v-0.9a0.5,0.5,0,0,1,.5-0.4,0.5,0.5,0,0,1,.4.5l-0.5,7c-0.1,1.1,1.2.5,1.2,1.3a0.5,0.5,0,0,1-.5.4h-0.1Zm-4.5-8.8c-2-.1-3.5,1.4-3.6,3.7s1.1,4,3.1,4.1,3.5-1.4,3.6-3.7-1-4-3.1-4.1h0Zm15.3,8.6a0.5,0.5,0,0,1-.5-0.5v-0.6a3.9,3.9,0,0,1-2.9,1.4,4,4,0,0,1-4.1-3.8l-0.2-5.1a0.5,0.5,0,0,1,.5-0.5,0.5,0.5,0,0,1,.5.5l0.2,5.1a3,3,0,0,0,5.9-.2l-0.2-5.1a0.5,0.5,0,0,1,.5-0.5,0.5,0.5,0,0,1,.5.5l0.3,8.2A0.5,0.5,0,0,1,145.4,251.8Zm7.3-.7h-0.5a1.8,1.8,0,0,1-2.2-1.8l-0.7-6.1h-0.9a0.5,0.5,0,0,1-.5-0.4,0.5,0.5,0,0,1,.4-0.5h0.9l-0.3-2.6a0.5,0.5,0,0,1,.4-0.5,0.5,0.5,0,0,1,.5.4l0.3,2.6,1.6-.2a0.5,0.5,0,0,1,.5.4,0.5,0.5,0,0,1-.4.6l-1.6.2,0.7,6.1c0.1,0.8.4,1,1.2,0.9h0.5a0.5,0.5,0,0,1,.5.4,0.5,0.5,0,0,1-.4.5h0Zm7.3-.8c-2.7.5-4.7-1.4-5.2-4s0.6-5.1,3.4-5.6,4.7,1.4,5.2,4S162.7,249.8,160,250.3Zm-1.6-8.6c-2,.4-3,2.2-2.6,4.4s2,3.6,4,3.2,3-2.2,2.6-4.5-2-3.6-4-3.2h0Zm10.7-2.4a3,3,0,0,0-2.1,3.6h0l1.3,4.7a0.5,0.5,0,0,1-.9.3l-2.2-7.9a0.5,0.5,0,0,1,1-.3l0.2,0.7a4,4,0,0,1,2.5-2.1,0.5,0.5,0,0,1,.6.3,0.5,0.5,0,0,1-.4.6h0Zm2-3.3a1,1,0,0,1-1.2-.6h0a1,1,0,0,1,.6-1.2h0a1,1,0,0,1,1.2.6h0a1,1,0,0,1-.6,1.2h0Zm3.3,10.3a0.5,0.5,0,0,1-.6-0.3l-2.5-7.8a0.5,0.5,0,0,1,.3-0.6,0.5,0.5,0,0,1,.6.3l2.5,7.8a0.5,0.5,0,0,1-.3.6h0Zm6.7-2.4-0.5.2a1.8,1.8,0,0,1-2.6-1.2l-2.2-5.8-0.8.3a0.5,0.5,0,0,1-.6-0.3h0a0.5,0.5,0,0,1,.3-0.6l0.8-.3-0.9-2.5a0.5,0.5,0,0,1,.3-0.6,0.5,0.5,0,0,1,.6.3l0.9,2.5,1.5-.6a0.5,0.5,0,0,1,.6.3,0.5,0.5,0,0,1-.3.6l-1.5.6,2.2,5.8c0.3,0.8.6,0.9,1.4,0.6l0.5-.2a0.5,0.5,0,0,1,.6.3,0.5,0.5,0,0,1-.3.6h0Zm8.5-8.2-6.5,3a3.4,3.4,0,0,0,4.5,1.7,3.1,3.1,0,0,0,1.8-2.2,0.5,0.5,0,0,1,.3-0.4,0.5,0.5,0,0,1,.7.2,0.7,0.7,0,0,1-.1.7,4.1,4.1,0,0,1-2.3,2.6c-2.5,1.2-4.9-.2-6-2.6s-0.6-5.1,1.9-6.3,4.9,0.3,6,2.6a0.5,0.5,0,0,1-.2.7h0Zm-5.7-6.4-1.4,2.5-0.3.3a0.5,0.5,0,0,1-.6-0.2,0.6,0.6,0,0,1,0-.4l0.9-2.7a0.7,0.7,0,0,1,.4-0.4,0.8,0.8,0,0,1,1,.4,0.7,0.7,0,0,1,0,.6h0Zm0.3,4c-1.9.9-2.2,2.8-1.6,4.5l6-2.8a3.4,3.4,0,0,0-4.5-1.7h0Zm13.2,3.1c-0.9.5-2.6,1.1-3.6,0.5l-0.2-.2a0.5,0.5,0,0,1,.2-0.7h0.5a3.3,3.3,0,0,0,2.7-.5c1.5-.8,1.9-1.7,1.3-2.7s-5.5,1.8-7.3-1.2,0.3-3,1.7-3.8a4.7,4.7,0,0,1,3.1-.6l0.3,0.2a0.6,0.6,0,0,1-.2.7h-0.4a3.5,3.5,0,0,0-2.3.5c-1.3.8-1.7,1.7-1.3,2.4s5.5-1.9,7.3,1.2-0.1,3.2-1.7,4.1h0Zm5.5-17.7-0.4.3a0.8,0.8,0,0,0-.2,1.1l0.9,1.1,1-.8a0.5,0.5,0,0,1,.7.1,0.5,0.5,0,0,1-.1.7l-1,.8,4.6,6.2a0.5,0.5,0,0,1-.8.6l-4.6-6.2-1,.7a0.5,0.5,0,0,1-.6-0.8l1-.7-0.9-1.1a1.7,1.7,0,0,1,.4-2.4l0.5-.3a0.5,0.5,0,0,1,.7.1,0.5,0.5,0,0,1-.1.7h0Zm7.1-1.9a3,3,0,0,0-.4,4.2h0l3.1,3.8a0.5,0.5,0,0,1-.1.7,0.5,0.5,0,0,1-.7-0.1l-5.3-6.3a0.5,0.5,0,0,1,.8-0.6L208,219a4,4,0,0,1,1.4-2.9,0.5,0.5,0,0,1,.7.1,0.5,0.5,0,0,1-.1.7h0Zm13.8-1.6h0a1.8,1.8,0,0,1-2.2.2,3.9,3.9,0,0,1-1.3,3.5c-2,2-4.7,1.4-6.5-.5s-2.3-4.6-.3-6.5a3.9,3.9,0,0,1,3.5-1.2l-0.6-.6a0.5,0.5,0,0,1,0-.7,0.5,0.5,0,0,1,.7,0h0l4.9,5c0.8,0.8,1.2-.6,1.8,0a0.5,0.5,0,0,1,0,.7h0Zm-9.6-2.6c-1.5,1.4-1.3,3.5.3,5.1s3.7,1.9,5.1.5,1.3-3.5-.3-5.1-3.6-1.9-5.1-.4h0Zm16.7-5.8a0.5,0.5,0,0,1-.7.1l-3.9-3.2a3,3,0,0,0-4.2.4h0a3,3,0,0,0,.4,4.2h0l3.9,3.2a0.5,0.5,0,0,1,.1.7,0.5,0.5,0,0,1-.7.1l-6.3-5.3a0.5,0.5,0,0,1,0-.7,0.5,0.5,0,0,1,.7-0.1l0.4,0.3a3.9,3.9,0,0,1,.9-3.1,4,4,0,0,1,5.6-.5l3.9,3.2A0.5,0.5,0,0,1,231,206.9Zm8.1-4.3c-0.3.4-1,.9-1.5,0.6a0.5,0.5,0,0,1-.1-0.7,6.4,6.4,0,0,0,.8-0.5,0.7,0.7,0,0,0-.2-1,0.8,0.8,0,0,0-1,.2h0a0.5,0.5,0,0,1-.7.1l-0.7-.5c-1.6,1.9-4.2,1.8-6.2.4s-3.1-4.1-1.6-6.3a4.1,4.1,0,0,1,2.8-1.8h0.4a0.5,0.5,0,0,1,.1.7l-0.4.2a3.1,3.1,0,0,0-2.2,1.4c-1.2,1.7-.5,3.7,1.3,5s4,1.1,5.1-.6a3.1,3.1,0,0,0,.5-2.5,0.5,0.5,0,0,1,.8-0.5l0.2,0.3a3.9,3.9,0,0,1-.4,2.9l0.4,0.3a1.7,1.7,0,0,1,2.5,2.4h0Zm4.7-15.9h0a1.8,1.8,0,0,1-2,.8,3.9,3.9,0,0,1-.2,3.7c-1.4,2.5-4.1,2.7-6.4,1.4s-3.5-3.7-2.2-6.2a4,4,0,0,1,3-2.2l-0.7-.4a0.5,0.5,0,0,1-.2-0.7h0a0.5,0.5,0,0,1,.7-0.2l6.1,3.4c1,0.5,1-.9,1.7-0.5a0.5,0.5,0,0,1,.2.7h0Zm-9.9.4c-1,1.8-.2,3.7,1.8,4.8s4.1,0.7,5-1.1,0.2-3.7-1.8-4.8S235,185.3,234,187.1Zm1.6-8.4a1,1,0,0,1-1.3.5h0a1,1,0,0,1-.5-1.3h0a1,1,0,0,1,1.3-.5h0A1,1,0,0,1,235.6,178.8Zm9.9,4.5a0.5,0.5,0,0,1-.6.3l-7.5-3.4a0.5,0.5,0,0,1-.2-0.7,0.5,0.5,0,0,1,.6-0.2l7.5,3.4A0.5,0.5,0,0,1,245.5,183.3Zm3-6.3c-0.4,1-1.4,2.5-2.5,2.7h-0.3a0.5,0.5,0,0,1-.3-0.7l0.4-.3a3.3,3.3,0,0,0,1.8-2.1c0.6-1.6.4-2.6-.6-3s-3.2,4.8-6.4,3.6c-1.6-.6-1.6-2.5-1-4a4.7,4.7,0,0,1,2-2.4h0.4a0.6,0.6,0,0,1,.3.7l-0.2.3a3.4,3.4,0,0,0-1.5,1.8c-0.6,1.4-.3,2.4.5,2.7s3.1-4.9,6.4-3.6S249.2,175.3,248.5,177Zm0.2-15-2,6.9a3.4,3.4,0,0,0,4.2-2.2,3.1,3.1,0,0,0-.4-2.8,0.5,0.5,0,0,1-.1-0.5,0.5,0.5,0,0,1,.6-0.4,0.7,0.7,0,0,1,.5.5,4.1,4.1,0,0,1,.5,3.4c-0.8,2.7-3.4,3.5-5.9,2.8s-4.3-2.8-3.5-5.5,3.4-3.5,5.9-2.8A0.5,0.5,0,0,1,248.8,161.9Zm-5.3,2.5c-0.6,2,.6,3.5,2.4,4.1l1.9-6.4A3.4,3.4,0,0,0,243.5,164.4Z" transform="translate(-8.9 -4.6)"/></svg>