<?xml version="1.0" encoding="utf-8"?>
<!-- Generator: Adobe Illustrator 23.0.6, SVG Export Plug-In . SVG Version: 6.00 Build 0)  -->
<svg version="1.1" id="Calque_1" xmlns="http://www.w3.org/2000/svg" xmlns:xlink="http://www.w3.org/1999/xlink" x="0px" y="0px"
	 viewBox="0 0 54.7 21.8" style="enable-background:new 0 0 54.7 21.8;" xml:space="preserve">
<style type="text/css">
	.st0{fill-rule:evenodd;clip-rule:evenodd;}
	.st1{fill-rule:evenodd;clip-rule:evenodd;fill:#A0A0A0;}
	.st2{filter:url(#Adobe_OpacityMaskFilter);}
	.st3{fill-rule:evenodd;clip-rule:evenodd;fill:#FFFFFF;}
	.st4{mask:url(#b_1_);fill-rule:evenodd;clip-rule:evenodd;fill:#FFC20E;}
	.st5{filter:url(#Adobe_OpacityMaskFilter_1_);}
	.st6{mask:url(#d_1_);fill-rule:evenodd;clip-rule:evenodd;fill:#FFC20E;}
	.st7{filter:url(#Adobe_OpacityMaskFilter_2_);}
	.st8{mask:url(#d_2_);fill-rule:evenodd;clip-rule:evenodd;fill:#FFFFFF;}
	.st9{filter:url(#Adobe_OpacityMaskFilter_3_);}
	.st10{mask:url(#d_3_);fill-rule:evenodd;clip-rule:evenodd;}
	.st11{filter:url(#Adobe_OpacityMaskFilter_4_);}
	.st12{mask:url(#d_4_);fill-rule:evenodd;clip-rule:evenodd;}
</style>
<g>
	<g transform="translate(9.292 7.778)">
		<path class="st0" d="M35,0c-1.6,0-3,1.3-3,3c0,1.6,1.3,3,3,3c1.6,0,3-1.3,3-3C38,1.3,36.7,0,35,0C35,0,35,0,35,0 M35,4.5
			c-0.8,0-1.5-0.7-1.5-1.5c0-0.8,0.7-1.5,1.5-1.5s1.5,0.7,1.5,1.5C36.5,3.8,35.9,4.5,35,4.5C35,4.5,35,4.5,35,4.5 M21.3,0
			c-1.6,0-3,1.3-3,3c0,1.6,1.3,3,3,3c1.6,0,3-1.3,3-3C24.3,1.3,23,0,21.3,0 M21.3,4.5c-0.8,0-1.5-0.7-1.5-1.5c0-0.8,0.7-1.5,1.5-1.5
			s1.5,0.7,1.5,1.5C22.9,3.8,22.2,4.5,21.3,4.5 M31.8,4.6c-0.2,0.1-0.5,0.1-0.6,0.1c-0.5,0-0.6-0.2-0.6-0.7V1.2h1.2V0.1h-1.2v-1.6
			h-1.4L29,0.1h-1c-0.8,0-1.4,0.5-1.7,1.2l-0.5-1.2h-1v5.7h1.7V3.3c0-1.3,0.7-2.1,1.6-2.1H29v2.8c0,1.3,0.7,1.8,1.8,1.8
			c0.6,0,1-0.1,1.3-0.2C32.1,5.7,31.8,4.6,31.8,4.6z M40,1.9v3.9h-1.6V0.1h1L39.7,1"/>
		<path class="st0" d="M39.7,1c0.5-0.6,1.2-1,2-1c1.4,0,1.9,1.1,1.9,2.1v3.8h-1.7V2.1c0-0.5-0.4-0.8-0.8-0.8c-0.5,0-0.8,0.3-1,0.6
			 M11.8-2h1.9l2.6,4.9V-2h1.6v7.8h-1.7l-2.8-5.4v5.4h-1.6V-2z M43.6,0.1v0.1h0.2v0.5h0.1V0.2h0.2V0.1H43.6z M44.5,0.1l-0.1,0.4
			l-0.1-0.4h-0.2v0.7h0.1V0.2l0.1,0.5h0.1l0.1-0.5v0.5h0.1V0.1H44.5z"/>
		<path class="st1" d="M12.3,11.6L12.2,12h-0.3V7.7h0.5v1.6c0.2-0.2,0.5-0.4,0.8-0.4c0.8,0,1.2,0.8,1.2,1.5c0,1-0.5,1.6-1.3,1.6
			C12.8,12.1,12.5,11.9,12.3,11.6 M13.9,10.4c0-0.5-0.2-1.1-0.7-1.1c-0.3,0-0.5,0.1-0.7,0.3v1.6c0.2,0.2,0.4,0.3,0.7,0.3
			C13.6,11.6,13.9,11.2,13.9,10.4 M14.8,8.9h0.5c0,0,0.8,2.6,0.8,2.6l0.7-2.6h0.5l-1,3.3c-0.2,0.6-0.5,0.9-1.1,0.9
			c-0.1,0-0.2,0-0.4-0.1l0.1-0.4c0.1,0,0.2,0,0.3,0c0.3,0,0.6-0.1,0.7-0.5C15.9,12.2,14.8,8.9,14.8,8.9z M18.9,11.5l0.3-0.4
			c0.3,0.3,0.8,0.4,1.2,0.4c0.6,0,0.9-0.3,0.9-0.7c0-0.5-0.4-0.7-1-0.9c-0.6-0.2-1.2-0.5-1.2-1.3c0-0.7,0.5-1.1,1.3-1.1
			c0.5,0,0.8,0.1,1.1,0.3l-0.2,0.4c-0.3-0.2-0.6-0.2-0.9-0.2c-0.5,0-0.8,0.2-0.8,0.6c0,0.5,0.3,0.6,0.9,0.8c0.6,0.2,1.2,0.5,1.2,1.3
			c0,0.7-0.5,1.2-1.4,1.2C19.7,12,19.2,11.8,18.9,11.5 M22.1,8.9h0.5c0,0,0.8,2.6,0.8,2.6l0.7-2.6h0.5l-1,3.3
			c-0.2,0.6-0.5,0.9-1.1,0.9c-0.1,0-0.3,0-0.4-0.1l0.1-0.4c0.1,0,0.2,0,0.3,0c0.3,0,0.6-0.1,0.7-0.5C23.2,12.2,22.1,8.9,22.1,8.9z
			 M28.5,8.9c0.6,0,0.8,0.5,0.8,1V12h-0.5V9.9c0-0.3-0.1-0.6-0.4-0.6c-0.2,0-0.5,0.2-0.8,0.4V12H27V9.9c0-0.3-0.1-0.6-0.4-0.6
			c-0.3,0-0.5,0.2-0.8,0.4V12h-0.5V8.9h0.3l0.1,0.5c0.3-0.3,0.6-0.6,1-0.6c0.4,0,0.6,0.2,0.7,0.5C27.7,9.1,28.1,8.9,28.5,8.9
			 M31.8,9.9c0-0.4-0.1-0.6-0.6-0.6c-0.3,0-0.6,0.1-0.9,0.3l-0.2-0.4c0.3-0.2,0.7-0.3,1.1-0.3c0.8,0,1.1,0.4,1.1,1.1v2H32l-0.1-0.4
			c-0.2,0.2-0.5,0.4-0.9,0.4c-0.5,0-0.9-0.3-0.9-0.8c0-0.3,0.1-0.6,0.4-0.7c0.3-0.2,0.8-0.3,1.4-0.4C31.8,10.1,31.8,9.9,31.8,9.9z
			 M31.8,10.4c-0.6,0.1-1,0.2-1.2,0.4c-0.1,0.1-0.1,0.2-0.1,0.3c0,0.3,0.1,0.5,0.5,0.5c0.3,0,0.6-0.2,0.8-0.3L31.8,10.4L31.8,10.4z
			 M33.2,8.9h0.3l0.1,0.5c0.3-0.3,0.6-0.6,1.1-0.6c0.7,0,0.8,0.5,0.8,1V12H35V9.9c0-0.3-0.1-0.6-0.5-0.6c-0.3,0-0.6,0.2-0.8,0.4V12
			h-0.5L33.2,8.9L33.2,8.9z M36.2,9.3V8.9h0.5l0.1-0.9h0.4v0.9h0.7v0.4h-0.7v1.9c0,0.3,0.1,0.4,0.3,0.4c0.1,0,0.2,0,0.4-0.1l0.1,0.4
			C37.8,12,37.6,12,37.4,12c-0.6,0-0.8-0.3-0.8-0.8V9.3L36.2,9.3L36.2,9.3L36.2,9.3z M39.7,11.6c0.3,0,0.6-0.1,0.8-0.3l0.2,0.3
			c-0.3,0.2-0.6,0.4-1.1,0.4c-0.8,0-1.3-0.6-1.3-1.6c0-0.9,0.5-1.6,1.3-1.6c0.8,0,1.2,0.6,1.2,1.6v0.1h-1.9
			C38.9,11.3,39.1,11.6,39.7,11.6z M40.2,10.3c0-0.6-0.2-1-0.7-1c-0.4,0-0.6,0.3-0.7,1H40.2z M41.3,10.5c0-0.8,0.3-1.6,1.3-1.6
			c0.4,0,0.7,0.1,1,0.3l-0.2,0.4c-0.2-0.2-0.5-0.2-0.7-0.2c-0.6,0-0.7,0.7-0.7,1.2c0,0.5,0.1,1.1,0.8,1.1c0.3,0,0.5-0.1,0.7-0.3
			l0.3,0.3c-0.3,0.3-0.6,0.4-1,0.4C41.6,12,41.3,11.2,41.3,10.5"/>
		<g transform="translate(0 2.716)">
			<defs>
				<filter id="Adobe_OpacityMaskFilter" filterUnits="userSpaceOnUse" x="-8.7" y="-6.6" width="17.9" height="17.9">
					<feColorMatrix  type="matrix" values="1 0 0 0 0  0 1 0 0 0  0 0 1 0 0  0 0 0 1 0"/>
				</filter>
			</defs>
			<mask maskUnits="userSpaceOnUse" x="-8.7" y="-6.6" width="17.9" height="17.9" id="b_1_">
				<g class="st2">
					<path id="a_1_" class="st3" d="M-8.7-6.6H9.1v17.9H-8.7V-6.6z"/>
				</g>
			</mask>
			<path class="st4" d="M0.2,11.3c-4.9,0-8.9-4-8.9-8.9c0-4.9,4-8.9,8.9-8.9c4.9,0,8.9,4,8.9,8.9C9.1,7.3,5.1,11.3,0.2,11.3
				 M0.2-3.8C-1.4-3.8-3-3.1-4.1-2c-1.1,1.1-1.8,2.7-1.8,4.3c0,1.6,0.6,3.2,1.8,4.3C-3,7.8-1.4,8.5,0.2,8.5c1.6,0,3.2-0.6,4.3-1.8
				C5.7,5.5,6.3,4,6.3,2.3c0-1.6-0.6-3.2-1.8-4.3C3.4-3.1,1.8-3.8,0.2-3.8"/>
		</g>
		<defs>
			<filter id="Adobe_OpacityMaskFilter_1_" filterUnits="userSpaceOnUse" x="9.9" y="-6.6" width="0.7" height="2.1">
				<feColorMatrix  type="matrix" values="1 0 0 0 0  0 1 0 0 0  0 0 1 0 0  0 0 0 1 0"/>
			</filter>
		</defs>
		<mask maskUnits="userSpaceOnUse" x="9.9" y="-6.6" width="0.7" height="2.1" id="d_1_">
			<g class="st5">
				<path id="c_1_" class="st3" d="M-8.7,14h53.4V-6.6H-8.7V14z"/>
			</g>
		</mask>
		<path class="st6" d="M9.9-4.6h0.7v-0.7H9.9V-4.6z M9.9-5.9h0.7v-0.7H9.9V-5.9z"/>
		<defs>
			<filter id="Adobe_OpacityMaskFilter_2_" filterUnits="userSpaceOnUse" x="8" y="-4.6" width="0.6" height="0.7">
				<feColorMatrix  type="matrix" values="1 0 0 0 0  0 1 0 0 0  0 0 1 0 0  0 0 0 1 0"/>
			</filter>
		</defs>
		<mask maskUnits="userSpaceOnUse" x="8" y="-4.6" width="0.6" height="0.7" id="d_2_">
			<g class="st7">
				<path id="c_2_" class="st3" d="M-8.7,14h53.4V-6.6H-8.7V14z"/>
			</g>
		</mask>
		<path class="st8" d="M8-3.9h0.6v-0.7H8V-3.9z"/>
		<defs>
			<filter id="Adobe_OpacityMaskFilter_3_" filterUnits="userSpaceOnUse" x="6" y="-5.9" width="3.9" height="3.4">
				<feColorMatrix  type="matrix" values="1 0 0 0 0  0 1 0 0 0  0 0 1 0 0  0 0 0 1 0"/>
			</filter>
		</defs>
		<mask maskUnits="userSpaceOnUse" x="6" y="-5.9" width="3.9" height="3.4" id="d_3_">
			<g class="st9">
				<path id="c_3_" class="st3" d="M-8.7,14h53.4V-6.6H-8.7V14z"/>
			</g>
		</mask>
		<path class="st10" d="M6.7-2.6h0.7v-0.7H6.7L6.7-2.6z M8.6-3.2h0.7v-0.6H8.6V-3.2z M6-3.2h0.7v-0.6H6V-3.2z M8-2.6h0.6v-0.7H8
			V-2.6z M9.3-5.2h0.7v-0.7H9.3V-5.2z"/>
		<defs>
			<filter id="Adobe_OpacityMaskFilter_4_" filterUnits="userSpaceOnUse" x="-3.7" y="-5.3" width="12.9" height="14.1">
				<feColorMatrix  type="matrix" values="1 0 0 0 0  0 1 0 0 0  0 0 1 0 0  0 0 0 1 0"/>
			</filter>
		</defs>
		<mask maskUnits="userSpaceOnUse" x="-3.7" y="-5.3" width="12.9" height="14.1" id="d_4_">
			<g class="st11">
				<path id="c_4_" class="st3" d="M-8.7,14h53.4V-6.6H-8.7V14z"/>
			</g>
		</mask>
		<path class="st12" d="M8-4.6h1.3v-0.7H8V-4.6z M7.3-3.2H8v-1.3H7.3V-3.2z M7.3-2.6v0.7H6.7v-0.7H5.6v0.5H5v0.6h0.6v0.7H5v-0.7H4.3
			v1H3.7v0.7H3.2v0.7H2.8C2.2,1.6,0.9,4.1,0.5,5.1C-1,3.1-2.1,2.3-3,2c-0.5-0.1-1.1,0.4-0.3,1.2c1.8,2,2.4,3.7,3,5
			C0,8.9,1.3,9,1.6,8.3C2.1,6.8,3,5.1,3.9,3.7V3h0.5V2.3H5V1.5h0.6V0.8H5V0.1h0.7v0.7h0.6V0.2h0.5v-0.8h0.6v-0.6H8v-1.4
			C8-2.6,7.3-2.6,7.3-2.6z"/>
	</g>
</g>
</svg>
