<svg width="241" height="141" viewBox="0 0 241 141" fill="none" xmlns="http://www.w3.org/2000/svg">
<path opacity="0.2" d="M120.072 140.413C150.457 140.413 175.088 136.377 175.088 131.399C175.088 126.42 150.457 122.385 120.072 122.385C89.6883 122.385 65.0571 126.42 65.0571 131.399C65.0571 136.377 89.6883 140.413 120.072 140.413Z" fill="#83DB35"/>
<path opacity="0.2" d="M35.9227 90.7209C39.6871 90.7209 42.7388 87.6693 42.7388 83.9049C42.7388 80.1405 39.6871 77.0889 35.9227 77.0889C32.1583 77.0889 29.1067 80.1405 29.1067 83.9049C29.1067 87.6693 32.1583 90.7209 35.9227 90.7209Z" fill="#83DB35"/>
<path opacity="0.2" d="M41.2657 113.901C45.0301 113.901 48.0818 110.849 48.0818 107.085C48.0818 103.32 45.0301 100.269 41.2657 100.269C37.5014 100.269 34.4497 103.32 34.4497 107.085C34.4497 110.849 37.5014 113.901 41.2657 113.901Z" fill="#83DB35"/>
<path opacity="0.2" d="M206.944 24.5535C211.752 24.5535 215.65 20.656 215.65 15.8481C215.65 11.0402 211.752 7.14258 206.944 7.14258C202.136 7.14258 198.239 11.0402 198.239 15.8481C198.239 20.656 202.136 24.5535 206.944 24.5535Z" fill="#83DB35"/>
<path opacity="0.2" d="M66.8232 115.625C69.9646 115.625 72.5112 113.078 72.5112 109.937C72.5112 106.796 69.9646 104.249 66.8232 104.249C63.6818 104.249 61.1351 106.796 61.1351 109.937C61.1351 113.078 63.6818 115.625 66.8232 115.625Z" fill="#83DB35"/>
<path opacity="0.4" d="M118.595 15.3199C110.338 14.4702 102.615 11.8602 94.8215 9.65328C86.1528 7.21088 77.3098 5.25015 68.3473 3.78329C58.7989 2.21694 48.9558 1.19615 39.383 1.9261C29.8102 2.65605 20.47 5.2812 14.3643 10.081C4.02057 18.2226 4.89345 30.5632 8.30961 41.4402C12.3638 54.3455 19.3734 67.1025 30.847 78.0935C39.002 85.9062 49.235 92.6696 59.3771 99.3836C65.1106 103.172 70.8973 106.987 77.5945 109.966C83.8242 112.734 90.703 114.718 97.5332 116.674C104.826 118.765 112.137 120.868 119.667 122.466C143.702 127.568 169.005 127.409 193.744 126.954C202.451 126.797 211.552 126.536 218.856 123.618C224.547 121.337 228.604 117.642 231.676 113.701C235.697 108.538 238.236 102.378 235.381 96.6197C231.171 88.1265 216.745 83.1233 211.942 74.7593C205.787 64.0268 217.742 52.6822 214.359 41.5106C212.952 36.8628 208.984 32.6618 204.779 28.7441C194.75 19.403 181.42 10.8946 163.504 12.1378C148.335 13.1871 134.5 16.9585 118.595 15.3199Z" fill="#83DB35"/>
<path d="M91.7871 8.80469H151.055C152.609 8.80468 154.099 9.32772 155.199 10.2592C156.299 11.1907 156.92 12.4546 156.925 13.7741V123.991C156.92 125.31 156.299 126.574 155.199 127.506C154.099 128.437 152.609 128.96 151.055 128.96H91.7871C90.2336 128.96 88.7434 128.437 87.6431 127.506C86.5428 126.574 85.9221 125.31 85.9171 123.991V13.7724C85.9226 12.4533 86.5435 11.1898 87.6437 10.2586C88.744 9.3275 90.2339 8.80468 91.7871 8.80469Z" fill="url(#paint0_linear)"/>
<path d="M91.5441 128.501H151.293C154.103 128.501 156.381 126.566 156.381 124.18L156.381 14.0464C156.381 11.6598 154.103 9.72514 151.293 9.72514H91.5441C88.7341 9.72514 86.4562 11.6598 86.4562 14.0464L86.4562 124.18C86.4562 126.566 88.7341 128.501 91.5441 128.501Z" fill="#4E5A86"/>
<path d="M91.6058 117.453H151.232V20.7757H91.6058L91.6058 117.453Z" fill="white"/>
<path d="M128.465 15.7099C128.764 15.7099 129.007 15.504 129.007 15.25C129.007 14.996 128.764 14.79 128.465 14.79C128.166 14.79 127.924 14.996 127.924 15.25C127.924 15.504 128.166 15.7099 128.465 15.7099Z" fill="white"/>
<path d="M114.017 15.709L125.563 15.709C125.668 15.709 125.753 15.637 125.753 15.5482V14.9483C125.753 14.8595 125.668 14.7875 125.563 14.7875L114.017 14.7875C113.912 14.7875 113.827 14.8595 113.827 14.9483V15.5482C113.827 15.637 113.912 15.709 114.017 15.709Z" fill="white"/>
<path d="M121.691 125.278C123.787 125.278 125.486 123.835 125.486 122.055C125.486 120.275 123.787 118.832 121.691 118.832C119.595 118.832 117.896 120.275 117.896 122.055C117.896 123.835 119.595 125.278 121.691 125.278Z" fill="white"/>
<path opacity="0.1" d="M144.426 35.7539H98.4133V88.0207H144.426V35.7539Z" fill="#83DB35"/>
<path d="M137.811 61.0917C137.697 60.9824 137.582 60.8762 137.463 60.7701C138.377 59.8888 139.326 58.9834 139.316 57.8512C139.307 56.4729 137.868 55.4163 137.33 54.1137C136.599 52.3447 137.614 50.4438 138.031 48.6024C138.356 47.1057 138.288 45.5666 137.831 44.0949C137.375 42.6231 136.542 41.2551 135.391 40.0885C134.969 39.6639 134.478 39.2539 133.848 39.0866C132.892 38.8293 131.873 39.1863 130.877 39.2908C127.584 39.635 124.588 37.2259 121.28 37.4414C121.061 37.4485 120.846 37.49 120.644 37.5636C120.216 37.7373 119.985 38.1201 119.72 38.4514C118.692 39.7379 116.967 40.3812 115.25 41.0245C115.034 41.0792 114.829 41.1593 114.64 41.2625C114.125 41.4667 113.617 41.679 113.138 41.9203C110.752 43.1361 110.374 44.6944 111.118 45.9939C111.401 46.473 111.795 46.8986 112.277 47.245C112.259 47.3237 112.236 47.4015 112.208 47.4782C111.722 48.9642 110.018 50.2974 110.328 51.8429C110.396 52.1437 110.525 52.4325 110.707 52.6969C111.212 53.4736 112.049 54.1443 112.371 54.987C112.404 55.0724 112.432 55.1594 112.453 55.2475C112.627 55.984 112.351 56.6852 111.97 57.3816C108.342 58.094 104.244 59.4063 103.926 61.7237C103.369 65.7539 101.696 76.8859 101.696 76.8859C101.696 76.8859 100.575 82.0322 103.275 82.6594C104.125 82.8556 105.358 82.5999 107.126 81.5883L107.032 81.8263C107.011 81.8794 106.99 81.9309 106.971 81.9872C106.198 83.9605 105.579 85.9752 105.119 88.0179H131.174C130.955 86.7334 130.615 85.4658 130.157 84.2274C130.125 84.1373 130.093 84.0553 130.065 83.9781C130.805 84.2484 131.564 84.4804 132.337 84.6729C133.297 84.9173 134.068 84.9141 134.687 84.7581C136.942 84.1872 137.181 81.5932 137.181 81.5932L138.15 75.2697L139.309 65.8408C139.48 65.4319 139.567 65.001 139.565 64.567C139.565 63.6584 139.201 62.4362 137.811 61.0917ZM118.027 55.1542C118.041 55.0448 118.05 54.9339 118.058 54.8245L118.092 54.8438C118.092 54.9484 118.078 55.0529 118.065 55.1558C118.065 55.1558 118.065 55.1671 118.065 55.1735C118.029 55.5023 117.946 55.8262 117.819 56.1384C117.92 55.8156 117.989 55.4865 118.027 55.1542ZM131.176 77.9618C130.595 78.187 129.82 77.8637 129.82 77.8637C129.887 77.9666 129.949 78.0664 130.01 78.1661C130.01 78.1698 130.01 78.1736 130.01 78.1773L129.968 78.158L129.523 77.965C129.705 77.2003 129.998 76.4579 130.398 75.7554C130.737 75.1701 131.039 74.5699 131.303 73.9574C131.415 73.6872 131.507 73.4395 131.583 73.2112C131.57 74.2242 131.627 75.237 131.756 76.2443C131.922 77.3394 131.602 77.7994 131.176 77.9618Z" fill="url(#paint1_linear)"/>
<path d="M113.372 42.6065C112.753 42.9652 112.103 43.3801 111.884 43.9896C111.528 44.9722 112.421 45.9581 112.508 46.9841C112.669 48.848 110.187 50.3887 110.552 52.2333C110.802 53.4973 112.329 54.3561 112.622 55.6105C113.05 57.4439 110.711 59.0601 110.895 60.9176C110.994 61.9099 111.806 62.7526 112.726 63.3669C114.02 64.2271 115.568 64.7669 117.201 64.9269C117.093 63.3331 115.699 61.8809 115.94 60.2968C116.104 59.2113 117.004 58.322 117.524 57.32C118.439 55.5607 118.146 53.5247 117.598 51.6592C117.051 49.7936 116.258 47.949 116.218 46.0304C116.193 44.8725 116.833 43.1726 116.364 42.0742C115.794 40.7426 114.434 41.9922 113.372 42.6065Z" fill="#B0605D"/>
<path opacity="0.1" d="M113.561 42.2843C112.942 42.6429 112.292 43.0578 112.073 43.6673C111.717 44.65 112.611 45.6358 112.698 46.6618C112.859 48.5257 110.376 50.0664 110.742 51.911C110.992 53.1751 112.518 54.0339 112.811 55.2883C113.239 57.1216 110.901 58.7379 111.084 60.5953C111.183 61.5876 111.995 62.4303 112.915 63.0446C114.209 63.9048 115.758 64.4447 117.39 64.6046C117.282 63.0109 115.888 61.5587 116.129 59.9746C116.293 58.889 117.193 57.9997 117.714 56.9978C118.628 55.2384 118.335 53.2024 117.788 51.3369C117.24 49.4714 116.447 47.6267 116.407 45.7082C116.382 44.5502 117.023 42.8504 116.553 41.752C115.983 40.4204 114.623 41.6699 113.561 42.2843Z" fill="black"/>
<path d="M115.565 66.4596C115.565 66.4596 105.529 57.7753 113.103 58.4185C114.821 58.5649 115.984 58.3044 116.754 57.8155C117.633 57.259 118.002 56.4067 118.104 55.5173C118.313 53.7483 117.459 51.8185 117.459 51.8185C117.459 51.8185 127.684 44.9032 125.601 53.5875C125.372 54.47 125.239 55.3684 125.203 56.2716C125.169 58.1146 125.883 58.8206 126.885 59.1101C128.574 59.6006 131.085 58.9139 132.228 60.5028C134.311 63.404 115.565 66.4596 115.565 66.4596Z" fill="#FFB9B9"/>
<path opacity="0.05" d="M125.6 53.5936C125.371 54.4761 125.238 55.3746 125.202 56.2777C124.93 56.3578 124.652 56.4249 124.371 56.4787C123.304 56.6832 122.199 56.7031 121.122 56.5373C120.045 56.3716 119.019 56.0235 118.103 55.5138C118.312 53.7448 117.458 51.8149 117.458 51.8149C117.458 51.8149 127.683 44.9093 125.6 53.5936Z" fill="black"/>
<path d="M130.714 49.4122C130.714 51.2462 129.856 53.0052 128.329 54.302C126.802 55.5989 124.731 56.3275 122.571 56.3275C120.412 56.3275 118.341 55.5989 116.814 54.302C115.287 53.0052 114.429 51.2462 114.429 49.4122C114.429 49.2835 114.429 49.1549 114.442 49.0278C114.563 47.2317 115.503 45.5463 117.063 44.3293C118.623 43.1123 120.68 42.4595 122.798 42.5095C124.915 42.5595 126.926 43.3084 128.404 44.5972C129.882 45.886 130.711 47.6132 130.714 49.4122Z" fill="#FFB9B9"/>
<path opacity="0.05" d="M115.565 66.4586C115.565 66.4586 105.529 57.7742 113.103 58.4175C114.821 58.5639 115.984 58.3033 116.754 57.8145C115.298 59.8794 113.639 63.5879 121.056 63.2422C127.845 62.9205 127.729 60.624 126.885 59.1155C128.574 59.606 131.085 58.9193 132.228 60.5082C134.311 63.403 115.565 66.4586 115.565 66.4586Z" fill="black"/>
<path d="M138.841 66.1173C138.794 66.2355 138.735 66.3501 138.665 66.4598L136.092 68.1275L135.764 68.3414L131.471 71.1236C131.471 71.1236 131.865 71.709 131.303 73.4234C131.005 74.2921 130.618 75.1369 130.146 75.9482C129.756 76.6458 129.468 77.3814 129.29 78.1386C129.291 78.1499 129.291 78.1612 129.29 78.1724C129.258 78.3123 129.23 78.4506 129.207 78.5873C128.968 79.9543 129.014 81.3464 129.345 82.6995C129.348 82.7179 129.353 82.7362 129.358 82.7542C129.449 83.1209 129.534 83.3701 129.568 83.4634L129.586 83.5068C129.586 83.5068 129.676 83.7127 129.813 84.0729L129.824 84.1051C130.307 85.3833 130.666 86.693 130.896 88.0211H105.483C105.942 85.9728 106.558 83.9523 107.329 81.9726L107.422 81.7378C107.266 81.8279 107.115 81.9131 106.969 81.9903C105.208 82.9295 104.04 83.0276 103.273 82.6657C101.139 81.6574 102.12 77.074 102.12 77.074C102.12 77.074 103.754 66.0336 104.297 62.0373C104.61 59.7391 108.609 58.4381 112.15 57.7305C113.948 57.3766 115.772 57.1241 117.609 56.9746H117.647C117.647 56.9746 117.594 57.0293 117.505 57.1354L117.493 57.1483C117.427 57.2223 117.342 57.3172 117.247 57.4329C116.621 58.1599 116.102 58.9489 115.7 59.7825C115.113 61.0948 115.013 62.5278 116.73 63.2563C117.596 63.6245 118.921 63.8143 120.875 63.7226C123.895 63.5811 125.55 63.0456 126.382 62.3637C126.735 62.0856 126.975 61.7187 127.065 61.3168C127.283 60.339 126.582 59.3097 126.096 58.734C125.961 58.5755 125.817 58.423 125.664 58.2773L130.629 58.578C133.061 58.7136 135.348 59.609 137.05 61.0916C137.167 61.1929 137.281 61.2991 137.391 61.4133C139.561 63.5506 139.155 65.3839 138.841 66.1173Z" fill="#FFD6EF"/>
<path opacity="0.05" d="M109.127 65.8164C109.127 65.8164 109.506 68.3895 108.748 69.1936C107.991 69.9977 107.801 73.6966 108.748 75.9481L109.127 65.8164Z" fill="black"/>
<path d="M122.24 71.2832H110.784C110.392 71.2832 110.074 71.5532 110.074 71.8863V75.1831C110.074 75.5162 110.392 75.7862 110.784 75.7862H122.24C122.632 75.7862 122.95 75.5162 122.95 75.1831V71.8863C122.95 71.5532 122.632 71.2832 122.24 71.2832Z" fill="#CDD0DB"/>
<path opacity="0.05" d="M122.24 71.2832H110.784C110.392 71.2832 110.074 71.5532 110.074 71.8863V75.1831C110.074 75.5162 110.392 75.7862 110.784 75.7862H122.24C122.632 75.7862 122.95 75.5162 122.95 75.1831V71.8863C122.95 71.5532 122.632 71.2832 122.24 71.2832Z" fill="black"/>
<path d="M122.24 71.4434H110.784C110.392 71.4434 110.074 71.7134 110.074 72.0464V75.3433C110.074 75.6763 110.392 75.9463 110.784 75.9463H122.24C122.632 75.9463 122.95 75.6763 122.95 75.3433V72.0464C122.95 71.7134 122.632 71.4434 122.24 71.4434Z" fill="#CDD0DB"/>
<path d="M120.205 74.0977C120.518 74.0977 120.773 73.8817 120.773 73.6153C120.773 73.3488 120.518 73.1328 120.205 73.1328C119.891 73.1328 119.636 73.3488 119.636 73.6153C119.636 73.8817 119.891 74.0977 120.205 74.0977Z" fill="#9DA7C0"/>
<path opacity="0.05" d="M104.593 78.4152C104.764 77.9831 105.044 77.5879 105.414 77.2573C105.783 76.9267 106.234 76.6688 106.733 76.5015C107.38 76.2731 108.17 75.8582 108.57 75.1007C109.316 73.6968 110.641 72.2494 114.05 73.2143C117.458 74.1792 113.103 74.8225 113.103 74.8225C113.103 74.8225 120.866 73.8576 117.837 75.7874C114.807 77.7173 111.02 78.843 111.02 78.843L109.155 80.5204C108.019 81.5448 106.046 81.54 104.989 80.4496C104.516 79.9575 104.268 79.2949 104.593 78.4152Z" fill="black"/>
<path d="M104.404 78.093C104.575 77.6608 104.855 77.2656 105.225 76.9351C105.594 76.6045 106.044 76.3465 106.544 76.1792C107.191 75.9509 107.981 75.5359 108.38 74.7785C109.126 73.3745 110.452 71.9271 113.86 72.892C117.269 73.857 112.914 74.5002 112.914 74.5002C112.914 74.5002 120.677 73.5353 117.647 75.4652C114.618 77.395 110.831 78.5208 110.831 78.5208L108.966 80.1981C107.829 81.2226 105.856 81.2177 104.8 80.1274C104.326 79.6353 104.078 78.9727 104.404 78.093Z" fill="#FFB9B9"/>
<path opacity="0.05" d="M131.091 81.4157L129.766 84.1497L128.062 83.0899L123.328 80.1291L120.109 78.3601C115.564 75.4653 120.109 74.9829 120.109 74.9829C118.404 74.3396 120.109 73.6963 120.109 73.6963C126.168 72.5706 125.032 76.7519 125.032 76.7519L128.87 78.4421L130.144 79.0034L131.091 81.4157Z" fill="black"/>
<path d="M131.469 81.0944L130.144 83.8284L128.44 82.7686L123.706 79.8079L120.487 78.0388C115.942 75.1441 120.487 74.6616 120.487 74.6616C118.783 74.0183 120.487 73.375 120.487 73.375C126.546 72.2493 125.41 76.4306 125.41 76.4306L129.248 78.1209L130.523 78.6821L131.469 81.0944Z" fill="#FFB9B9"/>
<path opacity="0.05" d="M131.47 81.0937L130.144 83.8277L128.44 82.7678C129.976 82.8145 131.79 82.1841 129.241 78.1201L130.515 78.6814L131.47 81.0937Z" fill="black"/>
<path d="M138.477 64.8506L138.842 66.1162L137.719 75.4648L136.772 81.7368C136.772 81.7368 136.394 85.9181 132.039 84.7924C127.683 83.6666 127.305 82.5409 127.305 82.5409C127.305 82.5409 133.553 84.3099 129.577 78.0379C129.577 78.0379 131.849 79.0028 131.47 76.4297C131.092 73.8565 131.47 69.3536 131.47 69.3536L138.477 64.8506Z" fill="#FFD6EF"/>
<path opacity="0.05" d="M130.713 49.4122C130.713 50.9806 130.086 52.5025 128.933 53.7281C127.781 54.9536 126.173 55.8102 124.372 56.157C124.099 55.488 123.906 54.8222 124.105 54.1452C124.483 52.8312 126.275 51.8728 126.076 50.5299C126.056 50.378 125.991 50.2329 125.886 50.1086C125.487 49.6615 124.673 49.8834 124.025 49.9944C122.351 50.2774 120.518 49.3173 120.064 47.9198C119.336 48.5273 118.426 48.9523 117.432 49.1478C116.438 49.3433 115.4 49.3018 114.432 49.0278C114.553 47.2317 115.493 45.5463 117.053 44.3293C118.613 43.1123 120.67 42.4595 122.788 42.5095C124.905 42.5595 126.916 43.3084 128.394 44.5972C129.872 45.886 130.701 47.6132 130.704 49.4122H130.713Z" fill="black"/>
<path d="M120.264 47.5981C120.716 48.9956 122.551 49.9557 124.223 49.6711C124.871 49.5617 125.685 49.3398 126.084 49.7869C126.186 49.9111 126.248 50.0558 126.264 50.2066C126.465 51.5511 124.679 52.5079 124.295 53.8235C123.899 55.1776 125.052 56.485 125.308 57.8633C125.443 58.6175 125.308 59.3863 125.308 60.1485C125.308 60.9108 125.52 61.731 126.187 62.2392C126.853 62.7474 128.08 62.7571 128.529 62.0945C130.659 63.0514 129.809 66.0153 131.426 67.5318C132.318 68.3681 133.785 68.5691 135.109 68.463C135.419 68.4588 135.72 68.3759 135.974 68.225C136.193 68.0416 136.341 67.806 136.399 67.5495C136.733 66.4759 136.675 65.3414 136.234 64.2961C136.022 63.796 135.717 63.291 135.796 62.7651C135.857 62.3534 136.147 61.9948 136.453 61.6715C137.47 60.6005 138.858 59.5648 138.849 58.1881C138.839 56.8115 137.434 55.7758 136.91 54.4893C136.196 52.7315 137.186 50.8483 137.593 49.0214C137.911 47.5395 137.846 46.0166 137.401 44.5585C136.956 43.1005 136.142 41.7422 135.016 40.5783C134.603 40.1569 134.124 39.75 133.501 39.5828C132.568 39.3287 131.574 39.6825 130.599 39.7854C127.38 40.128 124.462 37.7382 121.231 37.9521C121.017 37.959 120.807 37.9999 120.61 38.0727C120.192 38.2447 119.966 38.6259 119.707 38.954C118.281 40.7632 115.479 41.2794 113.282 42.402C106.876 45.6779 115.356 51.609 120.264 47.5981Z" fill="#B0605D"/>
<path d="M159.338 127.163C159.338 127.163 156.596 115.365 162.243 107.279C164.636 103.901 165.675 99.9539 165.202 96.0314C164.959 94.1707 164.515 92.3329 163.877 90.541" stroke="#535461" stroke-width="2" stroke-miterlimit="10"/>
<path d="M167.403 85.4263C167.251 86.8335 163.805 90.682 163.805 90.682C163.805 90.682 161.245 86.3655 161.398 84.9568C161.427 84.617 161.535 84.2854 161.716 83.9815C161.897 83.6776 162.148 83.4075 162.454 83.187C162.759 82.9665 163.114 82.8 163.496 82.6973C163.878 82.5946 164.281 82.5577 164.681 82.5888C165.08 82.62 165.468 82.7185 165.822 82.8786C166.176 83.0388 166.489 83.2573 166.742 83.5214C166.996 83.7855 167.184 84.0899 167.297 84.4167C167.41 84.7435 167.445 85.0862 167.401 85.4247L167.403 85.4263Z" fill="#83DB35"/>
<path d="M171.521 93.611C170.493 94.7223 165.14 96.3643 165.14 96.3643C165.14 96.3643 165.753 91.559 166.781 90.4477C167.288 89.9471 168.002 89.6318 168.775 89.5678C169.549 89.5037 170.321 89.6957 170.932 90.1038C171.543 90.5119 171.944 91.1045 172.053 91.758C172.162 92.4114 171.969 93.0753 171.515 93.611H171.521Z" fill="#83DB35"/>
<path d="M169.862 106.92C168.314 107.438 162.718 106.56 162.718 106.56C162.718 106.56 166.104 102.675 167.653 102.157C168.393 101.92 169.214 101.941 169.937 102.214C170.66 102.486 171.228 102.99 171.518 103.615C171.808 104.24 171.797 104.937 171.487 105.556C171.178 106.174 170.594 106.664 169.862 106.92Z" fill="#83DB35"/>
<path d="M165.938 116.75C164.514 117.484 158.824 117.421 158.824 117.421C158.824 117.421 161.388 113.106 162.812 112.373C163.151 112.192 163.528 112.07 163.923 112.014C164.318 111.958 164.721 111.97 165.111 112.048C165.5 112.126 165.867 112.269 166.191 112.469C166.514 112.669 166.788 112.921 166.995 113.212C167.203 113.503 167.34 113.825 167.399 114.161C167.458 114.497 167.438 114.84 167.34 115.169C167.241 115.499 167.067 115.808 166.826 116.08C166.586 116.351 166.284 116.579 165.938 116.75Z" fill="#83DB35"/>
<path d="M158.808 96.1451C159.891 97.2194 165.32 98.6668 165.32 98.6668C165.32 98.6668 164.468 93.8872 163.386 92.8145C163.131 92.5536 162.817 92.3385 162.463 92.1817C162.108 92.0248 161.721 91.9293 161.323 91.9007C160.925 91.8721 160.524 91.911 160.144 92.0152C159.763 92.1193 159.411 92.2866 159.108 92.5074C158.804 92.7281 158.556 92.9978 158.376 93.3009C158.197 93.604 158.09 93.9344 158.062 94.2729C158.034 94.6114 158.085 94.9512 158.213 95.2726C158.341 95.594 158.543 95.8906 158.808 96.1451Z" fill="#83DB35"/>
<path d="M154.39 107.69C155.801 108.44 161.493 108.441 161.493 108.441C161.493 108.441 158.997 104.099 157.584 103.348C157.249 103.164 156.873 103.039 156.48 102.98C156.087 102.921 155.684 102.928 155.294 103.002C154.905 103.076 154.536 103.215 154.21 103.411C153.884 103.607 153.607 103.856 153.396 104.144C153.184 104.432 153.042 104.752 152.978 105.087C152.913 105.422 152.927 105.764 153.02 106.094C153.112 106.424 153.281 106.735 153.516 107.009C153.752 107.283 154.049 107.515 154.39 107.69Z" fill="#83DB35"/>
<path d="M151.907 119.415C153.149 120.356 158.758 121.176 158.758 121.176C158.758 121.176 157.162 116.536 155.918 115.595C155.623 115.366 155.278 115.188 154.902 115.072C154.527 114.957 154.127 114.906 153.728 114.923C153.329 114.94 152.938 115.024 152.577 115.17C152.216 115.317 151.894 115.523 151.628 115.776C151.362 116.029 151.158 116.325 151.027 116.646C150.897 116.967 150.843 117.307 150.869 117.646C150.895 117.984 151 118.315 151.178 118.619C151.356 118.923 151.603 119.194 151.905 119.417L151.907 119.415Z" fill="#83DB35"/>
<path d="M111.571 27.0477C111.571 25.4328 110.816 23.8842 109.471 22.7423C108.127 21.6005 106.303 20.959 104.402 20.959H65.3421C63.4407 20.959 61.6173 21.6005 60.2728 22.7423C58.9284 23.8842 58.1731 25.4328 58.1731 27.0477C58.1731 28.6625 58.9284 30.2112 60.2728 31.353C61.6173 32.4949 63.4407 33.1363 65.3421 33.1363L98 33.0833L105.512 38.6493V33.0543C107.199 32.8308 108.737 32.1028 109.848 31.0014C110.959 29.9001 111.57 28.4979 111.571 27.0477Z" fill="#83DB35"/>
<path opacity="0.2" d="M66.5798 29.3569C67.9456 29.3569 69.0527 28.4165 69.0527 27.2566C69.0527 26.0966 67.9456 25.1562 66.5798 25.1562C65.214 25.1562 64.1068 26.0966 64.1068 27.2566C64.1068 28.4165 65.214 29.3569 66.5798 29.3569Z" fill="white"/>
<path opacity="0.2" d="M74.9841 29.3569C76.3499 29.3569 77.457 28.4165 77.457 27.2566C77.457 26.0966 76.3499 25.1562 74.9841 25.1562C73.6183 25.1562 72.5111 26.0966 72.5111 27.2566C72.5111 28.4165 73.6183 29.3569 74.9841 29.3569Z" fill="white"/>
<path opacity="0.2" d="M83.3885 29.3569C84.7543 29.3569 85.8615 28.4165 85.8615 27.2566C85.8615 26.0966 84.7543 25.1562 83.3885 25.1562C82.0227 25.1562 80.9155 26.0966 80.9155 27.2566C80.9155 28.4165 82.0227 29.3569 83.3885 29.3569Z" fill="white"/>
<path d="M118.011 96.3828H98.3181V101.368H118.011V96.3828Z" fill="#83DB35"/>
<path opacity="0.1" d="M144.332 96.3828H124.639V101.368H144.332V96.3828Z" fill="#83DB35"/>
<defs>
<linearGradient id="paint0_linear" x1="121.419" y1="128.96" x2="121.419" y2="8.80469" gradientUnits="userSpaceOnUse">
<stop stop-color="#808080" stop-opacity="0.25"/>
<stop offset="0.54" stop-color="#808080" stop-opacity="0.12"/>
<stop offset="1" stop-color="#808080" stop-opacity="0.1"/>
</linearGradient>
<linearGradient id="paint1_linear" x1="21915.5" y1="29274.5" x2="21915.5" y2="13359.9" gradientUnits="userSpaceOnUse">
<stop stop-color="#808080" stop-opacity="0.25"/>
<stop offset="0.54" stop-color="#808080" stop-opacity="0.12"/>
<stop offset="1" stop-color="#808080" stop-opacity="0.1"/>
</linearGradient>
</defs>
</svg>
