<svg width="241" height="141" viewBox="0 0 241 141" fill="none" xmlns="http://www.w3.org/2000/svg">
<path opacity="0.4" d="M142.456 23.9725C128.357 23.5126 114.929 19.2431 102.107 14.571C89.2851 9.89885 76.5783 4.72189 62.8216 2.24684C53.9707 0.65472 43.8497 0.429902 36.7176 4.88131C29.8555 9.17329 27.6379 16.5616 26.4441 23.4247C25.5488 28.5874 25.0216 34.0198 27.4789 38.8534C29.1846 42.2093 32.2148 45.0298 34.3104 48.2447C41.5994 59.4284 36.4474 73.22 28.5463 84.14C24.843 89.2638 20.5428 94.1547 17.6825 99.6034C14.8222 105.052 13.4999 111.304 16.0008 116.867C18.482 122.386 24.3921 126.522 30.7944 129.435C43.7953 135.352 59.1139 137.044 74.0601 138.002C107.133 140.126 140.384 139.206 173.544 138.287C185.818 137.945 198.145 137.6 210.218 135.82C216.921 134.83 223.844 133.263 228.711 129.474C234.889 124.665 236.42 116.52 232.281 110.491C225.336 100.376 206.14 97.8642 201.28 87.0075C198.607 81.0334 201.352 74.3788 205.234 68.836C213.564 56.9492 227.526 46.5197 228.262 32.9325C228.767 23.5985 222.056 14.2542 211.678 9.83753C200.799 5.21036 185.715 5.7908 177.694 13.453C169.425 21.3421 154.904 24.3772 142.456 23.9725Z" fill="#83DB35"/>
<g opacity="0.6">
<path opacity="0.6" d="M64.3203 47.0136C64.3203 47.0136 58.7019 37.0623 50.2426 34.1948C46.6904 33.0121 43.617 30.7103 41.4828 27.6342C40.4798 26.1654 39.6137 24.6076 38.8954 22.9805" stroke="#535461" stroke-width="2" stroke-miterlimit="10"/>
<path opacity="0.6" d="M33.5652 21.1415C34.5278 22.0776 39.0181 23.0443 39.0181 23.0443C39.0181 23.0443 37.9165 18.5867 36.9518 17.6507C36.7238 17.4223 36.4527 17.2415 36.1542 17.1189C35.8557 16.9963 35.5358 16.9343 35.2131 16.9366C34.8904 16.9389 34.5713 17.0053 34.2746 17.1321C33.9778 17.2589 33.7093 17.4435 33.4846 17.6751C33.2599 17.9068 33.0835 18.1808 32.9658 18.4812C32.848 18.7817 32.7912 19.1026 32.7988 19.4252C32.8063 19.7478 32.8779 20.0657 33.0095 20.3604C33.1411 20.655 33.33 20.9206 33.5652 21.1415Z" fill="#83DB35"/>
<path opacity="0.6" d="M36.1041 29.2142C37.4224 29.4759 41.7164 27.8469 41.7164 27.8469C41.7164 27.8469 38.3686 24.7036 37.0504 24.442C36.737 24.3798 36.4145 24.38 36.1012 24.4425C35.788 24.505 35.4901 24.6286 35.2246 24.8063C34.959 24.9839 34.7311 25.2121 34.5538 25.4778C34.3765 25.7436 34.2532 26.0416 34.1911 26.355C34.129 26.6683 34.1292 26.9908 34.1917 27.3041C34.2542 27.6174 34.3778 27.9153 34.5554 28.1808C34.7331 28.4463 34.9613 28.6742 35.227 28.8515C35.4927 29.0289 35.7908 29.1521 36.1041 29.2142Z" fill="#83DB35"/>
<path opacity="0.6" d="M45.3521 37.9397C46.6213 37.5003 49.5071 33.9278 49.5071 33.9278C49.5071 33.9278 45.0291 32.9059 43.7599 33.3432C43.1504 33.5544 42.6497 33.999 42.368 34.5793C42.0863 35.1596 42.0466 35.828 42.2577 36.4375C42.4689 37.0471 42.9135 37.5478 43.4938 37.8295C44.0741 38.1112 44.7425 38.1509 45.3521 37.9397Z" fill="#83DB35"/>
<path opacity="0.6" d="M53.8354 42.972C55.1618 42.7533 58.6097 39.7183 58.6097 39.7183C58.6097 39.7183 54.3708 37.9524 53.0444 38.1711C52.4078 38.276 51.8389 38.6295 51.4629 39.1538C51.0869 39.6782 50.9346 40.3304 51.0394 40.967C51.1443 41.6037 51.4978 42.1726 52.0222 42.5486C52.5465 42.9246 53.1987 43.0769 53.8354 42.972Z" fill="#83DB35"/>
<path opacity="0.6" d="M45.4603 24.3588C45.4603 25.7036 43.0302 29.5991 43.0302 29.5991C43.0302 29.5991 40.5961 25.7159 40.5961 24.3608C40.5961 23.7158 40.8523 23.0972 41.3084 22.6411C41.7645 22.185 42.3832 21.9287 43.0282 21.9287C43.6732 21.9287 44.2919 22.185 44.748 22.6411C45.2041 23.0972 45.4603 23.7158 45.4603 24.3608V24.3588Z" fill="#83DB35"/>
<path opacity="0.6" d="M55.3096 30.3672C54.9008 31.6507 51.4263 34.6408 51.4263 34.6408C51.4263 34.6408 50.2696 30.1955 50.6701 28.9181C50.7656 28.6132 50.9201 28.3301 51.1249 28.0849C51.3297 27.8398 51.5809 27.6373 51.8639 27.4892C52.147 27.3411 52.4565 27.2502 52.7747 27.2216C53.0929 27.1931 53.4136 27.2275 53.7185 27.3229C54.0234 27.4184 54.3065 27.5729 54.5517 27.7777C54.7968 27.9826 54.9993 28.2337 55.1474 28.5167C55.2955 28.7998 55.3864 29.1093 55.415 29.4275C55.4435 29.7457 55.4091 30.0664 55.3137 30.3713L55.3096 30.3672Z" fill="#83DB35"/>
<path opacity="0.6" d="M64.079 37.52C63.9012 38.8525 60.9704 42.3903 60.9704 42.3903C60.9704 42.3903 59.0778 38.2046 59.2577 36.8721C59.3436 36.2327 59.6799 35.6537 60.1928 35.2624C60.7056 34.871 61.3529 34.6994 61.9923 34.7853C62.6316 34.8713 63.2106 35.2076 63.602 35.7205C63.9933 36.2333 64.1649 36.8806 64.079 37.52Z" fill="#83DB35"/>
<path opacity="0.25" d="M33.5652 21.1415C34.5278 22.0776 39.0181 23.0443 39.0181 23.0443C39.0181 23.0443 37.9165 18.5867 36.9518 17.6507C36.7238 17.4223 36.4527 17.2415 36.1542 17.1189C35.8557 16.9963 35.5358 16.9343 35.2131 16.9366C34.8904 16.9389 34.5713 17.0053 34.2746 17.1321C33.9778 17.2589 33.7093 17.4435 33.4846 17.6751C33.2599 17.9068 33.0835 18.1808 32.9658 18.4812C32.848 18.7817 32.7912 19.1026 32.7988 19.4252C32.8063 19.7478 32.8779 20.0657 33.0095 20.3604C33.1411 20.655 33.33 20.9206 33.5652 21.1415Z" fill="black"/>
<path opacity="0.25" d="M36.1041 29.2142C37.4224 29.4759 41.7164 27.8469 41.7164 27.8469C41.7164 27.8469 38.3686 24.7036 37.0504 24.442C36.737 24.3798 36.4145 24.38 36.1012 24.4425C35.788 24.505 35.4901 24.6286 35.2246 24.8063C34.959 24.9839 34.7311 25.2121 34.5538 25.4778C34.3765 25.7436 34.2532 26.0416 34.1911 26.355C34.129 26.6683 34.1292 26.9908 34.1917 27.3041C34.2542 27.6174 34.3778 27.9153 34.5554 28.1808C34.7331 28.4463 34.9613 28.6742 35.227 28.8515C35.4927 29.0289 35.7908 29.1521 36.1041 29.2142Z" fill="black"/>
<path opacity="0.25" d="M45.3521 37.9397C46.6213 37.5003 49.5071 33.9278 49.5071 33.9278C49.5071 33.9278 45.0291 32.9059 43.7599 33.3432C43.1504 33.5544 42.6497 33.999 42.368 34.5793C42.0863 35.1596 42.0466 35.828 42.2577 36.4375C42.4689 37.0471 42.9135 37.5478 43.4938 37.8295C44.0741 38.1112 44.7425 38.1509 45.3521 37.9397Z" fill="black"/>
<path opacity="0.25" d="M53.8354 42.972C55.1618 42.7533 58.6097 39.7183 58.6097 39.7183C58.6097 39.7183 54.3708 37.9524 53.0444 38.1711C52.4078 38.276 51.8389 38.6295 51.4629 39.1538C51.0869 39.6782 50.9346 40.3304 51.0394 40.967C51.1443 41.6037 51.4978 42.1726 52.0222 42.5486C52.5465 42.9246 53.1987 43.0769 53.8354 42.972Z" fill="black"/>
<path opacity="0.25" d="M45.4603 24.3588C45.4603 25.7036 43.0302 29.5991 43.0302 29.5991C43.0302 29.5991 40.5961 25.7159 40.5961 24.3608C40.5961 23.7158 40.8523 23.0972 41.3084 22.6411C41.7645 22.185 42.3832 21.9287 43.0282 21.9287C43.6732 21.9287 44.2919 22.185 44.748 22.6411C45.2041 23.0972 45.4603 23.7158 45.4603 24.3608V24.3588Z" fill="black"/>
<path opacity="0.25" d="M55.3096 30.3672C54.9008 31.6507 51.4263 34.6408 51.4263 34.6408C51.4263 34.6408 50.2696 30.1955 50.6701 28.9181C50.7656 28.6132 50.9201 28.3301 51.1249 28.0849C51.3297 27.8398 51.5809 27.6373 51.8639 27.4892C52.147 27.3411 52.4565 27.2502 52.7747 27.2216C53.0929 27.1931 53.4136 27.2275 53.7185 27.3229C54.0234 27.4184 54.3065 27.5729 54.5517 27.7777C54.7968 27.9826 54.9993 28.2337 55.1474 28.5167C55.2955 28.7998 55.3864 29.1093 55.415 29.4275C55.4435 29.7457 55.4091 30.0664 55.3137 30.3713L55.3096 30.3672Z" fill="black"/>
<path opacity="0.25" d="M64.079 37.52C63.9012 38.8525 60.9704 42.3903 60.9704 42.3903C60.9704 42.3903 59.0778 38.2046 59.2577 36.8721C59.3436 36.2327 59.6799 35.6537 60.1928 35.2624C60.7056 34.871 61.3529 34.6994 61.9923 34.7853C62.6316 34.8713 63.2106 35.2076 63.602 35.7205C63.9933 36.2333 64.1649 36.8806 64.079 37.52Z" fill="black"/>
<path opacity="0.6" d="M63.9972 46.8189C63.9972 46.8189 62.8935 35.4431 56.3206 29.3934C53.5486 26.8731 51.6683 23.522 50.9618 19.8427C50.6377 18.0934 50.4749 16.3181 50.4753 14.5391" stroke="#535461" stroke-width="2" stroke-miterlimit="10"/>
<path opacity="0.6" d="M46.3638 10.6997C46.8666 11.9464 50.5781 14.6504 50.5781 14.6504C50.5781 14.6504 51.3793 10.1274 50.8765 8.88069C50.7571 8.58438 50.5804 8.3145 50.3567 8.08645C50.133 7.8584 49.8665 7.67666 49.5725 7.55159C49.2785 7.42652 48.9628 7.36058 48.6434 7.35753C48.3239 7.35448 48.007 7.41439 47.7106 7.53382C47.4143 7.65326 47.1445 7.82989 46.9164 8.05363C46.6884 8.27737 46.5066 8.54383 46.3815 8.83781C46.2565 9.13178 46.1905 9.44751 46.1875 9.76697C46.1844 10.0864 46.2443 10.4034 46.3638 10.6997Z" fill="#83DB35"/>
<path opacity="0.6" d="M45.4169 19.1056C46.5145 19.8781 51.1008 20.1275 51.1008 20.1275C51.1008 20.1275 49.3145 15.8968 48.2149 15.1242C47.9536 14.9405 47.6587 14.8101 47.347 14.7403C47.0353 14.6706 46.7129 14.6629 46.3983 14.7178C46.0836 14.7726 45.7828 14.8889 45.5131 15.06C45.2434 15.2311 45.01 15.4536 44.8263 15.7149C44.6426 15.9762 44.5121 16.2711 44.4424 16.5828C44.3726 16.8945 44.3649 17.2169 44.4198 17.5315C44.4746 17.8462 44.5909 18.147 44.762 18.4167C44.9331 18.6864 45.1556 18.9198 45.4169 19.1035V19.1056Z" fill="#83DB35"/>
<path opacity="0.6" d="M50.3324 30.835C51.6711 30.9474 55.7587 28.8484 55.7587 28.8484C55.7587 28.8484 52.0799 26.0995 50.7412 25.9871C50.0983 25.9329 49.4602 26.1363 48.9673 26.5526C48.4744 26.9688 48.1671 27.5638 48.1129 28.2067C48.0587 28.8496 48.262 29.4876 48.6783 29.9805C49.0945 30.4735 49.6896 30.7808 50.3324 30.835Z" fill="#83DB35"/>
<path opacity="0.6" d="M56.0512 38.8709C57.3531 39.2081 61.735 37.8306 61.735 37.8306C61.735 37.8306 58.5733 34.4992 57.2734 34.1518C56.959 34.0526 56.6277 34.0183 56.2996 34.0511C55.9715 34.084 55.6535 34.1831 55.365 34.3426C55.0764 34.5022 54.8233 34.7187 54.621 34.9791C54.4187 35.2394 54.2715 35.5382 54.1883 35.8573C54.105 36.1763 54.0875 36.5089 54.1369 36.8349C54.1862 37.161 54.3013 37.4735 54.4751 37.7537C54.649 38.0338 54.878 38.2757 55.1482 38.4646C55.4185 38.6535 55.7243 38.7855 56.0471 38.8525L56.0512 38.8709Z" fill="#83DB35"/>
<path opacity="0.6" d="M55.9368 18.4626C55.3931 19.6889 51.5916 22.2682 51.5916 22.2682C51.5916 22.2682 50.9438 17.7228 51.4874 16.4944C51.7484 15.9044 52.2331 15.4422 52.8349 15.2096C53.4366 14.9769 54.1062 14.9928 54.6962 15.2538C55.2862 15.5148 55.7484 15.9995 55.981 16.6013C56.2137 17.2031 56.1978 17.8726 55.9368 18.4626Z" fill="#83DB35"/>
<path opacity="0.6" d="M62.5055 27.9466C61.6185 28.9542 57.2202 30.2766 57.2202 30.2766C57.2202 30.2766 57.9621 25.7455 58.8553 24.7358C59.281 24.251 59.882 23.9551 60.5259 23.9133C61.1698 23.8715 61.804 24.0873 62.2888 24.513C62.7737 24.9388 63.0696 25.5398 63.1114 26.1837C63.1531 26.8276 62.9374 27.4618 62.5116 27.9466H62.5055Z" fill="#83DB35"/>
<path opacity="0.6" d="M67.6231 38.0396C66.9201 39.1841 62.81 41.232 62.81 41.232C62.81 41.232 62.7752 36.6396 63.4783 35.493C63.816 34.9434 64.3582 34.5504 64.9856 34.4005C65.6131 34.2507 66.2744 34.3562 66.824 34.6939C67.3736 35.0316 67.7666 35.5738 67.9165 36.2012C68.0663 36.8287 67.9608 37.49 67.6231 38.0396Z" fill="#83DB35"/>
</g>
<path d="M41.6383 30.6953C41.6383 30.6953 71.6822 31.9216 75.7698 30.6953C75.7698 30.6953 73.5216 80.9729 74.3391 82.6079C74.3391 82.6079 41.0251 84.4474 38.5726 82.6079C36.12 80.7685 41.6383 30.6953 41.6383 30.6953Z" fill="white" stroke="#33313F" stroke-width="2" stroke-miterlimit="10"/>
<path d="M46.1349 40.0967C46.1349 40.0967 60.0328 62.1698 64.7335 64.2136L46.1349 40.0967Z" fill="white"/>
<path d="M46.1349 40.0967C46.1349 40.0967 60.0328 62.1698 64.7335 64.2136" stroke="#33313F" stroke-width="2" stroke-miterlimit="10"/>
<path d="M64.7333 40.0967C64.7333 40.0967 51.4486 57.469 49.4048 63.396L64.7333 40.0967Z" fill="white"/>
<path d="M64.7333 40.0967C64.7333 40.0967 51.4486 57.469 49.4048 63.396" stroke="#33313F" stroke-width="2" stroke-miterlimit="10"/>
<path d="M63.5072 72.5928H47.3612C46.1349 72.5928 46.1349 78.3154 46.1349 78.3154H63.5072V72.5928Z" fill="white" stroke="#33313F" stroke-miterlimit="10"/>
<path d="M98.0469 30.6954C98.0469 30.6954 126.865 29.2648 132.178 30.6954C132.178 30.6954 129.93 80.973 130.748 82.608C130.748 82.608 93.9266 85.4878 94.9812 82.608C97.2294 76.4766 98.0469 30.6954 98.0469 30.6954Z" fill="white" stroke="#33313F" stroke-width="2" stroke-miterlimit="10"/>
<path d="M109.278 34.5283C109.278 34.5283 115.692 44.7167 117.862 45.6589L109.278 34.5283Z" fill="white"/>
<path d="M109.278 34.5283C109.278 34.5283 115.692 44.7167 117.862 45.6589" stroke="#33313F" stroke-width="2" stroke-miterlimit="10"/>
<path d="M117.862 34.5283C117.862 34.5283 111.731 42.5462 110.786 45.2828L117.862 34.5283Z" fill="white"/>
<path d="M117.862 34.5283C117.862 34.5283 111.731 42.5462 110.786 45.2828" stroke="#33313F" stroke-width="2" stroke-miterlimit="10"/>
<path d="M125.18 52.1553H103.516C101.881 52.1553 101.881 57.8779 101.881 57.8779H125.18V52.1553Z" fill="white" stroke="#33313F" stroke-miterlimit="10"/>
<path d="M122.223 70.3447H106.077C104.851 70.3447 104.851 76.0674 104.851 76.0674H122.223V70.3447Z" fill="white" stroke="#33313F" stroke-miterlimit="10"/>
<path d="M125.18 60.535C126.826 60.535 105.433 62.3744 103.516 60.535C102.507 59.5683 101.881 66.2576 101.881 66.2576H125.18V60.535Z" fill="white" stroke="#33313F" stroke-miterlimit="10"/>
<path d="M111.436 73.1041L112.662 74.3304L114.91 71.2646" fill="white"/>
<path d="M111.436 73.1041L112.662 74.3304L114.91 71.2646" stroke="#33313F" stroke-miterlimit="10"/>
<path d="M153.026 31.1035C153.026 31.1035 181.639 34.578 187.157 31.1035C187.157 31.1035 184.909 81.3811 185.726 83.0161C185.726 83.0161 147.753 85.1437 149.96 83.0161C155.478 77.7022 153.026 31.1035 153.026 31.1035Z" fill="white" stroke="#33313F" stroke-width="2" stroke-miterlimit="10"/>
<path d="M157 39.9941C157 39.9941 161.122 46.5343 162.518 47.1475L157 39.9941Z" fill="white"/>
<path d="M157 39.9941C157 39.9941 161.122 46.5343 162.518 47.1475" stroke="#33313F" stroke-width="3" stroke-miterlimit="10"/>
<path d="M162.519 39.9941C162.519 39.9941 158.579 45.1568 157.98 46.9063L162.519 39.9941Z" fill="white"/>
<path d="M162.519 39.9941C162.519 39.9941 158.579 45.1568 157.98 46.9063" stroke="#33313F" stroke-width="3" stroke-miterlimit="10"/>
<path d="M180.568 53.4824H158.904C157.269 53.4824 157.269 56.5113 157.269 56.5113H180.568V53.4824Z" fill="white" stroke="#33313F" stroke-miterlimit="10"/>
<path d="M168.757 62.4766H180.041C181.676 62.4766 181.676 65.5055 181.676 65.5055H181.725" fill="white"/>
<path d="M168.757 62.4766H180.041C181.676 62.4766 181.676 65.5055 181.676 65.5055H181.725" stroke="#33313F" stroke-miterlimit="10"/>
<path d="M180.568 57.9157C182.213 57.9157 160.821 58.8885 158.904 57.9157C157.894 57.4047 157.269 60.9426 157.269 60.9426H180.568V57.9157Z" fill="white" stroke="#33313F" stroke-miterlimit="10"/>
<path d="M153.197 34.9375C153.197 34.9375 184.917 37.2817 186.956 35.7244L153.197 34.9375Z" fill="white"/>
<path d="M153.197 34.9375C153.197 34.9375 184.917 37.2817 186.956 35.7244" stroke="#33313F" stroke-miterlimit="10"/>
<path d="M182.965 33.4887C183.398 33.3967 183.844 33.5275 184.283 33.595C184.722 33.6624 185.221 33.6542 185.54 33.3477" fill="white"/>
<path d="M182.965 33.4887C183.398 33.3967 183.844 33.5275 184.283 33.595C184.722 33.6624 185.221 33.6542 185.54 33.3477" stroke="#33313F" stroke-miterlimit="10"/>
<path d="M182.747 34.293C183.663 34.4542 184.594 34.5056 185.522 34.4463L182.747 34.293Z" fill="white"/>
<path d="M182.747 34.293C183.663 34.4542 184.594 34.5056 185.522 34.4463" stroke="#33313F" stroke-miterlimit="10"/>
<path d="M182.742 35.4366C183.527 35.3032 184.32 35.2145 185.115 35.1709L182.742 35.4366Z" fill="white"/>
<path d="M182.742 35.4366C183.527 35.3032 184.32 35.2145 185.115 35.1709" stroke="#33313F" stroke-miterlimit="10"/>
<path d="M154.981 33.9159C155.365 34.0934 155.785 34.1781 156.207 34.1632C156.474 34.1997 156.744 34.1411 156.972 33.9977C157.239 33.781 157.262 33.3845 157.262 33.0391C157.27 32.9342 157.254 32.8289 157.217 32.7305C157.165 32.6364 157.09 32.5574 156.998 32.5016C156.493 32.1501 155.555 32.007 154.965 32.2461C154.155 32.5731 154.286 33.5378 154.981 33.9159Z" fill="white" stroke="#33313F" stroke-miterlimit="10"/>
<path d="M164.026 38.7148C163.907 40.2273 164.269 41.7295 164.512 43.2276C164.819 45.1188 164.941 47.0354 164.876 48.9502C161.651 49.1464 158.421 49.1934 155.188 49.0912C155.489 49.1015 155.413 42.2568 155.442 41.6273C155.478 40.822 155.307 39.4363 156.241 39.1338C157.222 38.8129 158.603 39.0112 159.633 38.9621C161.097 38.894 162.561 38.8116 164.026 38.7148Z" fill="white" stroke="#33313F" stroke-miterlimit="10"/>
<path d="M80.4705 54.1992C80.4705 54.1992 88.4413 53.7905 89.872 54.1992" stroke="#33313F" stroke-width="2" stroke-miterlimit="10"/>
<path d="M89.8716 49.9062C89.8716 49.9062 93.3461 53.3807 93.3461 54.1982C93.3461 55.0158 88.8497 57.8771 88.8497 57.8771" stroke="#33313F" stroke-width="2" stroke-miterlimit="10"/>
<path d="M135.653 54.1992C135.653 54.1992 143.624 53.7905 145.054 54.1992" stroke="#33313F" stroke-width="2" stroke-miterlimit="10"/>
<path d="M145.055 49.9062C145.055 49.9062 148.529 53.3807 148.529 54.1982C148.529 55.0158 144.033 57.8771 144.033 57.8771" stroke="#33313F" stroke-width="2" stroke-miterlimit="10"/>
<path opacity="0.1" d="M155.901 11.7399C158.343 11.7399 160.322 9.7607 160.322 7.31919C160.322 4.87767 158.343 2.89844 155.901 2.89844C153.46 2.89844 151.48 4.87767 151.48 7.31919C151.48 9.7607 153.46 11.7399 155.901 11.7399Z" fill="#83DB35"/>
<path opacity="0.4" d="M203.143 77.2331C205.585 77.2331 207.564 75.2539 207.564 72.8124C207.564 70.3708 205.585 68.3916 203.143 68.3916C200.702 68.3916 198.723 70.3708 198.723 72.8124C198.723 75.2539 200.702 77.2331 203.143 77.2331Z" fill="#83DB35"/>
<path opacity="0.4" d="M218.957 60.5119C223.049 60.5119 226.366 57.1949 226.366 53.1031C226.366 49.0114 223.049 45.6943 218.957 45.6943C214.865 45.6943 211.548 49.0114 211.548 53.1031C211.548 57.1949 214.865 60.5119 218.957 60.5119Z" fill="#83DB35"/>
<path opacity="0.4" d="M209.148 96.467C213.24 96.467 216.557 93.15 216.557 89.0582C216.557 84.9664 213.24 81.6494 209.148 81.6494C205.056 81.6494 201.739 84.9664 201.739 89.0582C201.739 93.15 205.056 96.467 209.148 96.467Z" fill="#83DB35"/>
<path opacity="0.1" d="M18.9294 73.3C23.0212 73.3 26.3382 69.983 26.3382 65.8912C26.3382 61.7995 23.0212 58.4824 18.9294 58.4824C14.8377 58.4824 11.5206 61.7995 11.5206 65.8912C11.5206 69.983 14.8377 73.3 18.9294 73.3Z" fill="#83DB35"/>
<path d="M188.941 75.8422C188.935 75.5951 188.904 75.3493 188.849 75.1084C188.663 74.4197 188.251 73.5838 187.566 73.3753C186.862 73.1591 186.182 72.8715 185.536 72.5169C185.412 70.3259 185.917 68.0839 185.367 65.9604C185.162 65.1837 184.827 64.4398 184.735 63.6427C184.623 62.6556 184.895 61.5989 184.5 60.6874C184.19 59.97 183.507 59.4611 182.771 59.1954C182.035 58.9297 181.246 58.8602 180.468 58.7866C179.487 58.7049 176.311 58.3288 175.205 59.2077C175.128 59.2664 175.059 59.3352 175.001 59.412C174.975 59.4454 174.952 59.481 174.933 59.5183C174.934 59.5237 174.934 59.5292 174.933 59.5347C174.912 59.5779 174.894 59.6222 174.878 59.6675C174.862 59.7167 174.851 59.7674 174.845 59.8187C174.844 59.8358 174.844 59.8528 174.845 59.8698C174.843 59.9059 174.843 59.9421 174.845 59.9782V60.0313C174.845 60.0701 174.845 60.1069 174.845 60.1437C174.845 60.1805 174.845 60.1744 174.845 60.1887C174.86 60.3706 174.888 60.5566 174.888 60.7385C174.89 60.829 174.882 60.9195 174.864 61.0082C174.795 61.2485 174.68 61.4728 174.524 61.6684L174.488 61.7215L174.42 61.8196L174.367 61.9034L174.322 61.977C174.302 62.0117 174.285 62.0465 174.267 62.0833L174.236 62.1405C174.212 62.1968 174.191 62.2549 174.175 62.3142C174.131 62.4921 174.131 62.678 174.175 62.8558C174.23 63.0854 174.324 63.3038 174.453 63.5017C174.504 63.5855 174.561 63.6672 174.618 63.749C174.676 63.8307 174.712 63.8777 174.761 63.9411C174.733 64.1312 174.718 64.3232 174.716 64.5154C174.717 65.1553 174.862 65.7869 175.142 66.3622C175.422 66.9376 175.83 67.4418 176.333 67.8366C176.413 68.6998 176.404 69.5688 176.307 70.4302C176.286 70.6121 176.266 70.7919 176.241 70.9718C176.217 71.1516 176.196 71.2722 176.174 71.4214C175.874 71.4636 175.568 71.4398 175.279 71.3519C175.145 71.2924 175.009 71.2398 174.87 71.1946C174.273 71.0474 173.666 71.6401 173.079 71.4603C173.079 71.4868 173.061 71.5134 173.053 71.542C172.93 71.4664 172.789 71.4248 172.644 71.4214C172.297 71.4051 172.01 71.1516 171.757 70.9125L170.98 70.1788C170.929 70.1344 170.884 70.0836 170.846 70.0275C170.803 69.9483 170.771 69.8638 170.752 69.7762C170.586 69.3627 170.328 68.9928 169.997 68.695C169.939 68.6215 169.861 68.5656 169.773 68.5335C169.739 68.5274 169.705 68.5274 169.672 68.5335C169.65 68.5049 169.629 68.4763 169.605 68.4497C169.55 68.3905 169.493 68.3332 169.433 68.2801C169.063 67.9367 169.025 67.6424 168.702 67.2582C168.42 66.892 168.165 66.5061 167.939 66.1034C167.911 65.8991 167.874 65.6702 167.829 65.4453C167.727 64.936 167.578 64.4372 167.383 63.9554L167.663 63.6488V63.3443L168.162 62.7618L168.127 62.7312L168.74 62.1548L168.127 62.1323L167.841 62.5288L167.819 62.5084L167.308 63.0193L166.95 63.0602L166.903 63.1093C166.607 62.6678 166.29 62.4266 166.008 62.4839C165.532 62.582 165.295 63.5058 165.37 64.7137L163.954 66.1954L163.794 66.363L163.063 67.3011L163.637 67.8529L164.518 67.0354L164.659 66.8821L165.536 65.9318C165.536 65.9624 165.55 65.9931 165.556 66.0237C165.528 66.1692 165.513 66.317 165.511 66.4652C165.511 66.6389 165.673 66.7636 165.754 66.9189C165.89 67.1257 165.962 67.3684 165.959 67.6159C165.959 67.7017 165.922 67.7855 165.92 67.8734C165.93 68.0647 165.996 68.2488 166.11 68.4027C166.452 68.975 166.793 69.5473 167.132 70.1195C167.201 70.2401 167.275 70.3607 167.336 70.4792C167.337 70.4853 167.337 70.4915 167.336 70.4976C167.401 70.6225 167.495 70.7298 167.61 70.8103C167.65 71.2409 167.764 71.6612 167.947 72.053C167.984 72.1286 168.023 72.2042 168.064 72.2778C168.338 72.7287 168.661 73.1482 169.027 73.5286L169.515 74.0743C169.993 74.6118 170.474 75.1473 170.995 75.6439C171.182 75.8421 171.408 75.9993 171.659 76.1058C171.781 76.1556 171.914 76.1719 172.044 76.1533C172.175 76.1346 172.298 76.0815 172.401 75.9995C172.401 76.253 172.401 76.5064 172.401 76.7578C172.473 76.7704 172.542 76.7975 172.604 76.8376C172.665 76.8776 172.718 76.9298 172.759 76.9908C172.786 77.0624 172.796 77.1391 172.79 77.2154C172.784 77.2917 172.762 77.3657 172.724 77.4323C172.297 78.5339 171.863 79.6436 171.211 80.6328C171.67 80.9032 172.096 81.227 172.479 81.5975C172.728 81.8732 172.95 82.1731 173.141 82.4927C173.157 82.6419 173.171 82.7932 173.182 82.9423C173.333 85.3786 172.391 87.7964 171.547 90.1181C171.305 90.7742 171.038 91.465 171.06 92.1476C170.9 92.2476 170.746 92.3582 170.6 92.4787C170.768 92.9141 170.702 93.2963 170.686 93.7725C170.679 94.0532 170.621 94.3302 170.514 94.59C170.435 94.7719 170.31 94.9415 170.222 95.1152C169.693 96.0493 169.574 97.1591 169.468 98.2239C169.405 98.8697 169.656 99.6545 169.362 100.231C168.859 101.222 168.411 102.275 168.33 103.374C168.327 103.622 168.296 103.869 168.238 104.11C168.174 104.314 168.06 104.488 168.003 104.688C167.944 104.957 167.931 105.233 167.964 105.506C168.002 106.486 167.856 107.464 167.533 108.39C167.277 109.121 166.997 109.902 167.197 110.652C166.704 111.169 166.399 111.837 166.333 112.549C166.327 112.731 166.304 112.912 166.265 113.091C166.203 113.273 166.122 113.449 166.022 113.614C165.611 114.363 165.418 115.213 165.464 116.066C164.851 116.896 164.547 117.924 164.365 118.944C164.183 119.964 164.101 121.002 163.868 122.01C163.559 123.344 162.997 124.691 162.885 126.054C162.223 126.479 161.939 127.299 161.81 128.074C161.681 128.848 161.663 129.66 161.34 130.377C161.172 130.749 160.931 131.082 160.772 131.46C160.658 131.763 160.576 132.075 160.524 132.394C160.426 132.895 160.34 133.449 160.463 133.927C160.29 134.111 160.088 134.266 159.864 134.385C159.895 134.258 159.923 134.129 159.944 134.001C159.417 134.481 158.462 134.313 158.039 134.888C157.914 135.073 157.865 135.3 157.903 135.52C157.941 135.741 158.063 135.938 158.243 136.071C158.376 136.151 158.519 136.212 158.669 136.253C159.68 136.578 160.741 136.909 161.789 136.735C161.914 136.721 162.034 136.682 162.143 136.621C162.281 136.521 162.393 136.391 162.472 136.241L162.944 135.493C163.321 135.606 163.703 135.696 164.091 135.762C164.129 136.088 164.155 136.415 164.17 136.743C164.375 136.784 164.649 136.795 164.745 136.607C164.774 136.535 164.787 136.457 164.782 136.38C164.782 136.233 164.8 136.04 164.814 135.844H164.855C165.479 135.869 166.099 135.743 166.664 135.476C166.443 133.668 167.165 131.898 167.792 130.185C168.452 128.382 169.018 126.545 169.587 124.71C169.995 123.42 170.449 122.167 170.848 120.875C171.354 119.24 171.861 117.605 172.366 115.97C172.589 115.251 172.81 114.54 173.065 113.824C173.598 112.376 174.231 110.967 174.958 109.606C175.162 109.222 175.366 108.839 175.536 108.437C175.74 107.948 175.886 107.437 176.047 106.935C176.405 105.898 176.834 104.888 177.333 103.912L177.369 103.836C177.535 104.513 177.702 105.201 177.811 105.88C177.961 106.714 177.973 107.568 177.846 108.406C177.747 108.976 177.561 109.54 177.586 110.117C177.617 110.918 178.042 111.641 178.252 112.414C178.388 112.991 178.465 113.58 178.483 114.172C178.538 115.089 179.039 116.121 178.688 116.974C177.596 119.674 178.126 122.723 177.5 125.558C177.181 127.013 176.198 128.382 176.274 129.87C176.328 130.926 176.421 131.979 176.552 133.03C176.575 133.351 176.65 133.665 176.775 133.962C176.858 134.12 176.952 134.272 177.055 134.418C176.967 134.454 176.889 134.546 176.826 134.741C176.732 134.996 176.726 135.274 176.808 135.533C176.89 135.792 177.056 136.017 177.279 136.171C177.464 136.27 177.662 136.339 177.868 136.376C178.146 136.453 178.434 136.493 178.722 136.494C178.812 136.49 178.902 136.478 178.99 136.459C179.306 136.593 179.63 136.709 179.959 136.807C179.959 136.891 179.967 136.975 179.983 137.058C179.983 137.102 179.993 137.146 180.012 137.186C180.031 137.226 180.058 137.261 180.092 137.289C180.142 137.315 180.199 137.326 180.255 137.32H181.365C181.365 137.228 181.365 137.134 181.365 137.042C181.492 137.055 181.621 137.042 181.742 137.002C181.864 136.962 181.976 136.897 182.07 136.811C182.17 136.687 182.239 136.543 182.274 136.388C182.577 135.36 182.878 134.334 183.178 133.308C183.316 132.874 183.422 132.431 183.495 131.981C183.623 131.259 183.664 130.523 183.615 129.79C183.223 126.024 184.089 122.245 183.807 118.468C183.637 116.198 183.753 113.916 184.155 111.676C184.247 111.169 184.359 110.654 184.4 110.149C184.488 109.197 184.38 108.234 184.445 107.288C184.47 106.957 184.514 106.628 184.555 106.299C184.848 104.257 185.008 102.198 185.034 100.135C185.029 99.4518 184.988 98.7695 184.909 98.091C185.121 98.0346 185.313 97.9216 185.465 97.764C185.649 97.5249 185.602 97.1938 185.6 96.8913C185.6 96.1678 185.904 95.4831 186.147 94.8005C186.462 93.8627 186.72 92.9073 186.922 91.9392C187.133 91.1555 187.248 90.3491 187.265 89.5377C187.265 89.456 187.265 89.3742 187.253 89.2904C187.33 89.2373 187.394 89.1674 187.439 89.086C187.493 88.9665 187.526 88.8386 187.537 88.7079C187.613 88.1847 187.686 87.6635 187.762 87.1403C187.815 86.7656 187.869 86.3909 187.924 86.0162C188.14 84.5065 188.356 82.9955 188.571 81.4831C188.629 81.0886 188.684 80.6962 188.741 80.3018L188.909 79.1307C188.929 78.9917 188.947 78.8527 188.964 78.7117C189.471 77.9044 188.992 76.7905 188.941 75.8422ZM183.527 92.8221C183.284 92.2519 183.059 91.6653 183.119 91.046H183.098C183.15 90.8558 183.14 90.6538 183.07 90.4697C183.006 90.3184 182.898 90.1917 182.83 90.0446C182.758 89.8618 182.72 89.6669 182.72 89.4703C182.67 88.228 182.767 86.9841 183.01 85.7648C183.037 85.6197 183.065 85.4767 183.094 85.3316C183.179 85.2822 183.256 85.2217 183.325 85.1517C183.432 85.029 183.521 84.8913 183.589 84.7429C183.819 84.2797 184.031 83.8076 184.226 83.3266C184.29 83.1692 184.382 82.9914 184.539 82.9526C184.506 84.1482 184.629 85.3683 184.13 86.4475C184.037 86.6213 183.969 86.8069 183.926 86.9993C183.881 87.3018 184.008 87.6124 183.963 87.9149C183.94 88.0703 183.873 88.2174 183.844 88.3707C183.824 88.4471 183.825 88.5274 183.846 88.6035C183.868 88.6795 183.908 88.7487 183.965 88.804C183.991 88.824 184.02 88.8399 184.051 88.851C184.038 88.9327 184.028 89.0165 184.022 89.0962C184.004 89.2638 183.997 89.4212 183.987 89.5193C183.94 90.0185 183.92 90.5201 183.93 91.0215C183.93 91.5631 183.952 92.1068 183.942 92.6565C183.951 92.815 183.924 92.9734 183.865 93.1205C183.824 93.1966 183.772 93.2656 183.709 93.3249C183.652 93.143 183.587 92.9815 183.527 92.8221Z" fill="url(#paint0_linear)"/>
<path d="M168.078 63.044L168.765 62.4043L168.151 62.3818L167.831 62.8723L168.078 63.044Z" fill="#33313F"/>
<path d="M163.138 67.5235L163.866 66.5895L164.027 66.4219L166.255 64.0899L167.013 63.2949L167.369 63.254L167.88 62.7451L168.18 63.0088L167.683 63.5892L167.694 63.8937L166.917 64.7358L164.73 67.1086L164.589 67.2599L163.71 68.0733L163.138 67.5235Z" fill="#65617D"/>
<path d="M164.027 66.4218L166.255 64.0898L166.917 64.7357L164.73 67.1085L164.027 66.4218Z" fill="#33313F"/>
<path d="M167.386 69.108C168.009 68.9802 168.222 67.445 167.86 65.6791C167.498 63.9131 166.699 62.5852 166.075 62.7129C165.452 62.8407 165.24 64.3759 165.601 66.1419C165.963 67.9078 166.762 69.2358 167.386 69.108Z" fill="#FBBEBE"/>
<path d="M176.909 134.802C176.818 135.055 176.813 135.331 176.895 135.587C176.977 135.843 177.14 136.066 177.361 136.22C177.545 136.318 177.744 136.387 177.949 136.424C178.226 136.502 178.512 136.542 178.799 136.543C179.155 136.525 179.494 136.388 179.846 136.339C179.887 136.33 179.93 136.336 179.967 136.357C179.984 136.376 179.997 136.398 180.005 136.422C180.014 136.447 180.016 136.472 180.014 136.498C180.017 136.7 180.032 136.901 180.058 137.101C180.053 137.137 180.057 137.174 180.069 137.208C180.081 137.243 180.101 137.274 180.127 137.3C180.153 137.325 180.185 137.344 180.22 137.354C180.255 137.365 180.292 137.367 180.328 137.36H181.434C181.46 136.387 181.352 135.415 181.113 134.47C181.098 134.398 181.07 134.329 181.031 134.266C180.939 134.162 180.816 134.091 180.68 134.062C180.408 133.949 180.115 133.898 179.821 133.913C179.466 133.958 179.165 134.19 178.861 134.383C178.556 134.575 178.141 134.744 177.771 134.644C177.402 134.544 177.097 134.233 176.909 134.802Z" fill="#3F3D56"/>
<path d="M160.637 133.905C160.326 134.238 159.945 134.497 159.521 134.663L159.331 134.755C159.318 134.759 159.306 134.766 159.295 134.775C159.285 134.783 159.276 134.794 159.27 134.806C159.266 134.822 159.265 134.838 159.269 134.854C159.272 134.87 159.278 134.885 159.288 134.898C159.445 135.14 159.676 135.324 159.947 135.422C160.218 135.52 160.513 135.528 160.788 135.444C160.911 135.414 161.024 135.355 161.119 135.272C161.274 135.086 161.364 134.854 161.373 134.612C161.432 134.363 161.422 134.103 161.342 133.86C161.064 133.218 160.96 133.508 160.637 133.905Z" fill="#FBBEBE"/>
<path d="M164.892 136.422C164.898 136.5 164.885 136.578 164.855 136.649C164.761 136.837 164.491 136.825 164.283 136.786C164.252 136.092 164.168 135.401 164.033 134.72C163.637 134.701 163.349 135.08 163.138 135.415L162.59 136.285C162.511 136.435 162.398 136.564 162.261 136.663C162.153 136.724 162.033 136.763 161.91 136.778C160.863 136.95 159.807 136.621 158.797 136.296C158.648 136.255 158.506 136.195 158.374 136.116C158.193 135.984 158.071 135.787 158.033 135.566C157.995 135.346 158.044 135.119 158.17 134.934C158.591 134.362 159.543 134.526 160.068 134.052C160.014 134.385 159.924 134.712 159.798 135.026C160.506 134.92 160.978 134.274 161.548 133.843C161.69 133.72 161.862 133.637 162.047 133.604C162.184 133.593 162.323 133.608 162.455 133.649C163.111 133.813 163.724 134.115 164.254 134.534C164.469 134.703 164.804 134.943 164.898 135.204C164.998 135.517 164.89 136.089 164.892 136.422Z" fill="#3F3D56"/>
<path d="M178.951 68.988C181.283 68.988 183.173 67.0975 183.173 64.7655C183.173 62.4334 181.283 60.543 178.951 60.543C176.619 60.543 174.728 62.4334 174.728 64.7655C174.728 67.0975 176.619 68.988 178.951 68.988Z" fill="#FBBEBE"/>
<path d="M187.27 89.6977C187.253 90.5064 187.137 91.3101 186.926 92.091C186.727 93.0594 186.47 94.0149 186.156 94.9523C185.913 95.6329 185.606 96.3155 185.608 97.037C185.608 97.3374 185.657 97.6685 185.475 97.9076C185.31 98.0734 185.103 98.1913 184.876 98.249C184.764 98.2789 184.66 98.3348 184.573 98.4121C184.486 98.4895 184.418 98.5862 184.376 98.6945C184.183 98.4088 184.038 98.0932 183.949 97.7605C183.583 96.6378 183.243 95.5089 182.927 94.3739C182.898 94.3087 182.885 94.2375 182.889 94.1662C182.894 94.095 182.916 94.026 182.953 93.9651C183.005 93.9193 183.067 93.8852 183.133 93.865C183.342 93.7787 183.533 93.6547 183.697 93.4992C183.775 93.4312 183.839 93.3494 183.887 93.258C183.947 93.1109 183.973 92.9525 183.965 92.794C183.965 92.2545 183.965 91.7129 183.953 91.1733C183.943 90.6733 183.962 90.1732 184.008 89.6752C184.008 89.575 184.026 89.4197 184.043 89.2521C184.073 88.9292 184.135 88.5593 184.31 88.4346C184.568 88.2588 185.344 88.4939 185.641 88.5327C186.148 88.6042 186.652 88.686 187.155 88.7821C187.227 89.0821 187.266 89.3892 187.27 89.6977Z" fill="#3F3D56"/>
<path d="M170.218 69.4948C170.054 69.8218 169.662 69.9771 169.359 70.1856L168.323 70.8968C168.254 70.9585 168.173 71.0059 168.085 71.0361C167.998 71.0662 167.905 71.0786 167.812 71.0726C167.728 71.0414 167.651 70.9938 167.585 70.9323C167.519 70.8709 167.467 70.797 167.43 70.7149L167.418 70.6965L167.213 70.3388L166.192 68.6261C166.079 68.4717 166.013 68.2879 166.001 68.0968C166.001 68.011 166.032 67.9272 166.042 67.8413C166.043 67.5947 165.972 67.3532 165.838 67.1464C165.756 66.9911 165.591 66.8664 165.597 66.6947C165.588 66.4684 165.627 66.2428 165.711 66.0326C165.818 65.839 165.971 65.6748 166.157 65.5543C166.253 65.4848 166.361 65.4194 166.453 65.3499C166.508 65.3135 166.569 65.2865 166.633 65.2702C166.801 65.2355 166.968 65.3745 167.14 65.3806C167.88 65.8752 168.162 66.8112 168.744 67.4877C169.071 67.8699 169.104 68.1642 169.474 68.5096C169.534 68.5626 169.591 68.6192 169.644 68.6793C169.718 68.7581 169.781 68.8476 169.83 68.945C169.895 69.1187 170.304 69.3272 170.218 69.4948Z" fill="#3F3D56"/>
<path d="M177.466 68.9992C177.77 69.643 178.007 70.3502 177.919 71.0573C177.902 71.2487 177.842 71.4337 177.744 71.5989C177.449 72.0506 176.832 72.1303 176.293 72.1589C176.18 72.1498 176.066 72.1632 175.958 72.1983C175.851 72.2333 175.751 72.2894 175.665 72.3633C175.593 72.4674 175.557 72.5928 175.564 72.7195C175.571 72.8462 175.62 72.9669 175.704 73.0623C175.875 73.2482 176.09 73.3886 176.329 73.4711C177.18 73.8471 178.095 74.1557 179.021 74.0678C179.45 74.027 179.867 73.9043 180.294 73.841C180.757 73.7918 181.223 73.7679 181.688 73.7695C182.244 73.749 182.798 73.6938 183.352 73.6386L184.817 73.4935C184.898 73.4951 184.976 73.4667 185.036 73.4138C185.146 73.2871 185.005 73.1011 184.872 73.0051C184.092 72.4267 183.1 72.0322 182.659 71.1656C182.455 70.7569 182.389 70.2725 182.238 69.829C182.087 69.3855 181.846 68.991 181.754 68.5394C181.703 68.1456 181.681 67.7488 181.686 67.3519C181.693 66.9508 181.547 66.5621 181.277 66.2646C180.987 65.9928 180.564 65.9233 180.166 65.9049C179.189 65.864 178.15 66.097 177.455 66.7858C177.27 66.9718 177.112 67.1843 176.918 67.3621C176.724 67.5399 176.466 67.5788 176.593 67.7995C176.72 68.0202 176.967 68.1551 177.102 68.3513C177.241 68.5571 177.362 68.7737 177.466 68.9992Z" fill="#FBBEBE"/>
<path d="M185.792 74.935C185.536 76.5082 185.119 78.0511 184.55 79.5397C184.26 80.2119 184.014 80.9021 183.814 81.606C183.654 82.2396 183.687 82.9181 183.54 83.5537C183.36 84.3426 183.18 85.1377 183.035 85.9348C182.792 87.1506 182.694 88.3911 182.745 89.6299C182.745 89.8259 182.783 90.0201 182.855 90.2022C182.923 90.3494 183.033 90.4761 183.094 90.6253C183.143 90.7578 183.163 90.8991 183.154 91.0399C183.144 91.1807 183.105 91.318 183.039 91.4428C182.934 91.6773 182.792 91.8933 182.618 92.0825C180.711 92.6507 178.676 92.4627 176.691 92.5832C174.852 92.6957 173.012 93.0717 171.21 92.757C171.005 91.9395 171.345 91.0851 171.639 90.2881C172.485 87.9724 173.425 85.5607 173.274 83.1347C173.257 82.8524 173.225 82.5713 173.176 82.2927C172.881 80.5739 173.202 78.7937 173.719 77.126C174.042 76.0898 174.028 74.982 173.952 73.9008C173.916 73.5504 173.911 73.1975 173.938 72.8462C173.969 72.4872 174.103 72.1446 174.322 71.8591L174.353 71.8162C174.375 71.7814 174.443 71.8019 174.504 71.8162C174.52 71.8229 174.538 71.8264 174.555 71.8264C174.573 71.8264 174.59 71.8229 174.606 71.8162C174.612 71.8093 174.62 71.8044 174.629 71.8019C174.638 71.7964 174.648 71.7936 174.659 71.7936C174.669 71.7936 174.679 71.7964 174.688 71.8019C174.735 71.8325 174.76 71.9286 174.862 71.947C175.013 71.9705 175.165 71.9855 175.318 71.9919C175.501 71.9973 175.684 72.0233 175.861 72.0696H175.886C176.152 72.1135 176.424 72.0904 176.679 72.0021C176.848 71.9597 177.011 71.8966 177.165 71.8141C177.291 71.7636 177.419 71.7206 177.55 71.6854C177.738 71.5709 177.697 71.0436 177.735 70.829C177.756 70.6118 177.807 70.3986 177.887 70.1954C177.98 70.0453 178.108 69.9204 178.26 69.8316C178.413 69.7428 178.585 69.693 178.761 69.6865C179.114 69.6761 179.467 69.7077 179.812 69.7805C180.572 69.8889 181.353 69.8684 182.103 70.0442C182.479 70.1321 182.888 70.267 183.235 70.0953C183.327 70.1157 183.342 70.1995 183.342 70.2997C183.335 70.3951 183.315 70.4892 183.284 70.5797C183.156 71.1437 183.599 71.6608 184.006 72.0716C184.182 72.2646 184.389 72.4269 184.619 72.5519C184.823 72.6459 185.028 72.6848 185.232 72.787C185.399 72.8741 185.539 73.003 185.641 73.161C185.76 73.3404 185.839 73.5432 185.874 73.7557C185.913 74.1506 185.885 74.5493 185.792 74.935Z" fill="#3F3D56"/>
<path opacity="0.1" d="M185.792 74.9349C185.535 76.5081 185.119 78.051 184.549 79.5396C184.26 80.2118 184.014 80.902 183.814 81.6059C183.654 82.2395 183.687 82.918 183.54 83.5536C183.36 84.3425 183.18 85.1376 183.035 85.9347C182.992 85.9592 182.949 85.9796 182.904 86.0001C182.65 86.1219 182.38 86.2091 182.103 86.2596C181.604 86.3189 181.099 86.3023 180.605 86.2106L177.682 85.8284C176.517 85.6731 175.277 85.483 174.412 84.6941C173.934 84.2608 173.617 83.6885 173.274 83.1347C173.257 82.8523 173.224 82.5712 173.176 82.2926C172.881 80.5738 173.202 78.7936 173.719 77.1259C174.042 76.0897 174.028 74.9819 173.952 73.9007C173.916 73.5504 173.911 73.1974 173.938 72.8461C173.969 72.4871 174.102 72.1445 174.322 71.859C174.382 71.841 174.443 71.8267 174.504 71.8161C174.545 71.8083 174.587 71.8035 174.629 71.8018H174.688C174.757 71.802 174.825 71.8102 174.892 71.8263C175.029 71.861 175.156 71.9346 175.291 71.9837H175.315C175.491 72.0402 175.675 72.0665 175.859 72.0613C176.129 72.0613 176.407 72.0164 176.677 72C177.01 71.947 177.351 72.0075 177.645 72.1717C177.836 72.3246 178.016 72.4898 178.185 72.6663C178.391 72.8254 178.622 72.9504 178.868 73.0362C180.626 73.7081 182.578 73.6663 184.306 72.9197C184.473 72.827 184.661 72.7798 184.852 72.7828C184.993 72.8103 185.128 72.8666 185.246 72.9483C185.367 73.0199 185.489 73.0894 185.612 73.1527C185.731 73.3322 185.811 73.5349 185.845 73.7475C185.894 74.1434 185.876 74.5449 185.792 74.9349Z" fill="black"/>
<path d="M187.57 73.5816C186.756 73.3344 185.975 72.9913 185.242 72.5597C185.124 72.4769 184.99 72.4199 184.848 72.3922C184.657 72.3889 184.468 72.4369 184.302 72.5311C182.573 73.2759 180.622 73.317 178.864 72.6456C178.617 72.5605 178.387 72.4355 178.181 72.2757C178.012 72.0997 177.833 71.9345 177.643 71.7811C176.971 71.3457 176.041 71.8587 175.287 71.5767C175.157 71.5174 175.024 71.4648 174.888 71.4193C174.294 71.2721 173.689 71.8628 173.102 71.685C172.884 72.2757 172.724 72.8863 172.624 73.5081C172.541 74.2218 172.496 74.9396 172.491 75.6582C172.479 76.0873 172.468 76.5186 172.491 76.9498C172.563 76.9624 172.632 76.9896 172.694 77.0296C172.755 77.0697 172.808 77.1218 172.849 77.1828C172.875 77.2539 172.886 77.3298 172.88 77.4054C172.874 77.4809 172.851 77.5543 172.814 77.6202C172.387 78.7198 171.955 79.8275 171.306 80.8126C171.763 81.083 172.187 81.4068 172.569 81.7773C173.286 82.5335 173.635 83.5922 174.408 84.2912C175.279 85.0801 176.521 85.2702 177.678 85.4275L180.597 85.8281C181.091 85.9199 181.596 85.9364 182.095 85.8772C182.372 85.8267 182.642 85.7394 182.896 85.6176C183.062 85.5483 183.213 85.4485 183.342 85.3233C183.449 85.2005 183.538 85.0629 183.605 84.9145C183.834 84.4526 184.047 83.9805 184.239 83.5023C184.308 83.3326 184.41 83.1323 184.594 83.1201C185.676 82.1431 186.699 81.1417 187.781 80.1647C188.216 79.804 188.606 79.3923 188.944 78.9385C189.483 78.1434 188.993 77.0152 188.944 76.0567C188.939 75.8103 188.909 75.5651 188.854 75.325C188.664 74.624 188.251 73.7901 187.57 73.5816Z" fill="#83DB35"/>
<path opacity="0.1" d="M170.218 69.4941C170.054 69.8211 169.662 69.9765 169.36 70.1849L168.323 70.8962C168.254 70.9579 168.173 71.0052 168.086 71.0354C167.998 71.0656 167.905 71.078 167.812 71.0719C167.728 71.0408 167.651 70.9931 167.585 70.9317C167.52 70.8703 167.467 70.7963 167.43 70.7143C167.43 70.6652 167.43 70.6162 167.43 70.5671C167.422 70.4017 167.444 70.2361 167.496 70.0786C167.598 69.8479 167.755 69.6458 167.953 69.49C168.337 69.1247 168.795 68.846 169.296 68.6725C169.375 68.6413 169.46 68.6328 169.544 68.648C169.575 68.6563 169.604 68.6694 169.631 68.6868C169.706 68.7656 169.769 68.8552 169.817 68.9525C169.895 69.1181 170.304 69.3265 170.218 69.4941Z" fill="black"/>
<path d="M172.658 71.6542C172.311 71.6378 172.026 71.3844 171.775 71.1453L170.998 70.4136C170.947 70.3696 170.901 70.3188 170.864 70.2624C170.823 70.1834 170.792 70.0996 170.772 70.013C170.606 69.601 170.349 69.232 170.019 68.9339C169.96 68.8611 169.883 68.8054 169.795 68.7724C169.711 68.7577 169.626 68.767 169.547 68.799C169.046 68.9724 168.589 69.2512 168.205 69.6165C168.005 69.7714 167.848 69.9737 167.747 70.2051C167.695 70.3626 167.673 70.5282 167.681 70.6936C167.686 71.2365 167.808 71.7721 168.039 72.2632C168.076 72.3389 168.113 72.4145 168.153 72.4881C168.428 72.9369 168.75 73.3548 169.114 73.7348L169.6 74.2805C170.079 74.8139 170.557 75.3494 171.078 75.844C171.263 76.0424 171.488 76.1998 171.738 76.3059C171.864 76.3572 172.002 76.3727 172.136 76.3507C172.27 76.3287 172.396 76.27 172.499 76.1812C172.597 76.0684 172.671 75.9361 172.715 75.7929C173.032 74.9754 173.328 74.1272 173.347 73.2463C173.353 72.8936 173.339 72.5408 173.304 72.1897C173.269 71.8156 173.007 71.6705 172.658 71.6542Z" fill="#83DB35"/>
<path d="M185.043 100.268C185.032 102.324 184.887 104.377 184.608 106.414C184.567 106.741 184.522 107.07 184.5 107.401C184.432 108.354 184.541 109.314 184.453 110.263C184.404 110.774 184.3 111.285 184.208 111.785C183.808 114.019 183.692 116.295 183.862 118.558C184.142 122.325 183.28 126.094 183.67 129.85C183.718 130.581 183.679 131.314 183.551 132.035C183.478 132.483 183.372 132.925 183.235 133.358C182.934 134.382 182.634 135.404 182.335 136.423C182.299 136.578 182.23 136.722 182.131 136.846C182.027 136.937 181.905 137.005 181.773 137.044C181.64 137.084 181.501 137.094 181.365 137.075C180.185 137.036 179.078 136.53 178.007 136.031C177.883 135.984 177.769 135.914 177.669 135.827C177.447 135.596 177.465 135.23 177.367 134.927C177.269 134.625 177.001 134.337 176.85 134.022C176.727 133.726 176.652 133.413 176.627 133.094C176.491 132.046 176.398 130.996 176.349 129.942C176.274 128.459 177.252 127.093 177.575 125.65C178.199 122.814 177.671 119.772 178.761 117.079C179.102 116.231 178.605 115.2 178.556 114.285C178.54 113.694 178.463 113.106 178.328 112.531C178.123 111.761 177.694 111.039 177.663 110.242C177.639 109.666 177.825 109.104 177.923 108.534C178.048 107.698 178.037 106.847 177.888 106.016C177.78 105.329 177.612 104.642 177.447 103.972L177.41 104.047C176.912 105.021 176.484 106.028 176.128 107.062C175.967 107.563 175.822 108.072 175.617 108.56C175.45 108.969 175.245 109.341 175.043 109.725C174.317 111.082 173.686 112.487 173.155 113.931C172.901 114.638 172.681 115.362 172.458 116.071C171.955 117.706 171.451 119.341 170.945 120.976C170.547 122.266 170.087 123.513 169.688 124.8C169.122 126.64 168.556 128.463 167.898 130.259C167.273 131.968 166.553 133.734 166.772 135.538C166.209 135.803 165.591 135.928 164.969 135.904C163.916 135.81 162.882 135.559 161.904 135.158C161.502 135.046 161.137 134.829 160.847 134.529C160.391 133.975 160.506 133.163 160.643 132.46C160.694 132.142 160.776 131.83 160.89 131.528C161.043 131.15 161.288 130.817 161.456 130.447C161.779 129.732 161.799 128.925 161.926 128.15C162.053 127.375 162.335 126.56 162.997 126.137C163.107 124.778 163.669 123.433 163.978 122.104C164.211 121.097 164.289 120.061 164.471 119.039C164.652 118.017 164.953 116.995 165.57 116.177C165.521 115.324 165.713 114.474 166.124 113.725C166.224 113.561 166.305 113.386 166.367 113.204C166.406 113.026 166.429 112.846 166.435 112.664C166.501 111.955 166.804 111.288 167.295 110.772C167.091 110.023 167.377 109.247 167.63 108.523C167.954 107.601 168.099 106.625 168.059 105.648C168.028 105.375 168.042 105.099 168.1 104.83C168.158 104.626 168.27 104.452 168.333 104.254C168.394 104.014 168.425 103.768 168.425 103.52C168.507 102.416 168.953 101.374 169.447 100.387C169.739 99.8106 169.49 99.0278 169.553 98.384C169.66 97.3172 169.776 96.2156 170.304 95.2836C170.411 95.1142 170.508 94.9388 170.596 94.7583C170.703 94.4989 170.761 94.2215 170.765 93.9408C170.784 93.4748 170.849 93.0844 170.682 92.6512C171.775 91.7396 173.269 91.4862 174.69 91.4351C176.11 91.384 177.551 91.5025 178.943 91.198C179.351 91.1081 179.76 90.9793 180.191 90.918C181.173 90.775 182.164 90.9998 183.13 91.2205C183.063 91.8336 183.288 92.4222 183.529 92.9925C184.507 95.2946 185.022 97.7671 185.043 100.268Z" fill="#33313F"/>
<path opacity="0.1" d="M180.231 100.729L177.885 106.011C177.776 105.324 177.609 104.637 177.443 103.967L177.406 104.043L177.417 103.932L178.696 101.116L180.231 100.729Z" fill="black"/>
<path opacity="0.1" d="M187.269 89.6979C187.133 89.7973 186.972 89.8574 186.803 89.8717C186.544 89.8799 186.285 89.8446 186.037 89.7674L184.208 89.3035C184.15 89.2909 184.094 89.2717 184.04 89.2463C184.071 88.9233 184.132 88.5534 184.308 88.4287C184.565 88.253 185.342 88.488 185.638 88.5269C186.145 88.5984 186.65 88.6801 187.153 88.7762C187.226 89.0781 187.265 89.3873 187.269 89.6979Z" fill="black"/>
<path d="M188.823 77.5362C188.864 77.7059 188.919 77.8735 188.95 78.0451C189.005 78.4656 188.991 78.8922 188.909 79.3082L188.741 80.4773L188.574 81.6545L187.926 86.1774L187.764 87.2974L187.542 88.861C187.53 88.9908 187.497 89.1179 187.443 89.237C187.376 89.348 187.282 89.4406 187.17 89.5066C187.058 89.5725 186.932 89.6098 186.802 89.6151C186.543 89.6232 186.285 89.5879 186.037 89.5109L184.208 89.049C184.128 89.0343 184.052 89.003 183.985 88.957C183.929 88.9022 183.888 88.8334 183.867 88.7576C183.846 88.6819 183.845 88.6019 183.865 88.5258C183.891 88.3704 183.959 88.2253 183.983 88.07C184.028 87.7675 183.899 87.4569 183.946 87.1564C183.989 86.9639 184.058 86.7782 184.151 86.6046C184.764 85.2496 184.408 83.6697 184.617 82.1982C184.798 81.0411 185.28 79.9521 186.015 79.0405C186.471 78.4663 186.996 77.9508 187.578 77.5056C187.809 77.3278 188.173 76.9599 188.459 76.8924C188.841 76.8148 188.764 77.2787 188.823 77.5362Z" fill="#83DB35"/>
<path d="M174.905 59.9315C174.77 60.3587 174.98 60.8308 174.884 61.2702C174.778 61.7526 174.326 62.0877 174.198 62.5721C173.993 63.3099 174.619 63.9823 175.074 64.5955C176.771 66.8702 176.548 70.0218 175.968 72.8014C175.502 75.03 174.856 77.2172 174.036 79.3415C173.783 79.9996 173.499 80.6721 172.998 81.1667C173.938 80.8969 174.935 80.625 175.88 80.8867C177.073 81.2177 178.103 82.3766 179.311 82.1129C180.041 81.9494 180.55 81.2954 181.206 80.948C182.432 80.2878 183.908 80.7027 185.277 80.9132C185.572 80.9847 185.88 80.9691 186.166 80.8683C186.384 80.7509 186.57 80.5809 186.706 80.3737C187.315 79.5905 187.68 78.6449 187.754 77.6554C187.787 77.1625 187.715 76.6681 187.542 76.2054C187.369 75.7426 187.099 75.3221 186.751 74.9719C186.463 74.698 186.115 74.4773 185.892 74.1544C185.674 73.7778 185.558 73.3509 185.555 72.9158C185.392 70.6676 185.939 68.3745 185.377 66.1999C185.173 65.4253 184.838 64.6834 184.748 63.8883C184.635 62.9032 184.905 61.8445 184.513 60.9412C184.202 60.2258 183.521 59.7149 182.79 59.4553C182.046 59.2157 181.273 59.0781 180.493 59.0466C179.373 58.9485 175.373 58.4702 174.905 59.9315Z" fill="#33313F"/>
<g opacity="0.1">
<path opacity="0.1" d="M175.965 72.7996C175.5 75.0188 174.858 77.197 174.044 79.3132C174.185 79.0332 174.305 78.7389 174.418 78.4466C175.237 76.3223 175.883 74.1351 176.349 71.9065C176.93 69.1289 177.152 65.9794 175.456 63.7006C175.047 63.159 174.522 62.5704 174.543 61.9307C174.391 62.1238 174.273 62.3415 174.195 62.5745C173.991 63.3123 174.616 63.9847 175.072 64.5978C176.77 66.8685 176.547 70.02 175.965 72.7996Z" fill="black"/>
<path opacity="0.1" d="M174.908 61.0603C175.071 60.8558 175.193 60.622 175.268 60.3715C175.299 60.0679 175.291 59.7614 175.243 59.46C175.085 59.5791 174.967 59.7429 174.904 59.93C174.789 60.2918 174.922 60.6883 174.908 61.0603Z" fill="black"/>
<path opacity="0.1" d="M187.089 79.4712C186.953 79.6791 186.766 79.8497 186.548 79.9678C186.262 80.0687 185.954 80.0843 185.66 80.0128C184.291 79.8084 182.799 79.3854 181.589 80.0475C180.933 80.4032 180.422 81.049 179.695 81.2105C178.485 81.4802 177.446 80.3235 176.261 79.9842C175.417 79.7492 174.526 79.9433 173.672 80.1886C173.503 80.5503 173.275 80.8812 172.997 81.1676C173.937 80.8978 174.935 80.6259 175.879 80.8876C177.072 81.2186 178.102 82.3775 179.31 82.1138C180.038 81.9503 180.549 81.2963 181.205 80.9489C182.431 80.2887 183.907 80.7036 185.276 80.9141C185.571 80.9856 185.88 80.97 186.165 80.8692C186.384 80.7518 186.569 80.5818 186.705 80.3746C187.073 79.8848 187.359 79.338 187.551 78.7559C187.414 79.0049 187.26 79.244 187.089 79.4712Z" fill="black"/>
</g>
<path d="M198.915 114.426C198.915 114.426 200.127 116.012 198.357 118.405C196.587 120.798 195.124 122.822 195.715 124.31C195.715 124.31 198.388 119.864 200.562 119.813C202.737 119.762 201.308 117.099 198.915 114.426Z" fill="#83DB35"/>
<path opacity="0.1" d="M198.915 114.426C199.021 114.579 199.104 114.747 199.162 114.924C201.285 117.418 202.416 119.744 200.376 119.803C198.475 119.858 196.196 123.255 195.649 124.113C195.667 124.181 195.689 124.244 195.714 124.318C195.714 124.318 198.387 119.873 200.562 119.821C202.736 119.77 201.308 117.099 198.915 114.426Z" fill="black"/>
<path d="M201.17 116.446C201.17 117.004 201.106 117.456 201.029 117.456C200.951 117.456 200.89 117.004 200.89 116.446C200.89 115.889 200.967 116.15 201.045 116.15C201.123 116.15 201.17 115.889 201.17 116.446Z" fill="#FFD037"/>
<path d="M201.942 117.112C201.452 117.378 201.024 117.54 200.988 117.472C200.951 117.405 201.319 117.133 201.805 116.859C202.292 116.585 202.104 116.787 202.14 116.859C202.177 116.93 202.433 116.845 201.942 117.112Z" fill="#FFD037"/>
<path d="M192.52 114.426C192.52 114.426 191.308 116.012 193.08 118.405C194.852 120.798 196.311 122.818 195.72 124.31C195.72 124.31 193.047 119.864 190.873 119.813C188.698 119.762 190.12 117.099 192.52 114.426Z" fill="#83DB35"/>
<path opacity="0.1" d="M192.52 114.426C192.414 114.579 192.33 114.747 192.273 114.924C190.149 117.418 189.019 119.744 191.059 119.803C192.959 119.858 195.24 123.255 195.786 124.113C195.767 124.181 195.745 124.244 195.72 124.318C195.72 124.318 193.047 119.873 190.873 119.821C188.698 119.77 190.12 117.099 192.52 114.426Z" fill="black"/>
<path d="M190.272 116.446C190.272 117.004 190.333 117.456 190.411 117.456C190.488 117.456 190.55 117.004 190.55 116.446C190.55 115.889 190.472 116.15 190.394 116.15C190.317 116.15 190.272 115.889 190.272 116.446Z" fill="#FFD037"/>
<path d="M189.487 117.112C189.978 117.378 190.405 117.54 190.442 117.472C190.478 117.405 190.111 117.133 189.624 116.859C189.138 116.585 189.328 116.787 189.289 116.859C189.25 116.93 188.999 116.845 189.487 117.112Z" fill="#FFD037"/>
<path d="M202.236 122.174L202.177 122.668L202.091 123.367L202.056 123.657L201.97 124.358L201.934 124.649L201.85 125.348L200.879 133.298C200.793 134.007 199.632 134.561 198.234 134.561H193.194C191.796 134.561 190.637 134.007 190.552 133.298L189.581 125.348L189.495 124.649L189.46 124.358L189.372 123.657L189.338 123.367L189.254 122.668L189.193 122.174C189.143 121.765 189.771 121.432 190.562 121.432H200.867C201.658 121.432 202.287 121.771 202.236 122.174Z" fill="#444053"/>
<path d="M202.177 122.668L202.091 123.365H189.338L189.254 122.668H202.177Z" fill="#9D9CB5"/>
<path d="M202.057 123.657L201.971 124.356H189.461L189.375 123.657H202.057Z" fill="#9D9CB5"/>
<path d="M201.934 124.648L201.85 125.347H189.581L189.495 124.648H201.934Z" fill="#9D9CB5"/>
<defs>
<linearGradient id="paint0_linear" x1="157.925" y1="97.9888" x2="189.195" y2="97.9888" gradientUnits="userSpaceOnUse">
<stop stop-color="#808080" stop-opacity="0.25"/>
<stop offset="0.54" stop-color="#808080" stop-opacity="0.12"/>
<stop offset="1" stop-color="#808080" stop-opacity="0.1"/>
</linearGradient>
</defs>
</svg>
