<svg width="241" height="141" viewBox="0 0 241 141" fill="none" xmlns="http://www.w3.org/2000/svg">
<path opacity="0.1" d="M116.17 139.793C174.581 139.793 221.932 134.033 221.932 126.928C221.932 119.823 174.581 114.063 116.17 114.063C57.7594 114.063 10.4081 119.823 10.4081 126.928C10.4081 134.033 57.7594 139.793 116.17 139.793Z" fill="#82DB35"/>
<path opacity="0.4" d="M139.345 21.2558C126.053 20.8417 113.394 16.9963 101.307 12.7886C89.221 8.58096 77.2452 3.91821 64.2708 1.70114C55.9284 0.26694 46.3854 0.0642119 39.6624 4.07349C33.1968 7.92101 31.1034 14.5809 29.9797 20.7619C29.1327 25.4117 28.6346 30.3052 30.9422 34.6574C32.552 37.6768 35.4082 40.2217 37.3837 43.1159C44.2558 53.1877 39.3977 65.608 31.9504 75.4446C28.4566 80.0578 24.4045 84.4574 21.7071 89.3703C19.0097 94.2833 17.7657 99.9079 20.1238 104.918C22.4627 109.878 28.0331 113.614 34.0679 116.236C46.3252 121.565 60.777 123.09 74.8558 123.953C106.036 125.866 137.382 125.031 168.643 124.207C180.215 123.901 191.834 123.59 203.216 121.988C209.537 121.097 216.063 119.683 220.649 116.271C226.474 111.94 227.918 104.605 224.018 99.1746C217.47 90.0648 199.368 87.8024 194.792 78.0262C192.275 72.6453 194.861 66.6518 198.521 61.6613C206.373 50.9533 219.535 41.561 220.23 29.3239C220.712 20.9129 214.378 12.5018 204.59 8.52488C194.334 4.35817 180.114 4.88224 172.549 11.7815C164.772 18.8878 151.08 21.6203 139.345 21.2558Z" fill="#82DB35"/>
<path d="M206.125 130.207C206.125 130.207 211.64 123.183 211.194 116.214C210.988 113.292 211.735 110.382 213.322 107.921C214.086 106.76 214.954 105.67 215.914 104.665" stroke="#535461" stroke-width="2" stroke-miterlimit="10"/>
<path d="M215.661 100.273C215.271 101.248 215.908 104.78 215.908 104.78C215.908 104.78 218.801 102.658 219.189 101.681C219.282 101.449 219.327 101.202 219.324 100.952C219.321 100.702 219.269 100.456 219.17 100.227C219.072 99.9972 218.929 99.7895 218.75 99.6154C218.572 99.4412 218.36 99.304 218.129 99.2115C217.897 99.119 217.649 99.0731 217.4 99.0763C217.151 99.0796 216.904 99.132 216.675 99.2305C216.446 99.3291 216.238 99.4718 216.064 99.6506C215.89 99.8294 215.753 100.041 215.661 100.273V100.273Z" fill="#82DB35"/>
<path d="M210.588 104.511C210.791 105.541 213.237 108.16 213.237 108.16C213.237 108.16 214.512 104.805 214.31 103.773C214.212 103.278 213.922 102.843 213.503 102.562C213.084 102.281 212.571 102.179 212.076 102.276C211.582 102.374 211.146 102.665 210.866 103.084C210.585 103.503 210.483 104.017 210.581 104.511H210.588Z" fill="#82DB35"/>
<path d="M207.033 113.794C207.729 114.581 211.169 115.602 211.169 115.602C211.169 115.602 210.577 112.061 209.881 111.274C209.547 110.896 209.076 110.666 208.573 110.635C208.07 110.605 207.575 110.775 207.198 111.109C206.82 111.443 206.591 111.914 206.56 112.417C206.529 112.921 206.699 113.416 207.033 113.794V113.794Z" fill="#82DB35"/>
<path d="M205.927 121.424C206.479 122.318 209.696 123.906 209.696 123.906C209.696 123.906 209.711 120.309 209.158 119.423C208.893 118.994 208.469 118.689 207.978 118.573C207.488 118.458 206.971 118.542 206.543 118.807C206.114 119.072 205.809 119.497 205.693 119.988C205.578 120.479 205.662 120.996 205.927 121.424V121.424Z" fill="#82DB35"/>
<path d="M216.875 109.831C215.905 110.23 212.366 109.641 212.366 109.641C212.366 109.641 214.448 106.722 215.426 106.322C215.892 106.13 216.415 106.131 216.88 106.325C217.346 106.518 217.715 106.889 217.907 107.355C218.099 107.821 218.099 108.345 217.905 108.811C217.711 109.276 217.341 109.646 216.875 109.838V109.831Z" fill="#82DB35"/>
<path d="M215.466 118.736C214.422 118.829 211.224 117.201 211.224 117.201C211.224 117.201 214.089 115.04 215.135 114.948C215.637 114.904 216.136 115.061 216.521 115.385C216.907 115.709 217.149 116.173 217.193 116.675C217.237 117.177 217.079 117.676 216.756 118.063C216.432 118.449 215.968 118.69 215.466 118.734V118.736Z" fill="#82DB35"/>
<path d="M212.91 127.206C211.894 127.473 208.467 126.409 208.467 126.409C208.467 126.409 210.927 123.794 211.943 123.527C212.43 123.399 212.949 123.47 213.384 123.724C213.819 123.978 214.136 124.395 214.264 124.883C214.392 125.371 214.322 125.89 214.068 126.325C213.814 126.761 213.397 127.078 212.91 127.206V127.206Z" fill="#82DB35"/>
<path opacity="0.25" d="M215.661 100.273C215.271 101.248 215.908 104.78 215.908 104.78C215.908 104.78 218.801 102.658 219.189 101.681C219.282 101.449 219.327 101.202 219.324 100.952C219.321 100.702 219.269 100.456 219.17 100.227C219.072 99.9972 218.929 99.7895 218.75 99.6154C218.572 99.4412 218.36 99.304 218.129 99.2115C217.897 99.119 217.649 99.0731 217.4 99.0763C217.151 99.0796 216.904 99.132 216.675 99.2305C216.446 99.3291 216.238 99.4718 216.064 99.6506C215.89 99.8294 215.753 100.041 215.661 100.273V100.273Z" fill="black"/>
<path opacity="0.25" d="M210.588 104.511C210.791 105.541 213.237 108.16 213.237 108.16C213.237 108.16 214.512 104.805 214.31 103.773C214.212 103.278 213.922 102.843 213.503 102.562C213.084 102.281 212.571 102.179 212.076 102.276C211.582 102.374 211.146 102.665 210.866 103.084C210.585 103.503 210.483 104.017 210.581 104.511H210.588Z" fill="black"/>
<path opacity="0.25" d="M207.033 113.794C207.729 114.581 211.169 115.602 211.169 115.602C211.169 115.602 210.577 112.061 209.881 111.274C209.547 110.896 209.076 110.666 208.573 110.635C208.07 110.605 207.575 110.775 207.198 111.109C206.82 111.443 206.591 111.914 206.56 112.417C206.529 112.921 206.699 113.416 207.033 113.794V113.794Z" fill="black"/>
<path opacity="0.25" d="M205.927 121.424C206.479 122.318 209.696 123.906 209.696 123.906C209.696 123.906 209.711 120.309 209.158 119.423C208.893 118.994 208.469 118.689 207.978 118.573C207.488 118.458 206.971 118.542 206.543 118.807C206.114 119.072 205.809 119.497 205.693 119.988C205.578 120.479 205.662 120.996 205.927 121.424V121.424Z" fill="black"/>
<path opacity="0.25" d="M216.875 109.831C215.905 110.23 212.366 109.641 212.366 109.641C212.366 109.641 214.448 106.722 215.426 106.322C215.892 106.13 216.415 106.131 216.88 106.325C217.346 106.518 217.715 106.889 217.907 107.355C218.099 107.821 218.099 108.345 217.905 108.811C217.711 109.276 217.341 109.646 216.875 109.838V109.831Z" fill="black"/>
<path opacity="0.25" d="M215.466 118.736C214.422 118.829 211.224 117.201 211.224 117.201C211.224 117.201 214.089 115.04 215.135 114.948C215.637 114.904 216.136 115.061 216.521 115.385C216.907 115.709 217.149 116.173 217.193 116.675C217.237 117.177 217.079 117.676 216.756 118.063C216.432 118.449 215.968 118.69 215.466 118.734V118.736Z" fill="black"/>
<path opacity="0.25" d="M212.91 127.206C211.894 127.473 208.467 126.409 208.467 126.409C208.467 126.409 210.927 123.794 211.943 123.527C212.43 123.399 212.949 123.47 213.384 123.724C213.819 123.978 214.136 124.395 214.264 124.883C214.392 125.371 214.322 125.89 214.068 126.325C213.814 126.761 213.397 127.078 212.91 127.206V127.206Z" fill="black"/>
<path d="M206.17 129.913C206.17 129.913 214.058 125.729 216.472 119.179C217.466 116.425 219.324 114.067 221.77 112.46C222.938 111.706 224.173 111.062 225.459 110.534" stroke="#535461" stroke-width="2" stroke-miterlimit="10"/>
<path d="M227.011 106.415C226.254 107.149 225.412 110.637 225.412 110.637C225.412 110.637 228.916 109.868 229.667 109.135C229.846 108.961 229.988 108.754 230.087 108.525C230.185 108.296 230.237 108.049 230.241 107.8C230.244 107.551 230.198 107.303 230.106 107.071C230.013 106.84 229.876 106.628 229.702 106.45C229.528 106.271 229.321 106.129 229.092 106.03C228.863 105.932 228.617 105.879 228.368 105.876C227.864 105.87 227.379 106.063 227.018 106.415H227.011Z" fill="#82DB35"/>
<path d="M220.657 108.232C220.426 109.256 221.603 112.647 221.603 112.647C221.603 112.647 224.127 110.095 224.358 109.071C224.469 108.579 224.381 108.063 224.112 107.637C223.843 107.21 223.415 106.908 222.924 106.797C222.432 106.686 221.917 106.774 221.491 107.043C221.065 107.313 220.763 107.74 220.652 108.232H220.657Z" fill="#82DB35"/>
<path d="M213.65 115.279C213.965 116.281 216.698 118.609 216.698 118.609C216.698 118.609 217.589 115.131 217.265 114.13C217.19 113.892 217.068 113.671 216.907 113.48C216.747 113.289 216.55 113.131 216.328 113.016C216.107 112.901 215.865 112.831 215.616 112.81C215.368 112.788 215.117 112.816 214.879 112.892C214.641 112.967 214.421 113.089 214.23 113.25C214.039 113.41 213.881 113.607 213.767 113.829C213.652 114.051 213.581 114.293 213.56 114.542C213.539 114.79 213.567 115.041 213.642 115.279H213.65Z" fill="#82DB35"/>
<path d="M209.546 121.804C209.689 122.846 211.988 125.602 211.988 125.602C211.988 125.602 213.454 122.325 213.313 121.286C213.279 121.038 213.196 120.8 213.07 120.585C212.944 120.369 212.777 120.181 212.578 120.03C212.379 119.879 212.152 119.769 211.911 119.705C211.67 119.642 211.418 119.627 211.171 119.661C210.924 119.695 210.686 119.778 210.47 119.904C210.255 120.03 210.066 120.197 209.916 120.396C209.765 120.595 209.655 120.822 209.592 121.064C209.528 121.305 209.514 121.557 209.548 121.804H209.546Z" fill="#82DB35"/>
<path d="M224.253 115.645C223.203 115.618 220.209 113.638 220.209 113.638C220.209 113.638 223.303 111.817 224.351 111.843C224.855 111.856 225.333 112.069 225.68 112.435C226.027 112.8 226.214 113.289 226.201 113.793C226.188 114.297 225.976 114.776 225.61 115.123C225.245 115.47 224.756 115.658 224.253 115.645V115.645Z" fill="#82DB35"/>
<path d="M219.357 123.216C218.364 122.877 216.099 120.092 216.099 120.092C216.099 120.092 219.594 119.278 220.587 119.619C220.823 119.699 221.041 119.826 221.228 119.991C221.415 120.156 221.568 120.356 221.678 120.58C221.788 120.805 221.853 121.048 221.868 121.297C221.884 121.546 221.851 121.796 221.77 122.032C221.689 122.269 221.563 122.487 221.398 122.674C221.233 122.861 221.033 123.014 220.809 123.124C220.585 123.234 220.341 123.299 220.092 123.314C219.843 123.33 219.594 123.296 219.357 123.216V123.216Z" fill="#82DB35"/>
<path d="M213.589 129.92C212.554 129.754 209.853 127.391 209.853 127.391C209.853 127.391 213.16 126 214.204 126.166C214.702 126.247 215.147 126.521 215.442 126.93C215.737 127.339 215.858 127.848 215.777 128.346C215.697 128.844 215.423 129.29 215.014 129.585C214.605 129.88 214.096 130.001 213.599 129.92H213.589Z" fill="#82DB35"/>
<path d="M113.845 44.6989H109.14C109.143 44.3357 109.166 43.973 109.208 43.6122C109.355 42.3286 109.81 40.246 111.217 39.2691C112.532 38.3566 114.244 39.7329 113.573 41.1888L113.556 41.2286C113.304 41.7549 113.296 42.41 113.38 43.0102C113.468 43.5894 113.624 44.1563 113.845 44.6989V44.6989Z" fill="#82DB35"/>
<path opacity="0.1" d="M113.845 44.6984H109.14C109.143 44.3352 109.166 43.9724 109.208 43.6117C110.536 43.1135 111.956 42.9081 113.37 43.0096C113.462 43.5893 113.621 44.1561 113.845 44.6984V44.6984Z" fill="black"/>
<path d="M116.897 49.6833C115.677 50.6772 113.97 50.6924 112.224 50.2664C108.648 49.3917 104.915 46.6541 104.915 46.6541C105.169 46.372 105.442 46.1076 105.732 45.8627C107.204 44.598 110.578 42.3621 115.094 43.4734C116.198 43.7272 117.171 44.378 117.828 45.3023C118.575 46.3966 118.965 48.0002 116.897 49.6833Z" fill="#82DB35"/>
<path opacity="0.1" d="M115.459 47.6899C115.459 47.6899 112.739 45.3707 108.99 48.4472Z" fill="black"/>
<path d="M40.0507 67.2287C40.0507 67.2287 31.2833 60.4774 30.8424 66.5983C30.4016 72.7191 32.6077 78.4632 34.4996 78.9668C36.3916 79.4704 40.0507 67.2287 40.0507 67.2287Z" fill="#82DB35"/>
<path opacity="0.2" d="M40.0507 67.2287C40.0507 67.2287 31.2833 60.4774 30.8424 66.5983C30.4016 72.7191 32.6077 78.4632 34.4996 78.9668C36.3916 79.4704 40.0507 67.2287 40.0507 67.2287Z" fill="black"/>
<path opacity="0.1" d="M34.3108 69.374C34.3108 69.374 34.517 75.0064 36.2671 74.1071C38.0172 73.2079 35.446 69.6258 34.3108 69.374Z" fill="black"/>
<path d="M61.5932 115.228C61.387 116.095 61.069 116.932 60.6472 117.717C60.5393 117.922 60.422 118.132 60.2934 118.346C58.2292 121.78 53.4576 123.206 53.4576 122.449C53.4576 121.691 52.9865 119.734 51.787 120.302C50.5875 120.87 48.7598 120.745 48.7598 120.745C45.4583 120.493 46.0165 117.237 47.11 114.478C47.4737 113.571 47.8894 112.686 48.355 111.828C48.7674 111.07 49.0758 110.574 49.0758 110.574L61.6897 112.594C61.6897 112.594 61.9716 113.59 61.5932 115.228Z" fill="#82DB35"/>
<path opacity="0.1" d="M112.224 50.266C108.648 49.3913 104.915 46.6537 104.915 46.6537C105.169 46.3716 105.442 46.1072 105.732 45.8623C106.277 46.1501 106.825 46.4562 107.374 46.7805C109.098 47.7847 110.722 48.9518 112.224 50.266V50.266Z" fill="black"/>
<path opacity="0.1" d="M61.5932 115.228C58.1706 114.921 53.2135 114.079 48.3492 111.837C48.7617 111.08 49.0701 110.584 49.0701 110.584L61.684 112.604C61.684 112.604 61.9716 113.59 61.5932 115.228Z" fill="black"/>
<path d="M114.72 98.8456C114.72 98.8456 114.493 102.891 112.212 107.464C110.455 111.06 107.745 114.103 104.377 116.263C104.377 116.263 102.36 117.905 102.233 113.361C102.233 113.361 101.35 112.414 95.2954 116.551C95.2954 116.551 91.642 118.785 92.6466 109.465C92.6466 109.465 92.6466 109.453 92.6466 109.448C92.6466 109.442 92.5558 109.506 92.3893 109.607H92.378C91.9466 109.872 91.0309 110.415 89.9411 110.962C87.945 111.966 85.3587 112.986 84.0759 112.343C83.7813 114.702 83.054 116.986 81.9304 119.081C80.659 121.396 78.6535 123.66 75.5128 124.683C74.7209 124.937 73.8742 124.967 73.0662 124.77C72.2582 124.573 71.5204 124.156 70.9342 123.566L70.5747 123.206C70.5747 123.206 67.7992 125.099 66.4123 124.467C65.0255 123.835 63.8884 122.07 65.7804 118.787C65.7804 118.787 65.8807 118.515 66.0037 118.115C66.3121 117.102 66.7605 115.275 66.0339 115.001C66.0339 115.001 36.6438 116.515 32.735 90.3885C28.8261 64.2617 54.682 54.6705 61.9964 55.6796C61.9964 55.6796 81.4215 31.1943 108.288 46.9707C135.154 62.7471 114.72 98.8456 114.72 98.8456Z" fill="#82DB35"/>
<path opacity="0.1" d="M61.996 55.6787C61.996 55.6787 94.0122 55.5538 91.8156 97.0783" stroke="black" stroke-miterlimit="10"/>
<path opacity="0.2" d="M60.6472 117.717C60.5394 117.921 60.422 118.132 60.2934 118.345C58.2292 121.78 53.4576 123.205 53.4576 122.448C53.4576 121.691 52.9865 119.733 51.787 120.301C50.5875 120.869 48.7598 120.744 48.7598 120.744C45.4583 120.492 46.0165 117.236 47.11 114.478C50.2053 116.032 55.8037 118.347 60.6472 117.717Z" fill="black"/>
<path opacity="0.2" d="M81.9297 119.081C80.6583 121.396 78.6528 123.661 75.5121 124.683C74.7201 124.937 73.8734 124.967 73.0655 124.77C72.2575 124.573 71.5196 124.156 70.9335 123.566L70.574 123.206C70.574 123.206 67.7984 125.099 66.4116 124.467C65.0248 123.835 63.8877 122.07 65.7797 118.787C65.7797 118.787 65.88 118.515 66.0029 118.115C68.4758 118.988 75.0258 120.845 81.9297 119.081Z" fill="black"/>
<path opacity="0.1" d="M92.6464 109.447C104.061 103.515 106.017 98.7822 106.017 98.7822Z" fill="black"/>
<path opacity="0.2" d="M112.211 107.464C110.454 111.06 107.744 114.104 104.377 116.264C104.377 116.264 102.36 117.905 102.233 113.361C102.233 113.361 101.349 112.415 95.295 116.551C95.295 116.551 91.6416 118.785 92.6462 109.465L95.6734 107.786C102.197 111.415 108.751 109.202 112.211 107.464Z" fill="black"/>
<path d="M65.4032 59.3404C65.4032 59.3404 71.836 49.4955 76.6908 52.5872C81.5457 55.6789 75.8091 67.2277 75.8091 67.2277C75.8091 67.2277 66.2849 67.0383 65.4032 59.3404Z" fill="#82DB35"/>
<path opacity="0.2" d="M65.4032 59.3404C65.4032 59.3404 71.836 49.4955 76.6908 52.5872C81.5457 55.6789 75.8091 67.2277 75.8091 67.2277C75.8091 67.2277 66.2849 67.0383 65.4032 59.3404Z" fill="black"/>
<path opacity="0.1" d="M75.872 56.626C75.872 56.626 67.4205 60.7286 70.0068 63.1274C72.5932 65.5261 75.872 56.626 75.872 56.626Z" fill="black"/>
<path opacity="0.1" d="M55.501 96.5772C61.8531 95.1097 66.018 89.6526 64.8034 84.3884C63.5889 79.1242 57.4549 76.0463 51.1028 77.5138C44.7506 78.9813 40.5858 84.4384 41.8003 89.7026C43.0148 94.9668 49.1488 98.0446 55.501 96.5772Z" fill="black"/>
<path d="M55.501 96.1992C61.8531 94.7317 66.018 89.2746 64.8034 84.0104C63.5889 78.7462 57.4549 75.6684 51.1028 77.1359C44.7506 78.6033 40.5858 84.0604 41.8003 89.3246C43.0148 94.5888 49.1488 97.6667 55.501 96.1992Z" fill="#82DB35"/>
<path opacity="0.2" d="M55.501 96.1992C61.8531 94.7317 66.018 89.2746 64.8034 84.0104C63.5889 78.7462 57.4549 75.6684 51.1028 77.1359C44.7506 78.6033 40.5858 84.0604 41.8003 89.3246C43.0148 94.5888 49.1488 97.6667 55.501 96.1992Z" fill="black"/>
<path opacity="0.1" d="M48.3116 86.665C48.3116 86.665 48.4384 90.3266 49.5112 89.255C50.5839 88.1834 49.5736 86.6613 48.3116 86.665Z" fill="black"/>
<path opacity="0.1" d="M54.4296 83.877C54.4296 83.877 54.5544 87.5386 55.6272 86.467C56.6999 85.3954 55.6896 83.8657 54.4296 83.877Z" fill="black"/>
<path opacity="0.1" d="M64.7827 104.841C64.7827 104.841 67.4201 107.429 70.6365 103.832Z" fill="black"/>
<path opacity="0.15" d="M76.3749 49.3049C77.826 48.9263 83.186 51.1982 83.186 51.1982C85.4961 48.8865 88.862 47.5007 91.8154 46.6771L92.4322 43.8789C80.7189 44.0133 76.3749 49.3049 76.3749 49.3049Z" fill="black"/>
<path opacity="0.3" d="M92.4569 43.8789L91.8741 46.6601C93.9631 46.0851 96.1007 45.7049 98.2596 45.5241C95.4841 44.1307 92.4569 43.8789 92.4569 43.8789Z" fill="black"/>
<path opacity="0.15" d="M92.4322 43.8789L91.8192 46.6771L91.8779 46.6601L92.4606 43.8789H92.4322Z" fill="black"/>
<g opacity="0.1">
<path opacity="0.1" d="M67.1044 119.972C67.1044 119.972 67.2046 119.699 67.3276 119.3C67.636 118.287 68.0844 116.46 67.3579 116.186C67.3579 116.186 67.0211 116.203 66.4119 116.201C66.3456 116.868 66.2079 117.526 66.0013 118.164C65.8784 118.563 65.7781 118.836 65.7781 118.836C63.8861 122.119 65.0213 123.885 66.41 124.516L66.4838 124.542C65.9257 123.586 65.8803 122.096 67.1044 119.972Z" fill="white"/>
<path opacity="0.1" d="M34.0589 91.5737C30.1481 65.4469 56.8384 54.8296 64.1528 55.8463L61.9959 55.7365C54.6815 54.7274 28.8237 64.3185 32.7345 90.4453C33.9643 98.6601 37.7142 104.141 42.2758 107.797C38.3215 104.162 35.1676 98.9782 34.0589 91.5737Z" fill="white"/>
<path opacity="0.1" d="M93.9685 110.65C93.9685 110.65 93.9685 110.639 93.9685 110.633C93.9685 110.627 93.8777 110.692 93.7112 110.792H93.6999C93.4445 110.947 93.0188 111.203 92.489 111.498C92.2998 115.806 93.4142 116.739 94.2902 116.82C93.8456 115.815 93.6128 113.969 93.9685 110.65Z" fill="white"/>
<path opacity="0.1" d="M103.557 114.547C103.557 114.547 103.33 114.306 102.327 114.604C102.588 116.482 103.311 116.686 103.826 116.575C103.649 115.913 103.559 115.232 103.557 114.547V114.547Z" fill="white"/>
</g>
<path opacity="0.1" d="M66.0336 115C66.0336 115 82.4314 113.991 84.0699 112.35Z" fill="black"/>
<path d="M127.81 118.131C131.735 118.131 134.917 114.751 134.917 110.583C134.917 106.414 131.735 103.034 127.81 103.034C123.886 103.034 120.704 106.414 120.704 110.583C120.704 114.751 123.886 118.131 127.81 118.131Z" fill="#FBD56F"/>
<path opacity="0.1" d="M127.81 118.131C131.735 118.131 134.917 114.751 134.917 110.583C134.917 106.414 131.735 103.034 127.81 103.034C123.886 103.034 120.704 106.414 120.704 110.583C120.704 114.751 123.886 118.131 127.81 118.131Z" fill="black"/>
<path d="M129.036 118.132C132.961 118.132 136.142 114.828 136.142 110.752C136.142 106.676 132.961 103.372 129.036 103.372C125.111 103.372 121.93 106.676 121.93 110.752C121.93 114.828 125.111 118.132 129.036 118.132Z" fill="#FBD56F"/>
<path d="M131.916 117.439L131.176 117.028C131.176 117.028 130.83 118.471 130.943 119.501C130.954 119.604 130.996 119.702 131.063 119.781C131.131 119.86 131.221 119.917 131.321 119.944C133.024 120.366 141.126 122.166 146.7 119.63C146.78 119.593 146.85 119.536 146.902 119.464C146.954 119.391 146.986 119.307 146.995 119.219C147.065 118.586 146.822 117.282 146.726 117.028C146.524 116.481 131.916 117.439 131.916 117.439Z" fill="#FBD56F"/>
<path opacity="0.1" d="M131.916 117.439L131.176 117.028C131.176 117.028 130.83 118.471 130.943 119.501C130.954 119.604 130.996 119.702 131.063 119.781C131.131 119.86 131.221 119.917 131.321 119.944C133.024 120.366 141.126 122.166 146.7 119.63C146.78 119.593 146.85 119.536 146.902 119.464C146.954 119.391 146.986 119.307 146.995 119.219C147.065 118.586 146.822 117.282 146.726 117.028C146.524 116.481 131.916 117.439 131.916 117.439Z" fill="black"/>
<path d="M138.954 118.783C143.25 118.783 146.732 117.997 146.732 117.027C146.732 116.058 143.25 115.272 138.954 115.272C134.658 115.272 131.176 116.058 131.176 117.027C131.176 117.997 134.658 118.783 138.954 118.783Z" fill="#FBD56F"/>
<path d="M134.893 114.85L134.156 114.439C134.156 114.439 133.809 115.882 133.923 116.912C133.933 117.015 133.975 117.113 134.043 117.192C134.111 117.271 134.201 117.327 134.301 117.353C136.004 117.777 144.106 119.578 149.679 117.041C149.76 117.004 149.83 116.946 149.881 116.874C149.933 116.802 149.965 116.718 149.975 116.63C150.043 115.997 149.8 114.693 149.704 114.439C149.494 113.892 134.893 114.85 134.893 114.85Z" fill="#FBD56F"/>
<path opacity="0.1" d="M134.893 114.85L134.156 114.439C134.156 114.439 133.809 115.882 133.923 116.912C133.933 117.015 133.975 117.113 134.043 117.192C134.111 117.271 134.201 117.327 134.301 117.353C136.004 117.777 144.106 119.578 149.679 117.041C149.76 117.004 149.83 116.946 149.881 116.874C149.933 116.802 149.965 116.718 149.975 116.63C150.043 115.997 149.8 114.693 149.704 114.439C149.494 113.892 134.893 114.85 134.893 114.85Z" fill="black"/>
<path d="M141.924 116.196C146.22 116.196 149.702 115.41 149.702 114.441C149.702 113.471 146.22 112.686 141.924 112.686C137.629 112.686 134.146 113.471 134.146 114.441C134.146 115.41 137.629 116.196 141.924 116.196Z" fill="#FBD56F"/>
<path d="M137.514 111.449L136.775 111.038C136.775 111.038 136.428 112.481 136.542 113.511C136.553 113.614 136.595 113.712 136.662 113.791C136.73 113.87 136.82 113.927 136.92 113.954C138.623 114.376 146.726 116.176 152.298 113.639C152.379 113.602 152.449 113.545 152.501 113.473C152.553 113.401 152.586 113.317 152.595 113.228C152.664 112.596 152.421 111.292 152.325 111.038C152.122 110.491 137.514 111.449 137.514 111.449Z" fill="#FBD56F"/>
<path opacity="0.1" d="M137.514 111.449L136.775 111.038C136.775 111.038 136.428 112.481 136.542 113.511C136.553 113.614 136.595 113.712 136.662 113.791C136.73 113.87 136.82 113.927 136.92 113.954C138.623 114.376 146.726 116.176 152.298 113.639C152.379 113.602 152.449 113.545 152.501 113.473C152.553 113.401 152.586 113.317 152.595 113.228C152.664 112.596 152.421 111.292 152.325 111.038C152.122 110.491 137.514 111.449 137.514 111.449Z" fill="black"/>
<path d="M144.552 112.792C148.848 112.792 152.33 112.007 152.33 111.037C152.33 110.068 148.848 109.282 144.552 109.282C140.256 109.282 136.774 110.068 136.774 111.037C136.774 112.007 140.256 112.792 144.552 112.792Z" fill="#FBD56F"/>
<path d="M134.605 107.91L133.865 107.497C133.865 107.497 133.521 108.942 133.632 109.97C133.643 110.073 133.685 110.171 133.753 110.25C133.82 110.329 133.91 110.386 134.011 110.413C135.713 110.835 143.815 112.636 149.387 110.101C149.468 110.064 149.538 110.007 149.59 109.935C149.642 109.863 149.674 109.778 149.684 109.69C149.752 109.057 149.51 107.753 149.413 107.497C149.213 106.948 134.605 107.91 134.605 107.91Z" fill="#FBD56F"/>
<path opacity="0.1" d="M134.605 107.91L133.865 107.497C133.865 107.497 133.521 108.942 133.632 109.97C133.643 110.073 133.685 110.171 133.753 110.25C133.82 110.329 133.91 110.386 134.011 110.413C135.713 110.835 143.815 112.636 149.387 110.101C149.468 110.064 149.538 110.007 149.59 109.935C149.642 109.863 149.674 109.778 149.684 109.69C149.752 109.057 149.51 107.753 149.413 107.497C149.213 106.948 134.605 107.91 134.605 107.91Z" fill="black"/>
<path d="M141.642 109.25C145.938 109.25 149.42 108.465 149.42 107.495C149.42 106.526 145.938 105.74 141.642 105.74C137.347 105.74 133.865 106.526 133.865 107.495C133.865 108.465 137.347 109.25 141.642 109.25Z" fill="#FBD56F"/>
<path d="M141.149 105.07L140.411 104.657C140.411 104.657 140.065 106.102 140.178 107.13C140.189 107.234 140.23 107.332 140.298 107.411C140.366 107.49 140.456 107.547 140.557 107.573C142.259 107.995 150.361 109.796 155.933 107.261C156.013 107.224 156.083 107.166 156.135 107.094C156.187 107.022 156.22 106.938 156.23 106.85C156.298 106.217 156.056 104.911 155.959 104.657C155.757 104.106 141.149 105.07 141.149 105.07Z" fill="#FBD56F"/>
<path opacity="0.1" d="M141.149 105.07L140.411 104.657C140.411 104.657 140.065 106.102 140.178 107.13C140.189 107.234 140.23 107.332 140.298 107.411C140.366 107.49 140.456 107.547 140.557 107.573C142.259 107.995 150.361 109.796 155.933 107.261C156.013 107.224 156.083 107.166 156.135 107.094C156.187 107.022 156.22 106.938 156.23 106.85C156.298 106.217 156.056 104.911 155.959 104.657C155.757 104.106 141.149 105.07 141.149 105.07Z" fill="black"/>
<path d="M148.187 106.409C152.483 106.409 155.965 105.624 155.965 104.654C155.965 103.685 152.483 102.899 148.187 102.899C143.891 102.899 140.409 103.685 140.409 104.654C140.409 105.624 143.891 106.409 148.187 106.409Z" fill="#FBD56F"/>
<path d="M136.727 103.156L135.987 102.744C135.987 102.744 135.643 104.188 135.755 105.216C135.766 105.32 135.808 105.417 135.875 105.497C135.943 105.576 136.033 105.632 136.133 105.659C137.836 106.082 145.937 107.882 151.509 105.347C151.59 105.31 151.66 105.253 151.712 105.181C151.764 105.109 151.797 105.025 151.806 104.936C151.874 104.304 151.632 102.997 151.536 102.744C151.335 102.197 136.727 103.156 136.727 103.156Z" fill="#FBD56F"/>
<path opacity="0.1" d="M136.727 103.156L135.987 102.744C135.987 102.744 135.643 104.188 135.755 105.216C135.766 105.32 135.808 105.417 135.875 105.497C135.943 105.576 136.033 105.632 136.133 105.659C137.836 106.082 145.937 107.882 151.509 105.347C151.59 105.31 151.66 105.253 151.712 105.181C151.764 105.109 151.797 105.025 151.806 104.936C151.874 104.304 151.632 102.997 151.536 102.744C151.335 102.197 136.727 103.156 136.727 103.156Z" fill="black"/>
<path d="M143.765 104.498C148.061 104.498 151.543 103.713 151.543 102.743C151.543 101.774 148.061 100.988 143.765 100.988C139.469 100.988 135.987 101.774 135.987 102.743C135.987 103.713 139.469 104.498 143.765 104.498Z" fill="#FBD56F"/>
<path d="M139.679 99.468L138.941 99.0553C138.941 99.0553 138.594 100.5 138.708 101.528C138.718 101.631 138.76 101.729 138.828 101.809C138.895 101.888 138.986 101.944 139.086 101.971C140.789 102.393 148.891 104.194 154.464 101.658C154.545 101.622 154.615 101.564 154.667 101.492C154.718 101.42 154.75 101.336 154.76 101.248C154.828 100.615 154.585 99.3109 154.489 99.0553C154.288 98.5081 139.679 99.468 139.679 99.468Z" fill="#FBD56F"/>
<path opacity="0.1" d="M139.679 99.468L138.941 99.0553C138.941 99.0553 138.594 100.5 138.708 101.528C138.718 101.631 138.76 101.729 138.828 101.809C138.895 101.888 138.986 101.944 139.086 101.971C140.789 102.393 148.891 104.194 154.464 101.658C154.545 101.622 154.615 101.564 154.667 101.492C154.718 101.42 154.75 101.336 154.76 101.248C154.828 100.615 154.585 99.3109 154.489 99.0553C154.288 98.5081 139.679 99.468 139.679 99.468Z" fill="black"/>
<path d="M146.719 100.81C151.014 100.81 154.497 100.024 154.497 99.0549C154.497 98.0856 151.014 97.2998 146.719 97.2998C142.423 97.2998 138.941 98.0856 138.941 99.0549C138.941 100.024 142.423 100.81 146.719 100.81Z" fill="#FBD56F"/>
<path d="M141.137 95.0911L140.397 94.6783C140.397 94.6783 140.053 96.1229 140.165 97.1509C140.176 97.2544 140.218 97.3521 140.285 97.4312C140.353 97.5102 140.443 97.567 140.543 97.594C142.246 98.0161 150.347 99.8166 155.919 97.2816C156 97.2449 156.07 97.1877 156.122 97.1156C156.174 97.0436 156.207 96.9591 156.216 96.8707C156.284 96.2384 156.042 94.9339 155.946 94.6783C155.743 94.1312 141.137 95.0911 141.137 95.0911Z" fill="#FBD56F"/>
<path opacity="0.1" d="M141.137 95.0911L140.397 94.6783C140.397 94.6783 140.053 96.1229 140.165 97.1509C140.176 97.2544 140.218 97.3521 140.285 97.4312C140.353 97.5102 140.443 97.567 140.543 97.594C142.246 98.0161 150.347 99.8166 155.919 97.2816C156 97.2449 156.07 97.1877 156.122 97.1156C156.174 97.0436 156.207 96.9591 156.216 96.8707C156.284 96.2384 156.042 94.9339 155.946 94.6783C155.743 94.1312 141.137 95.0911 141.137 95.0911Z" fill="black"/>
<path d="M148.174 96.4329C152.469 96.4329 155.952 95.6472 155.952 94.6779C155.952 93.7086 152.469 92.9229 148.174 92.9229C143.878 92.9229 140.396 93.7086 140.396 94.6779C140.396 95.6472 143.878 96.4329 148.174 96.4329Z" fill="#FBD56F"/>
<path d="M154.266 118.455L153.526 118.043C153.526 118.043 153.18 119.487 153.293 120.515C153.304 120.619 153.346 120.717 153.413 120.796C153.481 120.875 153.571 120.931 153.672 120.958C155.374 121.38 163.476 123.181 169.05 120.646C169.13 120.609 169.2 120.551 169.252 120.479C169.303 120.406 169.336 120.322 169.345 120.233C169.415 119.601 169.173 118.296 169.076 118.043C168.874 117.495 154.266 118.455 154.266 118.455Z" fill="#FBD56F"/>
<path opacity="0.1" d="M154.266 118.455L153.526 118.043C153.526 118.043 153.18 119.487 153.293 120.515C153.304 120.619 153.346 120.717 153.413 120.796C153.481 120.875 153.571 120.931 153.672 120.958C155.374 121.38 163.476 123.181 169.05 120.646C169.13 120.609 169.2 120.551 169.252 120.479C169.303 120.406 169.336 120.322 169.345 120.233C169.415 119.601 169.173 118.296 169.076 118.043C168.874 117.495 154.266 118.455 154.266 118.455Z" fill="black"/>
<path d="M161.304 119.798C165.6 119.798 169.082 119.012 169.082 118.043C169.082 117.074 165.6 116.288 161.304 116.288C157.008 116.288 153.526 117.074 153.526 118.043C153.526 119.012 157.008 119.798 161.304 119.798Z" fill="#FBD56F"/>
<path d="M156.892 115.053L156.152 114.64C156.152 114.64 155.808 116.085 155.919 117.113C155.93 117.216 155.972 117.314 156.04 117.393C156.108 117.472 156.197 117.529 156.298 117.556C158.001 117.978 166.102 119.778 171.674 117.243C171.755 117.207 171.825 117.15 171.877 117.077C171.929 117.005 171.962 116.921 171.971 116.833C172.039 116.2 171.797 114.894 171.701 114.64C171.5 114.093 156.892 115.053 156.892 115.053Z" fill="#FBD56F"/>
<path opacity="0.1" d="M156.892 115.053L156.152 114.64C156.152 114.64 155.808 116.085 155.919 117.113C155.93 117.216 155.972 117.314 156.04 117.393C156.108 117.472 156.197 117.529 156.298 117.556C158.001 117.978 166.102 119.778 171.674 117.243C171.755 117.207 171.825 117.15 171.877 117.077C171.929 117.005 171.962 116.921 171.971 116.833C172.039 116.2 171.797 114.894 171.701 114.64C171.5 114.093 156.892 115.053 156.892 115.053Z" fill="black"/>
<path d="M163.93 116.396C168.225 116.396 171.708 115.61 171.708 114.641C171.708 113.672 168.225 112.886 163.93 112.886C159.634 112.886 156.152 113.672 156.152 114.641C156.152 115.61 159.634 116.396 163.93 116.396Z" fill="#FBD56F"/>
<path d="M153.982 111.508L153.244 111.097C153.244 111.097 152.898 112.54 153.011 113.569C153.022 113.673 153.064 113.77 153.132 113.849C153.199 113.928 153.289 113.984 153.39 114.011C155.093 114.435 163.194 116.235 168.768 113.698C168.849 113.662 168.918 113.604 168.97 113.532C169.022 113.46 169.054 113.376 169.063 113.287C169.131 112.655 168.889 111.351 168.792 111.097C168.592 110.561 153.982 111.508 153.982 111.508Z" fill="#FBD56F"/>
<path opacity="0.1" d="M153.982 111.508L153.244 111.097C153.244 111.097 152.898 112.54 153.011 113.569C153.022 113.673 153.064 113.77 153.132 113.849C153.199 113.928 153.289 113.984 153.39 114.011C155.093 114.435 163.194 116.235 168.768 113.698C168.849 113.662 168.918 113.604 168.97 113.532C169.022 113.46 169.054 113.376 169.063 113.287C169.131 112.655 168.889 111.351 168.792 111.097C168.592 110.561 153.982 111.508 153.982 111.508Z" fill="black"/>
<path d="M161.022 112.855C165.318 112.855 168.8 112.069 168.8 111.1C168.8 110.13 165.318 109.345 161.022 109.345C156.726 109.345 153.244 110.13 153.244 111.1C153.244 112.069 156.726 112.855 161.022 112.855Z" fill="#FBD56F"/>
<path d="M160.528 108.667L159.788 108.257C159.788 108.257 159.442 109.699 159.556 110.718C159.566 110.821 159.608 110.919 159.676 110.999C159.743 111.078 159.833 111.134 159.934 111.161C161.637 111.585 169.738 113.384 175.312 110.848C175.393 110.812 175.463 110.755 175.515 110.683C175.566 110.61 175.598 110.526 175.607 110.438C175.675 109.805 175.435 108.501 175.339 108.247C175.136 107.721 160.528 108.667 160.528 108.667Z" fill="#FBD56F"/>
<path opacity="0.1" d="M160.528 108.667L159.788 108.257C159.788 108.257 159.442 109.699 159.556 110.718C159.566 110.821 159.608 110.919 159.676 110.999C159.743 111.078 159.833 111.134 159.934 111.161C161.637 111.585 169.738 113.384 175.312 110.848C175.393 110.812 175.463 110.755 175.515 110.683C175.566 110.61 175.598 110.526 175.607 110.438C175.675 109.805 175.435 108.501 175.339 108.247C175.136 107.721 160.528 108.667 160.528 108.667Z" fill="black"/>
<path d="M167.566 110.013C171.862 110.013 175.344 109.227 175.344 108.258C175.344 107.289 171.862 106.503 167.566 106.503C163.271 106.503 159.788 107.289 159.788 108.258C159.788 109.227 163.271 110.013 167.566 110.013Z" fill="#FBD56F"/>
<path d="M156.105 106.759L155.367 106.349C155.367 106.349 155.021 107.791 155.134 108.821C155.145 108.924 155.187 109.022 155.255 109.101C155.322 109.18 155.412 109.236 155.513 109.262C157.216 109.686 165.317 111.485 170.891 108.95C170.972 108.913 171.042 108.856 171.093 108.784C171.145 108.712 171.177 108.627 171.186 108.539C171.254 107.907 171.012 106.602 170.916 106.349C170.715 105.801 156.105 106.759 156.105 106.759Z" fill="#FBD56F"/>
<path opacity="0.1" d="M156.105 106.759L155.367 106.349C155.367 106.349 155.021 107.791 155.134 108.821C155.145 108.924 155.187 109.022 155.255 109.101C155.322 109.18 155.412 109.236 155.513 109.262C157.216 109.686 165.317 111.485 170.891 108.95C170.972 108.913 171.042 108.856 171.093 108.784C171.145 108.712 171.177 108.627 171.186 108.539C171.254 107.907 171.012 106.602 170.916 106.349C170.715 105.801 156.105 106.759 156.105 106.759Z" fill="black"/>
<path d="M163.145 108.103C167.441 108.103 170.923 107.317 170.923 106.348C170.923 105.379 167.441 104.593 163.145 104.593C158.849 104.593 155.367 105.379 155.367 106.348C155.367 107.317 158.849 108.103 163.145 108.103Z" fill="#FBD56F"/>
<path d="M159.058 103.071L158.318 102.66C158.318 102.66 157.972 104.103 158.085 105.133C158.096 105.236 158.138 105.334 158.206 105.413C158.273 105.492 158.363 105.549 158.464 105.576C160.167 105.998 168.268 107.798 173.84 105.261C173.921 105.224 173.991 105.167 174.043 105.095C174.095 105.023 174.127 104.939 174.137 104.851C174.205 104.218 173.963 102.914 173.867 102.66C173.666 102.113 159.058 103.071 159.058 103.071Z" fill="#FBD56F"/>
<path opacity="0.1" d="M159.058 103.071L158.318 102.66C158.318 102.66 157.972 104.103 158.085 105.133C158.096 105.236 158.138 105.334 158.206 105.413C158.273 105.492 158.363 105.549 158.464 105.576C160.167 105.998 168.268 107.798 173.84 105.261C173.921 105.224 173.991 105.167 174.043 105.095C174.095 105.023 174.127 104.939 174.137 104.851C174.205 104.218 173.963 102.914 173.867 102.66C173.666 102.113 159.058 103.071 159.058 103.071Z" fill="black"/>
<path d="M166.096 104.414C170.392 104.414 173.874 103.629 173.874 102.659C173.874 101.69 170.392 100.904 166.096 100.904C161.801 100.904 158.318 101.69 158.318 102.659C158.318 103.629 161.801 104.414 166.096 104.414Z" fill="#FBD56F"/>
<path d="M160.513 98.6939L159.775 98.2831C159.775 98.2831 159.429 99.7257 159.542 100.756C159.553 100.859 159.595 100.957 159.662 101.036C159.73 101.115 159.82 101.172 159.921 101.199C161.623 101.621 169.725 103.421 175.299 100.884C175.379 100.848 175.449 100.79 175.501 100.718C175.553 100.646 175.585 100.562 175.594 100.474C175.662 99.8412 175.42 98.5368 175.323 98.2831C175.123 97.7359 160.513 98.6939 160.513 98.6939Z" fill="#FBD56F"/>
<path opacity="0.1" d="M160.513 98.6939L159.775 98.2831C159.775 98.2831 159.429 99.7257 159.542 100.756C159.553 100.859 159.595 100.957 159.662 101.036C159.73 101.115 159.82 101.172 159.921 101.199C161.623 101.621 169.725 103.421 175.299 100.884C175.379 100.848 175.449 100.79 175.501 100.718C175.553 100.646 175.585 100.562 175.594 100.474C175.662 99.8412 175.42 98.5368 175.323 98.2831C175.123 97.7359 160.513 98.6939 160.513 98.6939Z" fill="black"/>
<path d="M167.553 100.037C171.849 100.037 175.331 99.2517 175.331 98.2824C175.331 97.3131 171.849 96.5273 167.553 96.5273C163.258 96.5273 159.775 97.3131 159.775 98.2824C159.775 99.2517 163.258 100.037 167.553 100.037Z" fill="#FBD56F"/>
<path d="M80.0585 44.2968C80.0585 40.2226 83.239 36.9132 87.1648 36.9132C87.5497 36.9136 87.9338 36.9459 88.3133 37.0097C87.5538 36.7228 86.7487 36.5759 85.9369 36.5762C82.013 36.5762 78.8325 39.9556 78.8325 44.1245C78.8325 47.256 80.628 49.9406 83.1841 51.0841C83.3071 50.9762 83.4603 50.8475 83.642 50.7055C82.5409 50.0395 81.6318 49.0987 81.0036 47.9752C80.3754 46.8517 80.0497 45.5842 80.0585 44.2968V44.2968Z" fill="#FBD56F"/>
<path opacity="0.1" d="M80.0585 44.2968C80.0585 40.2226 83.239 36.9132 87.1648 36.9132C87.5497 36.9136 87.9338 36.9459 88.3133 37.0097C87.5538 36.7228 86.7487 36.5759 85.9369 36.5762C82.013 36.5762 78.8325 39.9556 78.8325 44.1245C78.8325 47.256 80.628 49.9406 83.1841 51.0841C83.3071 50.9762 83.4603 50.8475 83.642 50.7055C82.5409 50.0395 81.6318 49.0987 81.0036 47.9752C80.3754 46.8517 80.0497 45.5842 80.0585 44.2968V44.2968Z" fill="black"/>
<path d="M93.043 44.1361C93.0425 44.9592 92.9148 45.7773 92.6646 46.5614C93.0959 46.4572 93.5462 46.372 94.0098 46.2736C94.1818 45.6288 94.269 44.9644 94.269 44.297C94.269 40.6279 91.6902 37.5874 88.313 37.0156C91.0696 38.0607 93.043 40.8513 93.043 44.1361Z" fill="#FBD56F"/>
<path d="M80.0588 44.2969C80.0498 45.5848 80.3756 46.8528 81.0042 47.9767C81.6327 49.1005 82.5425 50.0415 83.6441 50.7074C84.9817 49.6434 87.9313 47.6877 92.667 46.5556C92.9172 45.7715 93.0449 44.9534 93.0454 44.1303C93.0454 40.8455 91.072 38.0549 88.3154 37.0155C87.9359 36.9516 87.5518 36.9193 87.167 36.9189C83.2392 36.9246 80.0588 40.2283 80.0588 44.2969Z" fill="#FBD56F"/>
<path d="M207.392 128.78C206.31 128.742 206.271 128.321 204.88 127.596C204.093 127.187 202.901 125.998 202.012 125.042L201.804 124.817H202.182C202.182 124.817 201.834 121.763 202.144 121.03C202.454 120.298 202.222 115.991 202.222 115.991C202.222 115.991 202.411 112.706 202.067 111.943C201.722 111.18 202.182 106.293 202.182 106.293C202.182 106.293 202.492 103.391 202.56 97.4728C202.628 91.5546 199.155 91.3652 199.155 91.3652C199.155 91.3652 198.691 91.3293 197.987 91.2611L197.776 91.2403C198.231 90.2937 198.498 89.5704 198.498 89.5704C198.498 89.5704 197.917 84.0346 197.762 83.0804C197.607 82.1262 196.682 78.1864 196.682 78.1864C196.682 78.1864 196.025 76.5071 195.638 75.3238C195.25 74.1405 194.092 72.766 194.092 72.766C194.092 72.766 192.011 68.6425 191.424 68.0329C191.155 67.7508 190.777 67.393 190.45 67.0863L190.279 66.931C190.368 66.5011 190.415 66.0636 190.419 65.6247C190.419 65.6247 188.253 63.4853 188.098 62.9514C187.943 62.4175 185.896 60.4315 185.896 60.4315C185.896 60.4315 184.734 58.2941 183.421 58.2562C182.799 58.2203 182.176 58.2387 181.557 58.3111C181.828 57.3115 182.148 56.2645 182.433 55.3652C182.466 55.2649 182.498 55.1759 182.528 55.0718C183.579 54.3603 184.403 53.3622 184.904 52.1959C184.931 52.1334 184.955 52.071 184.98 52.0066H185.022C185.076 52.0054 185.131 52.0003 185.184 51.9914C185.618 51.9176 185.985 51.4235 185.784 51.0448C185.797 51.0667 185.816 51.0847 185.838 51.097C185.86 51.1093 185.885 51.1155 185.911 51.1149C186.055 51.1149 186.231 50.9009 186.265 50.7173C186.265 50.6851 186.274 50.6529 186.278 50.6207C186.282 50.5886 186.291 50.5412 186.297 50.5015C186.303 50.4617 186.297 50.4257 186.297 50.3879C186.297 50.35 186.297 50.3102 186.297 50.2724C186.297 50.2345 186.297 50.1985 186.297 50.1626C186.297 50.1266 186.297 50.0774 186.297 50.0357C186.297 49.9941 186.297 49.9695 186.297 49.9354C186.297 49.9013 186.297 49.8331 186.285 49.782C186.285 49.7612 186.285 49.7404 186.285 49.7196C186.263 49.511 186.221 49.3051 186.161 49.1043C185.949 48.3943 185.5 47.69 185.672 46.9706V46.9478C185.816 46.3799 186.301 45.9823 186.596 45.4825C186.624 45.4351 186.649 45.3859 186.673 45.3367C186.673 45.3272 186.683 45.3178 186.687 45.3102C186.706 45.2723 186.721 45.2345 186.736 45.1966L186.766 45.1228C186.779 45.0906 186.789 45.0565 186.8 45.0224C186.811 44.9883 186.821 44.9618 186.828 44.9296C186.836 44.8975 186.844 44.8691 186.851 44.8388C186.859 44.8085 186.868 44.7668 186.876 44.729C186.883 44.6911 186.876 44.6759 186.889 44.6494C186.902 44.6229 186.9 44.5661 186.904 44.5245C186.908 44.4828 186.904 44.4791 186.904 44.4563C186.904 44.4336 186.904 44.3636 186.904 44.3162V44.2594C186.904 44.2083 186.904 44.1553 186.904 44.1042C186.904 44.089 186.904 44.0739 186.904 44.0588C186.904 44.0038 186.904 43.9489 186.889 43.894C186.889 43.894 186.889 43.8789 186.889 43.8713C186.824 43.3914 186.632 42.9375 186.335 42.5555C185.996 42.152 185.569 41.8329 185.085 41.6236C184.602 41.4142 184.077 41.3204 183.552 41.3495C183.261 41.3826 182.969 41.3883 182.677 41.3666C182.191 41.2946 181.781 40.9879 181.395 40.6888L178.156 38.1916C177.794 37.8784 177.379 37.6322 176.932 37.4646C176.474 37.3245 175.925 37.3718 175.586 37.7069C174.979 38.3052 175.365 39.3351 175.123 40.1473C174.911 40.8516 174.232 41.3287 173.53 41.5654C172.828 41.802 172.075 41.855 171.352 42.0273C171.138 42.0616 170.937 42.1539 170.771 42.2943C170.585 42.5219 170.494 42.8131 170.518 43.1065C170.513 43.8259 170.686 44.5355 171.021 45.172C171.157 45.4295 171.322 45.6926 171.467 45.9577L171.503 46.0239L171.551 46.1148C171.575 46.1659 171.6 46.2152 171.623 46.2644L171.651 46.3288L171.694 46.4367C171.694 46.4594 171.712 46.4821 171.719 46.5029C171.727 46.5238 171.746 46.5881 171.759 46.6298C171.835 46.8755 171.842 47.1375 171.78 47.3871C171.668 47.7979 171.348 48.1141 171.064 48.434C170.835 48.6854 170.671 48.9898 170.588 49.3201C170.574 49.3977 170.574 49.4772 170.588 49.5548C170.588 49.5643 170.588 49.5738 170.588 49.5832C170.592 49.6005 170.597 49.6176 170.603 49.6344C170.607 49.6467 170.612 49.6587 170.618 49.6703C170.623 49.6839 170.63 49.6972 170.637 49.7101C170.651 49.7307 170.668 49.7498 170.686 49.7669L170.714 49.7877C170.73 49.7993 170.746 49.8095 170.764 49.818L170.796 49.8331L170.875 49.854H170.898C170.94 49.8569 170.981 49.8569 171.023 49.854H171.061C171.1 49.8514 171.139 49.8463 171.178 49.8388H171.221C171.285 49.8268 171.349 49.811 171.411 49.7915C171.628 49.7263 171.839 49.6427 172.043 49.5416C172.043 49.5643 172.043 49.5889 172.043 49.6116C172.043 49.6344 172.043 49.693 172.043 49.7328C172.053 50.4818 172.195 51.2231 172.461 51.9233C172.875 53.0142 173.57 53.9762 174.476 54.712C174.464 54.7764 174.453 54.8427 174.44 54.9108C174.251 55.8253 173.863 56.7435 173.622 56.6734C173.387 56.6202 173.147 56.5935 172.905 56.5939H172.695C172.477 56.569 172.256 56.569 172.037 56.5939C171.939 56.6012 171.841 56.5876 171.749 56.5542C171.125 56.3569 170.46 56.3198 169.818 56.4463C168.482 56.7208 166.448 57.2225 165.89 57.8226C165.038 58.739 163.809 59.6174 162.411 63.4342C162.411 63.4342 161.714 65.7629 161.173 66.0696C161.292 66.0073 161.415 65.9517 161.54 65.903C161.468 66.029 161.369 66.1376 161.251 66.2211C161.446 66.1211 161.649 66.0362 161.858 65.9674C161.436 68.4551 162.062 75.5699 162.062 75.5699C162.062 75.5699 161.559 76.7967 162.216 77.5237C162.607 77.9535 162.819 78.6256 162.929 79.1027L162.832 79.2504C162.484 79.7899 162.019 80.4942 161.714 80.8823C161.173 81.5696 161.326 83.7468 161.326 83.7468C161.326 83.7468 161.211 84.7768 160.825 85.1592C160.439 85.5416 160.515 86.954 160.515 86.954L159.525 90.6818C159.525 90.6818 158.596 91.5205 158.596 91.9029C158.596 92.2854 157.862 93.3531 157.862 93.3531C157.862 93.3531 156.74 95.1858 157.862 94.9189C158.272 94.8002 158.657 94.6077 158.997 94.3509V94.3793C158.997 94.4456 158.997 94.5137 158.997 94.5838C158.965 96.5792 159.187 99.3888 160.655 99.3888C162.925 99.3888 168.813 102.098 168.813 102.098C170.011 103.014 171.634 102.71 171.634 102.71C171.634 102.71 168.76 105.566 168.843 106.752C168.927 107.937 167.22 109.881 167.22 109.881L161.96 120.152C161.99 120.868 162.117 121.576 162.339 122.257L162.263 122.322C160.242 124.169 160.066 127.825 160.066 127.825L159.603 129.696L166.639 132.789C166.639 132.789 175.764 132.979 177.35 132.56C178.935 132.142 178.587 130.383 176.498 130.04C174.409 129.698 173.908 128.78 173.212 128.361C172.743 128.077 171.076 126.246 170.041 125.086C170.026 125.067 170.011 125.052 169.995 125.035L170.236 123.709C170.699 123.48 171.396 121.19 171.396 121.19C171.396 121.19 171.396 120.273 171.859 120.006C172.323 119.739 173.289 116.99 173.289 116.99C173.289 116.99 175.371 113.516 175.263 113.058C175.155 112.6 176.776 110.271 176.776 110.271C176.776 110.271 179.522 107.598 179.404 107.121C179.287 106.644 181.608 104.2 181.608 104.2C182.447 103.56 183.145 102.755 183.661 101.835L184.331 101.725C187.368 101.227 192.412 100.328 192.976 100.076C193.749 99.7334 193.594 101.261 193.286 102.558C192.977 103.855 192.745 110.08 193.097 110.888C193.449 111.697 193.286 112.99 193.286 112.99L192.822 119.976L193.131 121.466C193.131 121.466 192.086 122.305 192.512 122.801C192.938 123.297 192.552 125.436 192.552 125.436C192.588 125.423 192.631 125.41 192.679 125.396C192.643 125.48 192.607 125.567 192.574 125.656C191.975 127.36 192.319 130.169 192.319 130.169V132.384C192.319 132.384 203.03 132.574 205.387 132.574C207.744 132.574 210.995 131.428 211.188 130.512C211.381 129.596 208.475 128.819 207.392 128.78ZM176.932 89.0347L176.231 89.0933C176.463 89.059 176.696 89.0394 176.93 89.0347H176.932ZM181.209 59.7291C181.308 59.2861 181.427 58.8128 181.559 58.3243L181.209 59.7291ZM182.534 90.1043C181.865 90.3681 181.121 90.3681 180.452 90.1043C180.452 90.1043 180.49 87.433 180.801 86.3179C181.111 85.2027 181.535 83.1864 181.535 83.1864C181.535 83.1864 181.883 80.3996 182.231 79.1387C182.579 77.8778 183.934 70.8538 184.628 70.3957C185.322 69.9375 185.71 70.7402 185.71 70.7402C185.71 70.7402 185.814 70.7402 185.988 70.7194C186.023 70.7914 186.058 70.8709 186.1 70.9523C186.925 72.6202 189.345 76.047 189.345 76.047C190.063 76.4902 190.671 77.091 191.123 77.8039C191.782 78.9096 191.975 81.5071 191.975 81.5071C191.975 81.5071 193.445 87.272 194.139 88.0729C194.487 88.4743 194.328 88.7128 194.092 88.851C193.598 89.1233 193.179 89.5135 192.871 89.987C192.773 90.1441 192.667 90.3164 192.561 90.5019C192.294 90.4394 192.058 90.3751 191.859 90.3126C189.95 89.6708 183.574 89.6462 182.532 90.1138L182.534 90.1043Z" fill="url(#paint0_linear)"/>
<path d="M192.06 130.176V132.372C192.06 132.372 202.54 132.562 204.848 132.562C207.156 132.562 210.335 131.426 210.524 130.517C210.713 129.608 207.875 128.851 206.816 128.813C205.756 128.775 205.718 128.359 204.356 127.639C203.588 127.234 202.421 126.055 201.55 125.106C200.879 124.373 200.383 123.781 200.383 123.781C200.383 123.781 194.747 123.667 193.12 124.576C192.741 124.784 192.486 125.195 192.31 125.712C191.723 127.397 192.06 130.176 192.06 130.176Z" fill="#434175"/>
<path opacity="0.1" d="M192.31 125.706C193.493 125.295 200.412 125.138 201.551 125.111C200.879 124.378 200.383 123.786 200.383 123.786C200.383 123.786 194.747 123.672 193.12 124.581C192.745 124.782 192.486 125.192 192.31 125.706Z" fill="black"/>
<path d="M161.906 90.6819L162.517 91.0606L162.746 91.1988L163.636 91.7365C168.392 94.6029 181.362 102.377 182.073 102.314C182.262 102.299 182.818 102.214 183.587 102.089L184.243 101.981C187.213 101.487 192.15 100.595 192.702 100.345C193.459 100.004 193.308 101.519 193.005 102.806C192.702 104.094 192.475 110.266 192.816 111.061C193.156 111.856 193.005 113.143 193.005 113.143L192.551 120.073L192.853 121.549C192.853 121.549 191.832 122.382 192.248 122.875C192.664 123.367 192.286 125.487 192.286 125.487C193.497 125.033 201.706 124.882 201.706 124.882C201.706 124.882 201.365 121.852 201.668 121.133C201.971 120.413 201.744 116.135 201.744 116.135C201.744 116.135 201.933 112.878 201.593 112.121C201.252 111.364 201.706 106.519 201.706 106.519C201.706 106.519 202.009 103.641 202.084 97.774C202.16 91.9069 198.755 91.7157 198.755 91.7157C198.755 91.7157 198.3 91.6797 197.619 91.6134C196.27 91.4847 194.025 91.2348 192.522 90.9091C192.215 90.8464 191.911 90.7662 191.612 90.6687C189.758 90.0364 183.515 90.0117 182.495 90.4661C181.84 90.728 181.11 90.728 180.455 90.4661V90.4661L179.661 89.1787L172.072 89.8262L171.268 89.8944L163.796 90.5324L163.282 90.5759L161.906 90.6819Z" fill="#565387"/>
<path opacity="0.1" d="M192.325 96.4979C194.529 97.5733 196.633 93.7603 197.623 91.6096C196.274 91.4808 194.028 91.2309 192.526 90.9053C191.528 92.5638 190.212 95.4661 192.325 96.4979Z" fill="black"/>
<path d="M185.703 70.7371C185.75 70.9977 185.84 71.2485 185.97 71.4793C186.778 73.1321 189.146 76.5305 189.146 76.5305C189.851 76.9716 190.446 77.5672 190.887 78.2722C191.53 79.3703 191.719 81.9451 191.719 81.9451C191.719 81.9451 193.157 87.6608 193.838 88.456C194.179 88.8536 194.028 89.0902 193.791 89.2284C193.308 89.4974 192.898 89.881 192.597 90.3454C191.604 91.9433 190.02 95.1089 192.249 96.1956C195.276 97.6723 198.114 89.9327 198.114 89.9327C198.114 89.9327 197.547 84.4423 197.395 83.4957C197.244 82.5491 196.338 78.649 196.338 78.649C196.338 78.649 195.694 76.9829 195.316 75.8091C194.938 74.6353 193.802 73.2722 193.802 73.2722C193.802 73.2722 191.759 69.1847 191.192 68.5788C190.929 68.2967 190.56 67.9427 190.246 67.6436C189.867 67.2971 189.572 67.0264 189.572 67.0264C189.572 67.0264 185.665 69.8303 185.703 70.7371Z" fill="#EE8E9E"/>
<path d="M160.057 129.722L166.944 132.789C166.944 132.789 175.872 132.979 177.424 132.562C178.975 132.146 178.635 130.404 176.591 130.063C174.548 129.722 174.056 128.814 173.375 128.397C172.915 128.117 171.284 126.301 170.272 125.15C169.784 124.595 169.44 124.204 169.44 124.204C169.44 124.204 168.115 120.682 164.447 121.477C163.776 121.624 163.158 121.951 162.661 122.424C160.684 124.255 160.511 127.88 160.511 127.88L160.057 129.722Z" fill="#434175"/>
<path opacity="0.1" d="M162.745 91.1976L163.635 91.7353C168.391 94.6017 181.361 102.375 182.072 102.313C182.261 102.298 182.818 102.213 183.586 102.088L184.242 101.98L184.267 101.936C184.649 101.271 184.941 100.557 185.133 99.8138C185.93 96.7865 182.004 94.4691 182.004 94.4691L181.172 93.8217C180.226 92.2275 173.414 90.7205 173.414 90.7205L172.537 90.1298L172.069 89.8155L171.944 89.7322L170.879 89.0166L165.546 89.3953L163.96 90.4138L163.794 90.5217L163.205 90.9004L162.745 91.1976Z" fill="black"/>
<path opacity="0.1" d="M162.655 122.411C164.102 127.422 170.153 125.786 170.153 125.786L170.267 125.15C169.778 124.595 169.434 124.204 169.434 124.204C169.434 124.204 168.11 120.682 164.441 121.477C163.772 121.62 163.154 121.943 162.655 122.411V122.411Z" fill="black"/>
<path d="M161.073 99.6612C163.306 99.6612 169.056 102.35 169.056 102.35C170.229 103.258 171.818 102.955 171.818 102.955C171.818 102.955 169.018 105.795 169.093 106.969C169.169 108.143 167.506 110.074 167.506 110.074L162.36 120.258C162.738 127.488 170.153 125.483 170.153 125.483L170.456 123.779C170.91 123.552 171.591 121.28 171.591 121.28C171.591 121.28 171.591 120.371 172.045 120.106C172.499 119.841 173.445 117.115 173.445 117.115C173.445 117.115 175.488 113.669 175.375 113.215C175.261 112.761 176.851 110.453 176.851 110.453C176.851 110.453 179.537 107.802 179.424 107.329C179.31 106.856 181.581 104.432 181.581 104.432C182.402 103.795 183.085 102.997 183.588 102.086C183.974 101.42 184.269 100.704 184.464 99.9585C185.105 97.52 182.678 95.5472 181.707 94.8732C181.473 94.7085 181.329 94.6214 181.329 94.6214L180.496 93.9739C180.067 93.2488 178.415 92.5408 176.758 91.986C175.558 91.5866 174.348 91.2647 173.574 91.0716C173.048 90.9504 172.734 90.8709 172.734 90.8709L171.856 90.2802L171.547 90.0739L171.265 89.8845L170.191 89.167L167.818 89.3355L164.857 89.5456L163.274 90.5718L162.517 91.0602L159.56 92.9535C159.56 92.9535 159.482 93.6824 159.458 94.6574C159.458 94.7331 159.458 94.8089 159.458 94.8884C159.422 96.8763 159.634 99.6612 161.073 99.6612Z" fill="#565387"/>
<path d="M172.461 57.2582L173.255 60.0981C173.255 60.0981 174.656 64.9827 174.807 65.3235C174.958 65.6642 178.629 69.1099 178.78 69.1857C178.931 69.2614 180.929 70.3955 180.929 70.3955C180.929 70.3955 181.088 64.1478 180.929 62.3321C180.916 61.9327 180.949 61.5331 181.028 61.1413C181.268 59.7176 181.879 57.6293 182.386 56.0201C182.81 54.674 183.16 53.663 183.16 53.663C183.16 53.663 174.307 53.2843 174.61 54.1552C174.724 54.4846 174.688 55.0337 174.576 55.5865C174.387 56.4934 174.008 57.4059 173.778 57.334C173.547 57.2824 173.312 57.2564 173.076 57.2563C172.758 57.2469 172.461 57.2582 172.461 57.2582Z" fill="#EE8E9E"/>
<path opacity="0.1" d="M174.584 55.5865C175.666 56.4901 177.01 57.0204 178.417 57.0985C179.824 57.1766 181.219 56.7984 182.394 56.0201C182.818 54.674 183.168 53.663 183.168 53.663C183.168 53.663 174.315 53.2843 174.618 54.1552C174.732 54.4846 174.696 55.0337 174.584 55.5865Z" fill="black"/>
<path d="M185.326 50.332C185.327 51.0266 185.216 51.7169 184.999 52.3767C184.945 52.547 184.881 52.7144 184.81 52.8784C184.3 54.0862 183.44 55.1132 182.341 55.8266C181.242 56.5399 179.954 56.9067 178.644 56.8796C177.334 56.8525 176.062 56.4327 174.993 55.6744C173.924 54.9162 173.108 53.8545 172.648 52.6266C172.388 51.9316 172.25 51.197 172.24 50.455C172.24 50.4153 172.24 50.3736 172.24 50.3339C172.225 49.4644 172.383 48.6006 172.706 47.7931C173.028 46.9855 173.508 46.2502 174.117 45.63C174.726 45.0099 175.453 44.5174 176.254 44.1812C177.056 43.845 177.916 43.6719 178.785 43.6719C179.654 43.6719 180.514 43.845 181.316 44.1812C182.117 44.5174 182.844 45.0099 183.453 45.63C184.062 46.2502 184.542 46.9855 184.864 47.7931C185.187 48.6006 185.345 49.4644 185.33 50.3339L185.326 50.332Z" fill="#EE8E9E"/>
<path opacity="0.1" d="M172.461 57.259L173.255 60.0988C173.255 60.0988 174.656 64.9834 174.807 65.3242C174.958 65.665 178.629 69.1107 178.78 69.1864C178.931 69.2621 180.929 70.3962 180.929 70.3962C180.929 70.3962 181.088 64.1485 180.929 62.3328C180.916 61.9334 180.949 61.5338 181.028 61.142L180.513 63.2416L180.551 67.4446L180.854 67.6718L180.173 68.6941V67.9368C180.173 67.9368 177.751 65.5892 177.372 64.6047C176.994 63.6203 175.632 61.8368 175.632 61.8368C175.632 61.8368 174.08 59.2279 174.043 58.7735C174.014 58.4195 173.361 57.5997 173.076 57.259C172.758 57.2476 172.461 57.259 172.461 57.259Z" fill="black"/>
<path opacity="0.1" d="M185.703 70.7362C185.75 70.9967 185.84 71.2476 185.97 71.4784C186.798 71.3932 189.616 70.8668 190.236 67.6445C189.858 67.2981 189.563 67.0273 189.563 67.0273C189.563 67.0273 185.665 69.8293 185.703 70.7362Z" fill="black"/>
<path opacity="0.1" d="M159.452 94.8979C160.208 94.3564 160.942 93.6199 161.376 93.4154C162.019 93.1125 163.003 92.128 163.003 92.128C163.003 92.128 163.253 91.9576 163.635 91.7342C164.337 91.3215 165.489 90.7251 166.371 90.6513C167.159 90.585 169.776 90.4165 171.857 90.2878L174.551 90.1212C174.551 90.1212 177.011 89.2503 178.071 89.8183C178.829 90.1987 179.629 90.4909 180.454 90.6892C180.454 90.6892 180.454 90.6059 180.454 90.4639L179.66 89.1765L171.267 89.8921L170.19 89.167L164.857 89.5456L163.273 90.5718L161.907 90.6892L162.518 91.0678L159.561 92.9611C159.561 92.9611 159.469 93.8073 159.452 94.8979Z" fill="black"/>
<path d="M158.355 95.2255C158.756 95.1056 159.131 94.9131 159.463 94.6575C160.22 94.118 160.948 93.3815 161.382 93.1789C162.025 92.876 163.009 91.8915 163.009 91.8915C163.009 91.8915 165.014 90.5284 166.377 90.4148C166.755 90.3845 167.523 90.3296 168.458 90.269C169.392 90.2084 170.539 90.1346 171.545 90.0797L173.15 89.9793L174.548 89.8923C174.548 89.8923 177.008 89.0214 178.067 89.5893C178.826 89.9697 179.626 90.2619 180.451 90.4602C180.451 90.4602 180.489 87.8097 180.792 86.7116C181.094 85.6135 181.511 83.6086 181.511 83.6086C181.511 83.6086 181.851 80.8444 182.192 79.5949C182.532 78.3454 183.855 71.3782 184.536 70.9239C185.217 70.4695 185.595 71.2646 185.595 71.2646C185.595 71.2646 190.136 71.1889 190.212 66.1926C190.212 66.1926 188.093 64.0722 187.941 63.5421C187.79 63.012 185.785 61.043 185.785 61.043C185.785 61.043 184.649 58.9226 183.363 58.8847C182.755 58.8497 182.145 58.8687 181.541 58.9415L180.451 63.3906L180.489 67.5936L180.792 67.8208L180.111 68.8432V68.0859C180.111 68.0859 177.689 65.7383 177.31 64.7538C176.932 63.7693 175.57 61.9859 175.57 61.9859C175.57 61.9859 174.018 59.377 173.98 58.9226C173.943 58.4682 172.883 57.2509 172.883 57.2509C172.669 57.226 172.454 57.226 172.24 57.2509C172.144 57.258 172.048 57.2445 171.958 57.2111C171.347 57.0151 170.695 56.9786 170.066 57.1051C168.759 57.3758 166.768 57.8737 166.223 58.4682C165.391 59.377 164.18 60.2479 162.818 64.0343L170.157 66.6849L169.517 67.8814L163.677 78.991C163.677 78.991 163.487 79.3071 163.221 79.7199C162.88 80.2556 162.424 80.9543 162.125 81.3386C161.596 82.0202 161.747 84.1785 161.747 84.1785C161.747 84.1785 161.633 85.2008 161.255 85.5794C160.877 85.9581 160.952 87.3591 160.952 87.3591L159.968 91.032C159.968 91.032 159.06 91.865 159.06 92.2437C159.06 92.6223 158.341 93.6825 158.341 93.6825C158.341 93.6825 157.252 95.4981 158.355 95.2255Z" fill="#434175"/>
<path opacity="0.1" d="M197.091 97.959C197.091 97.959 194.709 98.7523 194.064 99.8882C193.419 101.024 197.091 97.959 197.091 97.959Z" fill="black"/>
<path opacity="0.1" d="M195.882 95.46C195.806 95.5736 192.616 98.775 192.817 99.5475C193.017 100.32 195.882 95.46 195.882 95.46Z" fill="black"/>
<path opacity="0.1" d="M178.364 97.7314C178.364 97.7314 174.815 99.4089 174.505 100.147C174.194 100.886 178.364 97.7314 178.364 97.7314Z" fill="black"/>
<path opacity="0.1" d="M178.137 99.8887C178.137 99.8887 174.921 101.252 174.49 101.593C174.058 101.933 178.137 99.8887 178.137 99.8887Z" fill="black"/>
<path opacity="0.1" d="M176.662 102.799C176.662 102.799 175.241 103.859 174.455 103.026C173.67 102.193 176.662 102.799 176.662 102.799Z" fill="black"/>
<path opacity="0.1" d="M182.004 75.167C181.928 75.2806 177.199 83.8002 175.95 84.4439C174.701 85.0876 182.004 75.167 182.004 75.167Z" fill="black"/>
<path opacity="0.1" d="M181.77 78.3848C181.77 78.5741 177.153 88.4549 176.397 88.5685C175.64 88.6821 181.77 78.3848 181.77 78.3848Z" fill="black"/>
<path opacity="0.1" d="M164.219 84.7441C164.219 84.7441 161.99 89.5094 161.116 89.7802C160.242 90.0509 164.219 84.7441 164.219 84.7441Z" fill="black"/>
<path opacity="0.1" d="M163.841 82.627C163.841 82.627 163.073 84.2911 162.606 84.2911C162.138 84.2911 163.841 82.627 163.841 82.627Z" fill="black"/>
<path opacity="0.1" d="M185.326 50.3329C185.327 51.0275 185.216 51.7178 184.999 52.3776C184.945 52.5479 184.881 52.7153 184.81 52.8793C184.475 52.8277 184.16 52.6886 183.896 52.476C183.615 52.2856 183.381 52.0346 183.209 51.7415C183.08 51.4292 182.968 51.11 182.874 50.7854C182.723 50.419 182.477 50.0997 182.162 49.8603C181.846 49.621 181.472 49.4704 181.079 49.4241C181.297 49.8028 180.95 50.3045 180.525 50.3708C180.099 50.437 179.685 50.1814 179.389 49.8653C179.094 49.5491 178.884 49.1648 178.593 48.8486C178.302 48.5324 177.885 48.2806 177.458 48.3431C177.079 48.3999 176.79 48.6877 176.474 48.9016C176.158 49.1155 175.717 49.2594 175.414 49.0303C175.244 48.9035 175.161 48.6877 174.998 48.5494C174.58 48.1992 173.929 48.5608 173.621 49.0133C173.146 49.7138 172.864 50.1379 172.24 50.4541C172.24 50.4143 172.24 50.3726 172.24 50.3329C172.225 49.4634 172.383 48.5997 172.706 47.7921C173.028 46.9845 173.508 46.2492 174.117 45.6291C174.726 45.009 175.453 44.5164 176.254 44.1802C177.056 43.844 177.916 43.6709 178.785 43.6709C179.654 43.6709 180.514 43.844 181.316 44.1802C182.117 44.5164 182.844 45.009 183.453 45.6291C184.062 46.2492 184.542 46.9845 184.864 47.7921C185.187 48.5997 185.345 49.4634 185.33 50.3329H185.326Z" fill="black"/>
<path d="M173.621 48.824C173.929 48.3696 174.58 48.008 174.998 48.3601C175.161 48.4965 175.244 48.7123 175.414 48.841C175.717 49.0701 176.16 48.9262 176.474 48.7123C176.788 48.4984 177.081 48.2106 177.458 48.1538C177.883 48.0875 178.298 48.3431 178.593 48.6593C178.888 48.9754 179.096 49.3598 179.39 49.6759C179.683 49.9921 180.097 50.2439 180.525 50.1795C180.952 50.1152 181.297 49.6116 181.079 49.2329C181.472 49.2792 181.846 49.4297 182.161 49.6691C182.477 49.9084 182.722 50.2278 182.873 50.5942C182.968 50.9185 183.079 51.2376 183.208 51.5503C183.38 51.8429 183.615 52.0933 183.896 52.2829C184.242 52.5385 184.664 52.7525 185.088 52.6786C185.512 52.6048 185.871 52.1107 185.675 51.732C185.809 51.9384 186.1 51.6506 186.144 51.4083C186.24 50.8761 186.21 50.3289 186.057 49.8104C185.849 49.1061 185.41 48.4094 185.578 47.6937C185.713 47.1257 186.195 46.7225 186.488 46.2208C187.009 45.331 186.867 44.1382 186.239 43.3203C185.91 42.9213 185.492 42.6053 185.019 42.3978C184.545 42.1902 184.03 42.097 183.514 42.1257C183.23 42.1572 182.944 42.1623 182.659 42.1408C182.184 42.0708 181.781 41.7622 181.403 41.4687L178.23 38.9962C177.877 38.6847 177.472 38.4396 177.032 38.273C176.586 38.1347 176.048 38.1821 175.708 38.5134C175.114 39.1079 175.49 40.1302 175.252 40.9348C175.046 41.6316 174.381 42.1049 173.695 42.3396C173.008 42.5744 172.272 42.6274 171.564 42.7978C171.354 42.8327 171.158 42.9243 170.997 43.0629C170.814 43.2899 170.725 43.5787 170.749 43.8694C170.744 44.5815 170.913 45.284 171.241 45.916C171.608 46.6221 172.187 47.3473 171.984 48.1178C171.875 48.5249 171.56 48.8372 171.284 49.1553C170.686 49.8444 170.484 50.8592 171.612 50.5071C172.703 50.1663 173.008 49.7252 173.621 48.824Z" fill="#434175"/>
<g opacity="0.1">
<path opacity="0.1" d="M186.143 50.6683C186.097 50.9106 185.808 51.1984 185.671 50.992C185.861 51.3707 185.509 51.861 185.085 51.9387C184.661 52.0163 184.241 51.7967 183.893 51.543C183.612 51.3525 183.377 51.1015 183.206 50.8084C183.047 50.5112 182.996 50.1666 182.871 49.8523C182.72 49.4862 182.474 49.167 182.158 48.9277C181.843 48.6885 181.469 48.5377 181.076 48.4911C181.295 48.8697 180.947 49.3733 180.521 49.4377C180.096 49.5021 179.681 49.2484 179.386 48.9322C179.091 48.616 178.881 48.2336 178.59 47.9155C178.298 47.5975 177.882 47.3475 177.455 47.41C177.076 47.4687 176.787 47.7546 176.471 47.9685C176.155 48.1825 175.714 48.3282 175.411 48.0992C175.241 47.9704 175.16 47.7546 174.997 47.6183C174.577 47.2661 173.926 47.6277 173.618 48.0802C173.007 48.9814 172.702 49.4263 171.616 49.769C171.26 49.8807 171.037 49.8561 170.916 49.7482C170.679 50.2953 170.787 50.7762 171.616 50.5149C172.702 50.1723 173.007 49.7292 173.618 48.8281C173.926 48.3737 174.577 48.0121 174.997 48.3642C175.16 48.5005 175.241 48.7164 175.411 48.8451C175.716 49.0742 176.157 48.9303 176.471 48.7164C176.785 48.5024 177.078 48.2147 177.455 48.1579C177.88 48.0916 178.295 48.3472 178.59 48.6633C178.885 48.9795 179.093 49.3638 179.386 49.68C179.68 49.9962 180.094 50.248 180.521 50.1836C180.949 50.1193 181.295 49.6157 181.076 49.237C181.469 49.2829 181.843 49.4334 182.159 49.6727C182.475 49.9121 182.721 50.2317 182.871 50.5982C182.965 50.9228 183.077 51.242 183.206 51.5543C183.378 51.8468 183.612 52.0971 183.893 52.287C184.241 52.5426 184.661 52.7565 185.085 52.6827C185.509 52.6089 185.868 52.1147 185.671 51.7361C185.808 51.9425 186.097 51.6547 186.143 51.4123C186.201 51.0856 186.213 50.7522 186.177 50.4222C186.17 50.5042 186.159 50.5863 186.143 50.6683Z" fill="black"/>
<path opacity="0.1" d="M171.977 47.4043C171.977 47.3929 171.977 47.3853 171.987 47.374C172.193 46.6053 171.608 45.8802 171.243 45.174C170.986 44.6757 170.826 44.1326 170.774 43.5742C170.76 43.6733 170.752 43.7733 170.751 43.8734C170.747 44.5853 170.916 45.2877 171.243 45.92C171.5 46.4027 171.85 46.895 171.977 47.4043Z" fill="black"/>
<path opacity="0.1" d="M186.485 45.4809C186.191 45.9826 185.709 46.3877 185.575 46.9538C185.521 47.1925 185.521 47.4402 185.575 47.6789C185.715 47.1242 186.188 46.7228 186.477 46.2268C186.752 45.7425 186.855 45.1792 186.768 44.6289C186.731 44.9288 186.635 45.2184 186.485 45.4809V45.4809Z" fill="black"/>
</g>
<path opacity="0.1" d="M163.228 79.7202C163.278 79.9294 163.316 80.1412 163.343 80.3545C163.343 80.3545 166.333 87.3595 166.711 87.7741C166.826 87.9029 167.265 88.5314 167.818 89.3436L168.452 90.2789C169.587 91.9828 170.872 93.9082 170.872 93.9082L173.679 96.3619C173.679 96.3619 179.77 96.8484 181.705 94.8719C181.47 94.7072 181.327 94.6201 181.327 94.6201L180.494 93.9726C180.065 93.2475 178.413 92.5394 176.756 91.9847C175.223 91.996 173.969 92.121 173.969 92.121L173.571 91.0702L173.155 89.9741L171.03 84.4041C171.03 84.4041 169.664 77.3632 169.21 77.0205C168.756 76.6778 168.872 75.6195 168.872 75.6195C168.872 75.6195 169.702 72.6281 169.4 72.2116C169.097 71.7951 169.891 68.7299 169.891 68.7299C169.814 68.43 169.691 68.1435 169.528 67.8799L163.688 78.9894C163.688 78.9894 163.489 79.3075 163.228 79.7202Z" fill="black"/>
<path d="M169.964 68.5036C169.964 68.5036 169.169 71.5688 169.472 71.9853C169.774 72.4018 168.942 75.3931 168.942 75.3931C168.942 75.3931 168.83 76.4533 169.282 76.7941C169.735 77.1349 171.103 84.1778 171.103 84.1778L174.033 91.9022C174.033 91.9022 183.206 90.9934 182.261 93.8712C181.317 96.7489 173.747 96.1431 173.747 96.1431L170.947 93.6818C170.947 93.6818 167.163 87.9643 166.785 87.5477C166.407 87.1312 163.417 80.1281 163.417 80.1281C163.417 80.1281 163.266 78.7271 162.623 78.0077C161.979 77.2883 162.471 76.0709 162.471 76.0709C162.471 76.0709 161.677 66.9152 162.509 65.8171C163.342 64.719 169.093 65.2094 169.964 68.5036Z" fill="#EE8E9E"/>
<path opacity="0.1" d="M165.273 62.7481L162.889 64.187C162.889 64.187 162.208 66.4967 161.679 66.7996C161.679 66.7996 166.446 64.1491 170.039 70.2435C170.039 70.2435 169.926 69.4502 170.418 69.0715C170.91 68.6929 170.796 67.0647 170.796 67.0647C170.927 66.8074 171.041 66.5418 171.137 66.2695C171.477 65.4365 169.706 60.6655 165.273 62.7481Z" fill="black"/>
<path d="M165.198 62.5967L162.814 64.0356C162.814 64.0356 162.133 66.3454 161.603 66.6483C161.603 66.6483 166.371 63.9977 169.964 70.0921C169.964 70.0921 169.85 69.2988 170.342 68.9202C170.834 68.5415 170.721 66.9133 170.721 66.9133C170.851 66.6561 170.965 66.3904 171.061 66.1182C171.409 65.2852 169.623 60.5142 165.198 62.5967Z" fill="#434175"/>
<path d="M143.953 128.9C147.877 128.9 151.059 125.521 151.059 121.352C151.059 117.183 147.877 113.804 143.953 113.804C140.028 113.804 136.846 117.183 136.846 121.352C136.846 125.521 140.028 128.9 143.953 128.9Z" fill="#FBD56F"/>
<path opacity="0.1" d="M143.953 128.9C147.877 128.9 151.059 125.521 151.059 121.352C151.059 117.183 147.877 113.804 143.953 113.804C140.028 113.804 136.846 117.183 136.846 121.352C136.846 125.521 140.028 128.9 143.953 128.9Z" fill="black"/>
<path d="M145.178 128.9C149.103 128.9 152.285 125.596 152.285 121.52C152.285 117.445 149.103 114.141 145.178 114.141C141.254 114.141 138.072 117.445 138.072 121.52C138.072 125.596 141.254 128.9 145.178 128.9Z" fill="#FBD56F"/>
<path d="M25.8874 127.764C30.7348 127.764 34.6643 127.099 34.6643 126.279C34.6643 125.459 30.7348 124.795 25.8874 124.795C21.04 124.795 17.1105 125.459 17.1105 126.279C17.1105 127.099 21.04 127.764 25.8874 127.764Z" fill="#82DB35"/>
<path d="M29.5159 123.849C29.8943 123.499 30.2443 123.092 30.3541 122.584C30.4638 122.077 30.2481 121.482 29.7694 121.299C29.2321 121.092 28.657 121.465 28.2218 121.842C27.7866 122.219 27.289 122.647 26.7196 122.567C27.0125 122.302 27.2317 121.965 27.3557 121.589C27.4797 121.213 27.5043 120.812 27.4272 120.424C27.4047 120.264 27.3393 120.114 27.238 119.989C26.9409 119.67 26.3998 119.799 26.0422 120.059C24.907 120.858 24.5911 122.401 24.5854 123.788C24.47 123.287 24.5665 122.766 24.5646 122.251C24.5627 121.736 24.4208 121.168 23.997 120.892C23.7268 120.747 23.4235 120.676 23.1172 120.685C22.6064 120.666 22.0388 120.717 21.6907 121.09C21.2574 121.556 21.369 122.334 21.7455 122.845C22.122 123.357 22.6915 123.675 23.2232 124.029C23.6459 124.281 24.0066 124.625 24.2789 125.036C24.3113 125.096 24.3373 125.16 24.3565 125.225H27.5558C28.2682 124.857 28.9276 124.394 29.5159 123.849V123.849Z" fill="#82DB35"/>
<path d="M83.035 41.4897L90.2094 37.8926L92.8582 40.3216L93.4883 42.0577L94.1505 44.9752L93.5677 46.2531L88.9797 47.0899C88.9797 47.0899 86.5352 46.948 86.1568 47.1373C85.7784 47.3266 84.2346 47.6541 84.2346 47.6541L83.035 44.6988V41.4897Z" fill="#FBD56F"/>
<path opacity="0.4" d="M29.7187 44.6992C32.3391 44.6992 34.4633 42.5749 34.4633 39.9546C34.4633 37.3342 32.3391 35.21 29.7187 35.21C27.0984 35.21 24.9741 37.3342 24.9741 39.9546C24.9741 42.5749 27.0984 44.6992 29.7187 44.6992Z" fill="#83DB35"/>
<path opacity="0.4" d="M202.924 70.9804C205.544 70.9804 207.669 68.8562 207.669 66.2358C207.669 63.6154 205.544 61.4912 202.924 61.4912C200.304 61.4912 198.179 63.6154 198.179 66.2358C198.179 68.8562 200.304 70.9804 202.924 70.9804Z" fill="#83DB35"/>
<path opacity="0.4" d="M209.695 49.4433C212.316 49.4433 214.44 47.3191 214.44 44.6987C214.44 42.0783 212.316 39.9541 209.695 39.9541C207.075 39.9541 204.951 42.0783 204.951 44.6987C204.951 47.3191 207.075 49.4433 209.695 49.4433Z" fill="#83DB35"/>
<defs>
<linearGradient id="paint0_linear" x1="184.278" y1="132.833" x2="184.278" y2="37.4059" gradientUnits="userSpaceOnUse">
<stop stop-color="#808080" stop-opacity="0.25"/>
<stop offset="0.54" stop-color="#808080" stop-opacity="0.12"/>
<stop offset="1" stop-color="#808080" stop-opacity="0.1"/>
</linearGradient>
</defs>
</svg>
