<svg width="241" height="141" viewBox="0 0 241 141" fill="none" xmlns="http://www.w3.org/2000/svg">
<path opacity="0.4" d="M230.344 104.55C224.723 114.522 213.309 121.19 201.48 125.588C185.556 131.51 168.019 133.859 150.723 132.865C147.692 132.692 144.67 132.415 141.658 132.034C131.195 130.721 120.994 128.166 111.347 124.443C108.562 123.365 105.835 122.188 103.163 120.912C98.7014 118.785 94.4262 116.381 90.372 113.718C89.3522 113.048 88.3466 112.362 87.3551 111.658C86.6675 111.171 85.9862 110.672 85.2944 110.188C83.8346 109.167 82.3325 108.198 80.6569 107.472C80.1513 107.253 79.633 107.056 79.104 106.882C73.7979 105.147 67.6794 105.802 62.1554 107.155C57.9537 108.185 53.8578 109.595 49.6603 110.601C47.7932 111.062 45.8908 111.41 43.967 111.642C39.672 112.109 35.3103 111.78 31.1757 110.676L30.8224 110.581C30.23 110.421 29.6426 110.246 29.0601 110.055L28.7068 109.939C28.1426 109.752 27.5904 109.551 27.0502 109.337L26.6969 109.198C26.1327 108.973 25.5805 108.734 25.0403 108.483C24.8457 108.396 24.6532 108.301 24.4628 108.212C21.3893 106.736 18.5955 104.866 16.1778 102.665C16.108 102.605 16.0424 102.543 15.9663 102.483C15.6299 102.17 15.2998 101.852 14.9804 101.526C14.8619 101.406 14.7434 101.286 14.627 101.162C14.2476 100.764 13.8816 100.357 13.529 99.9413C13.4761 99.8813 13.4253 99.8194 13.3746 99.7594C11.9299 98.0407 10.7322 96.1781 9.80756 94.2121C9.77794 94.152 9.75043 94.0902 9.72505 94.0301C9.44296 93.4055 9.18555 92.7705 8.95283 92.1252C8.85762 91.8559 8.76665 91.5794 8.68626 91.3101C8.65875 91.2301 8.63336 91.1482 8.61009 91.0681C7.44225 87.1146 7.30896 83.0046 7.30896 78.9182C7.30896 78.4415 7.30896 77.9655 7.30896 77.49C7.34281 70.8801 7.46129 64.1575 8.59528 57.6386C8.59528 57.5931 8.61009 57.5476 8.61855 57.5039C8.9981 55.3094 9.51436 53.1339 10.1651 50.9869C10.8462 48.7341 11.7166 46.5268 12.7695 44.3825C15.3781 39.1062 19.1715 34.3048 23.3838 29.8546C33.9938 18.6562 47.9085 9.2554 64.1949 5.73669C81.7443 1.94689 101.249 5.57841 115.405 15.2703C119.72 18.225 123.598 21.7237 128.445 23.9889C132.677 25.9611 137.63 26.778 142.161 25.2261C145.906 23.9434 148.343 23.3066 152.549 23.5013C161.256 23.9249 169.84 25.471 178.013 28.088C178.343 28.1917 178.673 28.299 179.001 28.4064C200.308 35.4165 218.623 49.344 228.144 67.2414C228.396 67.7144 228.641 68.1911 228.878 68.6714C234.554 80.0735 236.607 93.437 230.344 104.55Z" fill="#82DB35"/>
<path opacity="0.1" d="M39.2951 127.134C47.5929 127.134 54.3195 126.054 54.3195 124.721C54.3195 123.389 47.5929 122.309 39.2951 122.309C30.9974 122.309 24.2708 123.389 24.2708 124.721C24.2708 126.054 30.9974 127.134 39.2951 127.134Z" fill="#82DB35"/>
<path opacity="0.1" d="M174.079 140.223C188.791 140.223 200.718 139.065 200.718 137.637C200.718 136.209 188.791 135.051 174.079 135.051C159.366 135.051 147.439 136.209 147.439 137.637C147.439 139.065 159.366 140.223 174.079 140.223Z" fill="#82DB35"/>
<path d="M198.198 19.0508H40.7128C39.5389 19.0508 38.5872 20.0022 38.5872 21.1759V108.52C38.5872 109.693 39.5389 110.645 40.7128 110.645H198.198C199.372 110.645 200.324 109.693 200.324 108.52V21.1759C200.324 20.0022 199.372 19.0508 198.198 19.0508Z" fill="url(#paint0_linear)"/>
<path d="M197.96 20.3398H40.97C39.7961 20.3398 38.8444 21.2913 38.8444 22.465V108.216C38.8444 109.39 39.7961 110.341 40.97 110.341H197.96C199.134 110.341 200.086 109.39 200.086 108.216V22.465C200.086 21.2913 199.134 20.3398 197.96 20.3398Z" fill="white"/>
<path d="M197.96 20.3398H40.97C39.7961 20.3398 38.8444 21.2913 38.8444 22.465V108.216C38.8444 109.39 39.7961 110.341 40.97 110.341H197.96C199.134 110.341 200.086 109.39 200.086 108.216V22.465C200.086 21.2913 199.134 20.3398 197.96 20.3398Z" fill="white"/>
<path opacity="0.04" d="M197.96 20.3398H40.97C39.7961 20.3398 38.8444 21.2913 38.8444 22.465V108.216C38.8444 109.39 39.7961 110.341 40.97 110.341H197.96C199.134 110.341 200.086 109.39 200.086 108.216V22.465C200.086 21.2913 199.134 20.3398 197.96 20.3398Z" fill="white"/>
<path d="M199.267 19.3057H39.663C39.4459 19.3057 39.2376 19.3919 39.0841 19.5454C38.9306 19.6988 38.8444 19.907 38.8444 20.1241V23.5831H200.079V20.1241C200.079 19.9082 199.994 19.701 199.842 19.5478C199.69 19.3945 199.483 19.3075 199.267 19.3057Z" fill="#5A5773"/>
<path d="M42.0641 22.5508C42.6751 22.5508 43.1704 22.0556 43.1704 21.4448C43.1704 20.834 42.6751 20.3389 42.0641 20.3389C41.4532 20.3389 40.9579 20.834 40.9579 21.4448C40.9579 22.0556 41.4532 22.5508 42.0641 22.5508Z" fill="white"/>
<path d="M45.042 22.5508C45.653 22.5508 46.1483 22.0556 46.1483 21.4448C46.1483 20.834 45.653 20.3389 45.042 20.3389C44.4311 20.3389 43.9358 20.834 43.9358 21.4448C43.9358 22.0556 44.4311 22.5508 45.042 22.5508Z" fill="white"/>
<path d="M48.0204 22.5508C48.6314 22.5508 49.1267 22.0556 49.1267 21.4448C49.1267 20.834 48.6314 20.3389 48.0204 20.3389C47.4095 20.3389 46.9142 20.834 46.9142 21.4448C46.9142 22.0556 47.4095 22.5508 48.0204 22.5508Z" fill="white"/>
<path opacity="0.2" d="M95.3952 31.6289H52.1244V35.3006H95.3952V31.6289Z" fill="#82DB35"/>
<path opacity="0.1" d="M186.806 46.3506H52.1244V102.832H186.806V46.3506Z" fill="#5A5773"/>
<path opacity="0.1" d="M130.982 50.0331H128.676V45.5549C128.676 40.5016 124.646 36.3007 119.591 36.2241C118.372 36.2113 117.163 36.4398 116.033 36.8964C114.903 37.353 113.874 38.0286 113.006 38.8844C112.139 39.7402 111.449 40.7593 110.977 41.8828C110.505 43.0063 110.26 44.2121 110.256 45.4307V50.0331H107.955C106.938 50.0362 105.964 50.4415 105.245 51.1603C104.526 51.8792 104.121 52.8533 104.118 53.8699V72.283C104.121 73.2996 104.526 74.2736 105.245 74.9925C105.964 75.7113 106.938 76.1166 107.955 76.1197H130.982C131.999 76.1166 132.973 75.7113 133.692 74.9924C134.41 74.2735 134.815 73.2994 134.818 72.283V53.8699C134.815 52.8534 134.41 51.8793 133.692 51.1604C132.973 50.4415 131.999 50.0363 130.982 50.0331ZM120.813 62.0028V68.5976C120.815 68.9468 120.685 69.2838 120.448 69.5403C120.211 69.7969 119.885 69.9537 119.537 69.9792C119.355 69.9877 119.173 69.9593 119.003 69.8955C118.832 69.8318 118.676 69.7342 118.545 69.6086C118.413 69.4829 118.308 69.3318 118.236 69.1645C118.165 68.9972 118.128 68.8171 118.128 68.635V61.9994C117.505 61.6958 117.004 61.1903 116.705 60.5653C116.407 59.9402 116.33 59.2326 116.485 58.5578C116.641 57.883 117.021 57.281 117.563 56.8499C118.105 56.4188 118.778 56.1841 119.47 56.1841C120.163 56.1841 120.835 56.4188 121.377 56.8499C121.92 57.281 122.3 57.883 122.455 58.5578C122.611 59.2326 122.534 59.9402 122.235 60.5653C121.937 61.1903 121.436 61.6958 120.813 61.9994V62.0028ZM125.994 50.0331H112.942V45.4307C112.942 43.701 113.629 42.0422 114.853 40.8192C116.076 39.5961 117.735 38.909 119.465 38.909C121.195 38.909 122.855 39.5961 124.078 40.8192C125.301 42.0422 125.989 43.701 125.989 45.4307L125.994 50.0331Z" fill="black"/>
<path d="M130.982 49.6942H128.676V45.216C128.676 40.1627 124.646 35.9618 119.591 35.8853C118.372 35.8725 117.163 36.1009 116.033 36.5575C114.903 37.0141 113.874 37.6898 113.006 38.5456C112.139 39.4014 111.449 40.4204 110.977 41.5439C110.505 42.6674 110.26 43.8732 110.256 45.0918V49.6942H107.955C106.938 49.6974 105.964 50.1026 105.245 50.8215C104.526 51.5403 104.121 52.5144 104.118 53.531V71.9441C104.121 72.9607 104.526 73.9348 105.245 74.6536C105.964 75.3725 106.938 75.7777 107.955 75.7808H130.982C131.999 75.7777 132.973 75.3724 133.692 74.6535C134.41 73.9346 134.815 72.9605 134.818 71.9441V53.531C134.815 52.5146 134.41 51.5405 133.692 50.8216C132.973 50.1027 131.999 49.6974 130.982 49.6942ZM120.813 61.6639V68.2587C120.815 68.6079 120.685 68.9449 120.448 69.2015C120.211 69.458 119.885 69.6149 119.537 69.6403C119.355 69.6488 119.173 69.6204 119.003 69.5567C118.832 69.493 118.676 69.3953 118.545 69.2697C118.413 69.144 118.308 68.993 118.236 68.8256C118.165 68.6583 118.128 68.4782 118.128 68.2962V61.6605C117.505 61.357 117.004 60.8514 116.705 60.2264C116.407 59.6013 116.33 58.8937 116.485 58.2189C116.641 57.5442 117.021 56.9421 117.563 56.511C118.105 56.0799 118.778 55.8452 119.47 55.8452C120.163 55.8452 120.835 56.0799 121.377 56.511C121.92 56.9421 122.3 57.5442 122.455 58.2189C122.611 58.8937 122.534 59.6013 122.235 60.2264C121.937 60.8514 121.436 61.357 120.813 61.6605V61.6639ZM125.994 49.6942H112.942V45.0918C112.942 43.3622 113.629 41.7034 114.853 40.4803C116.076 39.2573 117.735 38.5702 119.465 38.5702C121.195 38.5702 122.855 39.2573 124.078 40.4803C125.301 41.7034 125.989 43.3622 125.989 45.0918L125.994 49.6942Z" fill="#82DB35"/>
<path opacity="0.1" d="M186.805 40.915H173.173V44.1325H186.805V40.915Z" fill="#5A5773"/>
<path d="M191.445 138.414C191.355 137.963 191.202 137.527 190.989 137.119L188.947 134.07H188.958C188.958 134.07 188.637 132.539 188.958 131.787C189.28 131.034 187.811 129.185 187.811 129.185C187.811 129.185 187.633 128.721 188.099 128.149C188.565 127.577 187.811 125.903 187.811 125.903C187.811 125.903 187.454 122.406 187.418 121.872C187.382 121.338 187.095 118.377 187.095 118.377L186.414 112.101L185.202 95.4657L185.18 95.1543C185.33 95.0812 185.41 95.0352 185.41 95.0352L185.168 85.8372L185.378 85.6483C187.205 83.9945 191.421 80.1663 191.379 80.0829C191.336 79.9995 190.868 73.6906 190.814 72.1116C190.767 70.9895 190.521 69.8846 190.089 68.8482C189.983 68.639 189.678 67.2591 189.552 66.6755C189.518 66.5155 189.496 66.4152 189.496 66.4152C189.496 66.4152 188.261 64.0604 188.368 62.9901C188.475 61.9199 188.69 61.1185 186.055 60.7442C186.055 60.7442 183.843 60.4141 182.525 59.5141C181.746 58.9749 180.895 58.5488 179.996 58.2482C179.996 58.2482 179.258 56.887 178.744 57.3481C178.526 56.8624 178.363 56.354 178.259 55.8321L178.243 55.7369C179.219 55.0567 179.921 54.0521 180.224 52.9023C180.241 52.8376 180.255 52.7712 180.27 52.7066C180.321 52.7239 180.375 52.7336 180.429 52.7355C180.876 52.7355 181.152 52.237 181.57 52.0788C181.741 52.0124 181.95 52.0022 182.081 51.8678C182.124 51.816 182.156 51.7559 182.176 51.6913C182.195 51.6266 182.201 51.5588 182.193 51.4917C182.198 51.4453 182.198 51.3986 182.193 51.3522C182.194 51.3358 182.194 51.3193 182.193 51.3029V51.3199C182.079 50.7006 181.599 50.151 181.652 49.5215C181.703 48.9294 182.224 48.4087 182.181 47.8319C182.181 47.7863 182.177 47.7408 182.17 47.6958V47.7162C182.106 47.491 181.989 47.2845 181.829 47.1139C181.646 46.8644 181.406 46.6625 181.128 46.5252C180.891 46.4214 180.617 46.3976 180.396 46.2734C179.746 45.9195 179.748 44.9973 179.361 44.3678C179.196 44.105 178.961 43.893 178.683 43.7552C178.404 43.6174 178.093 43.5591 177.784 43.5868C177.3 43.6345 176.863 43.8914 176.385 43.9747C175.731 44.0904 175.066 43.8778 174.446 43.6345C173.827 43.3912 173.199 43.124 172.533 43.124C171.868 43.124 171.148 43.4643 170.947 44.0921C170.84 44.4324 170.893 44.7982 170.811 45.1436C170.665 45.7528 170.13 46.1883 169.577 46.4912C169.237 46.6801 168.832 46.8961 168.726 47.2534C168.726 47.2432 168.726 47.2347 168.726 47.2262C168.719 47.2547 168.713 47.2837 168.709 47.313C168.706 47.3509 168.706 47.3891 168.709 47.427C168.709 47.672 168.839 47.9051 168.925 48.1382C169.087 48.5817 169.083 49.0686 168.915 49.5096C168.789 49.8328 168.575 50.117 168.452 50.4386C168.394 50.5883 168.357 50.7451 168.34 50.9048V50.8775C168.336 50.9501 168.336 51.0228 168.34 51.0953C168.338 51.3438 168.396 51.589 168.51 51.8099C168.588 51.9624 168.696 52.0978 168.827 52.2079C168.959 52.3181 169.11 52.4009 169.274 52.4514C169.615 52.5296 169.827 52.1962 170.186 52.2812C170.251 52.2967 170.314 52.3166 170.375 52.3408C170.387 52.4173 170.399 52.4939 170.413 52.5688C170.63 53.7139 171.24 54.7472 172.139 55.4902C172.139 55.531 172.152 55.5718 172.157 55.6144C172.266 56.2927 172.313 56.9795 172.299 57.6663C172.299 57.6663 171.762 56.8819 171.027 58.3962C171.027 58.3962 169.109 59.5022 168.447 59.6281C167.785 59.754 165.435 60.5724 165.435 60.5724C165.08 60.8287 164.654 60.9662 164.216 60.9654C163.483 60.9654 162.873 62.5699 162.962 63.4427C163.05 64.3156 162.909 64.9587 162.227 64.9944C161.544 65.0302 161.917 66.4135 161.922 66.4373L161.859 66.735C161.726 67.3441 161.437 68.6509 161.335 68.855C160.902 69.8915 160.656 70.9963 160.608 72.1184C160.555 73.6974 160.098 79.9825 160.045 80.0897C160.009 80.1595 162.897 82.7984 164.928 84.6428L165.222 84.9082L164.288 93.6332C164.315 93.9694 164.415 94.2956 164.581 94.5894C164.746 94.8832 164.974 95.1375 165.248 95.3347C165.248 95.4368 165.248 95.5406 165.237 95.6478C165.197 96.6686 165.115 97.9039 164.951 98.2272C164.665 98.7988 164.737 101.865 164.737 101.865C164.737 101.865 164.449 108.106 164.092 108.785C163.735 109.464 163.661 110.888 163.769 111.167C163.876 111.446 163.409 118.941 163.409 118.941L163.052 122.294C163.052 122.294 163.159 125.503 162.836 125.575C162.513 125.646 162.334 127.858 162.334 127.858C162.334 127.858 161.189 129.427 161.689 129.997C162.189 130.567 161.616 130.818 161.563 130.96C161.51 131.101 160.47 131.64 161.223 133.634C161.229 133.654 161.237 133.673 161.246 133.692C160.542 134.67 158.309 137.827 158.445 138.306C158.546 138.612 158.759 138.867 159.041 139.021C159.567 139.336 160.469 139.482 161.903 139.021C164.286 138.254 164.116 137.701 164.116 137.701C164.128 137.442 164.239 137.198 164.426 137.019C164.613 136.84 164.861 136.739 165.12 136.738C166.105 136.666 166.841 135.758 166.841 135.758L166.725 135.327L166.567 134.732C166.585 134.562 166.706 134.264 167.247 134.099C168.073 133.849 167.857 132.28 167.857 132.28C167.857 132.28 167.785 130.64 168.142 130.425C168.5 130.211 168.359 127.501 168.359 127.501C168.359 127.501 168.753 125.539 169.325 124.218C169.897 122.898 170.581 115.054 170.581 115.054C170.581 115.054 171.046 111.202 171.477 110.096C171.907 108.991 172.302 105.889 172.302 105.889C172.302 105.889 174.955 100.752 174.989 99.6104C174.989 99.6104 175.33 98.5402 175.67 99.7176C176.01 100.895 176.967 103.713 176.967 103.713L177.898 107.172L179.009 112.342L179.727 116.695C179.727 116.695 179.618 118.335 179.898 118.907C180.177 119.478 180.578 120.795 180.364 121.045C180.149 121.295 180.793 122.473 180.973 122.721C181.154 122.97 180.973 128.249 180.973 128.249C180.973 128.249 181.797 132.743 182.98 133.524C183.062 133.578 183.15 133.624 183.242 133.66C183.225 134.146 183.208 134.798 183.23 135.138C183.227 135.214 183.24 135.29 183.267 135.361C183.375 135.504 184.593 136.467 184.845 136.467C185.097 136.467 185.99 137.092 186.028 137.395C186.065 137.697 188.647 138.98 189.013 139.018C189.379 139.055 191.152 139.373 191.396 138.875C191.456 138.729 191.473 138.569 191.445 138.414ZM185.102 74.1465L185.286 74.3048C185.286 74.3048 185.475 75.7765 185.609 76.2172C185.744 76.6579 185.582 77.5154 185.582 77.5154C185.594 77.8355 185.658 78.1514 185.771 78.4512C185.931 78.7728 185.447 79.4721 185.447 79.4721H185.017L184.882 73.9628L185.102 74.1465ZM172.299 57.6969V57.6646C172.295 57.6748 172.293 57.6867 172.293 57.6969H172.299ZM165.687 78.9055C165.62 78.763 165.611 78.6006 165.659 78.4512C165.698 78.3704 165.728 78.2861 165.75 78.1994C165.802 77.9759 165.836 77.7481 165.848 77.5188C165.849 77.516 165.849 77.5131 165.848 77.5103C165.833 77.4286 165.695 76.6392 165.823 76.2206C165.95 75.8021 166.144 74.3082 166.144 74.3082L166.267 74.2044L166.551 73.9577C166.551 73.9577 166.551 73.8658 166.572 73.7144C166.631 75.0075 166.679 76.4367 166.602 76.5082C166.459 76.6494 165.939 78.0395 166.064 78.0939C166.105 78.1126 166.049 78.669 165.954 79.4176C165.847 79.2569 165.757 79.0852 165.687 78.9055Z" fill="url(#paint1_linear)"/>
<path d="M179.404 59.0576V61.1742L175.061 63.3572C175.061 63.3572 170.748 60.7489 171.812 59.711C172.493 59.0542 172.362 57.2507 172.178 56.0103C172.071 55.2889 171.947 54.7598 171.947 54.7598C171.947 54.7598 179.694 52.5479 178.523 54.2272C178.131 54.7887 178.101 55.5152 178.232 56.2349C178.497 57.6624 179.404 59.0576 179.404 59.0576Z" fill="#C37098"/>
<path d="M167.506 79.755L166.946 86.6493C166.946 86.6493 166.107 85.8887 165.021 84.8985C163.008 83.0626 160.149 80.4373 160.183 80.3675C160.235 80.2603 160.693 74.0058 160.743 72.4337C160.789 71.3177 161.032 70.2188 161.461 69.1873C161.563 68.9831 161.851 67.6832 161.971 67.0758C162.012 66.8869 162.038 66.7644 162.038 66.7644L162.977 66.3867C162.977 66.3867 166.892 70.7526 166.892 70.8326C166.892 70.9126 166.624 74.2661 166.624 74.2661L166.347 74.5077L166.226 74.6115C166.226 74.6115 166.039 76.0765 165.906 76.5154C165.773 76.9544 165.916 77.7167 165.932 77.7983C165.919 78.0276 165.887 78.2553 165.835 78.4789C165.812 78.5649 165.782 78.6487 165.744 78.729C165.697 78.878 165.706 79.0395 165.772 79.1816C165.847 79.3789 165.946 79.5667 166.064 79.7414L167.506 79.755Z" fill="#3F3D56"/>
<path d="M191.229 80.3693C191.27 80.4526 187.095 84.2622 185.286 85.9075L184.466 86.651L183.911 79.7567H185.349C185.349 79.7567 185.829 79.0642 185.669 78.7444C185.558 78.4461 185.495 78.1319 185.484 77.8137C185.484 77.8137 185.642 76.963 185.509 76.5223C185.376 76.0816 185.189 74.6184 185.189 74.6184L185.007 74.4618L184.791 74.273C184.791 74.273 184.524 70.9194 184.524 70.8394C184.524 70.7595 188.438 66.3936 188.438 66.3936L189.371 66.7662C189.371 66.7662 189.391 66.8666 189.425 67.0265C189.551 67.6067 189.852 68.9798 189.956 69.189C190.385 70.2205 190.628 71.3195 190.674 72.4354C190.719 74.0075 191.175 80.2621 191.229 80.3693Z" fill="#3F3D56"/>
<path d="M191.246 138.888C190.996 139.384 189.24 139.058 188.877 139.031C188.515 139.003 185.955 137.715 185.919 137.414C185.883 137.113 184.997 136.492 184.748 136.492C184.5 136.492 183.293 135.532 183.186 135.391C183.159 135.321 183.147 135.245 183.15 135.17C183.113 134.586 183.186 133.084 183.186 133.084L188.334 133.368L190.836 137.13C191.047 137.536 191.199 137.97 191.289 138.418C191.319 138.575 191.304 138.738 191.246 138.888Z" fill="#3F3D56"/>
<path opacity="0.1" d="M191.246 138.888C190.996 139.384 189.24 139.058 188.877 139.031C188.515 139.003 185.955 137.715 185.919 137.414C185.883 137.113 184.997 136.492 184.748 136.492C184.5 136.492 183.293 135.532 183.186 135.391C183.159 135.321 183.147 135.245 183.15 135.17C183.113 134.586 183.186 133.084 183.186 133.084L188.334 133.368L190.836 137.13C191.047 137.536 191.199 137.97 191.289 138.418C191.319 138.575 191.304 138.738 191.246 138.888Z" fill="black"/>
<path opacity="0.1" d="M191.246 138.889C190.996 139.385 189.239 139.059 188.877 139.031C188.514 139.004 185.955 137.716 185.919 137.415C185.883 137.114 184.996 136.493 184.748 136.493C184.499 136.493 183.293 135.533 183.186 135.392C183.158 135.322 183.146 135.246 183.15 135.171L184.818 136.226C184.818 136.226 185.883 136.906 186.167 137.31C186.451 137.713 188.691 138.552 188.877 138.569C189.015 138.582 190.485 138.3 191.288 138.419C191.319 138.576 191.304 138.739 191.246 138.889Z" fill="black"/>
<path d="M166.909 135.783C166.909 135.783 166.181 136.688 165.207 136.758C164.95 136.759 164.704 136.86 164.519 137.038C164.334 137.216 164.225 137.459 164.213 137.715C164.213 137.715 164.383 138.267 162.03 139.031C160.609 139.488 159.715 139.344 159.194 139.031C158.915 138.876 158.704 138.622 158.604 138.319C158.444 137.753 161.586 133.44 161.586 133.44L164.445 133.27L166.487 134.192L166.8 135.361L166.909 135.783Z" fill="#3F3D56"/>
<path opacity="0.1" d="M166.909 135.783C166.909 135.783 166.181 136.688 165.207 136.758C164.95 136.759 164.704 136.86 164.519 137.038C164.334 137.216 164.225 137.459 164.213 137.715C164.213 137.715 164.383 138.267 162.03 139.031C160.609 139.488 159.715 139.344 159.194 139.031C158.915 138.876 158.704 138.622 158.604 138.319C158.444 137.753 161.586 133.44 161.586 133.44L164.445 133.27L166.487 134.192L166.8 135.361L166.909 135.783Z" fill="black"/>
<path opacity="0.1" d="M166.909 135.783C166.909 135.783 166.18 136.688 165.207 136.758C164.95 136.76 164.703 136.861 164.518 137.039C164.334 137.217 164.224 137.46 164.213 137.716C164.213 137.716 164.383 138.267 162.029 139.031C160.608 139.489 159.715 139.344 159.194 139.031C160.533 138.892 163.493 138.046 163.789 137.754C164.145 137.398 164.589 136.421 164.89 136.404C165.099 136.391 166.163 135.751 166.801 135.354L166.909 135.783Z" fill="black"/>
<path d="M188.831 131.824C188.511 132.57 188.831 134.096 188.831 134.096C188.831 134.096 184.065 134.344 182.901 133.563C181.737 132.782 180.913 128.309 180.913 128.309C180.913 128.309 181.084 123.057 180.913 122.808C180.743 122.56 180.097 121.389 180.309 121.141C180.522 120.892 180.139 119.579 179.848 119.011C179.557 118.442 179.678 116.811 179.678 116.811L178.966 112.479L177.867 107.334L176.933 103.89C176.933 103.89 175.975 101.086 175.649 99.9153C175.324 98.7447 174.981 99.8081 174.981 99.8081C174.947 100.945 172.319 106.056 172.319 106.056C172.319 106.056 171.927 109.144 171.502 110.243C171.076 111.342 170.614 115.177 170.614 115.177C170.614 115.177 169.933 122.985 169.371 124.299C168.81 125.612 168.423 127.564 168.423 127.564C168.423 127.564 168.566 130.262 168.21 130.475C167.855 130.688 167.913 132.321 167.913 132.321C167.913 132.321 168.125 133.881 167.308 134.131C166.492 134.382 166.628 134.912 166.628 134.912C166.628 134.912 162.084 135.658 161.338 133.669C160.593 131.68 161.622 131.151 161.679 131.008C161.735 130.865 162.301 130.618 161.804 130.048C161.308 129.478 162.443 127.919 162.443 127.919C162.443 127.919 162.621 125.719 162.94 125.648C163.258 125.577 163.154 122.383 163.154 122.383L163.508 119.046C163.508 119.046 163.971 111.592 163.864 111.308C163.757 111.024 163.828 109.607 164.184 108.926C164.539 108.246 164.822 102.039 164.822 102.039C164.822 102.039 164.75 98.988 165.035 98.4197C165.205 98.0982 165.276 96.8612 165.317 95.8522C165.348 95.0815 165.355 94.4435 165.355 94.4435L169.33 92.953L174.436 91.3213L178.732 93.38L185.017 94.5864L185.095 95.6702L186.295 112.227L186.976 118.473C186.976 118.473 187.26 121.418 187.296 121.951C187.331 122.483 187.685 125.963 187.685 125.963C187.685 125.963 188.431 127.63 187.97 128.198C187.508 128.767 187.685 129.219 187.685 129.219C187.685 129.219 189.151 131.079 188.831 131.824Z" fill="#3F3D56"/>
<path opacity="0.1" d="M178.526 54.2268C178.135 54.7883 178.104 55.5148 178.235 56.2345C177.341 56.8653 176.264 57.1848 175.17 57.1439C174.076 57.1031 173.026 56.704 172.181 56.0082C172.074 55.2868 171.95 54.7576 171.95 54.7576C171.95 54.7576 179.697 52.5492 178.526 54.2268Z" fill="black"/>
<path d="M180.337 52.0566C180.337 53.0426 180.045 54.0064 179.497 54.8262C178.949 55.6461 178.17 56.285 177.259 56.6624C176.348 57.0397 175.345 57.1384 174.378 56.946C173.411 56.7537 172.522 56.2789 171.825 55.5817C171.127 54.8845 170.652 53.9962 170.46 53.0292C170.268 52.0621 170.366 51.0598 170.744 50.1488C171.121 49.2379 171.76 48.4593 172.58 47.9115C173.4 47.3637 174.364 47.0713 175.351 47.0713C176.006 47.0682 176.656 47.195 177.263 47.4444C177.869 47.6938 178.42 48.0609 178.884 48.5245C179.347 48.988 179.715 49.5388 179.964 50.1451C180.214 50.7514 180.34 51.401 180.337 52.0566Z" fill="#C37098"/>
<path opacity="0.1" d="M181.375 60.3392L179.741 89.4255L170.866 87.5624L169.108 75.9024L170.849 60.249L172.159 60.4175L174.47 60.7118L176.759 60.853L179.241 60.5774L181.375 60.3392Z" fill="black"/>
<path d="M181.375 60.5533L179.741 89.6396L170.866 87.7765L169.108 76.1165L170.849 60.4648L172.159 60.6316L174.47 60.9259L176.759 61.0672L179.241 60.7915L181.375 60.5533Z" fill="#82DB35"/>
<path d="M174.079 61.333L177.275 61.4402L176.377 62.6976C176.377 62.6976 176.44 65.2378 176.867 65.9661C177.294 66.6943 177.168 77.9443 177.168 77.9443L176.317 79.5589L174.862 77.7486L174.881 62.8949L174.079 61.333Z" fill="#3F3D56"/>
<path opacity="0.1" d="M174.079 61.333L177.275 61.4402L176.377 62.6976C176.377 62.6976 176.44 65.2378 176.867 65.9661C177.294 66.6943 177.168 77.9443 177.168 77.9443L176.317 79.5589L174.862 77.7486L174.881 62.8949L174.079 61.333Z" fill="black"/>
<path opacity="0.1" d="M179.084 58.0322L176.103 61.333L177.806 63.1077L180.63 60.3564L179.084 58.0322Z" fill="black"/>
<path d="M179.084 57.8193L176.103 61.1201L177.806 62.8948L180.63 60.1435L179.084 57.8193Z" fill="#82DB35"/>
<path opacity="0.1" d="M174.843 61.1749L171.824 58.1582L171.54 59.7371L172.925 63.1979L174.843 61.1749Z" fill="black"/>
<path d="M174.948 60.961L171.931 57.9443L171.647 59.5233L173.032 62.984L174.948 60.961Z" fill="#82DB35"/>
<path opacity="0.1" d="M185.11 95.6761C183.661 96.3663 182.109 96.8152 180.515 97.0049C177.586 97.3775 175.67 93.6513 175.67 93.6513L174.552 95.1061C174.196 96.651 168.782 97.0406 166.582 96.4553C166.125 96.3426 165.696 96.1395 165.319 95.8581C165.35 95.0874 165.357 94.4493 165.357 94.4493L169.332 92.9588L174.438 91.3271L178.733 93.3859L185.019 94.5922L185.11 95.6761Z" fill="black"/>
<path opacity="0.1" d="M181.375 60.555L179.743 89.6396L170.866 87.7765L169.104 76.1182L170.843 60.4648L172.154 60.635C172.12 61.2052 172.056 61.7732 171.962 62.3364C171.749 63.3318 173.063 70.3945 173.063 70.3945C173.063 70.3945 175.559 78.3147 176.683 77.1731C177.806 76.0314 179.406 70.0032 179.406 70.0032C180.49 67.7675 179.424 61.4959 179.344 61.37C179.289 61.1846 179.254 60.9933 179.242 60.8L181.375 60.555Z" fill="black"/>
<path opacity="0.1" d="M185.21 83.0608L185.285 85.9107L184.464 86.6543L183.911 79.7549H185.136L185.21 83.0608Z" fill="black"/>
<path opacity="0.1" d="M165.934 77.8037C165.921 78.0332 165.889 78.2612 165.837 78.4851C165.837 78.4221 165.837 78.3863 165.823 78.3812C165.772 78.3676 165.833 78.1069 165.934 77.8037Z" fill="black"/>
<path opacity="0.1" d="M167.507 79.7551L166.947 86.6494C166.947 86.6494 166.108 85.8888 165.022 84.8986L165.151 83.6769C165.151 83.6769 165.609 80.6756 165.776 79.1953C165.851 79.3926 165.95 79.5804 166.068 79.7551H167.507Z" fill="black"/>
<path d="M172.321 58.0505C172.321 58.0505 171.79 57.2695 171.061 58.777C171.061 58.777 169.162 59.8779 168.508 60.0021C167.855 60.1263 165.53 60.943 165.53 60.943C165.179 61.1967 164.757 61.3331 164.323 61.3326C163.595 61.3326 162.991 62.9303 163.079 63.7997C163.168 64.6691 163.027 65.3089 162.353 65.3446C161.679 65.3804 162.05 66.7806 162.05 66.7806L166.541 71.9275C166.541 71.9275 166.825 76.6661 166.684 76.809C166.543 76.9519 166.027 78.3403 166.151 78.3879C166.275 78.4356 165.47 83.676 165.47 83.676L164.388 93.8456C164.388 93.8456 164.388 95.5471 166.59 96.1341C168.793 96.7211 174.21 96.3331 174.559 94.7882L175.677 93.3318C175.677 93.3318 177.593 97.0596 180.522 96.687C183.451 96.3144 185.316 95.2493 185.316 95.2493L184.996 83.0618L184.784 74.2772L189.357 66.7653C189.357 66.7653 188.131 64.4224 188.238 63.3624C188.346 62.3024 188.557 61.4993 185.948 61.1267C185.948 61.1267 183.747 60.7984 182.45 59.9017C181.68 59.3667 180.837 58.9429 179.949 58.6426C179.949 58.6426 179.217 57.2815 178.708 57.7477C178.708 57.7477 179.218 59.672 179.176 59.9595C179.133 60.2471 179.256 61.547 179.336 61.6814C179.416 61.8158 180.481 68.0788 179.397 70.3146C179.397 70.3146 177.806 76.3428 176.674 77.4845C175.542 78.6261 173.054 70.7059 173.054 70.7059C173.054 70.7059 171.74 63.6415 171.953 62.6478C172.166 61.6542 172.321 58.0505 172.321 58.0505Z" fill="#3F3D56"/>
<path d="M176.119 81.3168C176.551 81.3168 176.901 80.9672 176.901 80.5358C176.901 80.1045 176.551 79.7549 176.119 79.7549C175.688 79.7549 175.338 80.1045 175.338 80.5358C175.338 80.9672 175.688 81.3168 176.119 81.3168Z" fill="#3F3D56"/>
<path d="M176.119 84.9994C176.551 84.9994 176.901 84.6498 176.901 84.2185C176.901 83.7872 176.551 83.4375 176.119 83.4375C175.688 83.4375 175.338 83.7872 175.338 84.2185C175.338 84.6498 175.688 84.9994 176.119 84.9994Z" fill="#3F3D56"/>
<path opacity="0.1" d="M176.119 81.3168C176.551 81.3168 176.901 80.9672 176.901 80.5358C176.901 80.1045 176.551 79.7549 176.119 79.7549C175.688 79.7549 175.338 80.1045 175.338 80.5358C175.338 80.9672 175.688 81.3168 176.119 81.3168Z" fill="black"/>
<path opacity="0.1" d="M176.119 84.9994C176.551 84.9994 176.901 84.6498 176.901 84.2185C176.901 83.7872 176.551 83.4375 176.119 83.4375C175.688 83.4375 175.338 83.7872 175.338 84.2185C175.338 84.6498 175.688 84.9994 176.119 84.9994Z" fill="black"/>
<path opacity="0.1" d="M183.14 130.758C183.14 130.758 186.347 131.006 186.665 131.255C186.983 131.503 183.14 130.758 183.14 130.758Z" fill="black" stroke="#82DB35" stroke-miterlimit="10"/>
<path opacity="0.1" d="M164.05 128.24C164.05 128.24 164.73 129.091 164.441 129.482C164.152 129.874 164.05 128.24 164.05 128.24Z" fill="black" stroke="#82DB35" stroke-miterlimit="10"/>
<path opacity="0.1" d="M164.866 131.308C164.866 131.308 166.109 130.491 166.606 131.034C167.103 131.577 164.866 131.308 164.866 131.308Z" fill="black" stroke="#82DB35" stroke-miterlimit="10"/>
<path opacity="0.1" d="M180.337 52.0558C180.338 52.4811 180.284 52.9049 180.177 53.3165C180.072 53.2687 179.984 53.1899 179.925 53.0908C179.866 52.9917 179.839 52.8769 179.847 52.7619C179.869 52.5594 180.003 52.3739 179.974 52.1732C179.932 51.8635 179.557 51.7376 179.36 51.4926C179.116 51.1965 179.169 50.7661 179.19 50.3832C179.21 50.0004 179.113 49.5325 178.754 49.4015C178.647 49.3624 178.529 49.359 178.425 49.3147C178.143 49.1956 178.056 48.8451 177.867 48.6035C177.489 48.1169 176.739 48.1271 176.165 48.3585C175.916 48.4782 175.66 48.5849 175.399 48.6784C175.269 48.7244 175.13 48.7429 174.992 48.7326C174.854 48.7224 174.72 48.6836 174.598 48.6188C174.486 48.5474 174.395 48.4487 174.28 48.3772C173.895 48.1458 173.391 48.3772 173.058 48.675C172.724 48.9727 172.457 49.3726 172.037 49.5546C171.848 49.6397 171.614 49.6908 171.526 49.8745C171.482 49.9746 171.463 50.0838 171.471 50.1927C171.471 50.8545 171.55 51.5266 171.412 52.1749C171.323 52.5917 171.031 53.0647 170.607 53.0137C170.554 53.0059 170.502 52.9928 170.452 52.9746C170.324 52.2931 170.34 51.5925 170.499 50.9176C170.658 50.2427 170.955 49.6083 171.373 49.0549C171.791 48.5014 172.319 48.0412 172.925 47.7035C173.53 47.3659 174.2 47.1582 174.89 47.0938C175.581 47.0294 176.277 47.1097 176.935 47.3296C177.592 47.5494 178.197 47.904 178.71 48.3706C179.223 48.8372 179.633 49.4057 179.913 50.0396C180.194 50.6736 180.339 51.3591 180.34 52.0524L180.337 52.0558Z" fill="black"/>
<path d="M170.229 52.6919C170.357 52.7208 170.478 52.7872 170.609 52.8042C171.032 52.8552 171.325 52.3822 171.414 51.9654C171.551 51.3171 171.48 50.645 171.475 49.9832C171.465 49.8744 171.483 49.7649 171.528 49.665C171.625 49.4812 171.858 49.4302 172.038 49.3451C172.45 49.1614 172.719 48.77 173.059 48.4655C173.4 48.1609 173.895 47.9363 174.28 48.1677C174.394 48.2358 174.486 48.3379 174.598 48.4093C174.721 48.4732 174.855 48.5114 174.993 48.5216C175.131 48.5319 175.27 48.5139 175.401 48.4689C175.665 48.3906 175.912 48.2528 176.165 48.149C176.734 47.9176 177.486 47.9091 177.867 48.3923C178.056 48.6356 178.143 48.9844 178.425 49.1035C178.529 49.1478 178.647 49.1529 178.754 49.192C179.113 49.3264 179.205 49.7909 179.19 50.1737C179.174 50.5566 179.123 50.987 179.36 51.2831C179.557 51.5247 179.932 51.6506 179.974 51.9637C180.001 52.1644 179.869 52.3516 179.846 52.5524C179.841 52.627 179.851 52.7019 179.875 52.7727C179.899 52.8435 179.937 52.9088 179.987 52.9648C180.036 53.0208 180.097 53.0665 180.164 53.0991C180.231 53.1317 180.304 53.1506 180.379 53.1547C180.822 53.1547 181.096 52.6595 181.509 52.5013C181.679 52.435 181.885 52.4247 182.02 52.2903C182.07 52.2257 182.105 52.151 182.123 52.0714C182.142 51.9918 182.142 51.9091 182.125 51.8292C182.042 51.1776 181.519 50.611 181.576 49.9576C181.628 49.3315 182.209 48.7853 182.086 48.1694C182.024 47.9423 181.907 47.7338 181.746 47.562C181.563 47.3148 181.326 47.1138 181.051 46.975C180.815 46.8729 180.541 46.8491 180.325 46.7249C179.681 46.3727 179.683 45.4539 179.304 44.8278C179.141 44.569 178.91 44.3601 178.636 44.2238C178.362 44.0876 178.056 44.0293 177.751 44.0553C177.273 44.103 176.839 44.3565 176.366 44.4415C175.718 44.5572 175.061 44.3446 174.446 44.1013C173.832 43.8579 173.211 43.5908 172.552 43.5908C171.894 43.5908 171.18 43.9311 170.98 44.5538C170.874 44.8941 170.927 45.2582 170.845 45.6002C170.702 46.2076 170.164 46.6398 169.623 46.941C169.25 47.1486 168.803 47.3868 168.759 47.8104C168.73 48.0792 168.878 48.3209 168.971 48.5812C169.131 49.0216 169.127 49.5044 168.961 49.9423C168.837 50.2639 168.629 50.5463 168.503 50.8662C168.414 51.0833 168.372 51.3169 168.379 51.5515C168.387 51.7862 168.444 52.0165 168.548 52.2274C168.627 52.3811 168.737 52.517 168.871 52.6267C169.004 52.7364 169.159 52.8177 169.325 52.8654C169.661 52.9454 169.872 52.6136 170.229 52.6919Z" fill="#3F3D56"/>
<g opacity="0.1">
<path opacity="0.1" d="M171.413 51.5949C171.325 52.0117 171.03 52.4847 170.607 52.4337C170.476 52.4167 170.356 52.3503 170.227 52.3214C169.871 52.2431 169.66 52.5766 169.325 52.4915C169.159 52.4438 169.004 52.3626 168.87 52.2529C168.735 52.1432 168.625 52.0072 168.546 51.8535C168.457 51.6803 168.403 51.4912 168.387 51.2971C168.353 51.5984 168.408 51.903 168.546 52.1733C168.625 52.3271 168.735 52.463 168.87 52.5727C169.004 52.6824 169.159 52.7637 169.325 52.8114C169.665 52.8897 169.871 52.5562 170.227 52.6412C170.352 52.6846 170.478 52.7215 170.607 52.7518C171.03 52.8046 171.325 52.3316 171.413 51.9147C171.483 51.5464 171.51 51.1714 171.495 50.7969C171.493 51.0649 171.466 51.3321 171.413 51.5949Z" fill="black"/>
<path opacity="0.1" d="M169.082 49.0323C169.104 48.7535 169.066 48.4733 168.97 48.2105C168.893 48.0358 168.828 47.8562 168.774 47.6729C168.767 47.7014 168.761 47.7304 168.757 47.7596C168.728 48.0267 168.878 48.2701 168.97 48.5304C169.029 48.692 169.067 48.8608 169.082 49.0323Z" fill="black"/>
<path opacity="0.1" d="M182.084 48.1367C182.004 48.6199 181.613 49.0742 181.573 49.583C181.564 49.67 181.564 49.7579 181.573 49.845C181.659 49.2512 182.184 48.7254 182.084 48.1367Z" fill="black"/>
<path opacity="0.1" d="M182.113 51.7256C182.099 51.7967 182.065 51.8626 182.016 51.9162C181.89 52.0506 181.676 52.0608 181.505 52.1271C181.092 52.2854 180.825 52.7856 180.375 52.7805C180.26 52.774 180.15 52.7328 180.059 52.6623C179.968 52.5918 179.9 52.4954 179.865 52.3857C179.854 52.4226 179.846 52.4601 179.841 52.498C179.836 52.5725 179.846 52.6472 179.87 52.7178C179.894 52.7884 179.932 52.8536 179.982 52.9094C180.032 52.9652 180.092 53.0107 180.159 53.0432C180.226 53.0757 180.299 53.0945 180.374 53.0987C180.818 53.0987 181.09 52.6035 181.504 52.447C181.674 52.3806 181.881 52.3704 182.014 52.236C182.064 52.1714 182.1 52.0967 182.118 52.0171C182.136 51.9375 182.137 51.8548 182.12 51.7749C182.118 51.7545 182.115 51.7409 182.113 51.7256Z" fill="black"/>
<path opacity="0.1" d="M179.979 51.5853C179.936 51.2757 179.562 51.1498 179.364 50.9048C179.243 50.7438 179.178 50.548 179.177 50.3467C179.164 50.6631 179.169 50.9864 179.364 51.2246C179.56 51.4628 179.858 51.5649 179.953 51.8099C179.977 51.7377 179.986 51.6612 179.979 51.5853Z" fill="black"/>
<path opacity="0.1" d="M179.188 49.8033C179.201 49.4205 179.109 48.9526 178.75 48.8216C178.645 48.7824 178.527 48.7773 178.423 48.7348C178.141 48.6157 178.052 48.2652 177.865 48.0236C177.486 47.5387 176.735 47.5472 176.163 47.7786C175.908 47.8824 175.665 48.0202 175.399 48.0985C175.269 48.1445 175.13 48.1629 174.992 48.1527C174.854 48.1424 174.72 48.1037 174.598 48.0389C174.485 47.9675 174.393 47.8688 174.279 47.7973C173.893 47.5659 173.389 47.7973 173.057 48.0951C172.725 48.3928 172.457 48.791 172.036 48.9747C171.846 49.0598 171.614 49.1108 171.515 49.2946C171.472 49.3947 171.454 49.504 171.463 49.6128C171.463 49.6791 171.463 49.7455 171.463 49.8118C171.465 49.7433 171.482 49.676 171.512 49.6145C171.611 49.4307 171.842 49.3797 172.033 49.2946C172.445 49.1108 172.714 48.7195 173.054 48.4149C173.394 48.1104 173.89 47.8858 174.276 48.1172C174.39 48.1852 174.482 48.2873 174.594 48.3571C174.716 48.4223 174.851 48.4612 174.989 48.4715C175.127 48.4817 175.265 48.4631 175.396 48.4166C175.656 48.3241 175.911 48.2179 176.16 48.0985C176.73 47.8671 177.481 47.8569 177.862 48.3418C178.049 48.5834 178.138 48.9339 178.42 49.053C178.524 49.0972 178.641 49.1023 178.747 49.1415C179.038 49.2503 179.154 49.577 179.179 49.9003L179.188 49.8033Z" fill="black"/>
</g>
<g opacity="0.1">
<path opacity="0.1" d="M170.806 51.5848C170.816 51.3024 170.917 51.0308 171.094 50.8108C171.272 50.5908 171.516 50.4343 171.79 50.3648C172.549 50.1794 173.345 50.2154 174.084 50.4686C175.699 51.0029 173.88 52.9255 173.88 52.9255C173.88 52.9255 172.67 54.1165 171.541 53.2845C171.208 53.0327 170.975 52.671 170.883 52.2637C170.827 52.0417 170.802 51.8135 170.806 51.5848Z" fill="black"/>
<path opacity="0.1" d="M179.685 51.5836C179.675 51.3009 179.574 51.0291 179.396 50.8091C179.219 50.5891 178.974 50.4328 178.7 50.3636C177.941 50.1785 177.146 50.2145 176.407 50.4674C174.792 51.0017 176.612 52.9243 176.612 52.9243C176.612 52.9243 177.82 54.1153 178.95 53.2833C179.283 53.0315 179.517 52.6698 179.609 52.2624C179.664 52.0405 179.69 51.8122 179.685 51.5836Z" fill="black"/>
<path opacity="0.1" d="M173.78 50.3112V50.3912H176.729V50.2959L173.78 50.3112Z" fill="black"/>
<path opacity="0.1" d="M174.721 51.1638H174.815V50.8933C174.815 50.8933 175.114 50.6602 175.611 50.8933V51.1349H175.781V50.9767H175.698C175.698 50.9767 175.732 50.6483 175.177 50.701C175.177 50.701 174.731 50.6585 174.741 50.9409H174.639L174.721 51.1638Z" fill="black"/>
</g>
<path d="M170.806 51.4735C170.816 51.1911 170.917 50.9195 171.095 50.6995C171.272 50.4795 171.516 50.323 171.79 50.2536C172.549 50.0694 173.345 50.1054 174.084 50.3574C175.699 50.8933 173.88 52.8143 173.88 52.8143C173.88 52.8143 172.67 54.0053 171.541 53.1733C171.207 52.9221 170.974 52.5601 170.883 52.1524C170.827 51.9305 170.802 51.7022 170.806 51.4735Z" fill="#82DB35"/>
<path d="M179.685 51.4736C179.675 51.1909 179.573 50.9192 179.396 50.6991C179.218 50.4791 178.973 50.3228 178.699 50.2536C177.941 50.0693 177.145 50.1054 176.407 50.3574C174.792 50.8934 176.611 52.8143 176.611 52.8143C176.611 52.8143 177.819 54.0053 178.949 53.1733C179.283 52.9221 179.517 52.5602 179.608 52.1524C179.663 51.9305 179.689 51.7022 179.685 51.4736Z" fill="#82DB35"/>
<path d="M173.779 50.2048V50.2864H176.729V50.1895L173.779 50.2048Z" fill="#82DB35"/>
<path d="M174.721 51.0571H174.814V50.7865C174.814 50.7865 175.114 50.5551 175.611 50.7865V51.0298H175.781V50.8699H175.698C175.698 50.8699 175.732 50.5432 175.177 50.5943C175.177 50.5943 174.731 50.5534 174.741 50.8342H174.639L174.721 51.0571Z" fill="#82DB35"/>
<path d="M39.7788 78.5059H38.8121V100.267H39.7788V78.5059Z" fill="#535461"/>
<path d="M45.8545 100.203L45.7932 101.183L45.7082 102.566L45.6724 103.143L45.5873 104.528L45.5499 105.105L45.4648 106.488L44.4896 122.221C44.448 122.898 44.1496 123.534 43.6553 123.999C43.1611 124.464 42.5081 124.722 41.8295 124.722H36.7613C36.0829 124.722 35.4301 124.463 34.9361 123.999C34.4421 123.534 34.1441 122.898 34.1029 122.221L33.1226 106.488L33.0375 105.105L33.0018 104.528L32.9184 103.139L32.8826 102.563L32.7975 101.179L32.7363 100.199C32.7246 100.011 32.7517 99.8228 32.8157 99.6455C32.8798 99.4683 32.9794 99.306 33.1086 99.1688C33.2377 99.0315 33.3937 98.9221 33.5667 98.8474C33.7398 98.7727 33.9263 98.7342 34.1148 98.7344H44.4777C44.6664 98.7342 44.8532 98.7728 45.0264 98.8477C45.1996 98.9226 45.3556 99.0323 45.4847 99.17C45.6137 99.3077 45.7132 99.4703 45.7768 99.648C45.8404 99.8256 45.8669 100.014 45.8545 100.203Z" fill="#3F3D56"/>
<path d="M45.7928 101.182L45.7077 102.565H32.8805L32.7954 101.182H45.7928Z" fill="#9D9CB5"/>
<path d="M45.6724 103.142L45.5873 104.527H33.0034L32.9166 103.142H45.6724Z" fill="#9D9CB5"/>
<path d="M45.5497 105.104L45.4646 106.487H33.1259L33.0391 105.104H45.5497Z" fill="#9D9CB5"/>
<path d="M31.32 86.6621C36.9499 90.7337 39.2951 97.1039 39.2951 97.1039C39.2951 97.1039 32.5096 96.8708 26.8712 92.7992C21.2328 88.7276 18.8961 82.3574 18.8961 82.3574C18.8961 82.3574 25.6884 82.5905 31.32 86.6621Z" fill="#82DB35"/>
<path d="M18.9047 82.3574C18.9047 82.3574 25.9471 86.2708 28.2056 89.5035C30.464 92.7363 39.2951 97.1056 39.2951 97.1056" stroke="#535461" stroke-width="2" stroke-miterlimit="10"/>
<path d="M34.9541 78.4669C38.0175 80.6788 39.2956 84.1498 39.2956 84.1498C39.2956 84.1498 35.6025 84.0238 32.5374 81.8069C29.4722 79.5899 28.1975 76.124 28.1975 76.124C28.1975 76.124 31.8906 76.2414 34.9541 78.4669Z" fill="#82DB35"/>
<path d="M28.1975 76.1172C28.1975 76.1172 32.0302 78.244 33.259 80.005C34.4877 81.766 39.2956 84.1429 39.2956 84.1429" stroke="#535461" stroke-width="2" stroke-miterlimit="10"/>
<path d="M43.7489 83.9675C40.2276 87.8349 39.4839 92.8882 39.4839 92.8882C39.4839 92.8882 44.4466 91.6716 47.9662 87.8042C51.4857 83.9368 52.2311 78.8818 52.2311 78.8818C52.2311 78.8818 47.2684 80.0984 43.7489 83.9675Z" fill="#82DB35"/>
<path d="M52.2311 78.8818C52.2311 78.8818 47.6462 82.8462 46.4804 85.5787C45.3146 88.3113 39.4839 92.895 39.4839 92.895" stroke="#535461" stroke-width="2" stroke-miterlimit="10"/>
<defs>
<linearGradient id="paint0_linear" x1="119.455" y1="110.645" x2="119.455" y2="19.0508" gradientUnits="userSpaceOnUse">
<stop stop-color="#808080" stop-opacity="0.25"/>
<stop offset="0.54" stop-color="#808080" stop-opacity="0.12"/>
<stop offset="1" stop-color="#808080" stop-opacity="0.1"/>
</linearGradient>
<linearGradient id="paint1_linear" x1="31339.5" y1="82254.3" x2="31339.5" y2="27870.1" gradientUnits="userSpaceOnUse">
<stop stop-color="#808080" stop-opacity="0.25"/>
<stop offset="0.54" stop-color="#808080" stop-opacity="0.12"/>
<stop offset="1" stop-color="#808080" stop-opacity="0.1"/>
</linearGradient>
</defs>
</svg>
